<?xml version="1.0" standalone="no"?>
<!DOCTYPE svg PUBLIC "-//W3C//DTD SVG 1.1//EN" "http://www.w3.org/Graphics/SVG/1.1/DTD/svg11.dtd" >
<svg xmlns="http://www.w3.org/2000/svg" width="100%" height="100%">
<metadata>
Created by FontXChange 20100429 at Mon Dec 29 17:49:40 2014
 By Hugh Francis
(c)2003-09 Paul Barnes and Commercial Type.
</metadata>
<defs>
<font id="AustinCyr-Semibold" horiz-adv-x="266" >
  <font-face 
    font-family="Austin Cyr Semibold"
    font-weight="600"
    font-stretch="normal"
    units-per-em="1000"
    panose-1="2 2 7 3 7 7 2 3 4 3"
    ascent="750"
    descent="-250"
    x-height="433"
    cap-height="657"
    bbox="-226 -323 1059 1031"
    underline-thickness="50"
    underline-position="-50"
    stemh="16"
    stemv="122"
    unicode-range="U+0020-FB06"
  />
<missing-glyph horiz-adv-x="188" 
 />
    <glyph glyph-name="f_b" unicode="fb" horiz-adv-x="773" 
d="M546 420c-20 0 -46 -9 -63 -36c-16 -27 -26 -64 -26 -123v-110c0 -49 8 -85 20 -109c14 -28 41 -39 62 -39c59 0 83 94 83 210c0 138 -25 207 -76 207zM456 617v-258h3c16 54 63 83 119 83c86 0 174 -56 174 -226c0 -161 -101 -225 -205 -225c-48 0 -106 20 -133 64h-3
l-76 -57h-4c2 29 3 62 3 87v485c-10 14 -18 35 -19 55c-1 32 -5 53 -44 53c-32 0 -54 -8 -67 -30c-12 -19 -19 -49 -19 -89v-126h101v-18h-101v-284c0 -28 2 -68 6 -84c6 -25 14 -32 31 -38c9 -3 24 -4 32 -5v-4h-250v4c7 1 15 2 23 5c16 7 25 11 31 37c5 18 5 57 5 85v284
h-57v18h56v59c0 83 31 130 70 158c32 23 88 40 139 40c39 0 78 -9 99 -19l81 15c4 1 6 -2 6 -7c0 -15 -1 -36 -1 -62z" />
    <glyph glyph-name="f_f" unicode="ff" horiz-adv-x="551" 
d="M650 605c0 -29 -19 -54 -54 -54c-30 0 -49 17 -56 50c-4 15 -7 29 -12 40c-4 10 -8 21 -12 27c-2 7 -6 10 -11 10c-18 0 -29 -9 -38 -30c-8 -18 -11 -49 -11 -89v-126h94v-18h-94v-284c0 -28 3 -68 6 -84c6 -25 15 -32 31 -38c9 -3 24 -4 32 -5v-4h-250v4c7 1 15 2 23 5
c16 7 25 11 32 37c4 18 4 57 4 85v284h-149v-284c0 -28 2 -68 6 -84c6 -25 14 -32 31 -38c9 -3 24 -4 32 -5v-4h-250v4c7 1 15 2 23 5c16 7 25 11 31 37c5 18 5 57 5 85v284h-57v18h56v59c0 71 29 125 57 151c31 29 70 47 128 47c47 0 82 -5 107 -18c15 -8 26 -18 34 -31
c1 2 4 5 5 6c23 23 59 43 117 43c47 0 82 -8 104 -22c27 -16 36 -39 36 -63zM246 678c-22 0 -37 -13 -48 -36c-9 -18 -13 -47 -13 -83v-126h149v59c0 22 2 42 6 59c-32 2 -49 22 -57 54c-3 10 -5 21 -6 31c-1 13 -3 23 -6 29c-4 9 -11 13 -25 13z" />
    <glyph glyph-name="f_f_b" unicode="ffb" horiz-adv-x="1044" 
d="M817 420c-19 0 -45 -9 -62 -36s-27 -64 -27 -123v-110c0 -49 8 -85 21 -109c14 -28 41 -39 62 -39c59 0 82 94 82 210c0 138 -24 207 -76 207zM247 690c52 0 112 -6 141 -51c32 33 98 51 150 51c39 0 83 -9 103 -19l81 15c4 1 6 -2 6 -7c0 -15 -1 -36 -1 -62v-258h3
c17 54 64 83 120 83c86 0 173 -56 173 -226c0 -161 -101 -225 -204 -225c-48 0 -107 20 -134 64h-2l-77 -57h-4c3 29 3 62 3 87v485c-10 14 -17 35 -18 55c-1 32 -10 53 -49 53c-19 0 -51 -9 -63 -30c-9 -19 -19 -45 -19 -89v-126h94v-18h-94v-284c0 -28 3 -68 6 -84
c6 -25 15 -32 31 -38c9 -3 24 -4 32 -5v-4h-250v4c7 1 15 2 23 5c16 7 25 11 32 37c4 18 4 57 4 85v284h-149v-284c0 -28 2 -68 6 -84c6 -25 14 -32 31 -38c9 -3 24 -4 32 -5v-4h-250v4c7 1 15 2 23 5c16 7 25 11 31 37c5 18 5 57 5 85v284h-57v18h56v59c0 71 29 125 57 151
c31 29 70 47 128 47zM246 678c-22 0 -37 -13 -48 -36c-9 -18 -13 -47 -13 -83v-126h149v59c0 22 2 42 6 59c-32 2 -49 22 -57 54c-3 10 -5 21 -6 31c-1 13 -3 23 -6 29c-4 9 -11 13 -25 13z" />
    <glyph glyph-name="f_f_h" unicode="ffh" horiz-adv-x="1071" 
d="M247 690c50 0 112 -6 141 -51c32 33 98 51 150 51c39 0 83 -9 103 -19l80 15c4 1 6 -2 6 -7c0 -15 -1 -36 -1 -62v-282h3c11 40 32 64 53 79c24 18 63 28 89 28c46 0 84 -13 103 -38c15 -19 26 -51 26 -99v-174c0 -28 1 -66 5 -84c7 -26 15 -31 31 -38c8 -3 16 -4 23 -5
v-4h-236v4c8 1 15 2 23 5c17 8 24 16 29 42c3 18 3 44 3 69v201c0 38 -3 57 -14 70c-10 13 -24 19 -43 19c-37 0 -83 -41 -90 -116c-2 -24 -4 -48 -4 -78v-96c0 -25 -1 -52 3 -70c5 -25 13 -33 30 -41c8 -3 14 -4 22 -5v-4h-236v4c8 1 17 2 24 5c13 5 24 11 30 37
c4 17 5 57 5 85v439c-10 14 -17 35 -18 55c-1 32 -10 53 -49 53c-19 0 -51 -9 -63 -30c-9 -19 -19 -45 -19 -89v-126h94v-18h-94v-284c0 -28 3 -68 6 -84c6 -25 15 -32 31 -38c9 -3 24 -4 32 -5v-4h-250v4c7 1 15 2 23 5c16 7 25 11 32 37c4 18 4 57 4 85v284h-149v-284
c0 -28 2 -68 6 -84c6 -25 14 -32 31 -38c9 -3 24 -4 32 -5v-4h-250v4c7 1 15 2 23 5c16 7 25 11 31 37c5 18 5 57 5 85v284h-57v18h56v59c0 71 29 125 57 151c31 29 70 47 128 47zM246 678c-22 0 -37 -13 -48 -36c-9 -18 -13 -47 -13 -83v-126h149v59c0 22 2 42 6 59
c-32 2 -49 22 -57 54c-3 10 -5 21 -6 31c-1 13 -3 23 -6 29c-4 9 -11 13 -25 13z" />
    <glyph glyph-name="f_f_i" unicode="ffi" horiz-adv-x="799" 
d="M786 0h-239v4c7 1 15 1 23 4c15 7 24 13 30 39c4 14 5 45 5 69v181c0 18 0 60 -2 76c-3 19 -9 26 -18 33c-6 5 -17 9 -30 9h-99v-284c0 -28 3 -68 6 -84c6 -25 15 -32 31 -38c9 -3 24 -4 32 -5v-4h-250v4c7 1 15 2 23 5c16 7 25 11 32 37c4 18 4 57 4 85v284h-149v-284
c0 -28 2 -68 6 -84c6 -25 14 -32 31 -38c9 -3 24 -4 32 -5v-4h-250v4c7 1 15 2 23 5c16 7 25 11 31 37c5 18 5 57 5 85v284h-57v18h56v59c0 78 33 136 67 162c30 23 65 38 118 38c42 0 80 -5 107 -18c15 -8 26 -18 34 -31c6 6 13 11 21 15c32 19 85 34 136 34
c88 0 174 -21 174 -90c0 -29 -22 -53 -56 -53c-30 0 -49 17 -56 49c-7 21 -10 44 -15 60s-26 22 -47 22c-31 0 -57 -8 -70 -30c-11 -19 -19 -49 -19 -89v-128h266c5 0 7 -2 7 -7c0 -15 -1 -36 -1 -62v-248c0 -24 0 -56 4 -70c6 -26 15 -31 31 -38c8 -3 16 -3 23 -4v-4z
M246 680c-19 0 -32 -9 -44 -28c-11 -19 -17 -51 -17 -91v-128h149v59c0 23 2 44 6 61c-32 2 -49 22 -57 54c-3 10 -5 21 -6 31c-1 13 -3 23 -6 29c-4 9 -11 13 -25 13z" />
    <glyph glyph-name="f_f_j" unicode="ffj" horiz-adv-x="771" 
d="M246 680c-19 0 -32 -9 -44 -28c-11 -19 -17 -51 -17 -91v-128h149v59c0 23 2 44 6 61c-32 2 -49 22 -57 54c-3 10 -5 21 -6 31c-1 13 -3 23 -6 29c-4 9 -11 13 -25 13zM605 -72v369c0 18 0 60 -2 76c-3 19 -9 26 -18 33c-6 5 -17 9 -30 9h-99v-284c0 -28 3 -68 6 -84
c6 -25 15 -32 31 -38c9 -3 24 -4 32 -5v-4h-250v4c7 1 15 2 23 5c16 7 25 11 32 37c4 18 4 57 4 85v284h-149v-284c0 -28 2 -68 6 -84c6 -25 14 -32 31 -38c9 -3 24 -4 32 -5v-4h-250v4c7 1 15 2 23 5c16 7 25 11 31 37c5 18 5 57 5 85v284h-57v18h56v59c0 78 33 136 67 162
c30 23 65 38 118 38c41 0 78 -5 105 -18c16 -7 28 -18 36 -31c6 6 13 11 21 15c32 19 85 34 136 34c88 0 174 -21 174 -90c0 -29 -22 -53 -56 -53c-30 0 -49 17 -56 49c-7 21 -10 44 -15 60s-26 22 -47 22c-31 0 -57 -8 -70 -30c-11 -19 -19 -49 -19 -89v-128h267
c4 0 6 -2 6 -7c0 -15 -1 -36 -1 -63v-363c0 -102 -36 -146 -65 -173c-17 -17 -62 -40 -120 -40c-34 0 -69 9 -92 24c-26 17 -43 47 -43 80c0 36 27 65 64 65c38 0 60 -26 60 -61c0 -8 -4 -23 -7 -34c-3 -10 -5 -22 -5 -27c0 -18 6 -33 26 -33c23 0 35 11 44 29
c8 17 15 59 15 98z" />
    <glyph glyph-name="f_f_k" unicode="ffk" horiz-adv-x="1027" 
d="M247 678c-22 0 -38 -13 -48 -36c-9 -18 -13 -47 -13 -83v-126h148v59c0 22 3 42 7 59c-33 2 -49 22 -57 54c-3 10 -5 21 -6 31c-1 13 -3 23 -6 29c-5 9 -11 13 -25 13zM605 131v439c-10 14 -16 35 -18 55c0 32 -9 53 -49 53c-18 0 -51 -9 -62 -30
c-10 -19 -19 -45 -19 -89v-126h93v-18h-93v-284c0 -28 2 -68 6 -84c6 -25 14 -32 31 -38c9 -3 24 -4 31 -5v-4h-249v4c7 1 15 2 23 5c16 7 25 11 31 37c5 18 5 57 5 85v284h-149v-284c0 -28 2 -68 5 -84c7 -25 15 -32 32 -38c8 -3 24 -4 31 -5v-4h-250v4c7 1 16 2 24 5
c16 7 25 11 31 37c5 18 4 57 4 85v284h-56v18h56v59c0 71 29 125 57 151c31 29 69 47 128 47c45 0 111 -4 140 -51c33 33 98 51 151 51c39 0 82 -9 103 -19l81 15c4 1 6 -2 6 -7c0 -15 -1 -37 -1 -64v-409l108 110c27 28 44 55 44 74c0 12 -1 22 -15 29c-8 4 -26 8 -35 9v5
h186v-5c-17 -3 -39 -11 -62 -25c-11 -7 -57 -45 -85 -75l-30 -31c58 -16 91 -67 104 -133c9 -46 28 -116 46 -137c12 -13 24 -19 49 -22v-5h-162c-21 13 -41 69 -50 124c-11 64 -24 91 -55 107l-43 -44v-56c0 -28 0 -66 4 -84c6 -26 15 -31 31 -38c8 -3 19 -3 26 -4v-5h-242
v5c7 1 15 1 23 4c16 7 24 12 31 38c4 18 4 56 4 84z" />
    <glyph glyph-name="f_f_l" unicode="ffl" horiz-adv-x="803" 
d="M789 0h-242v5c7 1 15 1 23 4c16 7 24 12 31 38c5 18 5 55 5 84v439c-10 14 -17 35 -18 55c-1 32 -6 53 -45 53c-31 0 -53 -8 -67 -30c-11 -19 -18 -49 -18 -89v-126h107v-18h-107v-284c0 -28 2 -68 5 -84c7 -25 15 -32 32 -38c8 -3 23 -4 31 -5v-4h-251v4c7 1 15 2 23 5
c16 7 25 11 32 37c4 18 4 57 4 85v284h-149v-284c0 -28 2 -68 6 -84c6 -25 14 -32 31 -38c9 -3 24 -4 32 -5v-4h-250v4c7 1 15 2 23 5c16 7 25 11 31 37c5 18 5 57 5 85v284h-57v18h56v59c0 78 33 134 67 160c30 23 65 38 118 38c40 0 78 -4 106 -16c17 -7 29 -17 38 -30
c3 3 7 6 12 9c29 20 88 37 140 37c40 0 81 -7 99 -19l82 15c4 1 6 -2 6 -7c0 -15 -1 -36 -1 -62v-486c0 -29 0 -66 5 -84c6 -26 15 -31 31 -38c8 -3 17 -3 24 -4v-5zM246 678c-19 0 -32 -9 -42 -27c-13 -19 -19 -51 -19 -92v-126h149v59c0 23 2 42 6 59c-32 2 -49 22 -57 54
c-3 10 -5 21 -6 31c-1 13 -3 23 -6 29c-4 9 -11 13 -25 13z" />
    <glyph glyph-name="f_h" unicode="fh" horiz-adv-x="804" 
d="M271 690c39 0 82 -9 103 -19l80 15c4 1 6 -2 6 -7c0 -15 -1 -36 -1 -62v-282h2c12 40 33 64 54 79c23 18 62 28 88 28c46 0 85 -13 103 -38c15 -19 27 -51 27 -99v-174c0 -28 0 -66 5 -84c6 -26 15 -31 30 -38c8 -3 17 -4 24 -5v-4h-236v4c8 1 15 2 22 5
c18 8 24 16 29 42c3 18 4 44 4 69v201c0 38 -3 57 -14 70s-24 19 -44 19c-36 0 -83 -41 -89 -116c-2 -24 -5 -48 -5 -78v-96c0 -25 0 -52 4 -70c4 -25 12 -33 29 -41c8 -3 15 -4 22 -5v-4h-235v4c7 1 16 2 23 5c14 5 25 11 31 37c4 17 5 57 5 85v439c-10 14 -18 35 -19 55
c-1 32 -9 53 -48 53c-28 0 -53 -11 -67 -33c-12 -19 -19 -46 -19 -86v-126h101v-18h-101v-284c0 -28 2 -68 6 -84c6 -25 14 -32 31 -38c9 -3 24 -4 32 -5v-4h-250v4c7 1 15 2 23 5c16 7 25 11 31 37c5 18 5 57 5 85v284h-57v18h56v59c0 83 31 130 70 158c32 23 88 40 139 40
z" />
    <glyph glyph-name="f_i" unicode="fi" horiz-adv-x="528" 
d="M514 0h-238v4c7 1 15 1 22 4c16 7 25 13 31 39c4 14 5 45 5 69v194c0 29 -1 52 -2 63c-3 19 -9 27 -18 33c-6 5 -17 9 -30 9h-99v-284c0 -28 2 -68 6 -84c6 -25 14 -32 31 -38c9 -3 24 -4 32 -5v-4h-250v4c7 1 15 2 23 5c16 7 25 11 31 37c5 18 5 57 5 85v284h-57v18h56
v57c0 83 31 132 70 160c32 24 79 42 143 42c88 0 172 -21 172 -90c0 -29 -21 -53 -55 -53c-30 0 -50 18 -57 49c-6 21 -9 44 -14 60s-26 22 -47 22c-32 0 -57 -8 -70 -30c-12 -19 -19 -49 -19 -89v-128h266c4 0 6 -2 6 -7c0 -15 -1 -36 -1 -62v-248c0 -24 1 -56 5 -70
c6 -26 15 -31 31 -38c8 -3 15 -3 22 -4v-4z" />
    <glyph glyph-name="f_j" unicode="fj" horiz-adv-x="499" 
d="M457 426c0 -9 -1 -55 -1 -70v-356c0 -102 -36 -146 -65 -173c-17 -17 -62 -40 -120 -40c-34 0 -68 9 -92 24c-26 17 -42 47 -42 80c0 36 26 65 63 65c39 0 61 -26 61 -61c0 -8 -4 -23 -8 -34c-2 -10 -5 -22 -5 -27c0 -18 6 -33 26 -33c23 0 36 11 44 29c9 17 15 59 15 98
v373c0 43 0 67 -1 72c-3 19 -9 27 -18 33c-6 5 -16 9 -29 9h-100v-284c0 -28 2 -68 6 -84c6 -25 14 -32 31 -38c9 -3 24 -4 32 -5v-4h-250v4c7 1 15 2 23 5c16 7 25 11 31 37c5 18 5 57 5 85v284h-57v18h56v57c0 83 31 132 70 160c32 24 79 42 143 42c88 0 172 -21 172 -90
c0 -29 -21 -53 -55 -53c-30 0 -50 18 -57 49c-6 21 -9 44 -14 60s-26 22 -47 22c-32 0 -57 -8 -70 -30c-12 -19 -19 -49 -19 -89v-128h265c5 0 7 -2 7 -7z" />
    <glyph glyph-name="f_k" unicode="fk" horiz-adv-x="759" 
d="M271 678c-28 0 -53 -11 -67 -33c-12 -19 -19 -46 -19 -86v-126h101v-18h-101v-284c0 -28 2 -68 6 -84c6 -25 14 -32 31 -38c9 -3 24 -4 32 -5v-4h-250v4c7 1 15 2 23 5c16 7 25 11 31 37c5 18 5 57 5 85v284h-57v18h56v59c0 83 31 130 70 158c32 23 88 40 139 40
c39 0 82 -9 103 -19l81 15c4 1 6 -2 6 -7c0 -15 -1 -36 -1 -62v-411l108 110c27 28 44 55 44 74c0 12 -1 22 -15 29c-8 4 -26 8 -35 9v5h186v-5c-17 -3 -39 -11 -62 -25c-11 -7 -57 -45 -85 -75l-31 -31c59 -16 92 -67 105 -133c9 -46 28 -116 46 -137c12 -13 24 -19 49 -22
v-5h-163c-20 13 -41 69 -49 124c-11 64 -25 91 -56 107l-42 -44v-56c0 -28 0 -66 4 -84c6 -26 15 -31 31 -38c8 -3 19 -3 26 -4v-5h-242v5c7 1 15 1 23 4c16 7 24 12 31 38c4 18 4 56 4 84v439c-10 14 -17 35 -18 55c-1 32 -9 53 -48 53z" />
    <glyph glyph-name="f_l" unicode="fl" horiz-adv-x="531" 
d="M517 0h-242v5c7 1 15 1 23 4c15 7 24 12 31 38c4 18 5 55 5 84v439c-10 14 -18 35 -19 55c-1 32 -5 53 -44 53c-32 0 -54 -8 -67 -30c-12 -19 -19 -49 -19 -89v-126h107v-18h-107v-284c0 -28 2 -68 6 -84c6 -25 14 -32 31 -38c9 -3 24 -4 32 -5v-4h-250v4c7 1 15 2 23 5
c16 7 25 11 31 37c5 18 5 57 5 85v284h-57v18h56v59c0 83 31 130 70 158c32 23 88 40 139 40c39 0 80 -7 99 -19l82 15c4 1 6 -2 6 -7c0 -15 -1 -36 -1 -62v-486c0 -29 0 -66 4 -84c7 -26 16 -31 32 -38c7 -3 17 -3 24 -4v-5z" />
    <glyph glyph-name=".notdef" horiz-adv-x="188" 
 />
    <glyph glyph-name="Eth" unicode="&#xd0;" horiz-adv-x="697" 
d="M27 325v22h76v118c0 54 -4 106 -12 134c-9 29 -25 41 -47 47c-10 3 -22 5 -30 5v6h352c62 0 111 -16 153 -39c89 -51 148 -152 148 -289s-56 -241 -146 -290c-42 -22 -91 -39 -148 -39h-359v6c8 0 20 2 30 5c22 6 38 18 47 47c8 28 12 80 12 134v133h-76zM347 641h-24
c-21 0 -43 -5 -57 -20c-28 -24 -25 -77 -25 -114v-160h134v-22h-134v-163c0 -39 -3 -96 28 -123c13 -15 38 -23 60 -23h17c35 0 77 12 107 51c40 49 67 125 67 262c0 138 -26 211 -66 260c-31 39 -69 52 -107 52z" />
    <glyph glyph-name="eth" unicode="&#xf0;" horiz-adv-x="479" 
d="M140 505v17l92 50c-31 44 -67 81 -100 112h8c44 -18 95 -46 143 -85l92 50v-17l-80 -43c89 -77 164 -190 164 -342c0 -179 -111 -256 -220 -256c-108 0 -218 84 -218 226s111 225 218 225c27 0 47 -8 70 -34c-15 58 -39 108 -68 151zM328 217c0 94 -12 164 -36 193
c-15 18 -35 22 -53 22c-17 0 -37 -6 -51 -21c-26 -29 -37 -100 -37 -194c0 -95 12 -165 36 -194c15 -18 35 -23 52 -23c18 0 37 4 53 23c23 29 36 99 36 194z" />
    <glyph glyph-name="Lslash" unicode="&#x141;" horiz-adv-x="565" 
d="M15 229v19l91 36v140c0 72 -3 142 -15 178c-8 24 -25 38 -46 44c-9 3 -20 5 -30 6v5h321v-5c-9 -1 -21 -3 -30 -6c-21 -6 -39 -20 -47 -44c-12 -36 -15 -106 -15 -178v-85l199 79v-19l-199 -79v-132c0 -56 3 -91 9 -112c6 -20 16 -35 29 -44c17 -12 40 -16 59 -16h23
c46 0 74 21 97 48c38 46 75 120 91 161h6l-15 -225h-529v6c9 1 23 2 32 5c21 7 38 21 45 44c13 37 15 107 15 178v32z" />
    <glyph glyph-name="lslash" unicode="&#x142;" 
d="M6 294v19l63 30v217c0 18 0 61 -3 77c-3 19 -8 27 -17 33c-10 8 -23 8 -33 9v5h171c4 0 6 -2 6 -7c0 -15 -1 -36 -1 -63v-211l65 32v-19l-65 -32v-253c0 -29 0 -66 4 -84c7 -26 16 -31 32 -38c7 -3 17 -3 24 -4v-5h-241v5c7 1 14 1 22 4c16 7 24 12 31 38c5 18 5 55 5 84
v193z" />
    <glyph glyph-name="Scaron" unicode="&#x160;" horiz-adv-x="511" 
d="M119 837l6 4l129 -65l130 65l5 -4c-34 -43 -89 -112 -106 -129h-57c-17 17 -72 86 -107 129zM486 190c0 -133 -110 -204 -229 -204c-70 0 -143 36 -169 66h-4l-30 -47h-6l-6 226h8c32 -114 97 -229 208 -229c81 0 110 57 110 118c0 68 -34 103 -140 146
c-91 37 -190 93 -190 221c0 105 95 183 209 183c59 0 114 -24 137 -55h2l31 40h8l12 -201h-7c-11 47 -37 105 -63 137c-26 35 -61 63 -118 63c-59 0 -95 -37 -95 -94c0 -93 66 -114 138 -147c103 -48 194 -80 194 -223z" />
    <glyph glyph-name="scaron" unicode="&#x161;" horiz-adv-x="370" 
d="M44 662l5 4l129 -99l131 99l5 -4c-31 -47 -92 -148 -107 -169h-57c-14 22 -75 123 -106 169zM350 134c0 -91 -74 -143 -159 -143c-36 0 -88 15 -117 40h-4l-35 -30h-4l-4 159h6c15 -87 89 -159 158 -159c48 0 65 17 65 68c0 41 -41 66 -101 92c-58 25 -127 63 -127 150
c0 71 60 131 152 131c35 0 84 -15 101 -35h3l26 27h3l4 -129h-6c-7 35 -25 68 -49 91c-23 22 -53 35 -81 35c-35 0 -61 -20 -61 -62c0 -45 39 -68 96 -90c73 -29 134 -63 134 -145z" />
    <glyph glyph-name="Yacute" unicode="&#xdd;" horiz-adv-x="653" 
d="M650 652c-63 -10 -98 -45 -149 -149l-101 -210v-101c0 -54 2 -105 12 -134c7 -29 25 -41 45 -47c12 -3 23 -5 30 -6v-5h-313v5c8 1 19 3 31 6c20 6 38 18 46 47c9 29 11 80 11 134v73l-143 280c-34 68 -61 100 -115 107v5h321v-5c-10 -1 -27 -4 -37 -8
c-41 -16 -33 -61 -11 -109l107 -218h5l92 190c20 40 30 69 30 94c0 22 -10 36 -28 43c-10 4 -29 7 -39 8v5h206v-5zM273 703l-3 5c61 51 98 84 132 111c29 23 40 28 62 28c25 0 45 -20 45 -49c0 -30 -28 -46 -62 -56c-38 -11 -87 -21 -174 -39z" />
    <glyph glyph-name="yacute" unicode="&#xfd;" horiz-adv-x="417" 
d="M448 429c-25 -3 -44 -16 -56 -36c-8 -13 -16 -33 -30 -72l-152 -400c-13 -36 -32 -71 -52 -97c-21 -26 -50 -37 -83 -37c-44 0 -79 24 -79 72c0 29 20 50 54 50c29 0 42 -13 54 -39c10 -20 13 -35 28 -35c17 0 41 33 62 89c5 11 16 40 16 40c2 4 3 16 -1 27l-118 307
c-16 43 -30 71 -38 85c-9 17 -18 28 -32 36c-9 6 -24 9 -33 10v4h254v-4c-9 -1 -21 -3 -29 -8c-10 -6 -16 -17 -16 -30c0 -18 6 -35 19 -71l62 -180h1l64 175c12 34 16 55 16 75c0 16 -8 26 -18 32c-9 5 -20 6 -29 7v4h136v-4zM378 625c0 -25 -16 -42 -43 -58
c-33 -21 -78 -42 -157 -83l-4 4c45 67 70 110 96 144c24 32 35 43 60 43c33 0 48 -19 48 -50z" />
    <glyph glyph-name="Thorn" unicode="&#xde;" horiz-adv-x="588" 
d="M239 515h95c150 0 239 -51 239 -169c0 -61 -32 -117 -79 -143c-38 -21 -100 -37 -200 -37c-18 0 -37 2 -55 5v-33c1 -28 5 -59 11 -80c9 -29 25 -41 45 -47c11 -4 20 -5 26 -6v-5h-307v5c8 1 19 2 30 6c21 5 38 18 47 47c8 29 10 80 10 134v273c0 54 -2 106 -10 135
c-9 28 -26 40 -47 46c-11 3 -22 6 -30 6v5h307v-5c-7 0 -16 -2 -26 -6c-20 -7 -36 -18 -45 -46c-9 -29 -11 -67 -11 -85zM425 345c0 97 -31 153 -111 153c-16 0 -34 -3 -46 -9c-15 -8 -21 -22 -25 -39c-3 -17 -4 -33 -4 -71v-189c18 -5 35 -8 54 -8c65 0 86 16 106 46
c19 29 26 84 26 117z" />
    <glyph glyph-name="thorn" unicode="&#xfe;" horiz-adv-x="496" 
d="M52 -83v682c0 12 -1 26 -2 34c-3 19 -11 29 -24 36c-9 6 -25 9 -34 10v5h177c4 0 7 -2 7 -8c0 -19 -3 -75 -3 -118v-198h4c19 51 70 82 116 82c101 0 181 -73 181 -226c0 -140 -81 -225 -192 -225c-47 0 -78 11 -105 35h-3v-109c0 -28 -1 -59 4 -80c6 -27 14 -32 35 -41
c8 -3 14 -3 21 -4v-5h-242v5c7 1 13 1 21 4c21 9 29 14 35 41c5 21 4 52 4 80zM344 220c0 160 -27 198 -78 198c-52 0 -92 -63 -92 -144v-121c0 -43 10 -92 28 -113s38 -33 65 -33c50 0 77 53 77 213z" />
    <glyph glyph-name="Zcaron" unicode="&#x17d;" horiz-adv-x="565" 
d="M165 837l6 4l129 -65l130 65l5 -4c-34 -43 -89 -112 -106 -129h-57c-17 17 -72 86 -107 129zM544 657v-5l-349 -629h60c91 0 133 18 176 53c60 49 83 91 114 141h8l-40 -217h-492v5l362 627h-82c-69 0 -128 -22 -161 -46c-35 -25 -70 -78 -103 -128h-7l38 199h476z" />
    <glyph glyph-name="zcaron" unicode="&#x17e;" horiz-adv-x="396" 
d="M69 662l5 4l129 -99l131 99l5 -4c-31 -47 -92 -148 -107 -169h-57c-14 22 -75 123 -106 169zM387 166l-33 -166h-340v4l213 413v4h-89c-26 0 -51 -25 -62 -42c0 0 -41 -57 -62 -101h-7l34 155h321v-7l-208 -411v-3h78c36 0 63 22 78 46l70 108h7z" />
    <glyph glyph-name="minus" unicode="&#x2212;" horiz-adv-x="455" 
d="M414 249h-373v24h373v-24z" />
    <glyph glyph-name="multiply" unicode="&#xd7;" horiz-adv-x="399" 
d="M357 401l-140 -146l139 -145l-17 -17l-140 145l-140 -146l-17 17l140 146l-140 146l17 16l140 -145l141 146z" />
    <glyph glyph-name="space" unicode=" " horiz-adv-x="188" 
 />
    <glyph glyph-name="exclam" unicode="!" horiz-adv-x="223" 
d="M190 593c0 -48 -20 -110 -36 -196c-20 -114 -34 -198 -37 -226h-12c-3 28 -17 110 -36 224c-17 87 -36 150 -36 198c0 54 33 76 78 76s79 -22 79 -76zM177 46c0 -34 -29 -63 -64 -63c-36 0 -63 29 -63 63c0 35 27 64 63 64c35 0 64 -29 64 -64z" />
    <glyph glyph-name="quotedbl" unicode="&#x22;" horiz-adv-x="324" 
d="M149 618c0 -21 -10 -61 -19 -94c-10 -33 -20 -74 -27 -98h-8l-27 98c-8 34 -19 73 -19 94c0 40 21 52 50 52c30 0 50 -12 50 -52zM275 618c0 -21 -10 -61 -19 -94c-10 -33 -19 -74 -27 -98h-7c-8 24 -19 64 -27 98c-9 34 -20 73 -20 94c0 40 21 52 51 52
c29 0 49 -12 49 -52z" />
    <glyph glyph-name="numbersign" unicode="#" horiz-adv-x="608" 
d="M591 432h-155l-36 -204h152v-21h-155l-36 -207h-19l36 207h-187l-35 -207h-20l36 207h-155v21h158l36 204h-155v22h159l35 201h19l-35 -201h186l36 201h19l-36 -201h152v-22zM417 432h-187l-35 -204h186z" />
    <glyph glyph-name="dollar" unicode="$" horiz-adv-x="489" 
d="M462 184c0 -118 -87 -195 -210 -200v-96h-18v96c-125 2 -200 62 -200 135c0 44 31 66 58 66c45 0 66 -30 66 -75c0 -5 -3 -23 -3 -29c0 -54 38 -78 79 -80v258c-23 11 -46 23 -68 36c-72 43 -119 92 -119 187c0 104 85 178 187 181v90h18v-90c122 -5 194 -62 194 -131
c0 -43 -31 -65 -56 -65c-45 0 -64 30 -64 73c0 6 2 23 2 29c0 54 -33 73 -76 77v-228c21 -11 42 -22 61 -33c96 -56 149 -90 149 -201zM234 428v218c-55 -2 -89 -45 -89 -94c0 -65 44 -98 89 -124zM356 113c0 63 -27 99 -104 138v-250c70 4 104 52 104 112z" />
    <glyph glyph-name="percent" unicode="%" horiz-adv-x="703" 
d="M537 316c81 0 145 -66 145 -165c0 -100 -64 -167 -145 -167s-146 67 -146 167s65 165 146 165zM514 657l-305 -673l-16 7l305 673zM312 496c0 -100 -64 -167 -145 -167s-146 67 -146 167s65 166 146 166s145 -67 145 -166zM588 151c0 117 -15 150 -51 150
s-51 -44 -51 -150c0 -107 14 -152 51 -152s51 34 51 152zM167 647c-36 0 -51 -45 -51 -151c0 -107 14 -152 51 -152s50 34 50 152c0 117 -14 151 -50 151z" />
    <glyph glyph-name="ampersand" unicode="&#x26;" horiz-adv-x="674" 
d="M671 59c-16 -31 -75 -74 -153 -74c-39 0 -62 9 -84 33c-13 5 -25 14 -38 28c-39 -35 -91 -60 -162 -60c-121 0 -201 78 -201 173c0 98 80 157 151 199c-11 15 -23 30 -34 46c-25 38 -40 83 -40 118c0 82 75 148 161 148c99 0 139 -46 138 -102c0 -68 -50 -113 -91 -146
c22 -27 46 -56 68 -87c26 -35 61 -92 91 -144c14 33 24 70 34 106c6 22 7 46 7 71c0 22 -5 36 -26 50c-12 8 -27 10 -43 12v6h205v-6c-14 -2 -31 -4 -46 -14s-28 -23 -39 -39c-8 -12 -20 -33 -37 -83c-9 -29 -22 -76 -43 -124c16 -31 30 -58 43 -78c22 -36 49 -52 72 -52
c25 0 56 14 63 24zM383 63c-9 12 -19 27 -28 43c-28 49 -68 113 -95 153l-55 72c-26 -34 -36 -75 -36 -144c0 -102 61 -160 129 -160c35 0 62 13 85 36zM359 566c0 53 -25 87 -69 87c-35 0 -65 -20 -65 -69c0 -44 34 -88 81 -148c34 30 53 65 53 130z" />
    <glyph glyph-name="quotesingle" unicode="'" horiz-adv-x="198" 
d="M149 618c0 -21 -10 -61 -19 -94c-10 -33 -20 -74 -27 -98h-8l-27 98c-8 34 -19 73 -19 94c0 40 21 52 50 52c30 0 50 -12 50 -52z" />
    <glyph glyph-name="parenleft" unicode="(" horiz-adv-x="262" 
d="M266 -103h-18c-98 68 -209 192 -209 391c0 200 111 325 209 393h18c-77 -84 -148 -217 -148 -393s71 -307 148 -391z" />
    <glyph glyph-name="parenright" unicode=")" horiz-adv-x="262" 
d="M14 681c98 -68 209 -193 209 -392s-111 -324 -209 -392h-18c77 84 148 216 148 392s-71 308 -148 392h18z" />
    <glyph glyph-name="asterisk" unicode="*" horiz-adv-x="397" 
d="M199 670c20 0 32 -12 32 -30c0 -27 -22 -91 -28 -142c31 40 61 101 80 120c13 13 30 13 45 -1c14 -15 14 -31 1 -45c-19 -19 -79 -49 -120 -80c51 7 115 28 142 28c18 0 29 -12 29 -32s-11 -32 -29 -32c-27 0 -92 22 -142 28c40 -32 101 -62 120 -81
c13 -12 13 -29 -1 -43c-15 -15 -32 -15 -45 -2c-19 19 -49 79 -80 119c6 -50 28 -114 28 -141c0 -18 -12 -30 -32 -30s-33 12 -33 30c0 27 22 91 28 142c-31 -41 -61 -101 -80 -120c-13 -13 -29 -13 -44 1c-14 15 -15 31 -2 44c20 19 80 49 121 81c-51 -6 -116 -28 -143 -28
c-17 0 -29 12 -29 32s12 32 29 32c27 0 92 -21 142 -28c-41 32 -100 61 -120 81c-13 13 -11 30 3 44c14 15 30 14 43 1c21 -21 48 -79 81 -120c-7 51 -29 115 -29 142c0 18 13 30 33 30z" />
    <glyph glyph-name="plus" unicode="+" horiz-adv-x="455" 
d="M414 249h-175v-174h-24v174h-174v24h174v175h24v-175h175v-24z" />
    <glyph glyph-name="comma" unicode="," horiz-adv-x="204" 
d="M169 39c0 -75 -54 -139 -134 -163l-4 11c50 16 80 53 80 80c0 9 -3 17 -7 20c-37 4 -65 28 -65 68c0 33 30 60 61 60c38 0 69 -23 69 -76z" />
    <glyph glyph-name="hyphen" unicode="-" horiz-adv-x="333" 
d="M273 225h-213v66h213v-66z" />
    <glyph glyph-name="period" unicode="." horiz-adv-x="200" 
d="M163 50c0 -38 -27 -65 -63 -65s-63 29 -63 65s28 65 63 65s63 -27 63 -65z" />
    <glyph glyph-name="slash" unicode="/" horiz-adv-x="295" 
d="M345 676l-372 -776l-23 10l372 777z" />
    <glyph glyph-name="zero" unicode="0" horiz-adv-x="606" 
d="M576 330c0 -205 -117 -344 -273 -344s-273 139 -273 344s119 340 273 340s273 -136 273 -340zM420 330c0 231 -34 323 -117 323s-117 -92 -117 -323s36 -327 117 -327c82 0 117 96 117 327z" />
    <glyph glyph-name="one" unicode="1" horiz-adv-x="347" 
d="M317 0h-286v5c10 0 30 3 35 5c21 8 28 14 34 41c5 21 5 52 5 80v404c0 18 -1 50 -3 66c-2 21 -8 27 -18 33c-9 6 -46 10 -55 11v5c23 1 93 6 136 10c25 2 63 5 72 5c5 0 7 -2 7 -7c0 -15 -2 -37 -2 -63v-464c0 -28 0 -59 5 -80c6 -27 13 -32 34 -41c8 -3 29 -4 36 -5v-5z
" />
    <glyph glyph-name="two" unicode="2" horiz-adv-x="574" 
d="M551 234l-59 -234h-462c8 7 71 74 80 83c83 85 243 260 243 426c0 109 -27 137 -90 137c-64 0 -138 -65 -138 -196c0 -45 16 -88 62 -88c43 0 67 26 82 69l10 -4c-15 -64 -60 -122 -134 -122s-117 52 -117 128c0 125 109 237 271 237c147 0 207 -74 207 -180
c0 -133 -116 -220 -195 -276l-129 -91l1 -2h217c41 0 79 18 97 39c21 25 38 52 46 74h8z" />
    <glyph glyph-name="three" unicode="3" horiz-adv-x="517" 
d="M485 201c0 -115 -86 -215 -273 -215c-130 0 -188 76 -188 139c0 44 25 71 64 71c43 0 67 -28 67 -68c0 -18 -4 -34 -8 -49c-1 -12 -1 -31 2 -41c5 -23 22 -34 44 -34c80 0 141 95 141 217c0 86 -40 119 -110 119c-12 0 -35 -5 -54 -16l-32 -19l-9 13l61 37
c68 40 110 107 110 193c0 74 -25 99 -83 99c-47 0 -85 -37 -85 -105c0 -45 25 -76 57 -76s47 5 63 32l8 -4c-19 -49 -51 -85 -111 -85c-65 0 -101 48 -101 102c0 96 102 159 199 159c130 0 191 -46 191 -130c0 -85 -84 -140 -198 -174v-3c129 -2 245 -56 245 -162z" />
    <glyph glyph-name="four" unicode="4" horiz-adv-x="542" 
d="M522 106h-5c-3 32 -20 67 -34 86c-12 15 -30 27 -86 27h-27v-88c0 -28 -1 -60 4 -81c6 -27 14 -32 35 -41c8 -3 28 -3 35 -4v-5h-286v5c10 0 30 2 35 4c21 8 29 14 35 41c5 21 4 53 4 81v89h-230v13l287 424h80c2 0 3 -2 3 -4c0 -15 -2 -36 -2 -62v-356h27
c56 0 74 12 86 27c14 19 31 55 34 87h5v-243zM232 235v308h-1l-208 -309z" />
    <glyph glyph-name="five" unicode="5" horiz-adv-x="472" 
d="M439 686l7 -1c-24 -119 -83 -183 -206 -183c-38 0 -73 6 -103 16l-39 -167l3 -1c28 38 79 65 139 65c134 0 203 -81 203 -189c0 -141 -102 -240 -267 -240c-126 0 -185 66 -185 134c0 44 30 70 64 70c47 0 66 -33 66 -74c0 -10 -3 -17 -7 -29c-3 -10 -8 -20 -8 -27
c0 -12 3 -24 9 -34c8 -16 22 -26 41 -26c81 0 135 102 135 224c0 113 -36 157 -103 157c-51 0 -80 -31 -95 -76l-18 3l79 348h6c33 -27 71 -41 134 -41c93 0 135 40 145 71z" />
    <glyph glyph-name="six" unicode="6" horiz-adv-x="541" 
d="M519 553c0 -44 -25 -72 -63 -72c-41 0 -65 25 -65 62c0 12 2 27 5 40s10 29 10 40c0 13 -16 29 -54 29c-92 0 -160 -130 -165 -292h4c24 42 67 65 121 65c123 0 190 -87 190 -222c0 -133 -97 -217 -230 -217c-160 0 -242 128 -242 286c0 264 174 398 325 398
c126 0 164 -65 164 -117zM271 399c-43 0 -88 -46 -88 -200s32 -196 88 -196s89 44 89 196c0 153 -46 200 -89 200z" />
    <glyph glyph-name="seven" unicode="7" horiz-adv-x="445" 
d="M469 644c-138 -185 -209 -367 -240 -553c-12 -72 -41 -105 -93 -105c-47 0 -68 30 -68 84c0 64 53 131 93 178c66 79 155 206 211 281v2h-209c-19 0 -52 -1 -76 -12c-28 -13 -48 -38 -64 -88h-9l54 261h7c9 -18 23 -36 64 -36h330v-12z" />
    <glyph glyph-name="eight" unicode="8" horiz-adv-x="540" 
d="M508 200c0 -120 -88 -214 -237 -214c-137 0 -231 53 -231 170c0 75 77 129 138 150c-66 37 -120 90 -120 180c0 114 89 184 212 184c143 0 207 -62 207 -136c0 -67 -53 -123 -109 -145c81 -37 140 -85 140 -189zM412 113c0 81 -61 118 -183 169c-10 4 -20 8 -30 13
c-52 -25 -88 -77 -88 -135c0 -99 72 -158 156 -158c78 0 145 36 145 111zM409 526c0 79 -50 129 -138 129c-62 0 -104 -39 -104 -98c0 -73 55 -111 148 -147l31 -12c43 25 63 64 63 128z" />
    <glyph glyph-name="nine" unicode="9" horiz-adv-x="539" 
d="M505 391c0 -257 -166 -405 -309 -405c-110 0 -170 58 -170 119c0 41 27 65 59 65c41 0 65 -25 65 -62c0 -12 -2 -27 -5 -40c-3 -14 -10 -29 -10 -40c0 -13 15 -29 53 -29c93 0 156 141 160 303h-4c-26 -39 -67 -64 -122 -64c-122 0 -189 81 -189 216
c0 133 97 216 230 216c160 0 242 -121 242 -279zM264 653c-56 0 -89 -44 -89 -196c0 -153 46 -193 89 -193s88 39 88 193s-32 196 -88 196z" />
    <glyph glyph-name="colon" unicode=":" horiz-adv-x="200" 
d="M163 378c0 -39 -27 -65 -63 -65s-63 28 -63 65c0 36 28 64 63 64s63 -26 63 -64zM163 51c0 -39 -27 -65 -63 -65s-63 28 -63 65c0 36 28 64 63 64s63 -26 63 -64z" />
    <glyph glyph-name="semicolon" unicode=";" horiz-adv-x="205" 
d="M165 378c0 -39 -27 -65 -63 -65s-63 28 -63 65c0 36 28 64 63 64s63 -26 63 -64zM165 39c0 -75 -54 -139 -134 -163l-4 11c50 16 80 53 80 80c0 9 -3 17 -7 20c-37 4 -65 28 -65 68c0 35 29 60 61 60c40 0 69 -24 69 -76z" />
    <glyph glyph-name="less" unicode="&#x3c;" horiz-adv-x="342" 
d="M296 109l-286 142v22l286 142v-25l-261 -128l261 -128v-25z" />
    <glyph glyph-name="equal" unicode="=" horiz-adv-x="415" 
d="M374 331h-333v23h333v-23zM374 163h-333v23h333v-23z" />
    <glyph glyph-name="greater" unicode="&#x3e;" horiz-adv-x="342" 
d="M332 251l-286 -142v25l261 128l-261 128v25l286 -142v-22z" />
    <glyph glyph-name="question" unicode="?" horiz-adv-x="426" 
d="M406 471c0 -130 -114 -178 -193 -178c-40 0 -80 12 -97 29h-2v-130h-18v144l10 14c19 -23 42 -28 70 -28c66 0 90 80 90 209c0 57 -16 122 -72 122c-21 0 -26 -17 -35 -61c-7 -38 -19 -70 -66 -70c-32 0 -52 24 -52 56c0 49 60 92 147 92c45 0 88 -9 121 -27
c58 -34 97 -84 97 -172zM171 50c0 -35 -29 -64 -64 -64c-36 0 -63 29 -63 64c0 34 27 63 63 63c35 0 64 -29 64 -63z" />
    <glyph glyph-name="at" unicode="@" horiz-adv-x="750" 
d="M735 267c0 -151 -131 -281 -256 -281c-33 0 -67 18 -67 69c0 13 6 34 10 52h-3c-15 -32 -31 -57 -50 -76c-30 -32 -55 -45 -91 -45c-56 0 -96 37 -96 126c0 121 119 282 250 282c38 0 54 -22 58 -53h5c9 16 15 31 24 46h96l-58 -183c-28 -84 -38 -122 -38 -143
c0 -16 9 -26 20 -26c76 0 182 96 182 232c0 171 -111 270 -290 270c-216 0 -370 -165 -370 -382c0 -211 135 -320 332 -320c123 0 220 41 287 76l5 -11c-60 -35 -172 -77 -292 -77c-221 0 -370 130 -370 332c0 259 203 394 407 394c202 0 305 -115 305 -282zM477 317
c0 37 -10 62 -33 62c-25 0 -46 -18 -73 -65c-44 -74 -77 -189 -77 -233c0 -36 13 -51 30 -51c9 0 18 4 28 11c7 7 16 16 25 27c22 29 35 50 50 83c10 23 19 44 26 63c16 41 24 73 24 103z" />
    <glyph glyph-name="A" unicode="A" horiz-adv-x="599" 
d="M616 0h-327v6c10 1 28 5 37 9c19 9 33 23 33 52c0 28 -8 54 -18 86l-21 68h-172l-26 -77c-11 -34 -15 -57 -15 -75c0 -28 15 -46 33 -54c13 -5 29 -8 39 -9v-6h-195v6c15 2 29 5 43 13c12 8 25 21 37 41c12 18 23 47 37 86l184 516h38l142 -430c29 -84 51 -143 70 -179
c14 -23 30 -35 47 -40c12 -4 24 -7 34 -8v-5zM315 237l-76 238h-3l-82 -238h161z" />
    <glyph glyph-name="B" unicode="B" horiz-adv-x="615" 
d="M588 185c0 -121 -98 -185 -216 -185h-358v5c8 0 20 2 30 5c21 6 38 19 47 48c8 29 10 80 10 133v274c0 54 -2 106 -10 134c-9 29 -26 42 -47 48c-9 3 -22 5 -30 5v5h329c108 0 210 -29 210 -148c0 -70 -38 -109 -99 -133c-20 -8 -49 -16 -78 -21v-3
c120 -7 212 -68 212 -167zM445 185c0 42 -8 92 -36 121c-24 24 -59 37 -100 37h-70v-181c0 -44 3 -77 10 -97c11 -36 37 -49 73 -49h11c32 0 61 15 81 37c22 25 31 73 31 132zM424 509c0 94 -41 133 -111 133h-13c-28 0 -50 -10 -57 -39c-4 -15 -4 -32 -4 -63v-181h65
c44 0 75 15 93 39c21 28 27 78 27 111z" />
    <glyph glyph-name="C" unicode="C" horiz-adv-x="615" 
d="M597 213c-26 -133 -130 -227 -250 -227c-157 0 -317 98 -317 343s166 341 324 341c86 0 168 -32 195 -72h3l24 48h7v-234h-10c-35 147 -98 241 -218 241c-41 0 -86 -17 -117 -59c-36 -47 -59 -131 -59 -265c0 -153 39 -226 97 -274c24 -19 66 -31 109 -31
c75 0 158 44 199 194z" />
    <glyph glyph-name="D" unicode="D" horiz-adv-x="697" 
d="M366 657c62 0 111 -16 153 -39c89 -51 148 -152 148 -289s-56 -241 -146 -290c-42 -22 -91 -39 -148 -39h-359v6c8 0 20 2 30 5c22 6 38 18 47 47c8 28 12 80 12 134v273c0 54 -4 106 -12 134c-9 29 -25 41 -47 47c-10 3 -22 5 -30 5v6h352zM347 641h-24
c-21 0 -43 -5 -57 -20c-28 -24 -25 -77 -25 -114v-345c0 -39 -3 -96 28 -123c13 -15 38 -23 60 -23h17c35 0 77 12 107 51c40 49 67 125 67 262c0 138 -26 211 -66 260c-31 39 -69 52 -107 52z" />
    <glyph glyph-name="E" unicode="E" horiz-adv-x="576" 
d="M551 227l-14 -227h-523v5c8 0 20 3 30 6c21 6 38 18 47 47c8 29 11 80 11 134v273c0 54 -3 106 -11 134c-9 29 -26 41 -47 47c-10 3 -22 5 -30 6v5h500l21 -206h-6c-18 51 -47 105 -84 145c-22 24 -55 45 -95 45h-21c-24 0 -42 -4 -56 -17c-32 -26 -35 -84 -35 -125v-150
h36c57 0 71 3 91 22c26 24 49 76 53 109h6v-277h-6c-4 32 -24 81 -49 103c-18 15 -38 27 -95 27h-36v-168c0 -41 -1 -102 31 -128c17 -15 43 -21 67 -21h20c44 0 78 18 102 48c40 47 71 113 87 163h6z" />
    <glyph glyph-name="F" unicode="F" horiz-adv-x="536" 
d="M529 443h-6c-17 51 -46 108 -84 149c-21 23 -57 49 -96 49h-10c-48 0 -71 -10 -84 -55c-8 -24 -10 -61 -10 -103v-125h23c57 0 74 3 94 22c25 24 48 76 50 109h6v-278h-6c-2 32 -21 82 -46 103c-17 15 -41 27 -98 27h-23v-149c0 -53 5 -105 14 -134c9 -28 25 -41 46 -47
c11 -3 23 -5 30 -6v-5h-314v5c7 1 18 3 30 6c20 6 38 19 46 47c9 29 12 81 12 134v273c0 54 -4 105 -13 133c-8 29 -25 42 -46 48c-11 3 -23 5 -30 6v5h496z" />
    <glyph glyph-name="G" unicode="G" horiz-adv-x="645" 
d="M646 296c-6 -1 -23 -4 -31 -7c-16 -7 -30 -16 -40 -36c-7 -14 -11 -37 -11 -84v-146c-18 -7 -48 -15 -87 -24c-38 -7 -92 -13 -137 -13c-171 0 -310 125 -310 343c0 219 145 341 312 341c96 0 169 -45 190 -72h3l23 41h6v-232h-6c-14 61 -33 113 -59 154
c-37 58 -85 89 -154 89c-28 0 -75 -16 -100 -42c-47 -47 -67 -130 -67 -279c0 -143 32 -226 75 -274c28 -37 68 -47 98 -47c44 0 66 9 77 28c12 20 16 56 16 83v47c0 44 -4 68 -15 88c-12 21 -24 29 -45 36c-9 3 -20 5 -29 6v5h291v-5z" />
    <glyph glyph-name="H" unicode="H" horiz-adv-x="714" 
d="M14 0v5c8 1 19 2 30 6c21 5 38 18 47 47c8 29 10 80 10 134v273c0 54 -2 106 -10 135c-9 28 -26 40 -47 46c-11 3 -22 6 -30 6v5h307v-5c-7 0 -16 -2 -26 -6c-20 -7 -36 -18 -45 -46c-9 -29 -11 -81 -11 -135v-122h237v122c0 54 -3 106 -12 135c-8 28 -25 39 -45 46
c-9 4 -19 6 -26 6v5h307v-5c-7 0 -19 -3 -29 -6c-22 -6 -38 -18 -47 -46c-9 -29 -11 -81 -11 -135v-273c0 -54 2 -105 11 -134s25 -41 47 -47c10 -3 22 -5 29 -6v-5h-307v5c7 1 15 3 25 6c21 7 38 18 46 47c9 29 12 80 12 134v130h-237v-130c0 -54 2 -105 11 -134
s25 -41 45 -47c11 -4 20 -5 26 -6v-5h-307z" />
    <glyph glyph-name="I" unicode="I" horiz-adv-x="341" 
d="M327 0h-313v5c7 1 19 3 30 6c21 6 37 18 46 47s11 80 11 134v273c0 54 -2 106 -11 134c-9 29 -25 41 -46 47c-11 3 -21 5 -30 6v5h313v-5c-9 -1 -20 -3 -30 -6c-21 -6 -38 -18 -47 -47c-9 -28 -11 -80 -11 -134v-273c0 -54 2 -105 11 -134s26 -41 47 -47
c10 -3 22 -5 30 -6v-5z" />
    <glyph glyph-name="J" unicode="J" horiz-adv-x="443" 
d="M436 652c-7 -1 -19 -2 -29 -6c-22 -7 -38 -19 -47 -47c-9 -29 -12 -82 -12 -135v-258c0 -84 -31 -144 -63 -174c-35 -33 -79 -46 -139 -46c-41 0 -86 12 -109 35c-24 23 -42 53 -42 93c0 54 34 78 73 78c44 0 71 -27 71 -67c0 -12 -5 -27 -10 -41c-6 -18 -14 -32 -14 -40
c0 -29 13 -41 32 -41c27 0 41 9 51 32c12 24 15 74 15 108v321c0 53 -3 106 -12 135c-9 28 -26 41 -47 47c-11 3 -22 5 -30 6v5h312v-5z" />
    <glyph glyph-name="K" unicode="K" horiz-adv-x="643" 
d="M631 657v-5c-22 -3 -46 -12 -68 -26c-29 -19 -64 -48 -98 -88l-137 -150v-3c75 -6 124 -26 156 -58c37 -36 53 -100 61 -164c11 -88 30 -122 52 -138c14 -10 36 -18 50 -20v-5h-204c-17 19 -36 66 -42 133s-7 121 -24 160c-12 33 -33 44 -65 44c-17 0 -36 -9 -49 -22
c-7 -6 -19 -18 -24 -26v-97c0 -54 2 -105 11 -134s25 -41 45 -47c11 -4 19 -5 26 -6v-5h-307v5c8 1 20 3 30 6c21 6 38 18 47 47c8 29 10 80 10 134v273c0 54 -2 106 -10 135c-9 28 -25 39 -47 46c-10 4 -22 6 -30 6v5h307v-5c-8 -1 -16 -2 -26 -6c-20 -7 -36 -18 -45 -46
c-9 -29 -11 -81 -11 -135v-154l175 195c40 45 57 68 57 97c0 24 -10 36 -25 42c-10 4 -22 6 -36 7v5h221z" />
    <glyph glyph-name="L" unicode="L" horiz-adv-x="565" 
d="M558 225l-15 -225h-529v6c9 1 23 2 32 5c21 7 38 21 45 44c13 37 15 107 15 178v191c0 72 -3 142 -15 178c-8 24 -25 38 -46 44c-9 3 -20 5 -30 6v5h321v-5c-9 -1 -21 -3 -30 -6c-21 -6 -39 -20 -47 -44c-12 -36 -15 -106 -15 -178v-236c0 -56 3 -91 9 -112
c6 -20 16 -35 29 -44c17 -12 40 -16 59 -16h23c46 0 74 21 97 48c38 46 75 120 91 161h6z" />
    <glyph glyph-name="M" unicode="M" horiz-adv-x="793" 
d="M779 0h-314v5c7 0 18 2 29 5c22 6 38 19 47 48s12 80 12 134v368h-4l-183 -563h-38l-198 555h-3v-380c0 -65 9 -96 19 -120c8 -21 26 -36 43 -41c11 -3 20 -5 34 -6v-5h-209v5c14 1 23 3 33 6c18 5 35 20 44 41c9 24 18 55 18 120v271c0 72 -6 129 -17 159
c-9 22 -27 38 -48 45c-9 3 -17 3 -27 5v5h233l157 -450h4l150 450h218v-5c-8 -1 -19 -3 -30 -6c-21 -6 -38 -18 -46 -47c-9 -28 -13 -80 -13 -134v-273c0 -54 4 -105 13 -134c8 -29 25 -42 46 -48c11 -3 22 -5 30 -5v-5z" />
    <glyph glyph-name="N" unicode="N" horiz-adv-x="663" 
d="M658 652c-13 -1 -23 -3 -34 -6c-17 -5 -34 -20 -43 -42c-9 -24 -17 -55 -17 -120v-490h-32l-380 541h-4v-363c0 -65 8 -95 18 -119c8 -22 26 -37 44 -42c10 -3 19 -5 33 -6v-5h-209v5c14 1 24 3 34 6c18 5 35 20 43 42c10 24 19 54 19 119v273c0 69 -10 121 -22 145
c-11 22 -36 43 -62 54c-10 4 -23 6 -32 7v6h231l297 -438h2v265c0 65 -8 96 -16 120c-10 22 -28 37 -45 42c-10 3 -19 5 -33 6v5h208v-5z" />
    <glyph glyph-name="O" unicode="O" horiz-adv-x="683" 
d="M653 328c0 -207 -123 -342 -312 -342c-188 0 -311 135 -311 342s123 342 311 342c189 0 312 -135 312 -342zM501 328c0 182 -34 263 -84 305c-24 19 -52 21 -76 21s-51 -2 -75 -21c-50 -42 -84 -123 -84 -305s34 -263 84 -305c24 -18 51 -21 75 -21s52 2 76 21
c50 41 84 123 84 305z" />
    <glyph glyph-name="P" unicode="P" horiz-adv-x="588" 
d="M578 484c0 -61 -32 -121 -79 -147c-38 -21 -100 -37 -201 -37c-17 0 -34 2 -54 5v-71c0 -72 3 -143 15 -180c8 -24 25 -37 46 -44c9 -3 28 -5 37 -6v-4h-328v5c8 1 21 2 31 5c20 7 37 21 45 45c12 37 16 107 16 179v190c0 71 -4 141 -16 178c-8 23 -25 37 -45 44
c-10 3 -23 4 -31 5v6h324c150 0 240 -55 240 -173zM429 483c0 97 -30 157 -111 157c-15 0 -33 -3 -45 -9c-15 -8 -21 -22 -25 -39c-3 -17 -4 -33 -4 -71v-197c18 -5 35 -8 54 -8c64 0 86 16 105 46c19 29 26 88 26 121z" />
    <glyph glyph-name="Q" unicode="Q" horiz-adv-x="692" 
d="M674 -103c-3 -44 -16 -93 -39 -129c-20 -30 -60 -54 -115 -54c-66 0 -117 37 -166 88s-99 117 -140 117c-19 0 -33 -15 -33 -28c0 -16 15 -25 22 -32c8 -9 16 -20 16 -38c0 -32 -24 -58 -55 -58c-33 0 -59 26 -59 64c0 78 108 115 130 123c20 8 65 24 95 34
c-165 6 -300 142 -300 343c0 207 140 343 313 343s314 -136 314 -343c0 -188 -110 -311 -265 -340c-47 -11 -128 -37 -157 -51v-3c20 4 49 9 60 9c58 0 105 -20 147 -49c51 -35 95 -66 139 -67c48 -1 73 32 87 73zM343 654c-30 0 -55 -4 -74 -20c-50 -43 -85 -138 -85 -307
s35 -263 85 -306c22 -19 51 -22 74 -22c24 0 52 3 74 22c51 43 85 137 85 306s-33 263 -84 306c-18 16 -47 21 -75 21z" />
    <glyph glyph-name="R" unicode="R" horiz-adv-x="637" 
d="M653 0h-200c-19 25 -40 77 -44 134c-6 65 -14 121 -40 155c-21 28 -49 31 -95 31h-34v-128c0 -54 3 -105 12 -134s25 -42 46 -48c11 -3 27 -4 35 -5v-5h-319v5c8 1 20 2 30 5c21 6 38 19 46 48c9 29 11 80 11 134v274c0 53 -3 104 -11 133c-9 28 -25 41 -47 47
c-10 3 -21 5 -29 6v5h321c131 0 232 -52 232 -166c0 -66 -33 -112 -84 -139c-20 -12 -50 -22 -88 -25v-3c27 -4 64 -12 88 -29c31 -22 56 -59 68 -123c14 -85 31 -131 53 -150c12 -9 36 -16 49 -17v-5zM309 641h-6c-24 0 -43 -6 -53 -23c-9 -16 -10 -43 -10 -75v-204h47
c59 0 84 11 101 37c17 27 25 73 25 115c0 90 -24 150 -104 150z" />
    <glyph glyph-name="S" unicode="S" horiz-adv-x="511" 
d="M486 190c0 -133 -110 -204 -229 -204c-70 0 -143 36 -169 66h-4l-30 -47h-6l-6 226h8c32 -114 97 -229 208 -229c81 0 110 57 110 118c0 68 -34 103 -140 146c-91 37 -190 93 -190 221c0 105 95 183 209 183c59 0 114 -24 137 -55h2l31 40h8l12 -201h-7
c-11 47 -37 105 -63 137c-26 35 -61 63 -118 63c-59 0 -95 -37 -95 -94c0 -93 66 -114 138 -147c103 -48 194 -80 194 -223z" />
    <glyph glyph-name="T" unicode="T" horiz-adv-x="599" 
d="M593 445h-7c-15 35 -46 96 -82 135c-31 39 -65 61 -108 61h-28v-449c0 -54 3 -105 12 -133c9 -29 25 -43 46 -49c11 -3 22 -4 30 -4v-6h-314v6c8 0 19 1 30 4c21 6 38 20 47 49c9 28 12 79 12 133v449h-30c-42 0 -72 -18 -106 -59c-38 -40 -67 -102 -82 -137h-7l26 212
h534z" />
    <glyph glyph-name="U" unicode="U" horiz-adv-x="654" 
d="M649 652c-14 -1 -24 -3 -34 -6c-16 -5 -35 -19 -44 -41c-10 -24 -17 -55 -17 -120v-265c0 -56 -9 -105 -30 -144c-25 -46 -87 -90 -186 -90c-104 0 -185 29 -222 115c-16 34 -22 106 -22 143v222c0 54 -2 105 -11 133c-8 29 -26 41 -46 47c-11 3 -23 5 -30 6v5h313v-5
c-7 -1 -18 -3 -29 -6c-21 -6 -38 -18 -47 -47c-8 -28 -11 -79 -11 -133v-265c0 -32 3 -68 13 -97c21 -60 61 -86 124 -86c64 0 119 28 142 77c14 32 21 72 21 121v269c0 65 -7 96 -17 120c-8 21 -27 36 -44 41c-10 3 -20 5 -34 6v5h211v-5z" />
    <glyph glyph-name="V" unicode="V" horiz-adv-x="593" 
d="M604 651c-17 -2 -32 -5 -45 -13c-12 -7 -25 -18 -35 -37c-10 -18 -21 -47 -36 -90l-178 -515h-49l-136 453c-27 93 -42 133 -59 159c-14 21 -31 32 -51 38c-12 4 -24 5 -34 6v5h340v-6c-10 -1 -29 -5 -38 -9c-17 -7 -36 -27 -36 -53s5 -48 16 -84l88 -322h3l111 325
c10 28 17 54 17 82c0 25 -13 44 -30 52c-12 5 -29 8 -40 9v6h192v-6z" />
    <glyph glyph-name="W" unicode="W" horiz-adv-x="907" 
d="M249 -4l-134 476c-31 108 -45 147 -99 170c-12 6 -27 9 -37 10v5h325v-6c-28 -5 -61 -22 -61 -62c0 -26 6 -47 16 -85l79 -308h3l103 332c-14 45 -25 71 -39 87c-17 23 -42 31 -67 37v5h325v-6c-33 -4 -74 -19 -74 -62c0 -26 6 -47 16 -84l79 -309h3l96 312
c10 32 17 63 17 82c0 44 -35 59 -70 61v6h193v-6c-35 -5 -60 -15 -80 -50c-10 -18 -21 -43 -36 -90l-163 -515h-49l-140 495l-157 -495h-49z" />
    <glyph glyph-name="X" unicode="X" horiz-adv-x="626" 
d="M327 148l-68 129l-73 -126c-23 -38 -36 -69 -36 -95c0 -22 11 -36 29 -43c9 -4 30 -7 41 -8v-5h-210v5c10 1 29 5 40 11c18 10 31 20 41 31c12 13 49 63 75 105l84 143l-115 221c-40 76 -73 126 -141 136v5h344v-5c-47 -3 -67 -19 -67 -55c0 -24 16 -56 32 -88l57 -109
l61 106c23 39 37 69 37 94c0 41 -36 50 -70 52v5h210v-5c-72 -10 -102 -63 -156 -148l-72 -123l124 -238c42 -75 78 -127 142 -138v-5h-343v5c49 4 68 19 68 52c0 24 -17 58 -34 91z" />
    <glyph glyph-name="Y" unicode="Y" horiz-adv-x="653" 
d="M650 652c-63 -10 -98 -45 -149 -149l-101 -210v-101c0 -54 2 -105 12 -134c7 -29 25 -41 45 -47c12 -3 23 -5 30 -6v-5h-313v5c8 1 19 3 31 6c20 6 38 18 46 47c9 29 11 80 11 134v73l-143 280c-34 68 -61 100 -115 107v5h321v-5c-10 -1 -27 -4 -37 -8
c-41 -16 -33 -61 -11 -109l107 -218h5l92 190c20 40 30 69 30 94c0 22 -10 36 -28 43c-10 4 -29 7 -39 8v5h206v-5z" />
    <glyph glyph-name="Z" unicode="Z" horiz-adv-x="565" 
d="M544 657v-5l-349 -629h60c91 0 133 18 176 53c60 49 83 91 114 141h8l-40 -217h-492v5l362 627h-82c-69 0 -128 -22 -161 -46c-35 -25 -70 -78 -103 -128h-7l38 199h476z" />
    <glyph glyph-name="bracketleft" unicode="[" horiz-adv-x="367" 
d="M359 -88c0 -29 -25 -61 -34 -68h-8c5 12 7 21 7 30c0 33 -25 54 -66 54c-63 0 -139 -15 -196 -42v781c57 -27 133 -42 196 -42c41 0 66 20 66 53c0 9 -2 19 -7 31h8c9 -8 34 -40 34 -69c0 -64 -28 -107 -110 -107c-63 0 -126 57 -163 108v-730c37 51 100 109 163 109
c82 0 110 -44 110 -108z" />
    <glyph glyph-name="backslash" unicode="\" horiz-adv-x="285" 
d="M340 -89l-23 -12l-372 778l23 10z" />
    <glyph glyph-name="bracketright" unicode="]" horiz-adv-x="367" 
d="M305 -114c-57 27 -133 42 -197 42c-40 0 -65 -21 -65 -54c0 -9 2 -18 7 -30h-8c-10 7 -34 39 -34 68c0 64 28 108 109 108c63 0 127 -57 164 -109v730c-37 -51 -101 -108 -164 -108c-81 0 -109 43 -109 107c0 29 24 61 34 69h8c-5 -12 -7 -22 -7 -31c0 -33 25 -53 65 -53
c64 0 140 15 197 42v-781z" />
    <glyph glyph-name="asciicircum" unicode="^" horiz-adv-x="338" 
d="M29 408l131 249h18l131 -249h-25l-115 223l-115 -223h-25z" />
    <glyph glyph-name="underscore" unicode="_" horiz-adv-x="295" 
d="M300 -160h-305v24h305v-24z" />
    <glyph glyph-name="grave" unicode="`" horiz-adv-x="269" 
d="M232 488l-4 -4c-77 42 -124 62 -157 83c-27 16 -44 33 -44 61c0 29 19 47 47 47c25 0 38 -10 62 -43c25 -35 52 -78 96 -144z" />
    <glyph glyph-name="a" unicode="a" horiz-adv-x="430" 
d="M431 18c-8 -11 -49 -27 -98 -27c-32 0 -54 5 -68 18c-11 8 -17 25 -17 51h-2c-14 -47 -56 -69 -115 -69c-57 0 -112 34 -112 112c0 30 7 47 25 68c27 29 78 35 110 47c74 23 93 54 93 88c0 17 1 49 1 64c0 48 -12 60 -52 60c-22 0 -32 -7 -37 -15c-6 -10 -7 -35 -7 -62
c0 -37 -19 -54 -55 -54c-31 0 -52 15 -52 48c0 17 6 32 16 44c23 30 85 51 140 51c98 0 168 -33 168 -117c0 -33 -1 -164 -1 -226c0 -45 2 -65 10 -75c6 -6 13 -9 24 -9c10 0 21 3 29 7v-4zM245 262c-13 -20 -29 -28 -45 -38c-23 -13 -33 -24 -41 -41
c-9 -17 -13 -50 -13 -79c0 -56 17 -80 49 -80c22 0 49 33 49 84z" />
    <glyph glyph-name="b" unicode="b" horiz-adv-x="491" 
d="M470 216c0 -161 -101 -225 -205 -225c-48 0 -106 20 -133 64h-3l-76 -57h-4c2 29 3 62 3 87v514c0 12 -1 26 -2 34c-3 19 -11 29 -24 36c-9 6 -25 9 -34 10v5h177c4 0 7 -2 7 -8c0 -19 -3 -75 -3 -118v-199h3c17 54 64 83 120 83c86 0 174 -56 174 -226zM263 420
c-20 0 -46 -9 -63 -36c-16 -27 -27 -64 -27 -123v-110c0 -49 8 -85 21 -109c14 -28 41 -39 62 -39c59 0 82 94 82 210c0 138 -24 207 -75 207z" />
    <glyph glyph-name="c" unicode="c" horiz-adv-x="404" 
d="M396 138c-19 -78 -71 -147 -163 -147c-65 0 -118 23 -151 57c-40 42 -61 101 -61 173c0 142 109 221 217 221c61 0 108 -21 127 -42c17 -18 25 -34 25 -55c0 -34 -28 -50 -51 -50c-40 0 -53 25 -58 66c-7 51 -17 70 -45 70c-16 0 -37 -7 -50 -22
c-22 -27 -33 -97 -33 -175c0 -89 12 -149 34 -188c16 -26 38 -33 60 -33c84 0 119 73 137 130z" />
    <glyph glyph-name="d" unicode="d" horiz-adv-x="517" 
d="M505 -1c-17 0 -172 -3 -178 -3c-1 0 -4 2 -4 5c0 2 1 24 1 27v49h-1c-17 -52 -60 -86 -122 -86c-93 0 -180 69 -180 224c0 151 91 227 192 227c60 0 92 -34 107 -72h1v203c0 15 0 50 -2 64c-3 19 -10 28 -22 35c-10 6 -23 7 -31 8v4h177c2 -1 5 -2 5 -6
c0 -38 -3 -162 -3 -213v-353c0 -18 0 -45 2 -61c2 -18 9 -31 22 -39c10 -7 28 -8 36 -9v-4zM321 151v136c0 47 -10 77 -26 100c-14 22 -34 35 -59 35c-51 0 -83 -81 -83 -209c0 -131 30 -199 78 -199c51 0 90 48 90 137z" />
    <glyph glyph-name="e" unicode="e" horiz-adv-x="427" 
d="M413 239h-260c0 -114 20 -166 46 -196c16 -17 41 -26 66 -26c79 0 116 65 133 125l11 -3c-18 -84 -78 -148 -175 -148c-49 0 -102 12 -141 46c-46 40 -72 96 -72 178c0 148 99 227 206 227c128 0 187 -87 187 -176c0 -7 0 -19 -1 -27zM297 292c0 56 -8 99 -26 121
c-11 12 -26 17 -42 17c-17 0 -30 -5 -43 -18c-19 -21 -30 -72 -33 -159h112c24 0 32 8 32 39z" />
    <glyph glyph-name="f" unicode="f" horiz-adv-x="280" 
d="M379 604c0 -29 -20 -54 -54 -54c-25 0 -41 12 -52 32c-5 10 -8 21 -10 34c-3 17 -6 33 -9 43c-5 12 -11 18 -20 18c-19 0 -29 -9 -38 -30c-8 -18 -11 -49 -11 -89v-125h94v-18h-94v-284c0 -28 2 -68 6 -84c6 -25 14 -32 31 -38c9 -3 24 -4 32 -5v-4h-250v4c7 1 15 2 23 5
c16 7 25 11 31 37c5 18 5 57 5 85v284h-57v18h56v58c0 84 32 131 57 154c23 23 62 44 120 44c43 0 76 -7 98 -17c31 -16 42 -42 42 -68z" />
    <glyph glyph-name="g" unicode="g" horiz-adv-x="456" 
d="M475 398c0 -35 -22 -50 -48 -50c-25 0 -38 18 -44 32c-7 19 -10 28 -18 28c-7 0 -16 -14 -16 -31c0 -6 5 -19 10 -30c7 -15 11 -42 11 -58c0 -100 -89 -152 -172 -152c-19 0 -44 4 -58 8c-23 -3 -53 -15 -53 -38c0 -20 17 -30 45 -30s116 10 144 10
c92 0 150 -37 150 -130c0 -121 -131 -170 -241 -170c-112 0 -186 27 -186 95c0 44 49 77 117 83v2c-51 6 -90 34 -90 87c0 57 53 86 86 96v2c-45 21 -89 72 -89 137c0 101 89 153 173 153c51 0 108 -21 138 -56h3c7 35 40 63 78 63c41 0 60 -19 60 -51zM346 -98
c0 48 -21 72 -73 72c-31 0 -86 -5 -115 -8c-40 -4 -94 -16 -94 -82c0 -51 37 -87 120 -87c103 0 162 36 162 105zM196 433c-45 0 -63 -38 -63 -144s18 -144 63 -144c46 0 65 37 65 144s-19 144 -65 144z" />
    <glyph glyph-name="h" unicode="h" horiz-adv-x="537" 
d="M525 0h-235v4c7 1 15 2 22 5c18 8 24 16 29 42c3 18 4 44 4 69v201c0 38 -4 57 -15 70c-10 13 -23 19 -43 19c-37 0 -83 -41 -90 -116c-2 -24 -4 -48 -4 -78v-96c0 -25 0 -52 3 -70c5 -25 13 -33 30 -41c8 -3 14 -4 22 -5v-4h-236v4c8 1 17 2 24 5c14 5 24 11 31 37
c4 17 4 57 4 85v438c0 18 0 49 -3 67s-8 25 -19 32c-10 7 -27 10 -36 11v5h176c4 0 6 -2 6 -7c0 -14 -3 -67 -3 -117v-225h3c11 40 32 64 54 79c23 18 62 28 88 28c46 0 84 -13 103 -38c15 -19 26 -51 26 -99v-174c0 -28 1 -66 5 -84c7 -26 15 -31 31 -38c8 -3 16 -4 23 -5
v-4z" />
    <glyph glyph-name="i" unicode="i" 
d="M253 0h-239v4c7 1 15 1 23 4c15 7 24 12 30 38c4 14 5 45 5 69v195c0 18 0 60 -2 76c-3 19 -9 26 -18 33c-10 7 -23 8 -33 9v5h170c5 0 7 -2 7 -7c0 -15 -1 -36 -1 -62v-249c0 -24 0 -55 4 -69c6 -26 15 -31 31 -38c8 -3 16 -3 23 -4v-4zM201 592c0 -39 -33 -65 -68 -65
c-34 0 -66 27 -66 65s32 67 66 67s68 -27 68 -67z" />
    <glyph glyph-name="j" unicode="j" horiz-adv-x="231" 
d="M188 592c0 -39 -31 -65 -67 -65c-34 0 -65 27 -65 65c0 39 31 67 65 67c35 0 67 -26 67 -67zM184 426c0 -15 -2 -37 -2 -63v-363c0 -102 -35 -146 -64 -173c-17 -17 -62 -40 -120 -40c-34 0 -68 9 -92 24c-26 17 -43 47 -43 80c0 36 27 65 64 65c38 0 60 -26 60 -61
c0 -8 -3 -23 -7 -34c-2 -10 -5 -22 -5 -27c0 -18 6 -33 26 -33c23 0 36 11 44 29c8 17 15 59 15 98v382c0 18 -1 59 -3 75c-3 19 -8 27 -18 34c-9 7 -23 8 -32 9v5h170c4 0 7 -2 7 -7z" />
    <glyph glyph-name="k" unicode="k" horiz-adv-x="491" 
d="M187 684c4 0 6 -2 6 -7c0 -9 -2 -39 -2 -82v-389l109 110c27 28 44 55 44 74c0 12 -2 22 -16 29c-8 4 -25 8 -34 9v5h186v-5c-17 -3 -39 -11 -62 -25c-11 -7 -58 -45 -86 -75l-30 -31c58 -16 91 -67 104 -133c9 -46 28 -116 47 -137c11 -13 24 -19 49 -22v-5h-163
c-20 13 -41 69 -49 124c-11 64 -25 91 -56 107l-43 -44v-56c0 -28 1 -66 5 -84c6 -26 14 -31 31 -38c8 -3 18 -3 25 -4v-5h-241v5c7 1 14 1 22 4c17 7 25 12 31 38c5 18 5 56 5 84v430c0 18 -1 60 -3 76c-3 19 -8 27 -17 33c-10 8 -24 8 -33 9v5h171z" />
    <glyph glyph-name="l" unicode="l" 
d="M252 0h-241v5c7 1 14 1 22 4c16 7 24 12 31 38c5 18 5 55 5 84v429c0 18 0 61 -3 77c-3 19 -8 27 -17 33c-10 8 -23 8 -33 9v5h171c4 0 6 -2 6 -7c0 -15 -1 -36 -1 -63v-483c0 -29 0 -66 4 -84c7 -26 16 -31 32 -38c7 -3 17 -3 24 -4v-5z" />
    <glyph glyph-name="m" unicode="m" horiz-adv-x="804" 
d="M793 0h-236v4c8 1 15 2 22 5c17 8 24 16 29 42c3 18 4 43 4 69v201c0 39 -3 58 -14 71s-24 18 -44 18c-36 0 -80 -36 -87 -114c-1 -18 -2 -35 -2 -55v-116c0 -26 -1 -56 3 -74c5 -26 13 -34 29 -42c8 -3 15 -4 23 -5v-4h-233v4c9 1 15 2 23 5c17 8 24 16 29 42
c3 18 3 43 3 69v201c0 39 -3 58 -14 71s-24 18 -43 18c-36 0 -81 -37 -87 -115c-2 -24 -3 -49 -3 -79v-96c0 -26 0 -52 3 -70c5 -25 12 -33 30 -41c7 -3 14 -4 22 -5v-4h-236v4c7 1 15 2 23 5c16 7 23 11 30 37c5 18 5 56 5 85v181c0 18 0 58 -2 74c-3 19 -9 27 -18 33
c-9 8 -22 8 -32 9v5h170c4 0 7 -2 7 -6c0 -7 -3 -80 -3 -90h2c11 40 29 61 50 77c23 18 65 28 92 28c46 0 78 -12 98 -34c13 -14 25 -40 28 -72h1c11 41 31 63 52 78c24 18 62 28 88 28c51 0 86 -14 103 -37c15 -20 26 -49 26 -98v-176c0 -29 0 -66 5 -84
c6 -26 15 -31 30 -38c8 -3 17 -4 24 -5v-4z" />
    <glyph glyph-name="n" unicode="n" horiz-adv-x="530" 
d="M519 0h-235v4c8 1 14 2 22 5c17 8 24 16 29 42c3 18 4 43 4 69v201c0 39 -3 57 -14 70c-9 12 -21 18 -44 18c-28 0 -76 -32 -83 -114c-2 -24 -4 -49 -4 -79v-96c0 -26 0 -52 4 -70c5 -25 11 -33 29 -41c8 -3 15 -4 22 -5v-4h-235v4c6 1 15 2 23 5c16 7 24 11 31 37
c5 18 4 56 4 85v179c0 18 0 60 -2 76c-3 19 -9 27 -18 33c-10 8 -23 8 -32 9v5h170c4 0 6 -2 6 -6c0 -7 -2 -81 -2 -92h2c11 40 32 63 52 79c24 18 63 28 89 28c46 0 77 -9 97 -37c14 -20 27 -54 27 -102v-172c0 -29 0 -66 4 -84c7 -26 15 -31 31 -38c8 -3 16 -4 23 -5v-4z
" />
    <glyph glyph-name="o" unicode="o" horiz-adv-x="479" 
d="M458 217c0 -141 -110 -226 -219 -226c-108 0 -218 84 -218 226s111 225 218 225c108 0 219 -84 219 -225zM328 217c0 94 -12 164 -36 193c-15 18 -35 22 -53 22c-17 0 -37 -6 -51 -21c-26 -29 -37 -100 -37 -194c0 -95 12 -165 36 -194c15 -18 35 -23 52 -23
c18 0 37 4 53 23c23 29 36 99 36 194z" />
    <glyph glyph-name="p" unicode="p" horiz-adv-x="517" 
d="M496 216c0 -140 -82 -225 -192 -225c-48 0 -79 11 -106 35h-3v-109c0 -28 -1 -59 4 -80c6 -27 14 -32 35 -41c8 -3 14 -3 21 -4v-5h-242v5c7 1 13 1 21 4c21 9 29 14 35 41c5 21 4 52 4 80v394c0 18 0 53 -2 69c-2 18 -7 24 -18 34c-12 10 -36 14 -45 15v4h178
c4 0 8 -2 8 -9l-1 -64h5c19 51 71 82 117 82c100 0 181 -73 181 -226zM365 220c0 160 -27 198 -78 198c-52 0 -92 -63 -92 -144v-121c0 -43 11 -92 29 -113s37 -33 64 -33c51 0 77 53 77 213z" />
    <glyph glyph-name="q" unicode="q" horiz-adv-x="495" 
d="M495 -213h-247v5c7 1 18 1 26 4c21 9 29 14 35 41c5 21 4 53 4 81v128h-4c-23 -38 -56 -55 -103 -55c-97 0 -185 73 -185 223c0 148 101 228 196 228c71 0 116 -43 132 -83h3l82 82h8c-3 -24 -7 -87 -7 -112v-411c0 -28 0 -59 4 -81c5 -25 13 -33 32 -40
c8 -3 17 -4 24 -5v-5zM313 186v96c0 41 -4 81 -20 111c-12 20 -32 33 -60 33c-50 0 -80 -75 -80 -210c0 -138 36 -205 84 -205c25 0 47 18 60 48c8 20 16 50 16 127z" />
    <glyph glyph-name="r" unicode="r" horiz-adv-x="369" 
d="M387 371c0 -36 -24 -59 -57 -59c-32 0 -47 20 -56 46c-7 20 -11 28 -22 28c-16 0 -48 -46 -55 -124c-1 -8 -2 -37 -2 -62v-80c0 -25 -1 -52 3 -69c5 -26 14 -34 32 -42c7 -3 17 -4 26 -5v-4h-242v4c7 1 16 2 24 5c15 7 23 11 30 38c4 17 4 56 4 84v179c0 18 0 60 -2 76
c-3 19 -9 27 -18 34s-23 7 -32 8v5h170c4 0 6 -3 6 -6c0 -6 -1 -95 -1 -105h1c12 48 36 81 53 95c16 13 38 25 68 25c17 0 42 -5 54 -18c11 -10 16 -26 16 -53z" />
    <glyph glyph-name="s" unicode="s" horiz-adv-x="370" 
d="M350 134c0 -91 -74 -143 -159 -143c-36 0 -88 15 -117 40h-4l-35 -30h-4l-4 159h6c15 -87 89 -159 158 -159c48 0 65 17 65 68c0 41 -41 66 -101 92c-58 25 -127 63 -127 150c0 71 60 131 152 131c35 0 84 -15 101 -35h3l26 27h3l4 -129h-6c-7 35 -25 68 -49 91
c-23 22 -53 35 -81 35c-35 0 -61 -20 -61 -62c0 -45 39 -68 96 -90c73 -29 134 -63 134 -145z" />
    <glyph glyph-name="t" unicode="t" horiz-adv-x="306" 
d="M305 65l4 -4c-13 -30 -58 -70 -117 -70c-42 0 -75 10 -96 29c-25 22 -33 49 -33 88c0 20 3 258 4 307c-16 2 -43 1 -58 3v8c82 17 138 71 169 183h13v-176h95v-18h-95l-4 -321c0 -36 10 -65 52 -65c26 0 51 13 66 36z" />
    <glyph glyph-name="u" unicode="u" horiz-adv-x="510" 
d="M502 0c-10 0 -170 -4 -173 -4c-1 0 -3 1 -3 3c-1 4 -1 12 -1 19v70h-3c-12 -33 -23 -51 -44 -69c-23 -20 -55 -28 -84 -28c-36 0 -75 7 -99 34c-21 22 -32 61 -32 102v185c0 22 0 59 -3 74c-5 20 -10 29 -21 36c-9 6 -24 6 -33 7v4h174c4 0 7 -1 7 -8
c0 -12 -1 -68 -1 -118v-202c0 -29 5 -52 15 -66s25 -19 43 -19c33 0 70 44 77 117c2 24 3 39 3 69v117c0 20 0 44 -2 59c-3 20 -8 32 -20 39c-8 6 -26 8 -35 8v4h173c5 0 7 -3 7 -8c0 -12 -1 -66 -1 -115v-196c0 -18 1 -48 2 -64c3 -19 9 -30 20 -37c9 -7 25 -8 34 -9v-4z
" />
    <glyph glyph-name="v" unicode="v" horiz-adv-x="399" 
d="M419 429c-9 -1 -18 -2 -28 -9c-8 -4 -15 -11 -23 -23c-8 -14 -17 -36 -31 -76l-109 -324h-52l-105 301l-30 81c-9 20 -19 33 -31 41c-10 7 -22 8 -30 9v4h249v-4c-10 -1 -26 -2 -34 -7c-10 -6 -14 -17 -14 -33c0 -18 5 -37 15 -69l60 -194h1l64 189c12 36 15 48 15 75
c0 16 -7 26 -17 32c-10 5 -20 6 -29 7v4h129v-4z" />
    <glyph glyph-name="w" unicode="w" horiz-adv-x="644" 
d="M664 429c-9 -1 -19 -2 -28 -9c-9 -4 -16 -11 -23 -23c-9 -14 -18 -36 -31 -76l-108 -325h-54l-99 306l-101 -306h-54l-98 302c-14 42 -25 89 -48 108c-9 12 -16 16 -26 20c-4 2 -10 3 -14 3v4h242v-4c-14 -1 -25 -2 -33 -9c-7 -6 -11 -17 -11 -29c0 -17 3 -30 11 -60
l59 -205h1c8 25 57 171 65 197c-8 23 -15 46 -20 57c-9 20 -19 32 -29 41c-9 7 -17 8 -26 8v4h241v-4c-9 -1 -26 -2 -34 -7c-10 -6 -14 -17 -14 -33c0 -18 5 -36 15 -69l55 -194h1l63 189c12 36 15 54 15 75c0 16 -7 26 -17 32c-9 5 -20 6 -29 7v4h129v-4z" />
    <glyph glyph-name="x" unicode="x" horiz-adv-x="421" 
d="M443 0h-240v5c13 1 18 2 24 6c8 5 12 11 12 27c0 10 -3 21 -14 39l-51 94l-40 -68c-14 -25 -27 -41 -27 -57s5 -26 15 -32c8 -5 14 -8 28 -9v-5h-144v5c9 1 27 7 36 13c32 20 43 31 82 96l42 70l-88 162c-19 35 -40 60 -55 70c-9 6 -22 11 -31 12v5h236v-5
c-13 -1 -17 -2 -23 -6c-8 -5 -13 -10 -13 -26c0 -12 6 -25 15 -42l43 -76l28 47c15 25 28 42 28 63c0 17 -2 25 -10 31s-16 9 -32 9v5h145v-5c-9 -1 -29 -7 -38 -13c-32 -20 -42 -35 -82 -101l-32 -51l97 -178c18 -33 40 -58 55 -68c9 -6 25 -11 34 -12v-5z" />
    <glyph glyph-name="y" unicode="y" horiz-adv-x="417" 
d="M448 429c-25 -3 -44 -16 -56 -36c-8 -13 -16 -33 -30 -72l-152 -400c-13 -36 -32 -71 -52 -97c-21 -26 -50 -37 -83 -37c-44 0 -79 24 -79 72c0 29 20 50 54 50c29 0 42 -13 54 -39c10 -20 13 -35 28 -35c17 0 41 33 62 89c5 11 16 40 16 40c2 4 3 16 -1 27l-118 307
c-16 43 -30 71 -38 85c-9 17 -18 28 -32 36c-9 6 -24 9 -33 10v4h254v-4c-9 -1 -21 -3 -29 -8c-10 -6 -16 -17 -16 -30c0 -18 6 -35 19 -71l62 -180h1l64 175c12 34 16 55 16 75c0 16 -8 26 -18 32c-9 5 -20 6 -29 7v4h136v-4z" />
    <glyph glyph-name="z" unicode="z" horiz-adv-x="396" 
d="M387 166l-33 -166h-340v4l213 413v4h-89c-26 0 -51 -25 -62 -42c0 0 -41 -57 -62 -101h-7l34 155h321v-7l-208 -411v-3h78c36 0 63 22 78 46l70 108h7z" />
    <glyph glyph-name="braceleft" unicode="{" horiz-adv-x="352" 
d="M356 -142c-143 0 -236 24 -236 157c0 38 20 108 20 134c0 56 -17 83 -53 100c-15 8 -38 11 -59 12v16c22 1 46 4 61 13c35 18 51 44 51 99c0 26 -20 95 -20 133c0 133 93 158 236 158v-11c-58 -2 -107 -29 -107 -119c0 -33 13 -84 13 -116c0 -102 -54 -152 -172 -163v-4
c118 -11 172 -61 172 -163c0 -32 -13 -83 -13 -116c0 -90 49 -117 107 -119v-11z" />
    <glyph glyph-name="bar" unicode="|" horiz-adv-x="134" 
d="M79 -99h-24v786h24v-786z" />
    <glyph glyph-name="braceright" unicode="}" horiz-adv-x="352" 
d="M324 261c-22 -1 -45 -4 -60 -12c-35 -18 -52 -45 -52 -100c0 -26 20 -96 20 -134c0 -133 -93 -157 -236 -157v11c59 2 107 29 107 119c0 33 -13 84 -13 116c0 102 54 152 173 163v4c-119 11 -173 61 -173 163c0 32 13 83 13 116c0 90 -48 117 -107 119v11
c143 0 236 -25 236 -158c0 -38 -20 -107 -20 -133c0 -54 16 -81 50 -99c15 -9 39 -12 62 -13v-16z" />
    <glyph glyph-name="asciitilde" unicode="~" horiz-adv-x="339" 
d="M317 337c-10 -55 -34 -114 -96 -114c-45 0 -90 27 -124 27c-28 0 -51 -12 -65 -45l-10 2c15 53 40 113 97 113c39 0 89 -26 119 -26c35 0 55 11 69 43h10z" />
    <glyph glyph-name="Adieresis" unicode="&#xc4;" horiz-adv-x="599" 
d="M616 0h-327v6c10 1 28 5 37 9c19 9 33 23 33 52c0 28 -8 54 -18 86l-21 68h-172l-26 -77c-11 -34 -15 -57 -15 -75c0 -28 15 -46 33 -54c13 -5 29 -8 39 -9v-6h-195v6c15 2 29 5 43 13c12 8 25 21 37 41c12 18 23 47 37 86l184 516h38l142 -430c29 -84 51 -143 70 -179
c14 -23 30 -35 47 -40c12 -4 24 -7 34 -8v-5zM315 237l-76 238h-3l-82 -238h161zM186 838c37 0 64 -28 64 -61c0 -34 -27 -63 -64 -63c-34 0 -61 28 -61 61c0 34 27 63 61 63zM413 838c36 0 62 -28 62 -61c0 -34 -27 -63 -62 -63c-36 0 -62 28 -62 61c0 34 27 63 62 63z" />
    <glyph glyph-name="Aring" unicode="&#xc5;" horiz-adv-x="599" 
d="M616 0h-327v6c10 1 28 5 37 9c19 9 33 23 33 52c0 28 -8 54 -18 86l-21 68h-172l-26 -77c-11 -34 -15 -57 -15 -75c0 -28 15 -46 33 -54c13 -5 29 -8 39 -9v-6h-195v6c15 2 29 5 43 13c12 8 25 21 37 41c12 18 23 47 37 86l184 516h38l142 -430c29 -84 51 -143 70 -179
c14 -23 30 -35 47 -40c12 -4 24 -7 34 -8v-5zM315 237l-76 238h-3l-82 -238h161zM384 786c0 -51 -40 -84 -84 -84c-43 0 -84 31 -84 84s41 85 84 85c42 0 84 -31 84 -85zM357 786c0 40 -25 63 -58 63c-31 0 -58 -23 -58 -63c0 -39 25 -61 58 -61c32 0 58 21 58 61z" />
    <glyph glyph-name="Ccedilla" unicode="&#xc7;" horiz-adv-x="615" 
d="M425 -112c0 -63 -56 -83 -114 -83c-24 0 -58 9 -74 18l4 7c13 -5 33 -9 52 -9c35 0 62 20 62 65c0 40 -20 57 -38 57c-11 0 -22 -2 -29 -11l-13 4l16 55c-138 20 -261 122 -261 338c0 245 166 341 324 341c86 0 168 -32 195 -72h3l24 48h7v-234h-10
c-35 147 -98 241 -218 241c-41 0 -86 -17 -117 -59c-36 -47 -59 -131 -59 -265c0 -153 39 -226 97 -274c24 -19 66 -31 109 -31c75 0 158 44 199 194l13 -5c-26 -133 -130 -227 -250 -227c-14 0 -28 1 -41 3l-11 -41c10 7 29 12 43 12c57 0 87 -27 87 -72z" />
    <glyph glyph-name="Eacute" unicode="&#xc9;" horiz-adv-x="576" 
d="M203 703l-3 5c61 51 98 84 132 111c29 23 40 28 62 28c25 0 45 -20 45 -49c0 -30 -28 -46 -62 -56c-38 -11 -87 -21 -174 -39zM551 227l-14 -227h-523v5c8 0 20 3 30 6c21 6 38 18 47 47c8 29 11 80 11 134v273c0 54 -3 106 -11 134c-9 29 -26 41 -47 47
c-10 3 -22 5 -30 6v5h500l21 -206h-6c-18 51 -47 105 -84 145c-22 24 -55 45 -95 45h-21c-24 0 -42 -4 -56 -17c-32 -26 -35 -84 -35 -125v-150h36c57 0 71 3 91 22c26 24 49 76 53 109h6v-277h-6c-4 32 -24 81 -49 103c-18 15 -38 27 -95 27h-36v-168
c0 -41 -1 -102 31 -128c17 -15 43 -21 67 -21h20c44 0 78 18 102 48c40 47 71 113 87 163h6z" />
    <glyph glyph-name="Ntilde" unicode="&#xd1;" horiz-adv-x="663" 
d="M528 832c-10 -55 -33 -117 -95 -117c-45 0 -114 30 -147 30c-25 0 -47 -9 -62 -41l-9 3c15 53 39 113 96 113c39 0 113 -28 143 -28c34 0 51 10 65 42zM658 652c-13 -1 -23 -3 -34 -6c-17 -5 -34 -20 -43 -42c-9 -24 -17 -55 -17 -120v-490h-32l-380 541h-4v-363
c0 -65 8 -95 18 -119c8 -22 26 -37 44 -42c10 -3 19 -5 33 -6v-5h-209v5c14 1 24 3 34 6c18 5 35 20 43 42c10 24 19 54 19 119v273c0 69 -10 121 -22 145c-11 22 -36 43 -62 54c-10 4 -23 6 -32 7v6h231l297 -438h2v265c0 65 -8 96 -16 120c-10 22 -28 37 -45 42
c-10 3 -19 5 -33 6v5h208v-5z" />
    <glyph glyph-name="Odieresis" unicode="&#xd6;" horiz-adv-x="683" 
d="M227 838c37 0 64 -28 64 -61c0 -34 -27 -63 -64 -63c-34 0 -61 28 -61 61c0 34 27 63 61 63zM454 838c36 0 62 -28 62 -61c0 -34 -27 -63 -62 -63c-36 0 -62 28 -62 61c0 34 27 63 62 63zM653 328c0 -207 -123 -342 -312 -342c-188 0 -311 135 -311 342s123 342 311 342
c189 0 312 -135 312 -342zM501 328c0 182 -34 263 -84 305c-24 19 -52 21 -76 21s-51 -2 -75 -21c-50 -42 -84 -123 -84 -305s34 -263 84 -305c24 -18 51 -21 75 -21s52 2 76 21c50 41 84 123 84 305z" />
    <glyph glyph-name="Udieresis" unicode="&#xdc;" horiz-adv-x="654" 
d="M649 652c-14 -1 -24 -3 -34 -6c-16 -5 -35 -19 -44 -41c-10 -24 -17 -55 -17 -120v-265c0 -56 -9 -105 -30 -144c-25 -46 -87 -90 -186 -90c-104 0 -185 29 -222 115c-16 34 -22 106 -22 143v222c0 54 -2 105 -11 133c-8 29 -26 41 -46 47c-11 3 -23 5 -30 6v5h313v-5
c-7 -1 -18 -3 -29 -6c-21 -6 -38 -18 -47 -47c-8 -28 -11 -79 -11 -133v-265c0 -32 3 -68 13 -97c21 -60 61 -86 124 -86c64 0 119 28 142 77c14 32 21 72 21 121v269c0 65 -7 96 -17 120c-8 21 -27 36 -44 41c-10 3 -20 5 -34 6v5h211v-5zM251 838c37 0 64 -28 64 -61
c0 -34 -27 -63 -64 -63c-34 0 -61 28 -61 61c0 34 27 63 61 63zM478 838c36 0 62 -28 62 -61c0 -34 -27 -63 -62 -63c-36 0 -62 28 -62 61c0 34 27 63 62 63z" />
    <glyph glyph-name="aacute" unicode="&#xe1;" horiz-adv-x="430" 
d="M431 18c-8 -11 -49 -27 -98 -27c-32 0 -54 5 -68 18c-11 8 -17 25 -17 51h-2c-14 -47 -56 -69 -115 -69c-57 0 -112 34 -112 112c0 30 7 47 25 68c27 29 78 35 110 47c74 23 93 54 93 88c0 17 1 49 1 64c0 48 -12 60 -52 60c-22 0 -32 -7 -37 -15c-6 -10 -7 -35 -7 -62
c0 -37 -19 -54 -55 -54c-31 0 -52 15 -52 48c0 17 6 32 16 44c23 30 85 51 140 51c98 0 168 -33 168 -117c0 -33 -1 -164 -1 -226c0 -45 2 -65 10 -75c6 -6 13 -9 24 -9c10 0 21 3 29 7v-4zM245 262c-13 -20 -29 -28 -45 -38c-23 -13 -33 -24 -41 -41
c-9 -17 -13 -50 -13 -79c0 -56 17 -80 49 -80c22 0 49 33 49 84zM331 625c0 -25 -16 -42 -43 -58c-33 -21 -78 -42 -157 -83l-4 4c45 67 70 110 96 144c24 32 35 43 60 43c33 0 48 -19 48 -50z" />
    <glyph glyph-name="agrave" unicode="&#xe0;" horiz-adv-x="430" 
d="M431 18c-8 -11 -49 -27 -98 -27c-32 0 -54 5 -68 18c-11 8 -17 25 -17 51h-2c-14 -47 -56 -69 -115 -69c-57 0 -112 34 -112 112c0 30 7 47 25 68c27 29 78 35 110 47c74 23 93 54 93 88c0 17 1 49 1 64c0 48 -12 60 -52 60c-22 0 -32 -7 -37 -15c-6 -10 -7 -35 -7 -62
c0 -37 -19 -54 -55 -54c-31 0 -52 15 -52 48c0 17 6 32 16 44c23 30 85 51 140 51c98 0 168 -33 168 -117c0 -33 -1 -164 -1 -226c0 -45 2 -65 10 -75c6 -6 13 -9 24 -9c10 0 21 3 29 7v-4zM245 262c-13 -20 -29 -28 -45 -38c-23 -13 -33 -24 -41 -41
c-9 -17 -13 -50 -13 -79c0 -56 17 -80 49 -80c22 0 49 33 49 84zM306 488l-4 -4c-77 42 -124 62 -157 83c-27 16 -44 33 -44 61c0 29 19 47 47 47c25 0 38 -10 62 -43c25 -35 52 -78 96 -144z" />
    <glyph glyph-name="acircumflex" unicode="&#xe2;" horiz-adv-x="430" 
d="M431 18c-8 -11 -49 -27 -98 -27c-32 0 -54 5 -68 18c-11 8 -17 25 -17 51h-2c-14 -47 -56 -69 -115 -69c-57 0 -112 34 -112 112c0 30 7 47 25 68c27 29 78 35 110 47c74 23 93 54 93 88c0 17 1 49 1 64c0 48 -12 60 -52 60c-22 0 -32 -7 -37 -15c-6 -10 -7 -35 -7 -62
c0 -37 -19 -54 -55 -54c-31 0 -52 15 -52 48c0 17 6 32 16 44c23 30 85 51 140 51c98 0 168 -33 168 -117c0 -33 -1 -164 -1 -226c0 -45 2 -65 10 -75c6 -6 13 -9 24 -9c10 0 21 3 29 7v-4zM245 262c-13 -20 -29 -28 -45 -38c-23 -13 -33 -24 -41 -41
c-9 -17 -13 -50 -13 -79c0 -56 17 -80 49 -80c22 0 49 33 49 84zM345 499l-5 -4l-131 91l-129 -91l-5 4c31 46 92 147 106 169h57c15 -22 76 -122 107 -169z" />
    <glyph glyph-name="adieresis" unicode="&#xe4;" horiz-adv-x="430" 
d="M431 18c-8 -11 -49 -27 -98 -27c-32 0 -54 5 -68 18c-11 8 -17 25 -17 51h-2c-14 -47 -56 -69 -115 -69c-57 0 -112 34 -112 112c0 30 7 47 25 68c27 29 78 35 110 47c74 23 93 54 93 88c0 17 1 49 1 64c0 48 -12 60 -52 60c-22 0 -32 -7 -37 -15c-6 -10 -7 -35 -7 -62
c0 -37 -19 -54 -55 -54c-31 0 -52 15 -52 48c0 17 6 32 16 44c23 30 85 51 140 51c98 0 168 -33 168 -117c0 -33 -1 -164 -1 -226c0 -45 2 -65 10 -75c6 -6 13 -9 24 -9c10 0 21 3 29 7v-4zM245 262c-13 -20 -29 -28 -45 -38c-23 -13 -33 -24 -41 -41
c-9 -17 -13 -50 -13 -79c0 -56 17 -80 49 -80c22 0 49 33 49 84zM125 646c35 0 61 -27 61 -58c0 -33 -26 -60 -61 -60c-33 0 -58 26 -58 58s26 60 58 60zM300 646c34 0 59 -27 59 -58c0 -33 -25 -60 -59 -60s-59 26 -59 58s26 60 59 60z" />
    <glyph glyph-name="atilde" unicode="&#xe3;" horiz-adv-x="430" 
d="M431 18c-8 -11 -49 -27 -98 -27c-32 0 -54 5 -68 18c-11 8 -17 25 -17 51h-2c-14 -47 -56 -69 -115 -69c-57 0 -112 34 -112 112c0 30 7 47 25 68c27 29 78 35 110 47c74 23 93 54 93 88c0 17 1 49 1 64c0 48 -12 60 -52 60c-22 0 -32 -7 -37 -15c-6 -10 -7 -35 -7 -62
c0 -37 -19 -54 -55 -54c-31 0 -52 15 -52 48c0 17 6 32 16 44c23 30 85 51 140 51c98 0 168 -33 168 -117c0 -33 -1 -164 -1 -226c0 -45 2 -65 10 -75c6 -6 13 -9 24 -9c10 0 21 3 29 7v-4zM245 262c-13 -20 -29 -28 -45 -38c-23 -13 -33 -24 -41 -41
c-9 -17 -13 -50 -13 -79c0 -56 17 -80 49 -80c22 0 49 33 49 84zM366 651c-10 -56 -34 -121 -96 -121c-45 0 -90 27 -123 27c-29 0 -51 -12 -66 -44l-10 1c15 54 40 119 97 119c39 0 89 -26 119 -26c35 0 55 12 69 44h10z" />
    <glyph glyph-name="aring" unicode="&#xe5;" horiz-adv-x="430" 
d="M431 18c-8 -11 -49 -27 -98 -27c-32 0 -54 5 -68 18c-11 8 -17 25 -17 51h-2c-14 -47 -56 -69 -115 -69c-57 0 -112 34 -112 112c0 30 7 47 25 68c27 29 78 35 110 47c74 23 93 54 93 88c0 17 1 49 1 64c0 48 -12 60 -52 60c-22 0 -32 -7 -37 -15c-6 -10 -7 -35 -7 -62
c0 -37 -19 -54 -55 -54c-31 0 -52 15 -52 48c0 17 6 32 16 44c23 30 85 51 140 51c98 0 168 -33 168 -117c0 -33 -1 -164 -1 -226c0 -45 2 -65 10 -75c6 -6 13 -9 24 -9c10 0 21 3 29 7v-4zM245 262c-13 -20 -29 -28 -45 -38c-23 -13 -33 -24 -41 -41
c-9 -17 -13 -50 -13 -79c0 -56 17 -80 49 -80c22 0 49 33 49 84zM297 591c0 -51 -40 -85 -84 -85c-43 0 -84 31 -84 85c0 53 41 84 84 84c42 0 84 -30 84 -84zM270 590c0 41 -25 63 -58 63c-31 0 -58 -22 -58 -62c0 -39 25 -62 58 -62c32 0 58 21 58 61z" />
    <glyph glyph-name="ccedilla" unicode="&#xe7;" horiz-adv-x="404" 
d="M317 -108c0 -63 -57 -83 -115 -83c-24 0 -57 9 -73 18l4 7c13 -5 33 -9 52 -9c35 0 62 20 62 65c0 40 -21 57 -39 57c-10 0 -21 -2 -28 -11l-13 4l16 56c-43 8 -77 27 -101 52c-40 42 -61 101 -61 173c0 142 109 221 217 221c61 0 108 -21 127 -42c17 -18 25 -34 25 -55
c0 -34 -28 -50 -51 -50c-40 0 -53 25 -58 66c-7 51 -17 70 -45 70c-16 0 -37 -7 -50 -22c-22 -27 -33 -97 -33 -175c0 -89 12 -149 34 -188c16 -26 38 -33 60 -33c84 0 119 73 137 130l12 -5c-19 -78 -71 -147 -163 -147c-13 0 -25 1 -36 3l-10 -42c10 7 28 12 42 12
c58 0 88 -27 88 -72z" />
    <glyph glyph-name="eacute" unicode="&#xe9;" horiz-adv-x="427" 
d="M343 625c0 -25 -16 -42 -43 -58c-33 -21 -78 -42 -157 -83l-4 4c45 67 70 110 96 144c24 32 35 43 60 43c33 0 48 -19 48 -50zM413 239h-260c0 -114 20 -166 46 -196c16 -17 41 -26 66 -26c79 0 116 65 133 125l11 -3c-18 -84 -78 -148 -175 -148c-49 0 -102 12 -141 46
c-46 40 -72 96 -72 178c0 148 99 227 206 227c128 0 187 -87 187 -176c0 -7 0 -19 -1 -27zM297 292c0 56 -8 99 -26 121c-11 12 -26 17 -42 17c-17 0 -30 -5 -43 -18c-19 -21 -30 -72 -33 -159h112c24 0 32 8 32 39z" />
    <glyph glyph-name="egrave" unicode="&#xe8;" horiz-adv-x="427" 
d="M413 239h-260c0 -114 20 -166 46 -196c16 -17 41 -26 66 -26c79 0 116 65 133 125l11 -3c-18 -84 -78 -148 -175 -148c-49 0 -102 12 -141 46c-46 40 -72 96 -72 178c0 148 99 227 206 227c128 0 187 -87 187 -176c0 -7 0 -19 -1 -27zM297 292c0 56 -8 99 -26 121
c-11 12 -26 17 -42 17c-17 0 -30 -5 -43 -18c-19 -21 -30 -72 -33 -159h112c24 0 32 8 32 39zM324 488l-4 -4c-77 42 -124 62 -157 83c-27 16 -44 33 -44 61c0 29 19 47 47 47c25 0 38 -10 62 -43c25 -35 52 -78 96 -144z" />
    <glyph glyph-name="ecircumflex" unicode="&#xea;" horiz-adv-x="427" 
d="M363 499l-5 -4l-131 91l-129 -91l-5 4c31 46 92 147 106 169h57c15 -22 76 -122 107 -169zM413 239h-260c0 -114 20 -166 46 -196c16 -17 41 -26 66 -26c79 0 116 65 133 125l11 -3c-18 -84 -78 -148 -175 -148c-49 0 -102 12 -141 46c-46 40 -72 96 -72 178
c0 148 99 227 206 227c128 0 187 -87 187 -176c0 -7 0 -19 -1 -27zM297 292c0 56 -8 99 -26 121c-11 12 -26 17 -42 17c-17 0 -30 -5 -43 -18c-19 -21 -30 -72 -33 -159h112c24 0 32 8 32 39z" />
    <glyph glyph-name="edieresis" unicode="&#xeb;" horiz-adv-x="427" 
d="M144 646c35 0 61 -27 61 -58c0 -33 -26 -60 -61 -60c-33 0 -58 26 -58 58s26 60 58 60zM319 646c34 0 59 -27 59 -58c0 -33 -25 -60 -59 -60s-59 26 -59 58s26 60 59 60zM413 239h-260c0 -114 20 -166 46 -196c16 -17 41 -26 66 -26c79 0 116 65 133 125l11 -3
c-18 -84 -78 -148 -175 -148c-49 0 -102 12 -141 46c-46 40 -72 96 -72 178c0 148 99 227 206 227c128 0 187 -87 187 -176c0 -7 0 -19 -1 -27zM297 292c0 56 -8 99 -26 121c-11 12 -26 17 -42 17c-17 0 -30 -5 -43 -18c-19 -21 -30 -72 -33 -159h112c24 0 32 8 32 39z" />
    <glyph glyph-name="iacute" unicode="&#xed;" 
d="M251 625c0 -25 -16 -42 -43 -58c-33 -21 -78 -42 -157 -83l-4 4c45 67 70 110 96 144c24 32 35 43 60 43c33 0 48 -19 48 -50zM253 0h-239v5c7 1 15 1 23 4c15 7 24 12 30 38c4 14 5 45 5 69v194c0 18 0 60 -2 76c-3 19 -9 26 -18 33c-10 7 -23 8 -33 9v5h170
c5 0 7 -2 7 -7c0 -15 -1 -36 -1 -62v-248c0 -24 0 -55 4 -69c6 -26 15 -31 31 -38c8 -3 16 -3 23 -4v-5z" />
    <glyph glyph-name="igrave" unicode="&#xec;" 
d="M253 0h-239v5c7 1 15 1 23 4c15 7 24 12 30 38c4 14 5 45 5 69v194c0 18 0 60 -2 76c-3 19 -9 26 -18 33c-10 7 -23 8 -33 9v5h170c5 0 7 -2 7 -7c0 -15 -1 -36 -1 -62v-248c0 -24 0 -55 4 -69c6 -26 15 -31 31 -38c8 -3 16 -3 23 -4v-5zM208 488l-4 -4
c-77 42 -124 62 -157 83c-27 16 -44 33 -44 61c0 29 19 47 47 47c25 0 38 -10 62 -43c25 -35 52 -78 96 -144z" />
    <glyph glyph-name="icircumflex" unicode="&#xee;" 
d="M264 499l-5 -4l-131 91l-129 -91l-5 4c31 46 92 147 106 169h57c15 -22 76 -122 107 -169zM253 0h-239v5c7 1 15 1 23 4c15 7 24 12 30 38c4 14 5 45 5 69v194c0 18 0 60 -2 76c-3 19 -9 26 -18 33c-10 7 -23 8 -33 9v5h170c5 0 7 -2 7 -7c0 -15 -1 -36 -1 -62v-248
c0 -24 0 -55 4 -69c6 -26 15 -31 31 -38c8 -3 16 -3 23 -4v-5z" />
    <glyph glyph-name="idieresis" unicode="&#xef;" 
d="M210 646c34 0 59 -27 59 -58c0 -33 -26 -60 -59 -60c-34 0 -59 26 -59 58s26 60 59 60zM45 646c35 0 60 -27 60 -58c0 -33 -25 -60 -60 -60c-33 0 -58 26 -58 58s26 60 58 60zM253 0h-239v5c7 1 15 1 23 4c15 7 24 12 30 38c4 14 5 45 5 69v194c0 18 0 60 -2 76
c-3 19 -9 26 -18 33c-10 7 -23 8 -33 9v5h170c5 0 7 -2 7 -7c0 -15 -1 -36 -1 -62v-248c0 -24 0 -55 4 -69c6 -26 15 -31 31 -38c8 -3 16 -3 23 -4v-5z" />
    <glyph glyph-name="ntilde" unicode="&#xf1;" horiz-adv-x="530" 
d="M519 0h-235v4c8 1 14 2 22 5c17 8 24 16 29 42c3 18 4 43 4 69v201c0 39 -3 57 -14 70c-9 12 -21 18 -44 18c-28 0 -76 -32 -83 -114c-2 -24 -4 -49 -4 -79v-96c0 -26 0 -52 4 -70c5 -25 11 -33 29 -41c8 -3 15 -4 22 -5v-4h-235v4c6 1 15 2 23 5c16 7 24 11 31 37
c5 18 4 56 4 85v179c0 18 0 60 -2 76c-3 19 -9 27 -18 33c-10 8 -23 8 -32 9v5h170c4 0 6 -2 6 -6c0 -7 -2 -81 -2 -92h2c11 40 32 63 52 79c24 18 63 28 89 28c46 0 77 -9 97 -37c14 -20 27 -54 27 -102v-172c0 -29 0 -66 4 -84c7 -26 15 -31 31 -38c8 -3 16 -4 23 -5v-4z
M414 651c-10 -56 -34 -121 -96 -121c-45 0 -90 27 -123 27c-29 0 -51 -12 -66 -44l-10 1c15 54 40 119 97 119c39 0 89 -26 119 -26c35 0 55 12 69 44h10z" />
    <glyph glyph-name="oacute" unicode="&#xf3;" horiz-adv-x="479" 
d="M359 625c0 -25 -16 -42 -43 -58c-33 -21 -78 -42 -157 -83l-4 4c45 67 70 110 96 144c24 32 35 43 60 43c33 0 48 -19 48 -50zM458 217c0 -141 -110 -226 -219 -226c-108 0 -218 84 -218 226s111 225 218 225c108 0 219 -84 219 -225zM328 217c0 94 -12 164 -36 193
c-15 18 -35 22 -53 22c-17 0 -37 -6 -51 -21c-26 -29 -37 -100 -37 -194c0 -95 12 -165 36 -194c15 -18 35 -23 52 -23c18 0 37 4 53 23c23 29 36 99 36 194z" />
    <glyph glyph-name="ograve" unicode="&#xf2;" horiz-adv-x="479" 
d="M458 217c0 -141 -110 -226 -219 -226c-108 0 -218 84 -218 226s111 225 218 225c108 0 219 -84 219 -225zM328 217c0 94 -12 164 -36 193c-15 18 -35 22 -53 22c-17 0 -37 -6 -51 -21c-26 -29 -37 -100 -37 -194c0 -95 12 -165 36 -194c15 -18 35 -23 52 -23
c18 0 37 4 53 23c23 29 36 99 36 194zM318 488l-4 -4c-77 42 -124 62 -157 83c-27 16 -44 33 -44 61c0 29 19 47 47 47c25 0 38 -10 62 -43c25 -35 52 -78 96 -144z" />
    <glyph glyph-name="ocircumflex" unicode="&#xf4;" horiz-adv-x="479" 
d="M373 499l-5 -4l-131 91l-129 -91l-5 4c31 46 92 147 106 169h57c15 -22 76 -122 107 -169zM458 217c0 -141 -110 -226 -219 -226c-108 0 -218 84 -218 226s111 225 218 225c108 0 219 -84 219 -225zM328 217c0 94 -12 164 -36 193c-15 18 -35 22 -53 22
c-17 0 -37 -6 -51 -21c-26 -29 -37 -100 -37 -194c0 -95 12 -165 36 -194c15 -18 35 -23 52 -23c18 0 37 4 53 23c23 29 36 99 36 194z" />
    <glyph glyph-name="odieresis" unicode="&#xf6;" horiz-adv-x="479" 
d="M154 646c35 0 61 -27 61 -58c0 -33 -26 -60 -61 -60c-33 0 -58 26 -58 58s26 60 58 60zM329 646c34 0 59 -27 59 -58c0 -33 -25 -60 -59 -60s-59 26 -59 58s26 60 59 60zM458 217c0 -141 -110 -226 -219 -226c-108 0 -218 84 -218 226s111 225 218 225
c108 0 219 -84 219 -225zM328 217c0 94 -12 164 -36 193c-15 18 -35 22 -53 22c-17 0 -37 -6 -51 -21c-26 -29 -37 -100 -37 -194c0 -95 12 -165 36 -194c15 -18 35 -23 52 -23c18 0 37 4 53 23c23 29 36 99 36 194z" />
    <glyph glyph-name="otilde" unicode="&#xf5;" horiz-adv-x="479" 
d="M458 217c0 -141 -110 -226 -219 -226c-108 0 -218 84 -218 226s111 225 218 225c108 0 219 -84 219 -225zM328 217c0 94 -12 164 -36 193c-15 18 -35 22 -53 22c-17 0 -37 -6 -51 -21c-26 -29 -37 -100 -37 -194c0 -95 12 -165 36 -194c15 -18 35 -23 52 -23
c18 0 37 4 53 23c23 29 36 99 36 194zM388 651c-10 -56 -34 -121 -96 -121c-45 0 -90 27 -123 27c-29 0 -51 -12 -66 -44l-10 1c15 54 40 119 97 119c39 0 89 -26 119 -26c35 0 55 12 69 44h10z" />
    <glyph glyph-name="uacute" unicode="&#xfa;" horiz-adv-x="510" 
d="M377 625c0 -25 -16 -42 -43 -58c-33 -21 -78 -42 -157 -83l-4 4c45 67 70 110 96 144c24 32 35 43 60 43c33 0 48 -19 48 -50zM502 0c-10 0 -170 -4 -173 -4c-1 0 -3 1 -3 3c-1 4 -1 12 -1 19v70h-3c-12 -33 -23 -51 -44 -69c-23 -20 -55 -28 -84 -28c-36 0 -75 7 -99 34
c-21 22 -32 61 -32 102v185c0 22 0 59 -3 74c-5 20 -10 29 -21 36c-9 6 -24 6 -33 7v4h174c4 0 7 -1 7 -8c0 -12 -1 -68 -1 -118v-202c0 -29 5 -52 15 -66s25 -19 43 -19c33 0 70 44 77 117c2 24 3 39 3 69v117c0 20 0 44 -2 59c-3 20 -8 32 -20 39c-8 6 -26 8 -35 8v4h173
c5 0 7 -3 7 -8c0 -12 -1 -66 -1 -115v-196c0 -18 1 -48 2 -64c3 -19 9 -30 20 -37c9 -7 25 -8 34 -9v-4z" />
    <glyph glyph-name="ugrave" unicode="&#xf9;" horiz-adv-x="510" 
d="M502 0c-10 0 -170 -4 -173 -4c-1 0 -3 1 -3 3c-1 4 -1 12 -1 19v70h-3c-12 -33 -23 -51 -44 -69c-23 -20 -55 -28 -84 -28c-36 0 -75 7 -99 34c-21 22 -32 61 -32 102v185c0 22 0 59 -3 74c-5 20 -10 29 -21 36c-9 6 -24 6 -33 7v4h174c4 0 7 -1 7 -8
c0 -12 -1 -68 -1 -118v-202c0 -29 5 -52 15 -66s25 -19 43 -19c33 0 70 44 77 117c2 24 3 39 3 69v117c0 20 0 44 -2 59c-3 20 -8 32 -20 39c-8 6 -26 8 -35 8v4h173c5 0 7 -3 7 -8c0 -12 -1 -66 -1 -115v-196c0 -18 1 -48 2 -64c3 -19 9 -30 20 -37c9 -7 25 -8 34 -9v-4z
M336 488l-4 -4c-77 42 -124 62 -157 83c-27 16 -44 33 -44 61c0 29 19 47 47 47c25 0 38 -10 62 -43c25 -35 52 -78 96 -144z" />
    <glyph glyph-name="ucircumflex" unicode="&#xfb;" horiz-adv-x="510" 
d="M389 499l-5 -4l-131 91l-129 -91l-5 4c31 46 92 147 106 169h57c15 -22 76 -122 107 -169zM502 0c-10 0 -170 -4 -173 -4c-1 0 -3 1 -3 3c-1 4 -1 12 -1 19v70h-3c-12 -33 -23 -51 -44 -69c-23 -20 -55 -28 -84 -28c-36 0 -75 7 -99 34c-21 22 -32 61 -32 102v185
c0 22 0 59 -3 74c-5 20 -10 29 -21 36c-9 6 -24 6 -33 7v4h174c4 0 7 -1 7 -8c0 -12 -1 -68 -1 -118v-202c0 -29 5 -52 15 -66s25 -19 43 -19c33 0 70 44 77 117c2 24 3 39 3 69v117c0 20 0 44 -2 59c-3 20 -8 32 -20 39c-8 6 -26 8 -35 8v4h173c5 0 7 -3 7 -8
c0 -12 -1 -66 -1 -115v-196c0 -18 1 -48 2 -64c3 -19 9 -30 20 -37c9 -7 25 -8 34 -9v-4z" />
    <glyph glyph-name="udieresis" unicode="&#xfc;" horiz-adv-x="510" 
d="M156 646c35 0 61 -27 61 -58c0 -33 -26 -60 -61 -60c-33 0 -58 26 -58 58s26 60 58 60zM331 646c34 0 59 -27 59 -58c0 -33 -25 -60 -59 -60s-59 26 -59 58s26 60 59 60zM502 0c-10 0 -170 -4 -173 -4c-1 0 -3 1 -3 3c-1 4 -1 12 -1 19v70h-3c-12 -33 -23 -51 -44 -69
c-23 -20 -55 -28 -84 -28c-36 0 -75 7 -99 34c-21 22 -32 61 -32 102v185c0 22 0 59 -3 74c-5 20 -10 29 -21 36c-9 6 -24 6 -33 7v4h174c4 0 7 -1 7 -8c0 -12 -1 -68 -1 -118v-202c0 -29 5 -52 15 -66s25 -19 43 -19c33 0 70 44 77 117c2 24 3 39 3 69v117c0 20 0 44 -2 59
c-3 20 -8 32 -20 39c-8 6 -26 8 -35 8v4h173c5 0 7 -3 7 -8c0 -12 -1 -66 -1 -115v-196c0 -18 1 -48 2 -64c3 -19 9 -30 20 -37c9 -7 25 -8 34 -9v-4z" />
    <glyph glyph-name="dagger" unicode="&#x2020;" horiz-adv-x="505" 
d="M491 433c0 -27 -30 -54 -65 -54c-28 0 -47 12 -61 27c-15 17 -23 30 -37 30s-21 -7 -23 -34l-44 -602h-18l-43 602c-2 27 -9 34 -23 34c-9 0 -16 -7 -25 -16c-4 -5 -8 -10 -14 -16c-15 -16 -32 -25 -60 -25c-34 0 -64 27 -64 54c0 21 14 34 30 34c22 0 30 -14 30 -34
c0 -5 -4 -13 -9 -19c-4 -4 -7 -8 -7 -11c0 -8 4 -11 10 -11c7 0 20 17 26 24l22 27c13 15 26 22 37 22c17 0 29 -12 41 -24c10 -9 19 -20 31 -20s19 9 19 21c0 6 -8 13 -25 24c-13 8 -24 24 -24 47c0 27 12 40 22 48c14 11 26 13 26 20s-9 14 -15 20c-4 5 -9 12 -9 24
c0 21 18 32 33 32s34 -11 34 -32c0 -12 -5 -19 -9 -24c-6 -6 -15 -13 -15 -20s12 -9 26 -20c10 -8 22 -21 22 -48c0 -23 -11 -38 -24 -47c-16 -11 -25 -18 -25 -24c0 -12 6 -21 19 -21c12 0 21 11 31 20c12 12 23 24 40 24c14 0 29 -10 45 -31c6 -7 16 -20 25 -30
c6 -6 12 -12 16 -12c6 0 10 3 10 11c0 3 -3 7 -8 11c-4 6 -8 14 -8 19c0 20 8 34 30 34c16 0 30 -13 30 -34z" />
    <glyph glyph-name="degree" unicode="&#xb0;" horiz-adv-x="332" 
d="M290 544c0 -77 -62 -128 -125 -128s-125 51 -125 128s62 128 125 128s125 -51 125 -128zM239 544c0 76 -27 115 -74 115s-74 -39 -74 -115s27 -115 74 -115s74 39 74 115z" />
    <glyph glyph-name="cent" unicode="&#xa2;" horiz-adv-x="404" 
d="M396 134c-18 -75 -66 -140 -149 -147v-82h-19v82c-56 2 -110 19 -146 57c-41 42 -61 101 -61 173c0 137 102 215 207 220v84h19v-84c57 -1 100 -21 118 -42c17 -18 25 -35 25 -55c0 -31 -24 -48 -47 -48c-36 0 -53 23 -58 64c-6 41 -16 62 -38 68v-414
c83 1 119 71 137 128zM228 11v415c-15 -2 -31 -9 -42 -23c-22 -27 -33 -95 -33 -173c0 -89 12 -150 34 -188c12 -19 26 -28 41 -31z" />
    <glyph glyph-name="sterling" unicode="&#xa3;" horiz-adv-x="632" 
d="M458 669c87 0 143 -49 143 -118c0 -81 -54 -114 -115 -114c-52 0 -94 32 -99 77l7 4c13 -30 39 -44 68 -44c37 0 69 21 69 87c0 59 -30 91 -73 91c-41 0 -73 -28 -83 -83c-15 -71 -9 -165 -15 -250c-1 -5 -1 -20 -2 -25h162v-21h-165c-7 -52 -22 -103 -45 -143
c31 -7 71 -17 101 -17c95 0 152 29 171 80l11 -4c-12 -110 -70 -216 -190 -216c-61 0 -118 36 -163 69c-36 -36 -81 -58 -139 -58c-64 0 -106 33 -106 84c0 57 54 96 130 96c26 0 44 -4 87 -16c1 35 -1 79 -2 125h-112v21h111c-2 17 -2 44 -2 64c14 209 139 311 251 311z
M98 130c-36 0 -60 -26 -60 -61c0 -37 25 -65 74 -65c43 0 79 22 101 60l-13 10c-31 30 -64 56 -102 56z" />
    <glyph glyph-name="section" unicode="&#xa7;" horiz-adv-x="457" 
d="M243 670c96 0 155 -32 156 -82c1 -26 -12 -55 -46 -55c-32 0 -47 22 -54 41c-5 15 -5 44 -10 58c-6 15 -15 23 -48 23c-36 0 -66 -30 -66 -77c0 -71 70 -114 122 -154c62 -46 139 -110 139 -195c0 -67 -42 -122 -100 -140c29 -30 50 -65 50 -115
c0 -86 -69 -160 -157 -160c-97 0 -155 32 -157 83c-1 26 12 54 46 54c32 0 47 -22 54 -41c5 -15 6 -45 11 -58c6 -15 14 -23 48 -23c36 0 65 30 65 78c0 70 -67 115 -126 159c-62 47 -131 117 -131 193c0 68 41 121 99 138c-30 29 -53 65 -53 117c0 87 70 156 158 156z
M349 158c0 60 -82 132 -129 165c-21 19 -44 38 -64 58c-17 -6 -29 -26 -29 -55c0 -60 84 -130 125 -160c21 -21 45 -41 67 -62c17 6 30 25 30 54z" />
    <glyph glyph-name="bullet" unicode="&#x2022;" horiz-adv-x="449" 
d="M352 325c0 -70 -58 -126 -127 -126s-128 56 -128 126c0 69 59 128 128 128c70 0 127 -59 127 -128z" />
    <glyph glyph-name="paragraph" unicode="&#xb6;" horiz-adv-x="491" 
d="M484 643h-82v-794h-20v794h-96v-794h-19v431h-20c-168 0 -227 98 -227 188c0 102 75 189 202 189h262v-14z" />
    <glyph glyph-name="germandbls" unicode="&#xdf;" horiz-adv-x="544" 
d="M534 132c0 -88 -65 -140 -150 -140c-33 0 -76 12 -101 35h-3l-17 -25h-3l-5 145h5c20 -91 62 -145 124 -145c44 0 64 23 64 64c0 36 -32 64 -89 96c-54 30 -102 58 -102 130c0 114 143 137 143 278c0 52 -23 107 -106 107s-109 -50 -109 -148v-398c0 -28 2 -71 5 -84
c8 -33 15 -37 33 -43v-4h-219v4c7 1 15 2 23 5c16 7 25 11 31 37c5 18 4 57 4 85v284h-56v18h56v42c0 145 105 214 227 214c116 0 175 -43 175 -112c0 -93 -132 -120 -132 -209c0 -37 30 -53 90 -89c74 -41 112 -65 112 -147z" />
    <glyph glyph-name="registered" unicode="&#xae;" horiz-adv-x="555" 
d="M529 421c0 -137 -115 -250 -252 -250c-138 0 -251 113 -251 250s113 250 251 250c137 0 252 -113 252 -250zM505 421c0 124 -104 230 -228 230c-125 0 -228 -106 -228 -230c0 -125 103 -231 228 -231c124 0 228 106 228 231zM435 290h-96c-9 12 -17 33 -20 58
c-3 27 -7 47 -18 64c-9 13 -22 18 -39 18h-22v-76c0 -16 1 -28 3 -35s4 -12 12 -15c5 -2 18 -4 23 -4v-10h-135v10c5 0 16 2 21 4c8 3 11 8 13 15s2 19 2 35v155c0 16 0 28 -2 35s-5 12 -13 15c-5 2 -16 4 -21 4v10h140c64 0 101 -23 101 -69c0 -36 -30 -60 -83 -66v-1
c47 -4 70 -20 81 -77c7 -38 14 -45 26 -52c3 -2 21 -8 27 -8v-10zM316 504c0 40 -11 55 -49 55h-27v-115h24c38 0 52 28 52 60z" />
    <glyph glyph-name="copyright" unicode="&#xa9;" horiz-adv-x="886" 
d="M858 259c0 -228 -187 -415 -414 -415c-228 0 -416 187 -416 415c0 227 188 413 416 413c227 0 414 -186 414 -413zM835 259c0 219 -182 393 -391 393s-393 -174 -393 -393c0 -222 184 -396 393 -396s391 174 391 396zM633 192c-18 -82 -75 -161 -184 -161
c-56 0 -103 14 -137 39c-59 37 -99 104 -99 191c0 148 111 227 241 227c70 0 118 -27 143 -59h2l21 39h6v-166h-10c-24 83 -47 167 -156 167c-22 0 -45 -9 -63 -27c-33 -33 -52 -95 -52 -178c0 -99 26 -147 51 -176c20 -21 46 -25 73 -25c68 0 120 38 150 133z" />
    <glyph glyph-name="trademark" unicode="&#x2122;" horiz-adv-x="734" 
d="M704 377h-156v12c8 0 16 1 22 3c13 3 16 8 18 15c3 13 4 36 4 60v155h-2l-85 -247h-26l-87 247h-2v-155c0 -35 3 -52 5 -60c2 -7 4 -12 17 -15c6 -1 14 -3 22 -3v-12h-104v12c8 0 16 2 22 3c13 3 15 8 17 15c2 8 5 25 5 60v102c0 35 -3 52 -5 60c-2 7 -4 12 -17 15
c-6 1 -14 4 -22 4v12h121l70 -191h2l64 191h117v-12c-8 0 -16 -3 -22 -4c-13 -3 -15 -8 -17 -15c-2 -8 -5 -24 -5 -59v-103c0 -35 3 -52 5 -60c2 -7 4 -12 17 -15c6 -1 14 -3 22 -3v-12zM317 561h-12c-6 10 -23 43 -46 64c-16 15 -33 24 -45 24h-11l1 -182
c0 -35 2 -51 4 -59c2 -7 5 -12 18 -15c6 -1 14 -4 22 -4v-11h-157v11c8 0 16 3 22 4c13 3 16 8 18 15c2 8 5 24 5 59v182h-11c-12 0 -28 -9 -45 -24c-22 -21 -40 -54 -46 -64h-12l17 99h261z" />
    <glyph glyph-name="acute" unicode="&#xb4;" horiz-adv-x="287" 
d="M247 625c0 -25 -16 -42 -43 -58c-33 -21 -78 -42 -157 -83l-4 4c45 67 70 110 96 144c24 32 35 43 60 43c33 0 48 -19 48 -50z" />
    <glyph glyph-name="dieresis" unicode="&#xa8;" horiz-adv-x="413" 
d="M118 646c35 0 61 -27 61 -58c0 -33 -26 -60 -61 -60c-33 0 -58 26 -58 58s26 60 58 60zM293 646c34 0 59 -27 59 -58c0 -33 -25 -60 -59 -60s-59 26 -59 58s26 60 59 60z" />
    <glyph glyph-name="AE" unicode="&#xc6;" horiz-adv-x="871" 
d="M846 227l-13 -227h-523v5c7 0 19 2 29 6c22 5 38 18 47 47s12 80 12 134v37h-215l-42 -75c-11 -19 -22 -60 -22 -83c0 -27 12 -48 30 -56c13 -5 30 -8 40 -9v-6h-205v6c59 7 102 90 136 149l260 459c-9 18 -23 27 -41 32c-10 3 -22 4 -29 5v6h499l22 -206h-6
c-18 51 -48 105 -85 145c-21 24 -55 45 -95 45h-20c-24 0 -42 -4 -57 -17c-32 -26 -34 -84 -34 -125v-150h35c58 0 72 4 91 22c26 24 49 76 53 109h6v-277h-6c-4 32 -23 81 -49 103c-17 15 -37 27 -95 27h-35v-168c0 -40 -1 -103 31 -128c16 -15 42 -21 67 -21h19
c44 0 78 18 102 48c41 47 71 113 88 163h5zM398 245v220c0 47 -2 95 -11 128l-195 -348h206z" />
    <glyph glyph-name="Oslash" unicode="&#xd8;" horiz-adv-x="683" 
d="M653 330c0 -207 -123 -344 -312 -344c-64 0 -120 15 -166 44l-52 -89l-15 9l52 90c-82 58 -130 160 -130 290c0 207 123 340 311 340c61 0 115 -12 160 -38l50 86l16 -9l-50 -87c85 -57 136 -160 136 -292zM462 564c-11 33 -26 54 -44 68c-23 16 -53 22 -77 22
s-51 -2 -75 -21c-50 -42 -84 -121 -84 -303c0 -91 11 -155 29 -202zM501 330c0 97 -11 164 -31 212l-251 -436c12 -41 28 -67 47 -83c24 -18 51 -21 75 -21s52 2 76 21c50 41 84 125 84 307z" />
    <glyph glyph-name="yen" unicode="&#xa5;" horiz-adv-x="602" 
d="M620 646c-11 -1 -26 -5 -37 -9c-41 -17 -73 -62 -117 -144l-99 -185h166v-23h-166v-81h166v-23h-166v-50c0 -26 1 -55 5 -75c5 -24 15 -34 36 -44c9 -4 26 -6 36 -7v-5h-292v5c11 1 28 3 35 6c20 7 30 16 37 45c4 19 5 47 5 75v50h-166v23h166v81h-166v23h163l-138 231
c-35 59 -58 89 -94 101c-8 3 -16 5 -25 6v5h325v-5c-10 -1 -29 -5 -39 -8c-50 -17 -28 -72 -7 -109l106 -192h5l88 164c25 48 54 118 5 137c-10 4 -33 7 -43 8v5h211v-5z" />
    <glyph glyph-name="ordfeminine" unicode="&#xaa;" horiz-adv-x="402" 
d="M398 280c-8 -10 -46 -25 -91 -25c-29 0 -50 5 -62 16c-10 8 -16 24 -16 47h-2c-13 -42 -52 -63 -106 -63c-52 0 -103 31 -103 103c0 28 7 43 20 59c20 24 60 36 87 42c81 19 103 52 103 86c0 16 1 44 1 58c0 45 -11 55 -47 55c-22 0 -30 -6 -35 -14c-5 -9 -7 -31 -7 -56
c0 -34 -17 -50 -50 -50c-28 0 -48 15 -48 45c0 15 6 29 15 40c22 28 78 47 129 47c90 0 154 -31 154 -108c0 -30 -1 -149 -1 -206c0 -42 2 -61 10 -69c5 -6 12 -9 22 -9c9 0 19 3 27 7v-5zM227 503c-12 -20 -28 -25 -51 -39c-12 -7 -21 -17 -29 -33s-12 -45 -12 -73
c0 -50 15 -71 45 -71c20 0 46 30 46 77z" />
    <glyph glyph-name="ordmasculine" unicode="&#xba;" horiz-adv-x="444" 
d="M423 462c0 -130 -102 -209 -201 -209c-100 0 -202 78 -202 209c0 130 103 207 202 207c98 0 201 -77 201 -207zM303 462c0 86 -10 148 -33 175c-14 17 -32 20 -48 20c-17 0 -35 -5 -48 -19c-23 -26 -34 -90 -34 -176c0 -88 12 -150 33 -177c15 -16 32 -21 49 -21
c16 0 34 4 48 21c22 27 33 89 33 177z" />
    <glyph glyph-name="ae" unicode="&#xe6;" horiz-adv-x="649" 
d="M636 269c0 -9 0 -21 -1 -30h-259c0 -114 20 -166 46 -196c15 -17 40 -26 65 -26c79 0 116 65 133 125l11 -3c-17 -84 -78 -148 -175 -148c-49 0 -103 13 -142 47c-19 17 -35 36 -45 58c-19 -78 -71 -105 -128 -105c-58 0 -122 34 -122 112c0 31 7 47 26 68
c26 30 78 37 109 47c74 23 93 54 93 88c0 17 1 49 1 64c0 48 -12 60 -52 60c-17 0 -32 -4 -37 -15c-6 -10 -7 -35 -7 -62c0 -35 -17 -54 -55 -54c-31 0 -52 15 -52 48c0 17 6 32 16 44c26 34 92 51 140 51c54 0 100 -18 124 -51c30 32 83 51 124 51c120 0 186 -80 187 -173z
M520 292c0 56 -9 99 -27 121c-11 12 -25 17 -42 17s-30 -5 -42 -18c-20 -21 -31 -72 -33 -159h111c24 0 33 8 33 39zM245 262c-13 -20 -31 -29 -45 -38c-24 -13 -33 -24 -41 -41c-9 -17 -13 -49 -13 -79c0 -56 17 -83 49 -83c27 0 49 30 49 83z" />
    <glyph glyph-name="oslash" unicode="&#xf8;" horiz-adv-x="479" 
d="M458 216c0 -141 -110 -225 -219 -225c-26 0 -53 6 -78 16l-35 -83l-16 7l34 83c-70 33 -123 103 -123 202c0 142 111 226 218 226c27 0 54 -7 80 -17l34 82l16 -7l-34 -82c69 -33 123 -103 123 -202zM301 383c-2 12 -5 21 -9 27c-15 18 -35 22 -53 22
c-17 0 -37 -6 -51 -22c-26 -28 -37 -100 -37 -194c0 -55 7 -106 18 -141zM328 216c0 53 -8 103 -19 139l-131 -307c2 -12 5 -20 9 -25c15 -18 35 -23 52 -23c18 0 37 4 53 23c23 29 36 98 36 193z" />
    <glyph glyph-name="questiondown" unicode="&#xbf;" horiz-adv-x="422" 
d="M390 609c0 -34 -27 -63 -63 -63c-35 0 -64 29 -64 63c0 35 29 64 64 64c36 0 63 -29 63 -64zM393 79c0 -50 -60 -93 -147 -93c-44 0 -99 13 -129 34c-51 36 -85 83 -85 166c0 130 110 178 189 178c40 0 80 -12 97 -29h2v132h18v-146l-10 -14c-19 23 -42 28 -70 28
c-66 0 -90 -81 -90 -210c0 -56 16 -122 73 -122c21 0 25 18 34 61c7 38 19 70 66 70c32 0 52 -23 52 -55z" />
    <glyph glyph-name="exclamdown" unicode="&#xa1;" horiz-adv-x="223" 
d="M110 672c36 0 63 -29 63 -63c0 -35 -27 -64 -63 -64c-35 0 -64 29 -64 64c0 34 28 63 64 63zM190 63c0 -54 -34 -77 -79 -77s-78 23 -78 77c0 48 19 109 36 195c20 114 34 198 37 226h11c4 -28 17 -110 37 -224c17 -87 36 -149 36 -197z" />
    <glyph glyph-name="florin" unicode="&#x192;" horiz-adv-x="411" 
d="M467 584c0 -41 -24 -55 -55 -55c-37 0 -56 22 -57 48c-1 13 8 44 6 57c-1 13 -8 17 -21 17c-10 0 -25 -6 -37 -28c-22 -39 -42 -95 -66 -199h89l-5 -18h-88c-23 -96 -57 -258 -102 -384c-45 -131 -141 -204 -241 -204c-65 0 -116 34 -116 85c0 45 31 55 53 55
c36 0 51 -26 52 -50c1 -15 -4 -36 -2 -51c2 -13 5 -22 22 -22c24 0 57 30 75 76c60 157 85 335 124 495h-69l5 18h68c6 30 8 35 16 61c43 127 154 178 229 178c68 0 120 -32 120 -79z" />
    <glyph glyph-name="guillemotleft" unicode="&#xab;" horiz-adv-x="440" 
d="M406 97l-11 -10l-181 155v5l181 155l11 -10c-31 -49 -71 -95 -103 -146c34 -55 71 -99 103 -149zM246 90l-11 -10l-201 161v8l201 160l10 -10c-30 -47 -77 -96 -110 -153c33 -56 78 -100 111 -156z" />
    <glyph glyph-name="guillemotright" unicode="&#xbb;" horiz-adv-x="440" 
d="M406 241l-201 -161l-11 10c33 56 78 100 111 156c-33 57 -80 106 -110 153l10 10l201 -160v-8zM226 242l-181 -155l-11 10c32 50 69 94 103 149c-32 51 -72 97 -103 146l11 10l181 -155v-5z" />
    <glyph glyph-name="ellipsis" unicode="&#x2026;" horiz-adv-x="614" 
d="M580 51c0 -39 -27 -65 -63 -65s-63 28 -63 65c0 36 28 64 63 64s63 -26 63 -64zM370 51c0 -39 -27 -65 -63 -65s-63 28 -63 65c0 36 28 64 63 64s63 -26 63 -64zM160 51c0 -39 -27 -65 -63 -65s-63 28 -63 65c0 36 28 64 63 64s63 -26 63 -64z" />
    <glyph glyph-name="uni00A0" unicode="&#xa0;" horiz-adv-x="188" 
 />
    <glyph glyph-name="Agrave" unicode="&#xc0;" horiz-adv-x="599" 
d="M616 0h-327v6c10 1 28 5 37 9c19 9 33 23 33 52c0 28 -8 54 -18 86l-21 68h-172l-26 -77c-11 -34 -15 -57 -15 -75c0 -28 15 -46 33 -54c13 -5 29 -8 39 -9v-6h-195v6c15 2 29 5 43 13c12 8 25 21 37 41c12 18 23 47 37 86l184 516h38l142 -430c29 -84 51 -143 70 -179
c14 -23 30 -35 47 -40c12 -4 24 -7 34 -8v-5zM315 237l-76 238h-3l-82 -238h161zM410 708l-4 -5c-86 18 -135 28 -174 39c-33 10 -62 26 -62 56c0 29 20 49 46 49c22 0 32 -5 61 -28z" />
    <glyph glyph-name="Atilde" unicode="&#xc3;" horiz-adv-x="599" 
d="M616 0h-327v6c10 1 28 5 37 9c19 9 33 23 33 52c0 28 -8 54 -18 86l-21 68h-172l-26 -77c-11 -34 -15 -57 -15 -75c0 -28 15 -46 33 -54c13 -5 29 -8 39 -9v-6h-195v6c15 2 29 5 43 13c12 8 25 21 37 41c12 18 23 47 37 86l184 516h38l142 -430c29 -84 51 -143 70 -179
c14 -23 30 -35 47 -40c12 -4 24 -7 34 -8v-5zM315 237l-76 238h-3l-82 -238h161zM461 832c-10 -55 -33 -117 -95 -117c-45 0 -114 30 -147 30c-25 0 -47 -9 -62 -41l-9 3c15 53 39 113 96 113c39 0 113 -28 143 -28c34 0 51 10 65 42z" />
    <glyph glyph-name="Otilde" unicode="&#xd5;" horiz-adv-x="683" 
d="M501 832c-10 -55 -33 -117 -95 -117c-45 0 -114 30 -147 30c-25 0 -47 -9 -62 -41l-9 3c15 53 39 113 96 113c39 0 113 -28 143 -28c34 0 51 10 65 42zM653 328c0 -207 -123 -342 -312 -342c-188 0 -311 135 -311 342s123 342 311 342c189 0 312 -135 312 -342zM501 328
c0 182 -34 263 -84 305c-24 19 -52 21 -76 21s-51 -2 -75 -21c-50 -42 -84 -123 -84 -305s34 -263 84 -305c24 -18 51 -21 75 -21s52 2 76 21c50 41 84 123 84 305z" />
    <glyph glyph-name="OE" unicode="&#x152;" horiz-adv-x="952" 
d="M927 227l-13 -227h-573c-188 0 -311 122 -311 329s123 328 311 328h549l21 -206h-6c-17 51 -47 105 -84 145c-22 24 -55 45 -95 45h-21c-18 0 -34 -2 -47 -10c-12 -7 -22 -17 -28 -34c-9 -20 -15 -47 -15 -98v-150h35c57 0 71 3 91 22c26 24 49 76 53 109h6v-277h-6
c-4 32 -24 81 -49 103c-18 15 -38 27 -95 27h-35v-168c0 -48 3 -80 12 -101c6 -16 17 -28 28 -35c15 -10 38 -13 57 -13h20c44 0 78 18 102 48c41 47 71 113 87 163h6zM341 641c-24 0 -51 -2 -75 -21c-50 -42 -84 -109 -84 -291s34 -251 84 -293c24 -18 51 -21 75 -21
c107 0 133 63 133 314c0 239 -11 312 -133 312z" />
    <glyph glyph-name="oe" unicode="&#x153;" horiz-adv-x="736" 
d="M720 271c0 -8 0 -22 -1 -32h-259v-9c0 -104 20 -157 46 -187c16 -17 40 -26 66 -26c78 0 116 64 133 124l10 -3c-17 -83 -77 -146 -175 -146c-58 0 -122 36 -149 83c-37 -46 -98 -84 -152 -84c-108 0 -218 84 -218 226s111 225 218 225c54 0 123 -30 151 -81
c27 47 88 81 144 81c125 0 185 -84 186 -171zM604 292c0 65 -13 109 -37 128c-9 7 -19 10 -32 10c-17 0 -29 -4 -42 -17c-20 -21 -31 -73 -33 -160h111c25 0 33 9 33 39zM328 217c0 94 -12 163 -36 193c-15 18 -35 22 -53 22c-17 0 -37 -6 -51 -22c-26 -28 -37 -99 -37 -193
c0 -95 12 -165 36 -194c15 -18 35 -23 52 -23c18 0 37 4 53 23c23 29 36 99 36 194z" />
    <glyph glyph-name="endash" unicode="&#x2013;" horiz-adv-x="500" 
d="M470 230h-440v35h440v-35z" />
    <glyph glyph-name="emdash" unicode="&#x2014;" horiz-adv-x="760" 
d="M730 230h-700v35h700v-35z" />
    <glyph glyph-name="quotedblleft" unicode="&#x201c;" horiz-adv-x="332" 
d="M301 675l4 -11c-45 -18 -74 -40 -74 -67c0 -9 1 -17 6 -20c36 -5 62 -30 62 -69c0 -30 -27 -57 -57 -57c-41 0 -67 27 -67 75c0 73 51 125 126 149zM145 675l4 -11c-45 -18 -74 -40 -74 -67c0 -9 1 -17 6 -20c36 -5 62 -30 62 -69c0 -30 -27 -57 -57 -57
c-41 0 -67 27 -67 75c0 73 51 125 126 149z" />
    <glyph glyph-name="quotedblright" unicode="&#x201d;" horiz-adv-x="332" 
d="M313 599c0 -73 -51 -125 -126 -149l-4 10c45 18 74 41 74 67c0 10 -1 18 -6 21c-36 5 -62 29 -62 69c0 29 27 57 57 57c41 0 67 -28 67 -75zM157 599c0 -73 -51 -125 -126 -149l-4 10c45 18 74 41 74 67c0 10 -1 18 -6 21c-36 5 -62 29 -62 69c0 29 27 57 57 57
c41 0 67 -28 67 -75z" />
    <glyph glyph-name="quoteleft" unicode="&#x2018;" horiz-adv-x="176" 
d="M145 675l4 -11c-45 -18 -74 -40 -74 -67c0 -9 1 -17 6 -20c36 -5 62 -30 62 -69c0 -30 -27 -57 -57 -57c-41 0 -67 27 -67 75c0 73 51 125 126 149z" />
    <glyph glyph-name="quoteright" unicode="&#x2019;" horiz-adv-x="177" 
d="M160 599c0 -73 -51 -125 -126 -149l-4 10c44 18 74 41 74 67c0 10 -2 18 -6 21c-36 5 -62 29 -62 69c0 29 27 57 57 57c40 0 67 -28 67 -75z" />
    <glyph glyph-name="divide" unicode="&#xf7;" horiz-adv-x="491" 
d="M310 402c0 -43 -36 -63 -65 -63s-64 23 -64 63c0 39 35 64 64 64s65 -21 65 -64zM458 249h-425v24h425v-24zM310 130c0 -43 -36 -63 -65 -63s-64 23 -64 63c0 39 35 64 64 64s65 -21 65 -64z" />
    <glyph glyph-name="ydieresis" unicode="&#xff;" horiz-adv-x="417" 
d="M448 429c-25 -3 -44 -16 -56 -36c-8 -13 -16 -33 -30 -72l-152 -400c-13 -36 -32 -71 -52 -97c-21 -26 -50 -37 -83 -37c-44 0 -79 24 -79 72c0 29 20 50 54 50c29 0 42 -13 54 -39c10 -20 13 -35 28 -35c17 0 41 33 62 89c5 11 16 40 16 40c2 4 3 16 -1 27l-118 307
c-16 43 -30 71 -38 85c-9 17 -18 28 -32 36c-9 6 -24 9 -33 10v4h254v-4c-9 -1 -21 -3 -29 -8c-10 -6 -16 -17 -16 -30c0 -18 6 -35 19 -71l62 -180h1l64 175c12 34 16 55 16 75c0 16 -8 26 -18 32c-9 5 -20 6 -29 7v4h136v-4zM159 646c35 0 61 -27 61 -58
c0 -33 -26 -60 -61 -60c-33 0 -58 26 -58 58s26 60 58 60zM334 646c34 0 59 -27 59 -58c0 -33 -25 -60 -59 -60s-59 26 -59 58s26 60 59 60z" />
    <glyph glyph-name="Ydieresis" unicode="&#x178;" horiz-adv-x="653" 
d="M650 652c-63 -10 -98 -45 -149 -149l-101 -210v-101c0 -54 2 -105 12 -134c7 -29 25 -41 45 -47c12 -3 23 -5 30 -6v-5h-313v5c8 1 19 3 31 6c20 6 38 18 46 47c9 29 11 80 11 134v73l-143 280c-34 68 -61 100 -115 107v5h321v-5c-10 -1 -27 -4 -37 -8
c-41 -16 -33 -61 -11 -109l107 -218h5l92 190c20 40 30 69 30 94c0 22 -10 36 -28 43c-10 4 -29 7 -39 8v5h206v-5zM253 838c37 0 64 -28 64 -61c0 -34 -27 -63 -64 -63c-34 0 -61 28 -61 61c0 34 27 63 61 63zM480 838c36 0 62 -28 62 -61c0 -34 -27 -63 -62 -63
c-36 0 -62 28 -62 61c0 34 27 63 62 63z" />
    <glyph glyph-name="fraction" unicode="&#x2044;" horiz-adv-x="519" 
d="M509 719l-464 -743l-35 22l463 742z" />
    <glyph glyph-name="Euro" unicode="&#x20ac;" horiz-adv-x="597" 
d="M371 663c125 0 198 -69 198 -144c0 -43 -30 -64 -58 -64c-45 0 -65 29 -65 71c0 8 3 29 3 40c0 50 -18 75 -75 76c-79 0 -127 -63 -137 -242h171v-25h-172c-1 -9 -1 -37 -1 -47c0 -9 0 -38 1 -48h118v-25h-117c8 -133 43 -228 152 -228c61 0 135 42 171 189l15 -3
c-23 -129 -98 -228 -224 -228c-132 0 -234 81 -260 270h-75v25h72c-1 16 -2 32 -2 49c0 16 1 31 2 46h-72v25h75c27 170 140 263 280 263z" />
    <glyph glyph-name="guilsinglleft" unicode="&#x2039;" horiz-adv-x="280" 
d="M246 90l-11 -10l-201 161v8l201 160l10 -10c-30 -47 -77 -96 -110 -153c33 -56 78 -100 111 -156z" />
    <glyph glyph-name="guilsinglright" unicode="&#x203a;" horiz-adv-x="280" 
d="M246 241l-201 -161l-11 10c33 56 78 100 111 156c-33 57 -80 106 -110 153l10 10l201 -160v-8z" />
    <glyph glyph-name="daggerdbl" unicode="&#x2021;" horiz-adv-x="505" 
d="M491 23c0 -20 -14 -33 -30 -33c-22 0 -30 14 -30 34c0 5 4 13 8 18c5 5 8 8 8 12c0 8 -4 11 -10 11c-4 0 -11 -6 -17 -13c-9 -9 -18 -22 -24 -29c-16 -21 -31 -31 -45 -31c-17 0 -28 12 -41 23c-9 10 -18 21 -30 21c-13 0 -19 -9 -19 -21c0 -6 8 -13 25 -24
c12 -8 24 -25 24 -47c0 -27 -12 -40 -22 -49c-14 -10 -26 -13 -26 -20s9 -13 15 -19c4 -5 9 -12 9 -24c0 -22 -18 -32 -33 -32s-34 10 -34 32c0 12 5 19 9 24c6 6 14 12 14 19s-11 10 -25 20c-10 9 -22 22 -22 49c0 22 11 38 24 47c16 11 25 18 25 24c0 12 -6 21 -19 21
c-12 0 -22 -11 -31 -21c-12 -11 -24 -23 -41 -23c-13 0 -28 10 -44 31c-6 7 -16 20 -25 30c-6 6 -12 12 -16 12c-6 0 -10 -3 -10 -11c0 -4 3 -7 7 -12c5 -5 9 -13 9 -18c0 -20 -8 -34 -30 -34c-16 0 -30 13 -30 33c0 28 30 55 65 55c28 0 46 -12 61 -27
c15 -17 23 -30 37 -30s23 7 23 34v347c0 27 -9 34 -23 34s-23 -15 -39 -32c-14 -15 -31 -25 -60 -25c-34 0 -64 27 -64 54c0 21 14 34 30 34c22 0 30 -14 30 -34c0 -5 -4 -13 -9 -19c-4 -4 -7 -8 -7 -11c0 -8 4 -11 10 -11c4 0 11 6 17 13c9 9 18 22 23 29
c17 21 32 31 45 31c17 0 29 -12 41 -24c10 -9 19 -20 31 -20s19 9 19 21c0 6 -8 13 -25 24c-13 8 -24 24 -24 47c0 27 12 40 22 48c14 11 26 13 26 20s-9 14 -15 20c-4 5 -9 12 -9 24c0 21 18 32 33 32s34 -11 34 -32c0 -12 -5 -19 -9 -24c-6 -6 -15 -13 -15 -20
s12 -9 26 -20c10 -8 22 -21 22 -48c0 -23 -11 -38 -24 -47c-16 -11 -25 -18 -25 -24c0 -12 6 -21 19 -21c12 0 21 11 31 20c12 12 23 24 40 24c14 0 29 -10 45 -31c6 -7 16 -20 25 -30c6 -6 12 -12 16 -12c6 0 10 3 10 11c0 3 -3 7 -8 11c-4 6 -8 14 -8 19c0 20 8 34 30 34
c16 0 30 -13 30 -34c0 -27 -30 -54 -65 -54c-28 0 -47 12 -61 27c-15 17 -23 30 -37 30s-23 -7 -23 -34v-347c0 -27 9 -34 23 -34s23 15 38 32c15 15 32 25 61 25c34 0 64 -27 64 -55z" />
    <glyph glyph-name="periodcentered" unicode="&#xb7;" horiz-adv-x="268" 
d="M201 265c0 -39 -33 -64 -68 -64c-34 0 -66 27 -66 64c0 39 32 67 66 67s68 -26 68 -67z" />
    <glyph glyph-name="quotesinglbase" unicode="&#x201a;" horiz-adv-x="177" 
d="M154 44c0 -73 -51 -125 -126 -149l-4 11c44 18 74 40 74 67c0 9 -2 17 -6 20c-36 5 -62 30 -62 69c0 30 27 57 57 57c40 0 67 -27 67 -75z" />
    <glyph glyph-name="quotedblbase" unicode="&#x201e;" horiz-adv-x="332" 
d="M307 43c0 -73 -51 -125 -126 -149l-4 11c45 18 74 40 74 67c0 9 -1 17 -6 20c-36 5 -62 30 -62 69c0 30 27 57 57 57c41 0 67 -27 67 -75zM151 43c0 -73 -51 -125 -126 -149l-4 11c45 18 74 40 74 67c0 9 -1 17 -6 20c-36 5 -62 30 -62 69c0 30 27 57 57 57
c41 0 67 -27 67 -75z" />
    <glyph glyph-name="perthousand" unicode="&#x2030;" horiz-adv-x="1041" 
d="M879 317c81 0 145 -67 145 -166s-64 -166 -145 -166s-146 66 -146 166s65 166 146 166zM533 317c81 0 145 -67 145 -166s-64 -166 -145 -166s-146 66 -146 166s65 166 146 166zM510 657l-305 -673l-16 7l305 673zM308 496c0 -100 -64 -167 -145 -167s-146 67 -146 167
s65 166 146 166s145 -67 145 -166zM930 151c0 118 -15 151 -51 151s-51 -44 -51 -151c0 -106 14 -151 51 -151s51 34 51 151zM584 151c0 118 -15 151 -51 151s-51 -44 -51 -151c0 -106 14 -151 51 -151s51 34 51 151zM163 647c-36 0 -51 -45 -51 -151
c0 -107 14 -152 51 -152s50 34 50 152c0 117 -14 151 -50 151z" />
    <glyph glyph-name="Acircumflex" unicode="&#xc2;" horiz-adv-x="599" 
d="M616 0h-327v6c10 1 28 5 37 9c19 9 33 23 33 52c0 28 -8 54 -18 86l-21 68h-172l-26 -77c-11 -34 -15 -57 -15 -75c0 -28 15 -46 33 -54c13 -5 29 -8 39 -9v-6h-195v6c15 2 29 5 43 13c12 8 25 21 37 41c12 18 23 47 37 86l184 516h38l142 -430c29 -84 51 -143 70 -179
c14 -23 30 -35 47 -40c12 -4 24 -7 34 -8v-5zM315 237l-76 238h-3l-82 -238h161zM436 712l-5 -4l-130 65l-129 -65l-6 4c35 44 90 112 107 129h57c17 -17 72 -85 106 -129z" />
    <glyph glyph-name="Ecircumflex" unicode="&#xca;" horiz-adv-x="576" 
d="M432 712l-5 -4l-130 65l-129 -65l-6 4c35 44 90 112 107 129h57c17 -17 72 -85 106 -129zM551 227l-14 -227h-523v5c8 0 20 3 30 6c21 6 38 18 47 47c8 29 11 80 11 134v273c0 54 -3 106 -11 134c-9 29 -26 41 -47 47c-10 3 -22 5 -30 6v5h500l21 -206h-6
c-18 51 -47 105 -84 145c-22 24 -55 45 -95 45h-21c-24 0 -42 -4 -56 -17c-32 -26 -35 -84 -35 -125v-150h36c57 0 71 3 91 22c26 24 49 76 53 109h6v-277h-6c-4 32 -24 81 -49 103c-18 15 -38 27 -95 27h-36v-168c0 -41 -1 -102 31 -128c17 -15 43 -21 67 -21h20
c44 0 78 18 102 48c40 47 71 113 87 163h6z" />
    <glyph glyph-name="Aacute" unicode="&#xc1;" horiz-adv-x="599" 
d="M616 0h-327v6c10 1 28 5 37 9c19 9 33 23 33 52c0 28 -8 54 -18 86l-21 68h-172l-26 -77c-11 -34 -15 -57 -15 -75c0 -28 15 -46 33 -54c13 -5 29 -8 39 -9v-6h-195v6c15 2 29 5 43 13c12 8 25 21 37 41c12 18 23 47 37 86l184 516h38l142 -430c29 -84 51 -143 70 -179
c14 -23 30 -35 47 -40c12 -4 24 -7 34 -8v-5zM315 237l-76 238h-3l-82 -238h161zM206 703l-3 5c61 51 98 84 132 111c29 23 40 28 62 28c25 0 45 -20 45 -49c0 -30 -28 -46 -62 -56c-38 -11 -87 -21 -174 -39z" />
    <glyph glyph-name="Edieresis" unicode="&#xcb;" horiz-adv-x="576" 
d="M551 227l-14 -227h-523v5c8 0 20 3 30 6c21 6 38 18 47 47c8 29 11 80 11 134v273c0 54 -3 106 -11 134c-9 29 -26 41 -47 47c-10 3 -22 5 -30 6v5h500l21 -206h-6c-18 51 -47 105 -84 145c-22 24 -55 45 -95 45h-21c-24 0 -42 -4 -56 -17c-32 -26 -35 -84 -35 -125v-150
h36c57 0 71 3 91 22c26 24 49 76 53 109h6v-277h-6c-4 32 -24 81 -49 103c-18 15 -38 27 -95 27h-36v-168c0 -41 -1 -102 31 -128c17 -15 43 -21 67 -21h20c44 0 78 18 102 48c40 47 71 113 87 163h6zM183 838c37 0 64 -28 64 -61c0 -34 -27 -63 -64 -63
c-34 0 -61 28 -61 61c0 34 27 63 61 63zM410 838c36 0 62 -28 62 -61c0 -34 -27 -63 -62 -63c-36 0 -62 28 -62 61c0 34 27 63 62 63z" />
    <glyph glyph-name="Egrave" unicode="&#xc8;" horiz-adv-x="576" 
d="M406 708l-4 -5c-86 18 -135 28 -174 39c-33 10 -62 26 -62 56c0 29 20 49 46 49c22 0 32 -5 61 -28zM551 227l-14 -227h-523v5c8 0 20 3 30 6c21 6 38 18 47 47c8 29 11 80 11 134v273c0 54 -3 106 -11 134c-9 29 -26 41 -47 47c-10 3 -22 5 -30 6v5h500l21 -206h-6
c-18 51 -47 105 -84 145c-22 24 -55 45 -95 45h-21c-24 0 -42 -4 -56 -17c-32 -26 -35 -84 -35 -125v-150h36c57 0 71 3 91 22c26 24 49 76 53 109h6v-277h-6c-4 32 -24 81 -49 103c-18 15 -38 27 -95 27h-36v-168c0 -41 -1 -102 31 -128c17 -15 43 -21 67 -21h20
c44 0 78 18 102 48c40 47 71 113 87 163h6z" />
    <glyph glyph-name="Iacute" unicode="&#xcd;" horiz-adv-x="341" 
d="M327 0h-313v5c7 1 19 3 30 6c21 6 37 18 46 47s11 80 11 134v273c0 54 -2 106 -11 134c-9 29 -25 41 -46 47c-11 3 -21 5 -30 6v5h313v-5c-9 -1 -20 -3 -30 -6c-21 -6 -38 -18 -47 -47c-9 -28 -11 -80 -11 -134v-273c0 -54 2 -105 11 -134s26 -41 47 -47
c10 -3 22 -5 30 -6v-5zM76 703l-3 5c61 51 98 84 132 111c29 23 40 28 62 28c25 0 45 -20 45 -49c0 -30 -28 -46 -62 -56c-38 -11 -87 -21 -174 -39z" />
    <glyph glyph-name="Icircumflex" unicode="&#xce;" horiz-adv-x="341" 
d="M327 0h-313v5c7 1 19 3 30 6c21 6 37 18 46 47s11 80 11 134v273c0 54 -2 106 -11 134c-9 29 -25 41 -46 47c-11 3 -21 5 -30 6v5h313v-5c-9 -1 -20 -3 -30 -6c-21 -6 -38 -18 -47 -47c-9 -28 -11 -80 -11 -134v-273c0 -54 2 -105 11 -134s26 -41 47 -47
c10 -3 22 -5 30 -6v-5zM306 712l-5 -4l-130 65l-129 -65l-6 4c35 44 90 112 107 129h57c17 -17 72 -85 106 -129z" />
    <glyph glyph-name="Idieresis" unicode="&#xcf;" horiz-adv-x="341" 
d="M327 0h-313v5c7 1 19 3 30 6c21 6 37 18 46 47s11 80 11 134v273c0 54 -2 106 -11 134c-9 29 -25 41 -46 47c-11 3 -21 5 -30 6v5h313v-5c-9 -1 -20 -3 -30 -6c-21 -6 -38 -18 -47 -47c-9 -28 -11 -80 -11 -134v-273c0 -54 2 -105 11 -134s26 -41 47 -47
c10 -3 22 -5 30 -6v-5zM65 838c36 0 63 -28 63 -61c0 -34 -27 -63 -63 -63c-35 0 -61 28 -61 61c0 34 27 63 61 63zM275 838c36 0 63 -28 63 -61c0 -34 -27 -63 -63 -63c-35 0 -62 28 -62 61c0 34 27 63 62 63z" />
    <glyph glyph-name="Igrave" unicode="&#xcc;" horiz-adv-x="341" 
d="M327 0h-313v5c7 1 19 3 30 6c21 6 37 18 46 47s11 80 11 134v273c0 54 -2 106 -11 134c-9 29 -25 41 -46 47c-11 3 -21 5 -30 6v5h313v-5c-9 -1 -20 -3 -30 -6c-21 -6 -38 -18 -47 -47c-9 -28 -11 -80 -11 -134v-273c0 -54 2 -105 11 -134s26 -41 47 -47
c10 -3 22 -5 30 -6v-5zM279 708l-4 -5c-86 18 -135 28 -174 39c-33 10 -62 26 -62 56c0 29 20 49 46 49c22 0 32 -5 61 -28z" />
    <glyph glyph-name="Oacute" unicode="&#xd3;" horiz-adv-x="683" 
d="M247 703l-3 5c61 51 98 84 132 111c29 23 40 28 62 28c25 0 45 -20 45 -49c0 -30 -28 -46 -62 -56c-38 -11 -87 -21 -174 -39zM653 328c0 -207 -123 -342 -312 -342c-188 0 -311 135 -311 342s123 342 311 342c189 0 312 -135 312 -342zM501 328c0 182 -34 263 -84 305
c-24 19 -52 21 -76 21s-51 -2 -75 -21c-50 -42 -84 -123 -84 -305s34 -263 84 -305c24 -18 51 -21 75 -21s52 2 76 21c50 41 84 123 84 305z" />
    <glyph glyph-name="Ocircumflex" unicode="&#xd4;" horiz-adv-x="683" 
d="M476 712l-5 -4l-130 65l-129 -65l-6 4c35 44 90 112 107 129h57c17 -17 72 -85 106 -129zM653 328c0 -207 -123 -342 -312 -342c-188 0 -311 135 -311 342s123 342 311 342c189 0 312 -135 312 -342zM501 328c0 182 -34 263 -84 305c-24 19 -52 21 -76 21s-51 -2 -75 -21
c-50 -42 -84 -123 -84 -305s34 -263 84 -305c24 -18 51 -21 75 -21s52 2 76 21c50 41 84 123 84 305z" />
    <glyph glyph-name="Ograve" unicode="&#xd2;" horiz-adv-x="683" 
d="M450 708l-4 -5c-86 18 -135 28 -174 39c-33 10 -62 26 -62 56c0 29 20 49 46 49c22 0 32 -5 61 -28zM653 328c0 -207 -123 -342 -312 -342c-188 0 -311 135 -311 342s123 342 311 342c189 0 312 -135 312 -342zM501 328c0 182 -34 263 -84 305c-24 19 -52 21 -76 21
s-51 -2 -75 -21c-50 -42 -84 -123 -84 -305s34 -263 84 -305c24 -18 51 -21 75 -21s52 2 76 21c50 41 84 123 84 305z" />
    <glyph glyph-name="Uacute" unicode="&#xda;" horiz-adv-x="654" 
d="M271 703l-3 5c61 51 98 84 132 111c29 23 40 28 62 28c25 0 45 -20 45 -49c0 -30 -28 -46 -62 -56c-38 -11 -87 -21 -174 -39zM649 652c-14 -1 -24 -3 -34 -6c-16 -5 -35 -19 -44 -41c-10 -24 -17 -55 -17 -120v-265c0 -56 -9 -105 -30 -144c-25 -46 -87 -90 -186 -90
c-104 0 -185 29 -222 115c-16 34 -22 106 -22 143v222c0 54 -2 105 -11 133c-8 29 -26 41 -46 47c-11 3 -23 5 -30 6v5h313v-5c-7 -1 -18 -3 -29 -6c-21 -6 -38 -18 -47 -47c-8 -28 -11 -79 -11 -133v-265c0 -32 3 -68 13 -97c21 -60 61 -86 124 -86c64 0 119 28 142 77
c14 32 21 72 21 121v269c0 65 -7 96 -17 120c-8 21 -27 36 -44 41c-10 3 -20 5 -34 6v5h211v-5z" />
    <glyph glyph-name="Ucircumflex" unicode="&#xdb;" horiz-adv-x="654" 
d="M500 712l-5 -4l-130 65l-129 -65l-6 4c35 44 90 112 107 129h57c17 -17 72 -85 106 -129zM649 652c-14 -1 -24 -3 -34 -6c-16 -5 -35 -19 -44 -41c-10 -24 -17 -55 -17 -120v-265c0 -56 -9 -105 -30 -144c-25 -46 -87 -90 -186 -90c-104 0 -185 29 -222 115
c-16 34 -22 106 -22 143v222c0 54 -2 105 -11 133c-8 29 -26 41 -46 47c-11 3 -23 5 -30 6v5h313v-5c-7 -1 -18 -3 -29 -6c-21 -6 -38 -18 -47 -47c-8 -28 -11 -79 -11 -133v-265c0 -32 3 -68 13 -97c21 -60 61 -86 124 -86c64 0 119 28 142 77c14 32 21 72 21 121v269
c0 65 -7 96 -17 120c-8 21 -27 36 -44 41c-10 3 -20 5 -34 6v5h211v-5z" />
    <glyph glyph-name="Ugrave" unicode="&#xd9;" horiz-adv-x="654" 
d="M475 708l-4 -5c-86 18 -135 28 -174 39c-33 10 -62 26 -62 56c0 29 20 49 46 49c22 0 32 -5 61 -28zM649 652c-14 -1 -24 -3 -34 -6c-16 -5 -35 -19 -44 -41c-10 -24 -17 -55 -17 -120v-265c0 -56 -9 -105 -30 -144c-25 -46 -87 -90 -186 -90c-104 0 -185 29 -222 115
c-16 34 -22 106 -22 143v222c0 54 -2 105 -11 133c-8 29 -26 41 -46 47c-11 3 -23 5 -30 6v5h313v-5c-7 -1 -18 -3 -29 -6c-21 -6 -38 -18 -47 -47c-8 -28 -11 -79 -11 -133v-265c0 -32 3 -68 13 -97c21 -60 61 -86 124 -86c64 0 119 28 142 77c14 32 21 72 21 121v269
c0 65 -7 96 -17 120c-8 21 -27 36 -44 41c-10 3 -20 5 -34 6v5h211v-5z" />
    <glyph glyph-name="dotlessi" unicode="&#x131;" 
d="M253 0h-239v5c7 1 15 1 23 4c15 7 24 12 30 38c4 14 5 45 5 69v194c0 18 0 60 -2 76c-3 19 -9 26 -18 33c-10 7 -23 8 -33 9v5h170c5 0 7 -2 7 -7c0 -15 -1 -36 -1 -62v-248c0 -24 0 -55 4 -69c6 -26 15 -31 31 -38c8 -3 16 -3 23 -4v-5z" />
    <glyph glyph-name="circumflex" unicode="&#x2c6;" horiz-adv-x="350" 
d="M310 499l-5 -4l-131 91l-129 -91l-5 4c31 46 92 147 106 169h57c15 -22 76 -122 107 -169z" />
    <glyph glyph-name="tilde" unicode="&#x2dc;" horiz-adv-x="381" 
d="M338 651c-10 -56 -34 -121 -96 -121c-45 0 -90 27 -123 27c-29 0 -51 -12 -66 -44l-10 1c15 54 40 119 97 119c39 0 89 -26 119 -26c35 0 55 12 69 44h10z" />
    <glyph glyph-name="macron" unicode="&#xaf;" horiz-adv-x="320" 
d="M279 550h-238v44h238v-44z" />
    <glyph glyph-name="breve" unicode="&#x2d8;" horiz-adv-x="348" 
d="M298 651c-5 -85 -50 -141 -120 -141s-115 56 -120 141l8 4c23 -54 70 -72 112 -72s89 19 111 72z" />
    <glyph glyph-name="dotaccent" unicode="&#x2d9;" horiz-adv-x="247" 
d="M190 592c0 -39 -32 -65 -67 -65s-66 27 -66 65s32 67 66 67s67 -27 67 -67z" />
    <glyph glyph-name="ring" unicode="&#x2da;" horiz-adv-x="272" 
d="M220 591c0 -51 -40 -85 -84 -85c-43 0 -84 31 -84 85c0 53 41 84 84 84c42 0 84 -30 84 -84zM193 590c0 41 -25 63 -58 63c-31 0 -58 -22 -58 -62c0 -39 25 -62 58 -62c32 0 58 21 58 61z" />
    <glyph glyph-name="cedilla" unicode="&#xb8;" horiz-adv-x="251" 
d="M211 -108c0 -63 -56 -83 -114 -83c-24 0 -58 9 -74 18l4 7c13 -5 33 -9 52 -9c35 0 62 20 62 65c0 40 -20 57 -38 57c-11 0 -22 -2 -29 -11l-13 4l17 59h15l-12 -47c10 7 29 12 43 12c57 0 87 -27 87 -72z" />
    <glyph glyph-name="hungarumlaut" unicode="&#x2dd;" horiz-adv-x="439" 
d="M170 670c27 0 47 -20 47 -50c0 -20 -12 -37 -37 -56c-28 -21 -69 -43 -132 -83l-4 3l65 136s30 50 61 50zM338 670c28 0 48 -20 48 -50c0 -20 -13 -37 -37 -56c-29 -21 -69 -43 -132 -83l-5 3c33 65 48 102 65 136s30 50 61 50z" />
    <glyph glyph-name="ogonek" unicode="&#x2db;" horiz-adv-x="214" 
d="M180 -215c-111 -6 -164 27 -164 80c0 58 76 90 147 135h13c-46 -38 -65 -85 -65 -136c0 -48 24 -68 69 -74v-5z" />
    <glyph glyph-name="caron" unicode="&#x2c7;" horiz-adv-x="350" 
d="M40 662l5 4l129 -99l131 99l5 -4c-31 -47 -92 -148 -107 -169h-57c-14 22 -75 123 -106 169z" />
    <glyph glyph-name="space_uni0326" horiz-adv-x="201" 
d="M168 -100c0 -71 -47 -113 -122 -129l-4 11c48 12 78 29 78 53c0 10 -2 17 -7 19c-39 6 -69 23 -69 63c0 34 33 55 59 55c34 0 65 -23 65 -72z" />
    <glyph glyph-name="caron.alt" horiz-adv-x="350" 
d="M135 491l13 193h83c-20 -45 -61 -128 -88 -193h-8z" />
    <glyph glyph-name="space_uni0326.alt" horiz-adv-x="201" 
d="M46 591c0 71 46 113 121 129l4 -11c-47 -12 -78 -29 -78 -53c0 -10 3 -16 8 -19c38 -5 69 -22 69 -62c0 -34 -33 -56 -59 -56c-34 0 -65 23 -65 72z" />
    <glyph glyph-name="grave.uc" horiz-adv-x="281" 
d="M257 708l-4 -5c-86 18 -135 28 -174 39c-33 10 -62 26 -62 56c0 29 20 49 46 49c22 0 32 -5 61 -28z" />
    <glyph glyph-name="dieresis.uc" horiz-adv-x="413" 
d="M92 838c37 0 64 -28 64 -61c0 -34 -27 -63 -64 -63c-34 0 -61 28 -61 61c0 34 27 63 61 63zM319 838c36 0 62 -28 62 -61c0 -34 -27 -63 -62 -63c-36 0 -62 28 -62 61c0 34 27 63 62 63z" />
    <glyph glyph-name="macron.uc" horiz-adv-x="348" 
d="M307 718h-266v44h266v-44z" />
    <glyph glyph-name="acute.uc" horiz-adv-x="281" 
d="M27 703l-3 5c61 51 98 84 132 111c29 23 40 28 62 28c25 0 45 -20 45 -49c0 -30 -28 -46 -62 -56c-38 -11 -87 -21 -174 -39z" />
    <glyph glyph-name="circumflex.uc" horiz-adv-x="351" 
d="M310 712l-5 -4l-130 65l-129 -65l-6 4c35 44 90 112 107 129h57c17 -17 72 -85 106 -129z" />
    <glyph glyph-name="caron.uc" horiz-adv-x="350" 
d="M40 837l6 4l129 -65l130 65l5 -4c-34 -43 -89 -112 -106 -129h-57c-17 17 -72 86 -107 129z" />
    <glyph glyph-name="breve.uc" horiz-adv-x="348" 
d="M308 836c-18 -89 -65 -131 -138 -131c-72 0 -119 42 -138 131l9 6c35 -49 79 -66 129 -66s96 22 129 66z" />
    <glyph glyph-name="dotaccent.uc" horiz-adv-x="247" 
d="M190 778c0 -39 -32 -64 -67 -64s-66 27 -66 64c0 39 32 67 66 67s67 -26 67 -67z" />
    <glyph glyph-name="ring.uc" horiz-adv-x="272" 
d="M220 786c0 -51 -40 -84 -84 -84c-43 0 -84 31 -84 84s41 85 84 85c42 0 84 -31 84 -85zM193 786c0 40 -25 63 -58 63c-31 0 -58 -23 -58 -63c0 -39 25 -61 58 -61c32 0 58 21 58 61z" />
    <glyph glyph-name="tilde.uc" horiz-adv-x="381" 
d="M351 832c-10 -55 -33 -117 -95 -117c-45 0 -114 30 -147 30c-25 0 -47 -9 -62 -41l-9 3c15 53 39 113 96 113c39 0 113 -28 143 -28c34 0 51 10 65 42z" />
    <glyph glyph-name="hungarumlaut.uc" horiz-adv-x="411" 
d="M215 834c0 -25 -22 -43 -49 -60c-24 -16 -57 -32 -121 -68h-13c44 67 54 84 79 119c24 33 42 47 64 47c24 0 40 -13 40 -38zM379 834c0 -25 -23 -43 -50 -60c-24 -16 -57 -32 -121 -68h-13c44 67 54 84 79 119c24 33 42 47 64 47c25 0 41 -13 41 -38z" />
    <glyph glyph-name="Dcroat" unicode="&#x110;" horiz-adv-x="697" 
d="M27 325v22h76v118c0 54 -4 106 -12 134c-9 29 -25 41 -47 47c-10 3 -22 5 -30 5v6h352c62 0 111 -16 153 -39c89 -51 148 -152 148 -289s-56 -241 -146 -290c-42 -22 -91 -39 -148 -39h-359v6c8 0 20 2 30 5c22 6 38 18 47 47c8 28 12 80 12 134v133h-76zM347 641h-24
c-21 0 -43 -5 -57 -20c-28 -24 -25 -77 -25 -114v-160h134v-22h-134v-163c0 -39 -3 -96 28 -123c13 -15 38 -23 60 -23h17c35 0 77 12 107 51c40 49 67 125 67 262c0 138 -26 211 -66 260c-31 39 -69 52 -107 52z" />
    <glyph glyph-name="Eng" unicode="&#x14a;" horiz-adv-x="663" 
d="M658 652c-13 -1 -23 -3 -34 -6c-17 -5 -34 -20 -43 -42c-9 -24 -17 -55 -17 -120v-513c0 -113 -55 -171 -130 -171c-43 0 -79 12 -103 36c-21 22 -35 49 -35 86c0 54 34 82 73 82c44 0 70 -28 70 -68c0 -11 -4 -27 -9 -41c-7 -17 -16 -33 -16 -41c0 -29 14 -35 33 -35
c24 0 47 11 62 28c25 28 35 73 35 124v29l-392 535h-4v-363c0 -65 8 -95 18 -119c8 -22 26 -37 44 -42c10 -3 19 -5 33 -6v-5h-209v5c14 1 24 3 34 6c18 5 35 20 43 42c10 24 19 54 19 119v273c0 69 -10 121 -22 145c-11 22 -36 43 -62 54c-10 4 -23 6 -32 7v6h231l297 -430
h2v257c0 65 -8 96 -16 120c-10 22 -28 37 -45 42c-10 3 -19 5 -33 6v5h208v-5z" />
    <glyph glyph-name="IJ" unicode="&#x132;" horiz-adv-x="764" 
d="M327 0h-313v5c7 1 19 3 30 6c21 6 37 18 46 47s11 80 11 134v273c0 54 -2 106 -11 134c-9 29 -25 41 -46 47c-11 3 -21 5 -30 6v5h313v-5c-9 -1 -20 -3 -30 -6c-21 -6 -38 -18 -47 -47c-9 -28 -11 -80 -11 -134v-273c0 -54 2 -105 11 -134s26 -41 47 -47
c10 -3 22 -5 30 -6v-5zM757 652c-8 -1 -19 -2 -30 -6c-21 -7 -38 -19 -46 -47c-9 -29 -12 -82 -12 -135v-258c0 -84 -31 -144 -63 -174c-35 -33 -79 -46 -140 -46c-40 0 -83 12 -107 35s-39 53 -39 93c0 54 31 78 70 78c44 0 69 -27 69 -67c0 -12 -4 -27 -9 -41
c-7 -18 -17 -35 -17 -43c0 -26 15 -38 35 -38c26 0 40 9 51 32c12 24 14 74 14 108v321c0 53 -2 106 -11 135c-9 28 -26 41 -47 47c-11 3 -22 5 -30 6v5h312v-5z" />
    <glyph glyph-name="uni0237" unicode="&#x237;" horiz-adv-x="231" 
d="M184 426c0 -15 -2 -37 -2 -63v-363c0 -102 -35 -146 -64 -173c-17 -17 -62 -40 -120 -40c-34 0 -68 9 -92 24c-26 17 -43 47 -43 80c0 36 27 65 64 65c38 0 60 -26 60 -61c0 -8 -3 -23 -7 -34c-2 -10 -5 -22 -5 -27c0 -18 6 -33 26 -33c23 0 36 11 44 29
c8 17 15 59 15 98v382c0 18 -1 59 -3 75c-3 19 -8 27 -18 34c-9 7 -23 8 -32 9v5h170c4 0 7 -2 7 -7z" />
    <glyph glyph-name="dcroat" unicode="&#x111;" horiz-adv-x="517" 
d="M202 541v18h119v14c0 15 0 50 -2 64c-3 19 -10 28 -22 35c-10 6 -23 7 -31 8v4h177c2 -1 5 -2 5 -6c0 -22 -1 -71 -2 -119h58v-18h-59v-429c0 -18 0 -45 2 -61c2 -18 9 -31 22 -39c10 -7 28 -8 36 -9v-4c-17 0 -172 -3 -178 -3c-1 0 -4 2 -4 5c0 2 1 24 1 27v49h-1
c-17 -52 -60 -86 -122 -86c-93 0 -180 69 -180 224c0 151 91 227 192 227c60 0 92 -34 107 -72h1v171h-119zM321 151v136c0 47 -10 77 -26 100c-14 22 -34 35 -59 35c-51 0 -83 -81 -83 -209c0 -131 30 -199 78 -199c51 0 90 48 90 137z" />
    <glyph glyph-name="eng" unicode="&#x14b;" horiz-adv-x="502" 
d="M461 303v-301c0 -71 -25 -121 -54 -156c-22 -29 -66 -59 -129 -59c-32 0 -64 7 -86 21c-24 15 -39 41 -39 70c0 31 25 56 58 56c36 0 56 -22 56 -52c0 -8 -3 -20 -6 -30c-2 -9 -5 -19 -5 -23c0 -16 5 -29 25 -29c21 0 35 12 43 30c8 17 15 59 15 98v393
c0 39 -3 57 -14 70c-9 12 -21 18 -44 18c-28 0 -76 -32 -83 -114c-2 -24 -4 -49 -4 -79v-96c0 -26 0 -52 4 -70c5 -25 11 -33 29 -41c8 -3 15 -4 22 -5v-4h-235v4c6 1 15 2 23 5c16 7 24 11 31 37c5 18 4 56 4 85v179c0 18 0 60 -2 76c-3 19 -9 27 -18 33c-10 8 -23 8 -32 9
v5h170c4 0 6 -2 6 -6c0 -7 -2 -81 -2 -92h2c11 40 32 63 52 79c24 18 63 28 89 28c46 0 77 -9 97 -37c14 -20 27 -54 27 -102z" />
    <glyph glyph-name="ij" unicode="&#x133;" horiz-adv-x="490" 
d="M253 0h-239v4c7 1 15 1 23 4c15 7 24 12 30 38c4 14 5 45 5 69v195c0 18 0 60 -2 76c-3 19 -9 26 -18 33c-10 7 -23 8 -33 9v5h170c5 0 7 -2 7 -7c0 -15 -1 -36 -1 -62v-249c0 -24 0 -55 4 -69c6 -26 15 -31 31 -38c8 -3 16 -3 23 -4v-4zM201 592c0 -39 -33 -65 -68 -65
c-34 0 -66 27 -66 65s32 67 66 67s68 -27 68 -67zM447 592c0 -39 -31 -65 -67 -65c-34 0 -65 27 -65 65c0 39 31 67 65 67c35 0 67 -26 67 -67zM443 426c0 -15 -2 -37 -2 -63v-363c0 -102 -35 -146 -64 -173c-17 -17 -62 -40 -120 -40c-34 0 -68 9 -92 24
c-26 17 -43 47 -43 80c0 36 27 65 64 65c38 0 60 -26 60 -61c0 -8 -3 -23 -7 -34c-2 -10 -5 -22 -5 -27c0 -18 6 -33 26 -33c23 0 36 11 44 29c8 17 15 59 15 98v382c0 18 -1 59 -3 75c-3 19 -8 27 -18 34c-9 7 -23 8 -32 9v5h170c4 0 7 -2 7 -7z" />
    <glyph glyph-name="Abreve" unicode="&#x102;" horiz-adv-x="599" 
d="M616 0h-327v6c10 1 28 5 37 9c19 9 33 23 33 52c0 28 -8 54 -18 86l-21 68h-172l-26 -77c-11 -34 -15 -57 -15 -75c0 -28 15 -46 33 -54c13 -5 29 -8 39 -9v-6h-195v6c15 2 29 5 43 13c12 8 25 21 37 41c12 18 23 47 37 86l184 516h38l142 -430c29 -84 51 -143 70 -179
c14 -23 30 -35 47 -40c12 -4 24 -7 34 -8v-5zM315 237l-76 238h-3l-82 -238h161zM438 836c-18 -89 -65 -131 -138 -131c-72 0 -119 42 -138 131l9 6c35 -49 79 -66 129 -66s96 22 129 66z" />
    <glyph glyph-name="Amacron" unicode="&#x100;" horiz-adv-x="599" 
d="M616 0h-327v6c10 1 28 5 37 9c19 9 33 23 33 52c0 28 -8 54 -18 86l-21 68h-172l-26 -77c-11 -34 -15 -57 -15 -75c0 -28 15 -46 33 -54c13 -5 29 -8 39 -9v-6h-195v6c15 2 29 5 43 13c12 8 25 21 37 41c12 18 23 47 37 86l184 516h38l142 -430c29 -84 51 -143 70 -179
c14 -23 30 -35 47 -40c12 -4 24 -7 34 -8v-5zM315 237l-76 238h-3l-82 -238h161zM434 718h-266v44h266v-44z" />
    <glyph glyph-name="Aogonek" unicode="&#x104;" horiz-adv-x="599" 
d="M356 -215c-111 -6 -164 27 -164 80c0 52 65 83 110 110c47 29 58 50 58 84c0 36 -9 62 -19 94l-21 68h-172l-26 -77c-11 -34 -15 -57 -15 -75c0 -28 15 -46 33 -54c13 -5 29 -8 39 -9v-6h-195v6c15 2 29 5 43 13c12 8 25 21 37 41c12 18 23 47 37 86l184 516h38l142 -430
c29 -84 51 -143 70 -179c14 -23 30 -35 47 -40c12 -4 24 -7 34 -8v-5h-127c-124 0 -143 -3 -166 -28c-27 -27 -36 -66 -36 -108c0 -48 24 -68 69 -74v-5zM315 237l-76 238h-3l-82 -238h161z" />
    <glyph glyph-name="Aringacute" unicode="&#x1fa;" horiz-adv-x="599" 
d="M616 0h-327v6c10 1 28 5 37 9c19 9 33 23 33 52c0 28 -8 54 -18 86l-21 68h-172l-26 -77c-11 -34 -15 -57 -15 -75c0 -28 15 -46 33 -54c13 -5 29 -8 39 -9v-6h-195v6c15 2 29 5 43 13c12 8 25 21 37 41c12 18 23 47 37 86l184 516h38l142 -430c29 -84 51 -143 70 -179
c14 -23 30 -35 47 -40c12 -4 24 -7 34 -8v-5zM315 237l-76 238h-3l-82 -238h161zM206 887l-3 5c61 51 98 84 132 111c29 23 40 28 62 28c25 0 45 -20 45 -49c0 -30 -28 -46 -62 -56c-38 -11 -87 -21 -174 -39zM384 786c0 -51 -40 -84 -84 -84c-43 0 -84 31 -84 84
s41 85 84 85c42 0 84 -31 84 -85zM357 786c0 40 -25 63 -58 63c-31 0 -58 -23 -58 -63c0 -39 25 -61 58 -61c32 0 58 21 58 61z" />
    <glyph glyph-name="AEacute" unicode="&#x1fc;" horiz-adv-x="871" 
d="M494 703l-3 5c61 51 98 84 132 111c29 23 40 28 62 28c25 0 45 -20 45 -49c0 -30 -28 -46 -62 -56c-38 -11 -87 -21 -174 -39zM846 227l-13 -227h-523v5c7 0 19 2 29 6c22 5 38 18 47 47s12 80 12 134v37h-215l-42 -75c-11 -19 -22 -60 -22 -83c0 -27 12 -48 30 -56
c13 -5 30 -8 40 -9v-6h-205v6c59 7 102 90 136 149l260 459c-9 18 -23 27 -41 32c-10 3 -22 4 -29 5v6h499l22 -206h-6c-18 51 -48 105 -85 145c-21 24 -55 45 -95 45h-20c-24 0 -42 -4 -57 -17c-32 -26 -34 -84 -34 -125v-150h35c58 0 72 4 91 22c26 24 49 76 53 109h6
v-277h-6c-4 32 -23 81 -49 103c-17 15 -37 27 -95 27h-35v-168c0 -40 -1 -103 31 -128c16 -15 42 -21 67 -21h19c44 0 78 18 102 48c41 47 71 113 88 163h5zM398 245v220c0 47 -2 95 -11 128l-195 -348h206z" />
    <glyph glyph-name="Cacute" unicode="&#x106;" horiz-adv-x="615" 
d="M597 213c-26 -133 -130 -227 -250 -227c-157 0 -317 98 -317 343s166 341 324 341c86 0 168 -32 195 -72h3l24 48h7v-234h-10c-35 147 -98 241 -218 241c-41 0 -86 -17 -117 -59c-36 -47 -59 -131 -59 -265c0 -153 39 -226 97 -274c24 -19 66 -31 109 -31
c75 0 158 44 199 194zM250 703l-3 5c61 51 98 84 132 111c29 23 40 28 62 28c25 0 45 -20 45 -49c0 -30 -28 -46 -62 -56c-38 -11 -87 -21 -174 -39z" />
    <glyph glyph-name="Ccaron" unicode="&#x10c;" horiz-adv-x="615" 
d="M210 837l6 4l129 -65l130 65l5 -4c-34 -43 -89 -112 -106 -129h-57c-17 17 -72 86 -107 129zM597 213c-26 -133 -130 -227 -250 -227c-157 0 -317 98 -317 343s166 341 324 341c86 0 168 -32 195 -72h3l24 48h7v-234h-10c-35 147 -98 241 -218 241
c-41 0 -86 -17 -117 -59c-36 -47 -59 -131 -59 -265c0 -153 39 -226 97 -274c24 -19 66 -31 109 -31c75 0 158 44 199 194z" />
    <glyph glyph-name="Ccircumflex" unicode="&#x108;" horiz-adv-x="615" 
d="M480 712l-5 -4l-130 65l-129 -65l-6 4c35 44 90 112 107 129h57c17 -17 72 -85 106 -129zM597 213c-26 -133 -130 -227 -250 -227c-157 0 -317 98 -317 343s166 341 324 341c86 0 168 -32 195 -72h3l24 48h7v-234h-10c-35 147 -98 241 -218 241c-41 0 -86 -17 -117 -59
c-36 -47 -59 -131 -59 -265c0 -153 39 -226 97 -274c24 -19 66 -31 109 -31c75 0 158 44 199 194z" />
    <glyph glyph-name="Cdotaccent" unicode="&#x10a;" horiz-adv-x="615" 
d="M597 213c-26 -133 -130 -227 -250 -227c-157 0 -317 98 -317 343s166 341 324 341c86 0 168 -32 195 -72h3l24 48h7v-234h-10c-35 147 -98 241 -218 241c-41 0 -86 -17 -117 -59c-36 -47 -59 -131 -59 -265c0 -153 39 -226 97 -274c24 -19 66 -31 109 -31
c75 0 158 44 199 194zM411 778c0 -39 -32 -64 -67 -64s-66 27 -66 64c0 39 32 67 66 67s67 -26 67 -67z" />
    <glyph glyph-name="Dcaron" unicode="&#x10e;" horiz-adv-x="697" 
d="M196 837l6 4l129 -65l130 65l5 -4c-34 -43 -89 -112 -106 -129h-57c-17 17 -72 86 -107 129zM366 657c62 0 111 -16 153 -39c89 -51 148 -152 148 -289s-56 -241 -146 -290c-42 -22 -91 -39 -148 -39h-359v6c8 0 20 2 30 5c22 6 38 18 47 47c8 28 12 80 12 134v273
c0 54 -4 106 -12 134c-9 29 -25 41 -47 47c-10 3 -22 5 -30 5v6h352zM347 641h-24c-21 0 -43 -5 -57 -20c-28 -24 -25 -77 -25 -114v-345c0 -39 -3 -96 28 -123c13 -15 38 -23 60 -23h17c35 0 77 12 107 51c40 49 67 125 67 262c0 138 -26 211 -66 260
c-31 39 -69 52 -107 52z" />
    <glyph glyph-name="Ebreve" unicode="&#x114;" horiz-adv-x="576" 
d="M551 227l-14 -227h-523v5c8 0 20 3 30 6c21 6 38 18 47 47c8 29 11 80 11 134v273c0 54 -3 106 -11 134c-9 29 -26 41 -47 47c-10 3 -22 5 -30 6v5h500l21 -206h-6c-18 51 -47 105 -84 145c-22 24 -55 45 -95 45h-21c-24 0 -42 -4 -56 -17c-32 -26 -35 -84 -35 -125v-150
h36c57 0 71 3 91 22c26 24 49 76 53 109h6v-277h-6c-4 32 -24 81 -49 103c-18 15 -38 27 -95 27h-36v-168c0 -41 -1 -102 31 -128c17 -15 43 -21 67 -21h20c44 0 78 18 102 48c40 47 71 113 87 163h6zM435 836c-18 -89 -65 -131 -138 -131c-72 0 -119 42 -138 131l9 6
c35 -49 79 -66 129 -66s96 22 129 66z" />
    <glyph glyph-name="Ecaron" unicode="&#x11a;" horiz-adv-x="576" 
d="M162 837l6 4l129 -65l130 65l5 -4c-34 -43 -89 -112 -106 -129h-57c-17 17 -72 86 -107 129zM551 227l-14 -227h-523v5c8 0 20 3 30 6c21 6 38 18 47 47c8 29 11 80 11 134v273c0 54 -3 106 -11 134c-9 29 -26 41 -47 47c-10 3 -22 5 -30 6v5h500l21 -206h-6
c-18 51 -47 105 -84 145c-22 24 -55 45 -95 45h-21c-24 0 -42 -4 -56 -17c-32 -26 -35 -84 -35 -125v-150h36c57 0 71 3 91 22c26 24 49 76 53 109h6v-277h-6c-4 32 -24 81 -49 103c-18 15 -38 27 -95 27h-36v-168c0 -41 -1 -102 31 -128c17 -15 43 -21 67 -21h20
c44 0 78 18 102 48c40 47 71 113 87 163h6z" />
    <glyph glyph-name="Edotaccent" unicode="&#x116;" horiz-adv-x="576" 
d="M363 778c0 -39 -32 -64 -67 -64s-66 27 -66 64c0 39 32 67 66 67s67 -26 67 -67zM551 227l-14 -227h-523v5c8 0 20 3 30 6c21 6 38 18 47 47c8 29 11 80 11 134v273c0 54 -3 106 -11 134c-9 29 -26 41 -47 47c-10 3 -22 5 -30 6v5h500l21 -206h-6c-18 51 -47 105 -84 145
c-22 24 -55 45 -95 45h-21c-24 0 -42 -4 -56 -17c-32 -26 -35 -84 -35 -125v-150h36c57 0 71 3 91 22c26 24 49 76 53 109h6v-277h-6c-4 32 -24 81 -49 103c-18 15 -38 27 -95 27h-36v-168c0 -41 -1 -102 31 -128c17 -15 43 -21 67 -21h20c44 0 78 18 102 48
c40 47 71 113 87 163h6z" />
    <glyph glyph-name="Emacron" unicode="&#x112;" horiz-adv-x="576" 
d="M551 227l-14 -227h-523v5c8 0 20 3 30 6c21 6 38 18 47 47c8 29 11 80 11 134v273c0 54 -3 106 -11 134c-9 29 -26 41 -47 47c-10 3 -22 5 -30 6v5h500l21 -206h-6c-18 51 -47 105 -84 145c-22 24 -55 45 -95 45h-21c-24 0 -42 -4 -56 -17c-32 -26 -35 -84 -35 -125v-150
h36c57 0 71 3 91 22c26 24 49 76 53 109h6v-277h-6c-4 32 -24 81 -49 103c-18 15 -38 27 -95 27h-36v-168c0 -41 -1 -102 31 -128c17 -15 43 -21 67 -21h20c44 0 78 18 102 48c40 47 71 113 87 163h6zM430 718h-266v44h266v-44z" />
    <glyph glyph-name="Eogonek" unicode="&#x118;" horiz-adv-x="576" 
d="M551 227l-14 -227h-90c-46 -38 -65 -85 -65 -136c0 -48 24 -68 69 -74v-5c-111 -6 -163 27 -163 80c0 58 75 90 147 135h-421v5c8 0 20 3 30 6c21 6 38 18 47 47c8 29 11 80 11 134v273c0 54 -3 106 -11 134c-9 29 -26 41 -47 47c-10 3 -22 5 -30 6v5h500l21 -206h-6
c-18 51 -47 105 -84 145c-22 24 -55 45 -95 45h-21c-24 0 -42 -4 -56 -17c-32 -26 -35 -84 -35 -125v-150h36c57 0 71 3 91 22c26 24 49 76 53 109h6v-277h-6c-4 32 -24 81 -49 103c-18 15 -38 27 -95 27h-36v-168c0 -41 -1 -102 31 -128c17 -15 43 -21 67 -21h20
c44 0 78 18 102 48c40 47 71 113 87 163h6z" />
    <glyph glyph-name="Gbreve" unicode="&#x11e;" horiz-adv-x="645" 
d="M480 836c-18 -89 -65 -131 -138 -131c-72 0 -119 42 -138 131l9 6c35 -49 79 -66 129 -66s96 22 129 66zM646 296c-6 -1 -23 -4 -31 -7c-16 -7 -30 -16 -40 -36c-7 -14 -11 -37 -11 -84v-146c-18 -7 -48 -15 -87 -24c-38 -7 -92 -13 -137 -13c-171 0 -310 125 -310 343
c0 219 145 341 312 341c96 0 169 -45 190 -72h3l23 41h6v-232h-6c-14 61 -33 113 -59 154c-37 58 -85 89 -154 89c-28 0 -75 -16 -100 -42c-47 -47 -67 -130 -67 -279c0 -143 32 -226 75 -274c28 -37 68 -47 98 -47c44 0 66 9 77 28c12 20 16 56 16 83v47c0 44 -4 68 -15 88
c-12 21 -24 29 -45 36c-9 3 -20 5 -29 6v5h291v-5z" />
    <glyph glyph-name="Gcircumflex" unicode="&#x11c;" horiz-adv-x="645" 
d="M477 712l-5 -4l-130 65l-129 -65l-6 4c35 44 90 112 107 129h57c17 -17 72 -85 106 -129zM646 296c-6 -1 -23 -4 -31 -7c-16 -7 -30 -16 -40 -36c-7 -14 -11 -37 -11 -84v-146c-18 -7 -48 -15 -87 -24c-38 -7 -92 -13 -137 -13c-171 0 -310 125 -310 343
c0 219 145 341 312 341c96 0 169 -45 190 -72h3l23 41h6v-232h-6c-14 61 -33 113 -59 154c-37 58 -85 89 -154 89c-28 0 -75 -16 -100 -42c-47 -47 -67 -130 -67 -279c0 -143 32 -226 75 -274c28 -37 68 -47 98 -47c44 0 66 9 77 28c12 20 16 56 16 83v47c0 44 -4 68 -15 88
c-12 21 -24 29 -45 36c-9 3 -20 5 -29 6v5h291v-5z" />
    <glyph glyph-name="Gcommaaccent" unicode="&#x122;" horiz-adv-x="645" 
d="M403 -112c0 -71 -47 -113 -122 -129l-4 11c48 12 78 29 78 53c0 10 -2 17 -7 19c-39 6 -69 23 -69 63c0 34 33 55 59 55c34 0 65 -23 65 -72zM646 296c-6 -1 -23 -4 -31 -7c-16 -7 -30 -16 -40 -36c-7 -14 -11 -37 -11 -84v-146c-18 -7 -48 -15 -87 -24
c-38 -7 -92 -13 -137 -13c-171 0 -310 125 -310 343c0 219 145 341 312 341c96 0 169 -45 190 -72h3l23 41h6v-232h-6c-14 61 -33 113 -59 154c-37 58 -85 89 -154 89c-28 0 -75 -16 -100 -42c-47 -47 -67 -130 -67 -279c0 -143 32 -226 75 -274c28 -37 68 -47 98 -47
c44 0 66 9 77 28c12 20 16 56 16 83v47c0 44 -4 68 -15 88c-12 21 -24 29 -45 36c-9 3 -20 5 -29 6v5h291v-5z" />
    <glyph glyph-name="Gdotaccent" unicode="&#x120;" horiz-adv-x="645" 
d="M409 778c0 -39 -32 -64 -67 -64s-66 27 -66 64c0 39 32 67 66 67s67 -26 67 -67zM646 296c-6 -1 -23 -4 -31 -7c-16 -7 -30 -16 -40 -36c-7 -14 -11 -37 -11 -84v-146c-18 -7 -48 -15 -87 -24c-38 -7 -92 -13 -137 -13c-171 0 -310 125 -310 343c0 219 145 341 312 341
c96 0 169 -45 190 -72h3l23 41h6v-232h-6c-14 61 -33 113 -59 154c-37 58 -85 89 -154 89c-28 0 -75 -16 -100 -42c-47 -47 -67 -130 -67 -279c0 -143 32 -226 75 -274c28 -37 68 -47 98 -47c44 0 66 9 77 28c12 20 16 56 16 83v47c0 44 -4 68 -15 88c-12 21 -24 29 -45 36
c-9 3 -20 5 -29 6v5h291v-5z" />
    <glyph glyph-name="Hbar" unicode="&#x126;" horiz-adv-x="714" 
d="M13 462v22h88c-1 47 -3 90 -10 116c-9 28 -26 40 -47 46c-11 3 -22 6 -30 6v5h307v-5c-7 0 -16 -2 -26 -6c-20 -7 -36 -18 -45 -46c-8 -26 -11 -69 -11 -116h237c-1 47 -4 90 -12 116c-8 28 -25 39 -45 46c-9 4 -19 6 -26 6v5h307v-5c-7 0 -19 -3 -29 -6
c-22 -6 -38 -18 -47 -46c-8 -26 -11 -69 -11 -116h87v-22h-87v-270c0 -54 2 -105 11 -134s25 -41 47 -47c10 -3 22 -5 29 -6v-5h-307v5c7 1 15 3 25 6c21 7 38 18 46 47c9 29 12 80 12 134v130h-237v-130c0 -54 2 -105 11 -134s25 -41 45 -47c11 -4 20 -5 26 -6v-5h-307v5
c8 1 19 2 30 6c21 5 38 18 47 47c8 29 10 80 10 134v270h-88zM239 343h237v119h-237v-119z" />
    <glyph glyph-name="Hcircumflex" unicode="&#x124;" horiz-adv-x="714" 
d="M14 0v5c8 1 19 2 30 6c21 5 38 18 47 47c8 29 10 80 10 134v273c0 54 -2 106 -10 135c-9 28 -26 40 -47 46c-11 3 -22 6 -30 6v5h307v-5c-7 0 -16 -2 -26 -6c-20 -7 -36 -18 -45 -46c-9 -29 -11 -81 -11 -135v-122h237v122c0 54 -3 106 -12 135c-8 28 -25 39 -45 46
c-9 4 -19 6 -26 6v5h307v-5c-7 0 -19 -3 -29 -6c-22 -6 -38 -18 -47 -46c-9 -29 -11 -81 -11 -135v-273c0 -54 2 -105 11 -134s25 -41 47 -47c10 -3 22 -5 29 -6v-5h-307v5c7 1 15 3 25 6c21 7 38 18 46 47c9 29 12 80 12 134v130h-237v-130c0 -54 2 -105 11 -134
s25 -41 45 -47c11 -4 20 -5 26 -6v-5h-307zM492 712l-5 -4l-130 65l-129 -65l-6 4c35 44 90 112 107 129h57c17 -17 72 -85 106 -129z" />
    <glyph glyph-name="Idotaccent" unicode="&#x130;" horiz-adv-x="341" 
d="M327 0h-313v5c7 1 19 3 30 6c21 6 37 18 46 47s11 80 11 134v273c0 54 -2 106 -11 134c-9 29 -25 41 -46 47c-11 3 -21 5 -30 6v5h313v-5c-9 -1 -20 -3 -30 -6c-21 -6 -38 -18 -47 -47c-9 -28 -11 -80 -11 -134v-273c0 -54 2 -105 11 -134s26 -41 47 -47
c10 -3 22 -5 30 -6v-5zM236 778c0 -39 -32 -64 -67 -64s-66 27 -66 64c0 39 32 67 66 67s67 -26 67 -67z" />
    <glyph glyph-name="Ibreve" unicode="&#x12c;" horiz-adv-x="341" 
d="M327 0h-313v5c7 1 19 3 30 6c21 6 37 18 46 47s11 80 11 134v273c0 54 -2 106 -11 134c-9 29 -25 41 -46 47c-11 3 -21 5 -30 6v5h313v-5c-9 -1 -20 -3 -30 -6c-21 -6 -38 -18 -47 -47c-9 -28 -11 -80 -11 -134v-273c0 -54 2 -105 11 -134s26 -41 47 -47
c10 -3 22 -5 30 -6v-5zM308 836c-18 -89 -65 -131 -138 -131c-72 0 -119 42 -138 131l9 6c35 -49 79 -66 129 -66s96 22 129 66z" />
    <glyph glyph-name="Imacron" unicode="&#x12a;" horiz-adv-x="341" 
d="M327 0h-313v5c7 1 19 3 30 6c21 6 37 18 46 47s11 80 11 134v273c0 54 -2 106 -11 134c-9 29 -25 41 -46 47c-11 3 -21 5 -30 6v5h313v-5c-9 -1 -20 -3 -30 -6c-21 -6 -38 -18 -47 -47c-9 -28 -11 -80 -11 -134v-273c0 -54 2 -105 11 -134s26 -41 47 -47
c10 -3 22 -5 30 -6v-5zM304 718h-266v44h266v-44z" />
    <glyph glyph-name="Iogonek" unicode="&#x12e;" horiz-adv-x="341" 
d="M258 -215c-111 -6 -164 27 -164 80c0 58 69 89 133 135h-213v5c7 1 19 3 30 6c21 6 37 18 46 47s11 80 11 134v273c0 54 -2 106 -11 134c-9 29 -25 41 -46 47c-11 3 -21 5 -30 6v5h313v-5c-6 0 -25 -4 -30 -6c-21 -6 -38 -18 -47 -47c-9 -28 -11 -80 -11 -134v-273
c0 -54 2 -105 11 -134s26 -41 47 -47c10 -3 22 -5 30 -6v-5h-87c-34 -37 -51 -80 -51 -136c0 -48 24 -68 69 -74v-5z" />
    <glyph glyph-name="Itilde" unicode="&#x128;" horiz-adv-x="341" 
d="M327 0h-313v5c7 1 19 3 30 6c21 6 37 18 46 47s11 80 11 134v273c0 54 -2 106 -11 134c-9 29 -25 41 -46 47c-11 3 -21 5 -30 6v5h313v-5c-9 -1 -20 -3 -30 -6c-21 -6 -38 -18 -47 -47c-9 -28 -11 -80 -11 -134v-273c0 -54 2 -105 11 -134s26 -41 47 -47
c10 -3 22 -5 30 -6v-5zM331 832c-10 -55 -33 -117 -95 -117c-45 0 -114 30 -147 30c-25 0 -47 -9 -62 -41l-9 3c15 53 39 113 96 113c39 0 113 -28 143 -28c34 0 51 10 65 42z" />
    <glyph glyph-name="Jcircumflex" unicode="&#x134;" horiz-adv-x="443" 
d="M415 712l-5 -4l-130 65l-129 -65l-6 4c35 44 90 112 107 129h57c17 -17 72 -85 106 -129zM436 652c-7 -1 -19 -2 -29 -6c-22 -7 -38 -19 -47 -47c-9 -29 -12 -82 -12 -135v-258c0 -84 -31 -144 -63 -174c-35 -33 -79 -46 -139 -46c-41 0 -86 12 -109 35
c-24 23 -42 53 -42 93c0 54 34 78 73 78c44 0 71 -27 71 -67c0 -12 -5 -27 -10 -41c-6 -18 -14 -32 -14 -40c0 -29 13 -41 32 -41c27 0 41 9 51 32c12 24 15 74 15 108v321c0 53 -3 106 -12 135c-9 28 -26 41 -47 47c-11 3 -22 5 -30 6v5h312v-5z" />
    <glyph glyph-name="Kcommaaccent" unicode="&#x136;" horiz-adv-x="643" 
d="M405 -112c0 -71 -47 -113 -122 -129l-4 11c48 12 78 29 78 53c0 10 -2 17 -7 19c-39 6 -69 23 -69 63c0 34 33 55 59 55c34 0 65 -23 65 -72zM631 657v-5c-22 -3 -46 -12 -68 -26c-29 -19 -64 -48 -98 -88l-137 -150v-3c75 -6 124 -26 156 -58c37 -36 53 -100 61 -164
c11 -88 30 -122 52 -138c14 -10 36 -18 50 -20v-5h-204c-17 19 -36 66 -42 133s-7 121 -24 160c-12 33 -33 44 -65 44c-17 0 -36 -9 -49 -22c-7 -6 -19 -18 -24 -26v-97c0 -54 2 -105 11 -134s25 -41 45 -47c11 -4 19 -5 26 -6v-5h-307v5c8 1 20 3 30 6c21 6 38 18 47 47
c8 29 10 80 10 134v273c0 54 -2 106 -10 135c-9 28 -25 39 -47 46c-10 4 -22 6 -30 6v5h307v-5c-8 -1 -16 -2 -26 -6c-20 -7 -36 -18 -45 -46c-9 -29 -11 -81 -11 -135v-154l175 195c40 45 57 68 57 97c0 24 -10 36 -25 42c-10 4 -22 6 -36 7v5h221z" />
    <glyph glyph-name="Lacute" unicode="&#x139;" horiz-adv-x="565" 
d="M85 703l-3 5c61 51 98 84 132 111c29 23 40 28 62 28c25 0 45 -20 45 -49c0 -30 -28 -46 -62 -56c-38 -11 -87 -21 -174 -39zM558 225l-15 -225h-529v6c9 1 23 2 32 5c21 7 38 21 45 44c13 37 15 107 15 178v191c0 72 -3 142 -15 178c-8 24 -25 38 -46 44
c-9 3 -20 5 -30 6v5h321v-5c-9 -1 -21 -3 -30 -6c-21 -6 -39 -20 -47 -44c-12 -36 -15 -106 -15 -178v-236c0 -56 3 -91 9 -112c6 -20 16 -35 29 -44c17 -12 40 -16 59 -16h23c46 0 74 21 97 48c38 46 75 120 91 161h6z" />
    <glyph glyph-name="Lcaron" unicode="&#x13d;" horiz-adv-x="565" 
d="M558 225l-15 -225h-529v6c9 1 23 2 32 5c21 7 38 21 45 44c13 37 15 107 15 178v191c0 72 -3 142 -15 178c-8 24 -25 38 -46 44c-9 3 -20 5 -30 6v5h321v-5c-9 -1 -21 -3 -30 -6c-21 -6 -39 -20 -47 -44c-12 -36 -15 -106 -15 -178v-236c0 -56 3 -91 9 -112
c6 -20 16 -35 29 -44c17 -12 40 -16 59 -16h23c46 0 74 21 97 48c38 46 75 120 91 161h6zM393 459l14 198h84c-22 -53 -63 -137 -90 -198h-8z" />
    <glyph glyph-name="Lcommaaccent" unicode="&#x13b;" horiz-adv-x="565" 
d="M367 -112c0 -71 -47 -113 -122 -129l-4 11c48 12 78 29 78 53c0 10 -2 17 -7 19c-39 6 -69 23 -69 63c0 34 33 55 59 55c34 0 65 -23 65 -72zM558 225l-15 -225h-529v6c9 1 23 2 32 5c21 7 38 21 45 44c13 37 15 107 15 178v191c0 72 -3 142 -15 178c-8 24 -25 38 -46 44
c-9 3 -20 5 -30 6v5h321v-5c-9 -1 -21 -3 -30 -6c-21 -6 -39 -20 -47 -44c-12 -36 -15 -106 -15 -178v-236c0 -56 3 -91 9 -112c6 -20 16 -35 29 -44c17 -12 40 -16 59 -16h23c46 0 74 21 97 48c38 46 75 120 91 161h6z" />
    <glyph glyph-name="Ldot" unicode="&#x13f;" horiz-adv-x="565" 
d="M558 216l-15 -216h-529v6c9 1 23 2 32 5c21 7 38 21 45 44c13 37 15 107 15 178v191c0 72 -3 142 -15 178c-8 24 -25 38 -46 44c-9 3 -20 5 -30 6v5h321v-5c-9 -1 -21 -3 -30 -6c-21 -6 -39 -20 -47 -44c-12 -36 -15 -106 -15 -178v-236c0 -56 3 -91 9 -112
c6 -20 16 -35 29 -44c17 -12 40 -16 59 -16h23c46 0 74 20 97 46c38 44 75 115 91 154h6zM527 351c0 -39 -33 -64 -68 -64c-34 0 -66 27 -66 64c0 39 32 67 66 67s68 -26 68 -67z" />
    <glyph glyph-name="Nacute" unicode="&#x143;" horiz-adv-x="663" 
d="M273 703l-3 5c61 51 98 84 132 111c29 23 40 28 62 28c25 0 45 -20 45 -49c0 -30 -28 -46 -62 -56c-38 -11 -87 -21 -174 -39zM658 652c-13 -1 -23 -3 -34 -6c-17 -5 -34 -20 -43 -42c-9 -24 -17 -55 -17 -120v-490h-32l-380 541h-4v-363c0 -65 8 -95 18 -119
c8 -22 26 -37 44 -42c10 -3 19 -5 33 -6v-5h-209v5c14 1 24 3 34 6c18 5 35 20 43 42c10 24 19 54 19 119v273c0 69 -10 121 -22 145c-11 22 -36 43 -62 54c-10 4 -23 6 -32 7v6h231l297 -438h2v265c0 65 -8 96 -16 120c-10 22 -28 37 -45 42c-10 3 -19 5 -33 6v5h208v-5z
" />
    <glyph glyph-name="Ncaron" unicode="&#x147;" horiz-adv-x="663" 
d="M233 837l6 4l129 -65l130 65l5 -4c-34 -43 -89 -112 -106 -129h-57c-17 17 -72 86 -107 129zM658 652c-13 -1 -23 -3 -34 -6c-17 -5 -34 -20 -43 -42c-9 -24 -17 -55 -17 -120v-490h-32l-380 541h-4v-363c0 -65 8 -95 18 -119c8 -22 26 -37 44 -42c10 -3 19 -5 33 -6v-5
h-209v5c14 1 24 3 34 6c18 5 35 20 43 42c10 24 19 54 19 119v273c0 69 -10 121 -22 145c-11 22 -36 43 -62 54c-10 4 -23 6 -32 7v6h231l297 -438h2v265c0 65 -8 96 -16 120c-10 22 -28 37 -45 42c-10 3 -19 5 -33 6v5h208v-5z" />
    <glyph glyph-name="Ncommaaccent" unicode="&#x145;" horiz-adv-x="663" 
d="M406 -112c0 -71 -47 -113 -122 -129l-4 11c48 12 78 29 78 53c0 10 -2 17 -7 19c-39 6 -69 23 -69 63c0 34 33 55 59 55c34 0 65 -23 65 -72zM658 652c-13 -1 -23 -3 -34 -6c-17 -5 -34 -20 -43 -42c-9 -24 -17 -55 -17 -120v-490h-32l-380 541h-4v-363
c0 -65 8 -95 18 -119c8 -22 26 -37 44 -42c10 -3 19 -5 33 -6v-5h-209v5c14 1 24 3 34 6c18 5 35 20 43 42c10 24 19 54 19 119v273c0 69 -10 121 -22 145c-11 22 -36 43 -62 54c-10 4 -23 6 -32 7v6h231l297 -438h2v265c0 65 -8 96 -16 120c-10 22 -28 37 -45 42
c-10 3 -19 5 -33 6v5h208v-5z" />
    <glyph glyph-name="Obreve" unicode="&#x14e;" horiz-adv-x="683" 
d="M479 836c-18 -89 -65 -131 -138 -131c-72 0 -119 42 -138 131l9 6c35 -49 79 -66 129 -66s96 22 129 66zM653 328c0 -207 -123 -342 -312 -342c-188 0 -311 135 -311 342s123 342 311 342c189 0 312 -135 312 -342zM501 328c0 182 -34 263 -84 305c-24 19 -52 21 -76 21
s-51 -2 -75 -21c-50 -42 -84 -123 -84 -305s34 -263 84 -305c24 -18 51 -21 75 -21s52 2 76 21c50 41 84 123 84 305z" />
    <glyph glyph-name="Ohungarumlaut" unicode="&#x150;" horiz-adv-x="683" 
d="M406 834c0 -25 -22 -43 -49 -60c-24 -16 -57 -32 -121 -68h-13c44 67 54 84 79 119c24 33 42 47 64 47c24 0 40 -13 40 -38zM570 834c0 -25 -23 -43 -50 -60c-24 -16 -57 -32 -121 -68h-13c44 67 54 84 79 119c24 33 42 47 64 47c25 0 41 -13 41 -38zM653 328
c0 -207 -123 -342 -312 -342c-188 0 -311 135 -311 342s123 342 311 342c189 0 312 -135 312 -342zM501 328c0 182 -34 263 -84 305c-24 19 -52 21 -76 21s-51 -2 -75 -21c-50 -42 -84 -123 -84 -305s34 -263 84 -305c24 -18 51 -21 75 -21s52 2 76 21c50 41 84 123 84 305z
" />
    <glyph glyph-name="Omacron" unicode="&#x14c;" horiz-adv-x="683" 
d="M474 718h-266v44h266v-44zM653 328c0 -207 -123 -342 -312 -342c-188 0 -311 135 -311 342s123 342 311 342c189 0 312 -135 312 -342zM501 328c0 182 -34 263 -84 305c-24 19 -52 21 -76 21s-51 -2 -75 -21c-50 -42 -84 -123 -84 -305s34 -263 84 -305
c24 -18 51 -21 75 -21s52 2 76 21c50 41 84 123 84 305z" />
    <glyph glyph-name="Oslashacute" unicode="&#x1fe;" horiz-adv-x="683" 
d="M653 330c0 -207 -123 -344 -312 -344c-64 0 -120 15 -166 44l-52 -89l-15 9l52 90c-82 58 -130 160 -130 290c0 207 123 340 311 340c61 0 115 -12 160 -38l50 86l16 -9l-50 -87c85 -57 136 -160 136 -292zM462 564c-11 33 -26 54 -44 68c-23 16 -53 22 -77 22
s-51 -2 -75 -21c-50 -42 -84 -121 -84 -303c0 -91 11 -155 29 -202zM501 330c0 97 -11 164 -31 212l-251 -436c12 -41 28 -67 47 -83c24 -18 51 -21 75 -21s52 2 76 21c50 41 84 125 84 307zM247 703l-3 5c61 51 98 84 132 111c29 23 40 28 62 28c25 0 45 -20 45 -49
c0 -30 -28 -46 -62 -56c-38 -11 -87 -21 -174 -39z" />
    <glyph glyph-name="Racute" unicode="&#x154;" horiz-adv-x="637" 
d="M226 703l-3 5c61 51 98 84 132 111c29 23 40 28 62 28c25 0 45 -20 45 -49c0 -30 -28 -46 -62 -56c-38 -11 -87 -21 -174 -39zM653 0h-200c-19 25 -40 77 -44 134c-6 65 -14 121 -40 155c-21 28 -49 31 -95 31h-34v-128c0 -54 3 -105 12 -134s25 -42 46 -48
c11 -3 27 -4 35 -5v-5h-319v5c8 1 20 2 30 5c21 6 38 19 46 48c9 29 11 80 11 134v274c0 53 -3 104 -11 133c-9 28 -25 41 -47 47c-10 3 -21 5 -29 6v5h321c131 0 232 -52 232 -166c0 -66 -33 -112 -84 -139c-20 -12 -50 -22 -88 -25v-3c27 -4 64 -12 88 -29
c31 -22 56 -59 68 -123c14 -85 31 -131 53 -150c12 -9 36 -16 49 -17v-5zM309 641h-6c-24 0 -43 -6 -53 -23c-9 -16 -10 -43 -10 -75v-204h47c59 0 84 11 101 37c17 27 25 73 25 115c0 90 -24 150 -104 150z" />
    <glyph glyph-name="Rcaron" unicode="&#x158;" horiz-adv-x="637" 
d="M185 837l6 4l129 -65l130 65l5 -4c-34 -43 -89 -112 -106 -129h-57c-17 17 -72 86 -107 129zM653 0h-200c-19 25 -40 77 -44 134c-6 65 -14 121 -40 155c-21 28 -49 31 -95 31h-34v-128c0 -54 3 -105 12 -134s25 -42 46 -48c11 -3 27 -4 35 -5v-5h-319v5c8 1 20 2 30 5
c21 6 38 19 46 48c9 29 11 80 11 134v274c0 53 -3 104 -11 133c-9 28 -25 41 -47 47c-10 3 -21 5 -29 6v5h321c131 0 232 -52 232 -166c0 -66 -33 -112 -84 -139c-20 -12 -50 -22 -88 -25v-3c27 -4 64 -12 88 -29c31 -22 56 -59 68 -123c14 -85 31 -131 53 -150
c12 -9 36 -16 49 -17v-5zM309 641h-6c-24 0 -43 -6 -53 -23c-9 -16 -10 -43 -10 -75v-204h47c59 0 84 11 101 37c17 27 25 73 25 115c0 90 -24 150 -104 150z" />
    <glyph glyph-name="Rcommaaccent" unicode="&#x156;" horiz-adv-x="637" 
d="M401 -112c0 -71 -47 -113 -122 -129l-4 11c48 12 78 29 78 53c0 10 -2 17 -7 19c-39 6 -69 23 -69 63c0 34 33 55 59 55c34 0 65 -23 65 -72zM653 0h-200c-19 25 -40 77 -44 134c-6 65 -14 121 -40 155c-21 28 -49 31 -95 31h-34v-128c0 -54 3 -105 12 -134
s25 -42 46 -48c11 -3 27 -4 35 -5v-5h-319v5c8 1 20 2 30 5c21 6 38 19 46 48c9 29 11 80 11 134v274c0 53 -3 104 -11 133c-9 28 -25 41 -47 47c-10 3 -21 5 -29 6v5h321c131 0 232 -52 232 -166c0 -66 -33 -112 -84 -139c-20 -12 -50 -22 -88 -25v-3c27 -4 64 -12 88 -29
c31 -22 56 -59 68 -123c14 -85 31 -131 53 -150c12 -9 36 -16 49 -17v-5zM309 641h-6c-24 0 -43 -6 -53 -23c-9 -16 -10 -43 -10 -75v-204h47c59 0 84 11 101 37c17 27 25 73 25 115c0 90 -24 150 -104 150z" />
    <glyph glyph-name="Sacute" unicode="&#x15a;" horiz-adv-x="511" 
d="M486 190c0 -133 -110 -204 -229 -204c-70 0 -143 36 -169 66h-4l-30 -47h-6l-6 226h8c32 -114 97 -229 208 -229c81 0 110 57 110 118c0 68 -34 103 -140 146c-91 37 -190 93 -190 221c0 105 95 183 209 183c59 0 114 -24 137 -55h2l31 40h8l12 -201h-7
c-11 47 -37 105 -63 137c-26 35 -61 63 -118 63c-59 0 -95 -37 -95 -94c0 -93 66 -114 138 -147c103 -48 194 -80 194 -223zM160 703l-3 5c61 51 98 84 132 111c29 23 40 28 62 28c25 0 45 -20 45 -49c0 -30 -28 -46 -62 -56c-38 -11 -87 -21 -174 -39z" />
    <glyph glyph-name="Scedilla" unicode="&#x15e;" horiz-adv-x="511" 
d="M336 -108c0 -63 -56 -83 -114 -83c-24 0 -58 9 -74 18l4 7c13 -5 33 -9 52 -9c35 0 62 20 62 65c0 40 -20 57 -38 57c-11 0 -22 -2 -29 -11l-13 4l15 53c-50 12 -94 37 -113 59h-4l-30 -47h-6l-6 226h8c32 -114 97 -229 208 -229c81 0 110 57 110 118
c0 68 -34 103 -140 146c-91 37 -190 93 -190 221c0 105 95 183 209 183c59 0 114 -24 137 -55h2l31 40h8l12 -201h-7c-11 47 -37 105 -63 137c-26 35 -61 63 -118 63c-59 0 -95 -37 -95 -94c0 -93 66 -114 138 -147c103 -48 194 -80 194 -223c0 -133 -110 -204 -229 -204
c-14 0 -30 2 -41 4l-10 -38c10 7 29 12 43 12c57 0 87 -27 87 -72z" />
    <glyph glyph-name="Scircumflex" unicode="&#x15c;" horiz-adv-x="511" 
d="M389 712l-5 -4l-130 65l-129 -65l-6 4c35 44 90 112 107 129h57c17 -17 72 -85 106 -129zM486 190c0 -133 -110 -204 -229 -204c-70 0 -143 36 -169 66h-4l-30 -47h-6l-6 226h8c32 -114 97 -229 208 -229c81 0 110 57 110 118c0 68 -34 103 -140 146
c-91 37 -190 93 -190 221c0 105 95 183 209 183c59 0 114 -24 137 -55h2l31 40h8l12 -201h-7c-11 47 -37 105 -63 137c-26 35 -61 63 -118 63c-59 0 -95 -37 -95 -94c0 -93 66 -114 138 -147c103 -48 194 -80 194 -223z" />
    <glyph glyph-name="Scommaaccent" unicode="&#x218;" horiz-adv-x="511" 
d="M310 -112c0 -71 -47 -113 -122 -129l-4 11c48 12 78 29 78 53c0 10 -2 17 -7 19c-39 6 -69 23 -69 63c0 34 33 55 59 55c34 0 65 -23 65 -72zM486 190c0 -133 -110 -204 -229 -204c-70 0 -143 36 -169 66h-4l-30 -47h-6l-6 226h8c32 -114 97 -229 208 -229
c81 0 110 57 110 118c0 68 -34 103 -140 146c-91 37 -190 93 -190 221c0 105 95 183 209 183c59 0 114 -24 137 -55h2l31 40h8l12 -201h-7c-11 47 -37 105 -63 137c-26 35 -61 63 -118 63c-59 0 -95 -37 -95 -94c0 -93 66 -114 138 -147c103 -48 194 -80 194 -223z" />
    <glyph glyph-name="Tcaron" unicode="&#x164;" horiz-adv-x="599" 
d="M164 837l6 4l129 -65l130 65l5 -4c-34 -43 -89 -112 -106 -129h-57c-17 17 -72 86 -107 129zM593 445h-7c-15 35 -46 96 -82 135c-31 39 -65 61 -108 61h-28v-449c0 -54 3 -105 12 -133c9 -29 25 -43 46 -49c11 -3 22 -4 30 -4v-6h-314v6c8 0 19 1 30 4c21 6 38 20 47 49
c9 28 12 79 12 133v449h-30c-42 0 -72 -18 -106 -59c-38 -40 -67 -102 -82 -137h-7l26 212h534z" />
    <glyph glyph-name="Tcommaaccent" unicode="&#x162;" horiz-adv-x="599" 
d="M363 -112c0 -71 -47 -113 -122 -129l-4 11c48 12 78 29 78 53c0 10 -2 17 -7 19c-39 6 -69 23 -69 63c0 34 33 55 59 55c34 0 65 -23 65 -72zM593 445h-7c-15 35 -46 96 -82 135c-31 39 -65 61 -108 61h-28v-449c0 -54 3 -105 12 -133c9 -29 25 -43 46 -49
c11 -3 22 -4 30 -4v-6h-314v6c8 0 19 1 30 4c21 6 38 20 47 49c9 28 12 79 12 133v449h-30c-42 0 -72 -18 -106 -59c-38 -40 -67 -102 -82 -137h-7l26 212h534z" />
    <glyph glyph-name="Tbar" unicode="&#x166;" horiz-adv-x="599" 
d="M593 445h-7c-15 35 -46 96 -82 135c-31 39 -65 61 -108 61h-28v-233h120v-22h-120v-194c0 -54 3 -105 12 -133c9 -29 25 -43 46 -49c11 -3 22 -4 30 -4v-6h-314v6c8 0 19 1 30 4c21 6 38 20 47 49c9 28 12 79 12 133v194h-119v22h119v233h-30c-42 0 -72 -18 -106 -59
c-38 -40 -67 -102 -82 -137h-7l26 212h534z" />
    <glyph glyph-name="Ubreve" unicode="&#x16c;" horiz-adv-x="654" 
d="M649 652c-14 -1 -24 -3 -34 -6c-16 -5 -35 -19 -44 -41c-10 -24 -17 -55 -17 -120v-265c0 -56 -9 -105 -30 -144c-25 -46 -87 -90 -186 -90c-104 0 -185 29 -222 115c-16 34 -22 106 -22 143v222c0 54 -2 105 -11 133c-8 29 -26 41 -46 47c-11 3 -23 5 -30 6v5h313v-5
c-7 -1 -18 -3 -29 -6c-21 -6 -38 -18 -47 -47c-8 -28 -11 -79 -11 -133v-265c0 -32 3 -68 13 -97c21 -60 61 -86 124 -86c64 0 119 28 142 77c14 32 21 72 21 121v269c0 65 -7 96 -17 120c-8 21 -27 36 -44 41c-10 3 -20 5 -34 6v5h211v-5zM503 836
c-18 -89 -65 -131 -138 -131c-72 0 -119 42 -138 131l9 6c35 -49 79 -66 129 -66s96 22 129 66z" />
    <glyph glyph-name="Uhungarumlaut" unicode="&#x170;" horiz-adv-x="654" 
d="M430 834c0 -25 -22 -43 -49 -60c-24 -16 -57 -32 -121 -68h-13c44 67 54 84 79 119c24 33 42 47 64 47c24 0 40 -13 40 -38zM594 834c0 -25 -23 -43 -50 -60c-24 -16 -57 -32 -121 -68h-13c44 67 54 84 79 119c24 33 42 47 64 47c25 0 41 -13 41 -38zM649 652
c-14 -1 -24 -3 -34 -6c-16 -5 -35 -19 -44 -41c-10 -24 -17 -55 -17 -120v-265c0 -56 -9 -105 -30 -144c-25 -46 -87 -90 -186 -90c-104 0 -185 29 -222 115c-16 34 -22 106 -22 143v222c0 54 -2 105 -11 133c-8 29 -26 41 -46 47c-11 3 -23 5 -30 6v5h313v-5
c-7 -1 -18 -3 -29 -6c-21 -6 -38 -18 -47 -47c-8 -28 -11 -79 -11 -133v-265c0 -32 3 -68 13 -97c21 -60 61 -86 124 -86c64 0 119 28 142 77c14 32 21 72 21 121v269c0 65 -7 96 -17 120c-8 21 -27 36 -44 41c-10 3 -20 5 -34 6v5h211v-5z" />
    <glyph glyph-name="Umacron" unicode="&#x16a;" horiz-adv-x="654" 
d="M649 652c-14 -1 -24 -3 -34 -6c-16 -5 -35 -19 -44 -41c-10 -24 -17 -55 -17 -120v-265c0 -56 -9 -105 -30 -144c-25 -46 -87 -90 -186 -90c-104 0 -185 29 -222 115c-16 34 -22 106 -22 143v222c0 54 -2 105 -11 133c-8 29 -26 41 -46 47c-11 3 -23 5 -30 6v5h313v-5
c-7 -1 -18 -3 -29 -6c-21 -6 -38 -18 -47 -47c-8 -28 -11 -79 -11 -133v-265c0 -32 3 -68 13 -97c21 -60 61 -86 124 -86c64 0 119 28 142 77c14 32 21 72 21 121v269c0 65 -7 96 -17 120c-8 21 -27 36 -44 41c-10 3 -20 5 -34 6v5h211v-5zM498 718h-266v44h266v-44z" />
    <glyph glyph-name="Uogonek" unicode="&#x172;" horiz-adv-x="654" 
d="M430 -215c-111 -6 -164 27 -164 80c0 54 67 90 140 130c-22 -6 -46 -9 -68 -9c-104 0 -185 29 -222 115c-16 34 -22 106 -22 143v222c0 54 -2 105 -11 133c-8 29 -26 41 -46 47c-11 3 -23 5 -30 6v5h313v-5c-7 -1 -18 -3 -29 -6c-21 -6 -38 -18 -47 -47
c-8 -28 -11 -79 -11 -133v-265c0 -32 3 -68 13 -97c21 -60 61 -86 124 -86c64 0 119 28 142 77c14 32 21 72 21 121v269c0 65 -7 96 -17 120c-8 21 -27 36 -44 41c-10 3 -20 5 -34 6v5h211v-5c-14 -1 -24 -3 -34 -6c-16 -5 -35 -19 -44 -41c-10 -24 -17 -55 -17 -120v-265
c0 -56 -9 -105 -30 -144c-11 -21 -31 -42 -58 -58c-65 -37 -105 -73 -105 -154c0 -48 23 -68 69 -74v-5z" />
    <glyph glyph-name="Uring" unicode="&#x16e;" horiz-adv-x="654" 
d="M649 652c-14 -1 -24 -3 -34 -6c-16 -5 -35 -19 -44 -41c-10 -24 -17 -55 -17 -120v-265c0 -56 -9 -105 -30 -144c-25 -46 -87 -90 -186 -90c-104 0 -185 29 -222 115c-16 34 -22 106 -22 143v222c0 54 -2 105 -11 133c-8 29 -26 41 -46 47c-11 3 -23 5 -30 6v5h313v-5
c-7 -1 -18 -3 -29 -6c-21 -6 -38 -18 -47 -47c-8 -28 -11 -79 -11 -133v-265c0 -32 3 -68 13 -97c21 -60 61 -86 124 -86c64 0 119 28 142 77c14 32 21 72 21 121v269c0 65 -7 96 -17 120c-8 21 -27 36 -44 41c-10 3 -20 5 -34 6v5h211v-5zM461 756c0 -51 -40 -84 -84 -84
c-43 0 -84 31 -84 84s41 85 84 85c42 0 84 -31 84 -85zM434 756c0 40 -25 63 -58 63c-31 0 -58 -23 -58 -63c0 -39 25 -61 58 -61c32 0 58 21 58 61z" />
    <glyph glyph-name="Utilde" unicode="&#x168;" horiz-adv-x="654" 
d="M649 652c-14 -1 -24 -3 -34 -6c-16 -5 -35 -19 -44 -41c-10 -24 -17 -55 -17 -120v-265c0 -56 -9 -105 -30 -144c-25 -46 -87 -90 -186 -90c-104 0 -185 29 -222 115c-16 34 -22 106 -22 143v222c0 54 -2 105 -11 133c-8 29 -26 41 -46 47c-11 3 -23 5 -30 6v5h313v-5
c-7 -1 -18 -3 -29 -6c-21 -6 -38 -18 -47 -47c-8 -28 -11 -79 -11 -133v-265c0 -32 3 -68 13 -97c21 -60 61 -86 124 -86c64 0 119 28 142 77c14 32 21 72 21 121v269c0 65 -7 96 -17 120c-8 21 -27 36 -44 41c-10 3 -20 5 -34 6v5h211v-5zM526 832
c-10 -55 -33 -117 -95 -117c-45 0 -114 30 -147 30c-25 0 -47 -9 -62 -41l-9 3c15 53 39 113 96 113c39 0 113 -28 143 -28c34 0 51 10 65 42z" />
    <glyph glyph-name="Wacute" unicode="&#x1e82;" horiz-adv-x="907" 
d="M397 703l-3 5c61 51 98 84 132 111c29 23 40 28 62 28c25 0 45 -20 45 -49c0 -30 -28 -46 -62 -56c-38 -11 -87 -21 -174 -39zM249 -4l-134 476c-31 108 -45 147 -99 170c-12 6 -27 9 -37 10v5h325v-6c-28 -5 -61 -22 -61 -62c0 -26 6 -47 16 -85l79 -308h3l103 332
c-14 45 -25 71 -39 87c-17 23 -42 31 -67 37v5h325v-6c-33 -4 -74 -19 -74 -62c0 -26 6 -47 16 -84l79 -309h3l96 312c10 32 17 63 17 82c0 44 -35 59 -70 61v6h193v-6c-35 -5 -60 -15 -80 -50c-10 -18 -21 -43 -36 -90l-163 -515h-49l-140 495l-157 -495h-49z" />
    <glyph glyph-name="Wcircumflex" unicode="&#x174;" horiz-adv-x="907" 
d="M627 712l-5 -4l-130 65l-129 -65l-6 4c35 44 90 112 107 129h57c17 -17 72 -85 106 -129zM249 -4l-134 476c-31 108 -45 147 -99 170c-12 6 -27 9 -37 10v5h325v-6c-28 -5 -61 -22 -61 -62c0 -26 6 -47 16 -85l79 -308h3l103 332c-14 45 -25 71 -39 87
c-17 23 -42 31 -67 37v5h325v-6c-33 -4 -74 -19 -74 -62c0 -26 6 -47 16 -84l79 -309h3l96 312c10 32 17 63 17 82c0 44 -35 59 -70 61v6h193v-6c-35 -5 -60 -15 -80 -50c-10 -18 -21 -43 -36 -90l-163 -515h-49l-140 495l-157 -495h-49z" />
    <glyph glyph-name="Wdieresis" unicode="&#x1e84;" horiz-adv-x="907" 
d="M377 838c37 0 64 -28 64 -61c0 -34 -27 -63 -64 -63c-34 0 -61 28 -61 61c0 34 27 63 61 63zM604 838c36 0 62 -28 62 -61c0 -34 -27 -63 -62 -63c-36 0 -62 28 -62 61c0 34 27 63 62 63zM249 -4l-134 476c-31 108 -45 147 -99 170c-12 6 -27 9 -37 10v5h325v-6
c-28 -5 -61 -22 -61 -62c0 -26 6 -47 16 -85l79 -308h3l103 332c-14 45 -25 71 -39 87c-17 23 -42 31 -67 37v5h325v-6c-33 -4 -74 -19 -74 -62c0 -26 6 -47 16 -84l79 -309h3l96 312c10 32 17 63 17 82c0 44 -35 59 -70 61v6h193v-6c-35 -5 -60 -15 -80 -50
c-10 -18 -21 -43 -36 -90l-163 -515h-49l-140 495l-157 -495h-49z" />
    <glyph glyph-name="Wgrave" unicode="&#x1e80;" horiz-adv-x="907" 
d="M601 708l-4 -5c-86 18 -135 28 -174 39c-33 10 -62 26 -62 56c0 29 20 49 46 49c22 0 32 -5 61 -28zM249 -4l-134 476c-31 108 -45 147 -99 170c-12 6 -27 9 -37 10v5h325v-6c-28 -5 -61 -22 -61 -62c0 -26 6 -47 16 -85l79 -308h3l103 332c-14 45 -25 71 -39 87
c-17 23 -42 31 -67 37v5h325v-6c-33 -4 -74 -19 -74 -62c0 -26 6 -47 16 -84l79 -309h3l96 312c10 32 17 63 17 82c0 44 -35 59 -70 61v6h193v-6c-35 -5 -60 -15 -80 -50c-10 -18 -21 -43 -36 -90l-163 -515h-49l-140 495l-157 -495h-49z" />
    <glyph glyph-name="Ycircumflex" unicode="&#x176;" horiz-adv-x="653" 
d="M650 652c-63 -10 -98 -45 -149 -149l-101 -210v-101c0 -54 2 -105 12 -134c7 -29 25 -41 45 -47c12 -3 23 -5 30 -6v-5h-313v5c8 1 19 3 31 6c20 6 38 18 46 47c9 29 11 80 11 134v73l-143 280c-34 68 -61 100 -115 107v5h321v-5c-10 -1 -27 -4 -37 -8
c-41 -16 -33 -61 -11 -109l107 -218h5l92 190c20 40 30 69 30 94c0 22 -10 36 -28 43c-10 4 -29 7 -39 8v5h206v-5zM502 712l-5 -4l-130 65l-129 -65l-6 4c35 44 90 112 107 129h57c17 -17 72 -85 106 -129z" />
    <glyph glyph-name="Ygrave" unicode="&#x1ef2;" horiz-adv-x="653" 
d="M650 652c-63 -10 -98 -45 -149 -149l-101 -210v-101c0 -54 2 -105 12 -134c7 -29 25 -41 45 -47c12 -3 23 -5 30 -6v-5h-313v5c8 1 19 3 31 6c20 6 38 18 46 47c9 29 11 80 11 134v73l-143 280c-34 68 -61 100 -115 107v5h321v-5c-10 -1 -27 -4 -37 -8
c-41 -16 -33 -61 -11 -109l107 -218h5l92 190c20 40 30 69 30 94c0 22 -10 36 -28 43c-10 4 -29 7 -39 8v5h206v-5zM476 708l-4 -5c-86 18 -135 28 -174 39c-33 10 -62 26 -62 56c0 29 20 49 46 49c22 0 32 -5 61 -28z" />
    <glyph glyph-name="Zacute" unicode="&#x179;" horiz-adv-x="565" 
d="M206 703l-3 5c61 51 98 84 132 111c29 23 40 28 62 28c25 0 45 -20 45 -49c0 -30 -28 -46 -62 -56c-38 -11 -87 -21 -174 -39zM544 657v-5l-349 -629h60c91 0 133 18 176 53c60 49 83 91 114 141h8l-40 -217h-492v5l362 627h-82c-69 0 -128 -22 -161 -46
c-35 -25 -70 -78 -103 -128h-7l38 199h476z" />
    <glyph glyph-name="Zdotaccent" unicode="&#x17b;" horiz-adv-x="565" 
d="M544 657v-5l-349 -629h60c91 0 133 18 176 53c60 49 83 91 114 141h8l-40 -217h-492v5l362 627h-82c-69 0 -128 -22 -161 -46c-35 -25 -70 -78 -103 -128h-7l38 199h476zM367 778c0 -39 -32 -64 -67 -64s-66 27 -66 64c0 39 32 67 66 67s67 -26 67 -67z" />
    <glyph glyph-name="abreve" unicode="&#x103;" horiz-adv-x="430" 
d="M431 18c-8 -11 -49 -27 -98 -27c-32 0 -54 5 -68 18c-11 8 -17 25 -17 51h-2c-14 -47 -56 -69 -115 -69c-57 0 -112 34 -112 112c0 30 7 47 25 68c27 29 78 35 110 47c74 23 93 54 93 88c0 17 1 49 1 64c0 48 -12 60 -52 60c-22 0 -32 -7 -37 -15c-6 -10 -7 -35 -7 -62
c0 -37 -19 -54 -55 -54c-31 0 -52 15 -52 48c0 17 6 32 16 44c23 30 85 51 140 51c98 0 168 -33 168 -117c0 -33 -1 -164 -1 -226c0 -45 2 -65 10 -75c6 -6 13 -9 24 -9c10 0 21 3 29 7v-4zM245 262c-13 -20 -29 -28 -45 -38c-23 -13 -33 -24 -41 -41
c-9 -17 -13 -50 -13 -79c0 -56 17 -80 49 -80c22 0 49 33 49 84zM335 651c-5 -85 -50 -141 -120 -141s-115 56 -120 141l8 4c23 -54 70 -72 112 -72s89 19 111 72z" />
    <glyph glyph-name="amacron" unicode="&#x101;" horiz-adv-x="430" 
d="M431 18c-8 -11 -49 -27 -98 -27c-32 0 -54 5 -68 18c-11 8 -17 25 -17 51h-2c-14 -47 -56 -69 -115 -69c-57 0 -112 34 -112 112c0 30 7 47 25 68c27 29 78 35 110 47c74 23 93 54 93 88c0 17 1 49 1 64c0 48 -12 60 -52 60c-22 0 -32 -7 -37 -15c-6 -10 -7 -35 -7 -62
c0 -37 -19 -54 -55 -54c-31 0 -52 15 -52 48c0 17 6 32 16 44c23 30 85 51 140 51c98 0 168 -33 168 -117c0 -33 -1 -164 -1 -226c0 -45 2 -65 10 -75c6 -6 13 -9 24 -9c10 0 21 3 29 7v-4zM245 262c-13 -20 -29 -28 -45 -38c-23 -13 -33 -24 -41 -41
c-9 -17 -13 -50 -13 -79c0 -56 17 -80 49 -80c22 0 49 33 49 84zM334 550h-238v44h238v-44z" />
    <glyph glyph-name="aogonek" unicode="&#x105;" horiz-adv-x="430" 
d="M396 -215c-111 -6 -163 27 -163 80c0 55 70 88 138 129c-11 -2 -25 -3 -38 -3c-32 0 -54 5 -68 18c-11 8 -17 25 -17 51h-2c-14 -47 -56 -69 -115 -69c-57 0 -112 34 -112 112c0 30 7 47 25 68c27 29 78 35 110 47c74 23 93 54 93 88c0 17 1 49 1 64c0 48 -12 60 -52 60
c-22 0 -32 -7 -37 -15c-6 -10 -7 -35 -7 -62c0 -37 -19 -54 -55 -54c-31 0 -52 15 -52 48c0 17 6 32 16 44c23 30 85 51 140 51c98 0 168 -33 168 -117c0 -33 -1 -164 -1 -226c0 -45 2 -65 10 -75c6 -6 13 -9 24 -9c10 0 21 3 29 7v-4c-4 -6 -14 -10 -33 -20
c-48 -22 -71 -83 -71 -134c0 -48 24 -68 69 -74v-5zM245 262c-13 -20 -29 -28 -45 -38c-23 -13 -33 -24 -41 -41c-9 -17 -13 -50 -13 -79c0 -56 17 -80 49 -80c22 0 49 33 49 84z" />
    <glyph glyph-name="aringacute" unicode="&#x1fb;" horiz-adv-x="430" 
d="M431 18c-8 -11 -49 -27 -98 -27c-32 0 -54 5 -68 18c-11 8 -17 25 -17 51h-2c-14 -47 -56 -69 -115 -69c-57 0 -112 34 -112 112c0 30 7 47 25 68c27 29 78 35 110 47c74 23 93 54 93 88c0 17 1 49 1 64c0 48 -12 60 -52 60c-22 0 -32 -7 -37 -15c-6 -10 -7 -35 -7 -62
c0 -37 -19 -54 -55 -54c-31 0 -52 15 -52 48c0 17 6 32 16 44c23 30 85 51 140 51c98 0 168 -33 168 -117c0 -33 -1 -164 -1 -226c0 -45 2 -65 10 -75c6 -6 13 -9 24 -9c10 0 21 3 29 7v-4zM245 262c-13 -20 -29 -28 -45 -38c-23 -13 -33 -24 -41 -41
c-9 -17 -13 -50 -13 -79c0 -56 17 -80 49 -80c22 0 49 33 49 84zM298 575c0 -51 -40 -85 -84 -85c-43 0 -84 31 -84 85c0 53 41 84 84 84c42 0 84 -30 84 -84zM271 574c0 41 -25 63 -58 63c-31 0 -58 -22 -58 -62c0 -39 25 -62 58 -62c32 0 58 21 58 61zM120 683l-3 5
c61 51 98 84 132 111c29 23 40 28 62 28c25 0 45 -20 45 -49c0 -30 -28 -46 -62 -56c-38 -11 -87 -21 -174 -39z" />
    <glyph glyph-name="aeacute" unicode="&#x1fd;" horiz-adv-x="649" 
d="M492 625c0 -25 -16 -42 -43 -58c-33 -21 -78 -42 -157 -83l-4 4c45 67 70 110 96 144c24 32 35 43 60 43c33 0 48 -19 48 -50zM636 269c0 -9 0 -21 -1 -30h-259c0 -114 20 -166 46 -196c15 -17 40 -26 65 -26c79 0 116 65 133 125l11 -3c-17 -84 -78 -148 -175 -148
c-49 0 -103 13 -142 47c-19 17 -35 36 -45 58c-19 -78 -71 -105 -128 -105c-58 0 -122 34 -122 112c0 31 7 47 26 68c26 30 78 37 109 47c74 23 93 54 93 88c0 17 1 49 1 64c0 48 -12 60 -52 60c-17 0 -32 -4 -37 -15c-6 -10 -7 -35 -7 -62c0 -35 -17 -54 -55 -54
c-31 0 -52 15 -52 48c0 17 6 32 16 44c26 34 92 51 140 51c54 0 100 -18 124 -51c30 32 83 51 124 51c120 0 186 -80 187 -173zM520 292c0 56 -9 99 -27 121c-11 12 -25 17 -42 17s-30 -5 -42 -18c-20 -21 -31 -72 -33 -159h111c24 0 33 8 33 39zM245 262
c-13 -20 -31 -29 -45 -38c-24 -13 -33 -24 -41 -41c-9 -17 -13 -49 -13 -79c0 -56 17 -83 49 -83c27 0 49 30 49 83z" />
    <glyph glyph-name="cacute" unicode="&#x107;" horiz-adv-x="404" 
d="M372 625c0 -25 -16 -42 -43 -58c-33 -21 -78 -42 -157 -83l-4 4c45 67 70 110 96 144c24 32 35 43 60 43c33 0 48 -19 48 -50zM396 138c-19 -78 -71 -147 -163 -147c-65 0 -118 23 -151 57c-40 42 -61 101 -61 173c0 142 109 221 217 221c61 0 108 -21 127 -42
c17 -18 25 -34 25 -55c0 -34 -28 -50 -51 -50c-40 0 -53 25 -58 66c-7 51 -17 70 -45 70c-16 0 -37 -7 -50 -22c-22 -27 -33 -97 -33 -175c0 -89 12 -149 34 -188c16 -26 38 -33 60 -33c84 0 119 73 137 130z" />
    <glyph glyph-name="ccaron" unicode="&#x10d;" horiz-adv-x="404" 
d="M96 662l5 4l129 -99l131 99l5 -4c-31 -47 -92 -148 -107 -169h-57c-14 22 -75 123 -106 169zM396 138c-19 -78 -71 -147 -163 -147c-65 0 -118 23 -151 57c-40 42 -61 101 -61 173c0 142 109 221 217 221c61 0 108 -21 127 -42c17 -18 25 -34 25 -55
c0 -34 -28 -50 -51 -50c-40 0 -53 25 -58 66c-7 51 -17 70 -45 70c-16 0 -37 -7 -50 -22c-22 -27 -33 -97 -33 -175c0 -89 12 -149 34 -188c16 -26 38 -33 60 -33c84 0 119 73 137 130z" />
    <glyph glyph-name="ccircumflex" unicode="&#x109;" horiz-adv-x="404" 
d="M368 499l-5 -4l-131 91l-129 -91l-5 4c31 46 92 147 106 169h57c15 -22 76 -122 107 -169zM396 138c-19 -78 -71 -147 -163 -147c-65 0 -118 23 -151 57c-40 42 -61 101 -61 173c0 142 109 221 217 221c61 0 108 -21 127 -42c17 -18 25 -34 25 -55c0 -34 -28 -50 -51 -50
c-40 0 -53 25 -58 66c-7 51 -17 70 -45 70c-16 0 -37 -7 -50 -22c-22 -27 -33 -97 -33 -175c0 -89 12 -149 34 -188c16 -26 38 -33 60 -33c84 0 119 73 137 130z" />
    <glyph glyph-name="cdotaccent" unicode="&#x10b;" horiz-adv-x="404" 
d="M396 138c-19 -78 -71 -147 -163 -147c-65 0 -118 23 -151 57c-40 42 -61 101 -61 173c0 142 109 221 217 221c61 0 108 -21 127 -42c17 -18 25 -34 25 -55c0 -34 -28 -50 -51 -50c-40 0 -53 25 -58 66c-7 51 -17 70 -45 70c-16 0 -37 -7 -50 -22
c-22 -27 -33 -97 -33 -175c0 -89 12 -149 34 -188c16 -26 38 -33 60 -33c84 0 119 73 137 130zM298 592c0 -39 -32 -65 -67 -65s-66 27 -66 65s32 67 66 67s67 -27 67 -67z" />
    <glyph glyph-name="dcaron" unicode="&#x10f;" horiz-adv-x="517" 
d="M485 491l13 193h83c-20 -45 -61 -128 -88 -193h-8zM505 -1c-17 0 -172 -3 -178 -3c-1 0 -4 2 -4 5c0 2 1 24 1 27v49h-1c-17 -52 -60 -86 -122 -86c-93 0 -180 69 -180 224c0 151 91 227 192 227c60 0 92 -34 107 -72h1v203c0 15 0 50 -2 64c-3 19 -10 28 -22 35
c-10 6 -23 7 -31 8v4h177c2 -1 5 -2 5 -6c0 -38 -3 -162 -3 -213v-353c0 -18 0 -45 2 -61c2 -18 9 -31 22 -39c10 -7 28 -8 36 -9v-4zM321 151v136c0 47 -10 77 -26 100c-14 22 -34 35 -59 35c-51 0 -83 -81 -83 -209c0 -131 30 -199 78 -199c51 0 90 48 90 137z" />
    <glyph glyph-name="ebreve" unicode="&#x115;" horiz-adv-x="427" 
d="M413 239h-260c0 -114 20 -166 46 -196c16 -17 41 -26 66 -26c79 0 116 65 133 125l11 -3c-18 -84 -78 -148 -175 -148c-49 0 -102 12 -141 46c-46 40 -72 96 -72 178c0 148 99 227 206 227c128 0 187 -87 187 -176c0 -7 0 -19 -1 -27zM297 292c0 56 -8 99 -26 121
c-11 12 -26 17 -42 17c-17 0 -30 -5 -43 -18c-19 -21 -30 -72 -33 -159h112c24 0 32 8 32 39zM351 651c-5 -85 -50 -141 -120 -141s-115 56 -120 141l8 4c23 -54 70 -72 112 -72s89 19 111 72z" />
    <glyph glyph-name="ecaron" unicode="&#x11b;" horiz-adv-x="427" 
d="M97 662l5 4l129 -99l131 99l5 -4c-31 -47 -92 -148 -107 -169h-57c-14 22 -75 123 -106 169zM413 239h-260c0 -114 20 -166 46 -196c16 -17 41 -26 66 -26c79 0 116 65 133 125l11 -3c-18 -84 -78 -148 -175 -148c-49 0 -102 12 -141 46c-46 40 -72 96 -72 178
c0 148 99 227 206 227c128 0 187 -87 187 -176c0 -7 0 -19 -1 -27zM297 292c0 56 -8 99 -26 121c-11 12 -26 17 -42 17c-17 0 -30 -5 -43 -18c-19 -21 -30 -72 -33 -159h112c24 0 32 8 32 39z" />
    <glyph glyph-name="edotaccent" unicode="&#x117;" horiz-adv-x="427" 
d="M413 239h-260c0 -114 20 -166 46 -196c16 -17 41 -26 66 -26c79 0 116 65 133 125l11 -3c-18 -84 -78 -148 -175 -148c-49 0 -102 12 -141 46c-46 40 -72 96 -72 178c0 148 99 227 206 227c128 0 187 -87 187 -176c0 -7 0 -19 -1 -27zM297 292c0 56 -8 99 -26 121
c-11 12 -26 17 -42 17c-17 0 -30 -5 -43 -18c-19 -21 -30 -72 -33 -159h112c24 0 32 8 32 39zM297 592c0 -39 -32 -65 -67 -65s-66 27 -66 65s32 67 66 67s67 -27 67 -67z" />
    <glyph glyph-name="emacron" unicode="&#x113;" horiz-adv-x="427" 
d="M413 239h-260c0 -114 20 -166 46 -196c16 -17 41 -26 66 -26c79 0 116 65 133 125l11 -3c-18 -84 -78 -148 -175 -148c-49 0 -102 12 -141 46c-46 40 -72 96 -72 178c0 148 99 227 206 227c128 0 187 -87 187 -176c0 -7 0 -19 -1 -27zM297 292c0 56 -8 99 -26 121
c-11 12 -26 17 -42 17c-17 0 -30 -5 -43 -18c-19 -21 -30 -72 -33 -159h112c24 0 32 8 32 39zM353 550h-238v44h238v-44z" />
    <glyph glyph-name="eogonek" unicode="&#x119;" horiz-adv-x="427" 
d="M295 -215c-111 -6 -164 27 -164 80c0 56 72 90 144 131c-15 -3 -30 -5 -41 -5c-49 0 -102 12 -141 46c-46 40 -72 96 -72 178c0 148 99 227 206 227c128 0 187 -87 187 -176c0 -7 0 -19 -1 -27h-260c0 -114 20 -166 46 -196c16 -17 41 -26 66 -26c79 0 116 65 133 125
l11 -3c-11 -54 -40 -98 -85 -125c-67 -40 -98 -79 -98 -150c0 -48 23 -68 69 -74v-5zM297 292c0 56 -8 99 -26 121c-11 12 -26 17 -42 17c-17 0 -30 -5 -43 -18c-19 -21 -30 -72 -33 -159h112c24 0 32 8 32 39z" />
    <glyph glyph-name="gbreve" unicode="&#x11f;" horiz-adv-x="456" 
d="M475 398c0 -35 -22 -50 -48 -50c-25 0 -38 18 -44 32c-7 19 -10 28 -18 28c-7 0 -16 -14 -16 -31c0 -6 5 -19 10 -30c7 -15 11 -42 11 -58c0 -100 -89 -152 -172 -152c-19 0 -44 4 -58 8c-23 -3 -53 -15 -53 -38c0 -20 17 -30 45 -30s116 10 144 10
c92 0 150 -37 150 -130c0 -121 -131 -170 -241 -170c-112 0 -186 27 -186 95c0 44 49 77 117 83v2c-51 6 -90 34 -90 87c0 57 53 86 86 96v2c-45 21 -89 72 -89 137c0 101 89 153 173 153c51 0 108 -21 138 -56h3c7 35 40 63 78 63c41 0 60 -19 60 -51zM346 -98
c0 48 -21 72 -73 72c-31 0 -86 -5 -115 -8c-40 -4 -94 -16 -94 -82c0 -51 37 -87 120 -87c103 0 162 36 162 105zM196 433c-45 0 -63 -38 -63 -144s18 -144 63 -144c46 0 65 37 65 144s-19 144 -65 144zM329 651c-5 -85 -50 -141 -120 -141s-115 56 -120 141l8 4
c23 -54 70 -72 112 -72s89 19 111 72z" />
    <glyph glyph-name="gcircumflex" unicode="&#x11d;" horiz-adv-x="456" 
d="M475 398c0 -35 -22 -50 -48 -50c-25 0 -38 18 -44 32c-7 19 -10 28 -18 28c-7 0 -16 -14 -16 -31c0 -6 5 -19 10 -30c7 -15 11 -42 11 -58c0 -100 -89 -152 -172 -152c-19 0 -44 4 -58 8c-23 -3 -53 -15 -53 -38c0 -20 17 -30 45 -30s116 10 144 10
c92 0 150 -37 150 -130c0 -121 -131 -170 -241 -170c-112 0 -186 27 -186 95c0 44 49 77 117 83v2c-51 6 -90 34 -90 87c0 57 53 86 86 96v2c-45 21 -89 72 -89 137c0 101 89 153 173 153c51 0 108 -21 138 -56h3c7 35 40 63 78 63c41 0 60 -19 60 -51zM346 -98
c0 48 -21 72 -73 72c-31 0 -86 -5 -115 -8c-40 -4 -94 -16 -94 -82c0 -51 37 -87 120 -87c103 0 162 36 162 105zM196 433c-45 0 -63 -38 -63 -144s18 -144 63 -144c46 0 65 37 65 144s-19 144 -65 144zM345 499l-5 -4l-131 91l-129 -91l-5 4c31 46 92 147 106 169h57
c15 -22 76 -122 107 -169z" />
    <glyph glyph-name="gcommaaccent" unicode="&#x123;" horiz-adv-x="456" 
d="M475 398c0 -35 -22 -50 -48 -50c-25 0 -38 18 -44 32c-7 19 -10 28 -18 28c-7 0 -16 -14 -16 -31c0 -6 5 -19 10 -30c7 -15 11 -42 11 -58c0 -100 -89 -152 -172 -152c-19 0 -44 4 -58 8c-23 -3 -53 -15 -53 -38c0 -20 17 -30 45 -30s116 10 144 10
c92 0 150 -37 150 -130c0 -121 -131 -170 -241 -170c-112 0 -186 27 -186 95c0 44 49 77 117 83v2c-51 6 -90 34 -90 87c0 57 53 86 86 96v2c-45 21 -89 72 -89 137c0 101 89 153 173 153c51 0 108 -21 138 -56h3c7 35 40 63 78 63c41 0 60 -19 60 -51zM346 -98
c0 48 -21 72 -73 72c-31 0 -86 -5 -115 -8c-40 -4 -94 -16 -94 -82c0 -51 37 -87 120 -87c103 0 162 36 162 105zM196 433c-45 0 -63 -38 -63 -144s18 -144 63 -144c46 0 65 37 65 144s-19 144 -65 144zM146 591c0 71 46 113 121 129l4 -11c-47 -12 -78 -29 -78 -53
c0 -10 3 -16 8 -19c38 -5 69 -22 69 -62c0 -34 -33 -56 -59 -56c-34 0 -65 23 -65 72z" />
    <glyph glyph-name="gdotaccent" unicode="&#x121;" horiz-adv-x="456" 
d="M475 398c0 -35 -22 -50 -48 -50c-25 0 -38 18 -44 32c-7 19 -10 28 -18 28c-7 0 -16 -14 -16 -31c0 -6 5 -19 10 -30c7 -15 11 -42 11 -58c0 -100 -89 -152 -172 -152c-19 0 -44 4 -58 8c-23 -3 -53 -15 -53 -38c0 -20 17 -30 45 -30s116 10 144 10
c92 0 150 -37 150 -130c0 -121 -131 -170 -241 -170c-112 0 -186 27 -186 95c0 44 49 77 117 83v2c-51 6 -90 34 -90 87c0 57 53 86 86 96v2c-45 21 -89 72 -89 137c0 101 89 153 173 153c51 0 108 -21 138 -56h3c7 35 40 63 78 63c41 0 60 -19 60 -51zM346 -98
c0 48 -21 72 -73 72c-31 0 -86 -5 -115 -8c-40 -4 -94 -16 -94 -82c0 -51 37 -87 120 -87c103 0 162 36 162 105zM196 433c-45 0 -63 -38 -63 -144s18 -144 63 -144c46 0 65 37 65 144s-19 144 -65 144zM275 592c0 -39 -32 -65 -67 -65s-66 27 -66 65s32 67 66 67
s67 -27 67 -67z" />
    <glyph glyph-name="hbar" unicode="&#x127;" horiz-adv-x="537" 
d="M10 541v18h61v10c0 18 0 49 -3 67s-8 25 -19 32c-10 7 -27 10 -36 11v5h176c4 0 6 -2 6 -7c0 -14 -3 -67 -3 -117v-1h120v-18h-120v-206h3c11 40 32 64 54 79c23 18 62 28 88 28c46 0 84 -13 103 -38c15 -19 26 -51 26 -99v-174c0 -28 1 -66 5 -84c7 -26 15 -31 31 -38
c8 -3 16 -4 23 -5v-4h-235v4c7 1 15 2 22 5c18 8 24 16 29 42c3 18 4 44 4 69v201c0 38 -4 57 -15 70c-10 13 -23 19 -43 19c-37 0 -83 -41 -90 -116c-2 -24 -4 -48 -4 -78v-96c0 -25 0 -52 3 -70c5 -25 13 -33 30 -41c8 -3 14 -4 22 -5v-4h-236v4c8 1 17 2 24 5
c14 5 24 11 31 37c4 17 4 57 4 85v410h-61z" />
    <glyph glyph-name="hcircumflex" unicode="&#x125;" horiz-adv-x="537" 
d="M525 0h-235v4c7 1 15 2 22 5c18 8 24 16 29 42c3 18 4 44 4 69v201c0 38 -4 57 -15 70c-10 13 -23 19 -43 19c-37 0 -83 -41 -90 -116c-2 -24 -4 -48 -4 -78v-96c0 -25 0 -52 3 -70c5 -25 13 -33 30 -41c8 -3 14 -4 22 -5v-4h-236v4c8 1 17 2 24 5c14 5 24 11 31 37
c4 17 4 57 4 85v438c0 18 0 49 -3 67s-8 25 -19 32c-10 7 -27 10 -36 11v5h176c4 0 6 -2 6 -7c0 -14 -3 -67 -3 -117v-225h3c11 40 32 64 54 79c23 18 62 28 88 28c46 0 84 -13 103 -38c15 -19 26 -51 26 -99v-174c0 -28 1 -66 5 -84c7 -26 15 -31 31 -38c8 -3 16 -4 23 -5
v-4zM402 718l-5 -4l-130 65l-129 -65l-6 4c35 44 90 112 107 129h57c17 -17 72 -85 106 -129z" />
    <glyph glyph-name="ibreve" unicode="&#x12d;" 
d="M253 0h-239v5c7 1 15 1 23 4c15 7 24 12 30 38c4 14 5 45 5 69v194c0 18 0 60 -2 76c-3 19 -9 26 -18 33c-10 7 -23 8 -33 9v5h170c5 0 7 -2 7 -7c0 -15 -1 -36 -1 -62v-248c0 -24 0 -55 4 -69c6 -26 15 -31 31 -38c8 -3 16 -3 23 -4v-5zM254 651
c-5 -85 -50 -141 -120 -141s-115 56 -120 141l8 4c23 -54 70 -72 112 -72s89 19 111 72z" />
    <glyph glyph-name="imacron" unicode="&#x12b;" 
d="M253 0h-239v5c7 1 15 1 23 4c15 7 24 12 30 38c4 14 5 45 5 69v194c0 18 0 60 -2 76c-3 19 -9 26 -18 33c-10 7 -23 8 -33 9v5h170c5 0 7 -2 7 -7c0 -15 -1 -36 -1 -62v-248c0 -24 0 -55 4 -69c6 -26 15 -31 31 -38c8 -3 16 -3 23 -4v-5zM220 550h-204v44h204v-44z" />
    <glyph glyph-name="iogonek" unicode="&#x12f;" 
d="M253 0h-52c-34 -37 -51 -80 -51 -136c0 -48 24 -68 69 -74v-5c-111 -6 -163 27 -163 80c0 58 65 91 133 135h-175v4c7 1 15 1 23 4c15 7 24 12 30 38c4 14 5 45 5 69v195c0 18 0 60 -2 76c-3 19 -9 26 -18 33c-10 7 -23 8 -33 9v5h170c5 0 7 -2 7 -7c0 -15 -1 -36 -1 -62
v-249c0 -24 0 -55 4 -69c6 -26 15 -31 31 -38c8 -3 16 -3 23 -4v-4zM201 592c0 -39 -33 -65 -68 -65c-34 0 -66 27 -66 65s32 67 66 67s68 -27 68 -67z" />
    <glyph glyph-name="itilde" unicode="&#x129;" 
d="M253 0h-239v5c7 1 15 1 23 4c15 7 24 12 30 38c4 14 5 45 5 69v194c0 18 0 60 -2 76c-3 19 -9 26 -18 33c-10 7 -23 8 -33 9v5h170c5 0 7 -2 7 -7c0 -15 -1 -36 -1 -62v-248c0 -24 0 -55 4 -69c6 -26 15 -31 31 -38c8 -3 16 -3 23 -4v-5zM281 651
c-10 -56 -34 -121 -96 -121c-45 0 -90 27 -123 27c-29 0 -51 -12 -66 -44l-10 1c15 54 40 119 97 119c39 0 89 -26 119 -26c35 0 55 12 69 44h10z" />
    <glyph glyph-name="idotaccent" 
d="M253 0h-239v4c7 1 15 1 23 4c15 7 24 12 30 38c4 14 5 45 5 69v195c0 18 0 60 -2 76c-3 19 -9 26 -18 33c-10 7 -23 8 -33 9v5h170c5 0 7 -2 7 -7c0 -15 -1 -36 -1 -62v-249c0 -24 0 -55 4 -69c6 -26 15 -31 31 -38c8 -3 16 -3 23 -4v-4zM201 592c0 -39 -33 -65 -68 -65
c-34 0 -66 27 -66 65s32 67 66 67s68 -27 68 -67z" />
    <glyph glyph-name="jcircumflex" unicode="&#x135;" horiz-adv-x="231" 
d="M184 426c0 -15 -2 -37 -2 -63v-363c0 -102 -35 -146 -64 -173c-17 -17 -62 -40 -120 -40c-34 0 -68 9 -92 24c-26 17 -43 47 -43 80c0 36 27 65 64 65c38 0 60 -26 60 -61c0 -8 -3 -23 -7 -34c-2 -10 -5 -22 -5 -27c0 -18 6 -33 26 -33c23 0 36 11 44 29
c8 17 15 59 15 98v382c0 18 -1 59 -3 75c-3 19 -8 27 -18 34c-9 7 -23 8 -32 9v5h170c4 0 7 -2 7 -7zM253 499l-5 -4l-131 91l-129 -91l-5 4c31 46 92 147 106 169h57c15 -22 76 -122 107 -169z" />
    <glyph glyph-name="kcommaaccent" unicode="&#x137;" horiz-adv-x="491" 
d="M321 -100c0 -71 -47 -113 -122 -129l-4 11c48 12 78 29 78 53c0 10 -2 17 -7 19c-39 6 -69 23 -69 63c0 34 33 55 59 55c34 0 65 -23 65 -72zM187 684c4 0 6 -2 6 -7c0 -9 -2 -39 -2 -82v-389l109 110c27 28 44 55 44 74c0 12 -2 22 -16 29c-8 4 -25 8 -34 9v5h186v-5
c-17 -3 -39 -11 -62 -25c-11 -7 -58 -45 -86 -75l-30 -31c58 -16 91 -67 104 -133c9 -46 28 -116 47 -137c11 -13 24 -19 49 -22v-5h-163c-20 13 -41 69 -49 124c-11 64 -25 91 -56 107l-43 -44v-56c0 -28 1 -66 5 -84c6 -26 14 -31 31 -38c8 -3 18 -3 25 -4v-5h-241v5
c7 1 14 1 22 4c17 7 25 12 31 38c5 18 5 56 5 84v430c0 18 -1 60 -3 76c-3 19 -8 27 -17 33c-10 8 -24 8 -33 9v5h171z" />
    <glyph glyph-name="lacute" unicode="&#x13a;" 
d="M34 709l-3 5c61 51 98 84 132 111c29 23 40 28 62 28c25 0 45 -20 45 -49c0 -30 -28 -46 -62 -56c-38 -11 -87 -21 -174 -39zM252 0h-241v5c7 1 14 1 22 4c16 7 24 12 31 38c5 18 5 55 5 84v429c0 18 0 61 -3 77c-3 19 -8 27 -17 33c-10 8 -23 8 -33 9v5h171
c4 0 6 -2 6 -7c0 -15 -1 -36 -1 -63v-483c0 -29 0 -66 4 -84c7 -26 16 -31 32 -38c7 -3 17 -3 24 -4v-5z" />
    <glyph glyph-name="lcaron" unicode="&#x13e;" 
d="M227 491l13 193h83c-20 -45 -61 -128 -88 -193h-8zM252 0h-241v5c7 1 14 1 22 4c16 7 24 12 31 38c5 18 5 55 5 84v429c0 18 0 61 -3 77c-3 19 -8 27 -17 33c-10 8 -23 8 -33 9v5h171c4 0 6 -2 6 -7c0 -15 -1 -36 -1 -63v-483c0 -29 0 -66 4 -84c7 -26 16 -31 32 -38
c7 -3 17 -3 24 -4v-5z" />
    <glyph glyph-name="lcommaaccent" unicode="&#x13c;" 
d="M192 -100c0 -71 -47 -113 -122 -129l-4 11c48 12 78 29 78 53c0 10 -2 17 -7 19c-39 6 -69 23 -69 63c0 34 33 55 59 55c34 0 65 -23 65 -72zM252 0h-241v5c7 1 14 1 22 4c16 7 24 12 31 38c5 18 5 55 5 84v429c0 18 0 61 -3 77c-3 19 -8 27 -17 33c-10 8 -23 8 -33 9v5
h171c4 0 6 -2 6 -7c0 -15 -1 -36 -1 -63v-483c0 -29 0 -66 4 -84c7 -26 16 -31 32 -38c7 -3 17 -3 24 -4v-5z" />
    <glyph glyph-name="ldot" unicode="&#x140;" horiz-adv-x="317" 
d="M252 0h-241v5c7 1 14 1 22 4c16 7 24 12 31 38c5 18 5 55 5 84v429c0 18 0 61 -3 77c-3 19 -8 27 -17 33c-10 8 -23 8 -33 9v5h171c4 0 6 -2 6 -7c0 -15 -1 -36 -1 -63v-483c0 -29 0 -66 4 -84c7 -26 16 -31 32 -38c7 -3 17 -3 24 -4v-5zM354 321c0 -37 -31 -60 -64 -60
c-32 0 -61 25 -61 60c0 36 29 62 61 62s64 -24 64 -62z" />
    <glyph glyph-name="nacute" unicode="&#x144;" horiz-adv-x="530" 
d="M406 625c0 -25 -16 -42 -43 -58c-33 -21 -78 -42 -157 -83l-4 4c45 67 70 110 96 144c24 32 35 43 60 43c33 0 48 -19 48 -50zM519 0h-235v4c8 1 14 2 22 5c17 8 24 16 29 42c3 18 4 43 4 69v201c0 39 -3 57 -14 70c-9 12 -21 18 -44 18c-28 0 -76 -32 -83 -114
c-2 -24 -4 -49 -4 -79v-96c0 -26 0 -52 4 -70c5 -25 11 -33 29 -41c8 -3 15 -4 22 -5v-4h-235v4c6 1 15 2 23 5c16 7 24 11 31 37c5 18 4 56 4 85v179c0 18 0 60 -2 76c-3 19 -9 27 -18 33c-10 8 -23 8 -32 9v5h170c4 0 6 -2 6 -6c0 -7 -2 -81 -2 -92h2c11 40 32 63 52 79
c24 18 63 28 89 28c46 0 77 -9 97 -37c14 -20 27 -54 27 -102v-172c0 -29 0 -66 4 -84c7 -26 15 -31 31 -38c8 -3 16 -4 23 -5v-4z" />
    <glyph glyph-name="napostrophe" unicode="&#x149;" horiz-adv-x="545" 
d="M82 599c0 -73 -51 -125 -126 -149l-4 10c44 18 74 41 74 67c0 10 -2 18 -6 21c-36 5 -62 29 -62 69c0 29 27 57 57 57c40 0 67 -28 67 -75zM533 0h-235v4c8 1 14 2 22 5c17 8 24 16 29 42c3 18 4 43 4 69v201c0 39 -3 57 -14 70c-9 12 -21 18 -44 18
c-28 0 -76 -32 -83 -114c-2 -24 -4 -49 -4 -79v-96c0 -26 0 -52 4 -70c5 -25 11 -33 29 -41c8 -3 15 -4 22 -5v-4h-235v4c6 1 15 2 23 5c16 7 24 11 31 37c5 18 4 56 4 85v179c0 18 0 60 -2 76c-3 19 -9 27 -18 33c-10 8 -23 8 -32 9v5h170c4 0 6 -2 6 -6
c0 -7 -2 -81 -2 -92h2c11 40 32 63 52 79c24 18 63 28 89 28c46 0 77 -9 97 -37c14 -20 27 -54 27 -102v-172c0 -29 0 -66 4 -84c7 -26 15 -31 31 -38c8 -3 16 -4 23 -5v-4z" />
    <glyph glyph-name="ncaron" unicode="&#x148;" horiz-adv-x="530" 
d="M131 662l5 4l129 -99l131 99l5 -4c-31 -47 -92 -148 -107 -169h-57c-14 22 -75 123 -106 169zM519 0h-235v4c8 1 14 2 22 5c17 8 24 16 29 42c3 18 4 43 4 69v201c0 39 -3 57 -14 70c-9 12 -21 18 -44 18c-28 0 -76 -32 -83 -114c-2 -24 -4 -49 -4 -79v-96
c0 -26 0 -52 4 -70c5 -25 11 -33 29 -41c8 -3 15 -4 22 -5v-4h-235v4c6 1 15 2 23 5c16 7 24 11 31 37c5 18 4 56 4 85v179c0 18 0 60 -2 76c-3 19 -9 27 -18 33c-10 8 -23 8 -32 9v5h170c4 0 6 -2 6 -6c0 -7 -2 -81 -2 -92h2c11 40 32 63 52 79c24 18 63 28 89 28
c46 0 77 -9 97 -37c14 -20 27 -54 27 -102v-172c0 -29 0 -66 4 -84c7 -26 15 -31 31 -38c8 -3 16 -4 23 -5v-4z" />
    <glyph glyph-name="ncommaaccent" unicode="&#x146;" horiz-adv-x="530" 
d="M327 -100c0 -71 -47 -113 -122 -129l-4 11c48 12 78 29 78 53c0 10 -2 17 -7 19c-39 6 -69 23 -69 63c0 34 33 55 59 55c34 0 65 -23 65 -72zM519 0h-235v4c8 1 14 2 22 5c17 8 24 16 29 42c3 18 4 43 4 69v201c0 39 -3 57 -14 70c-9 12 -21 18 -44 18
c-28 0 -76 -32 -83 -114c-2 -24 -4 -49 -4 -79v-96c0 -26 0 -52 4 -70c5 -25 11 -33 29 -41c8 -3 15 -4 22 -5v-4h-235v4c6 1 15 2 23 5c16 7 24 11 31 37c5 18 4 56 4 85v179c0 18 0 60 -2 76c-3 19 -9 27 -18 33c-10 8 -23 8 -32 9v5h170c4 0 6 -2 6 -6
c0 -7 -2 -81 -2 -92h2c11 40 32 63 52 79c24 18 63 28 89 28c46 0 77 -9 97 -37c14 -20 27 -54 27 -102v-172c0 -29 0 -66 4 -84c7 -26 15 -31 31 -38c8 -3 16 -4 23 -5v-4z" />
    <glyph glyph-name="obreve" unicode="&#x14f;" horiz-adv-x="479" 
d="M458 217c0 -141 -110 -226 -219 -226c-108 0 -218 84 -218 226s111 225 218 225c108 0 219 -84 219 -225zM328 217c0 94 -12 164 -36 193c-15 18 -35 22 -53 22c-17 0 -37 -6 -51 -21c-26 -29 -37 -100 -37 -194c0 -95 12 -165 36 -194c15 -18 35 -23 52 -23
c18 0 37 4 53 23c23 29 36 99 36 194zM359 651c-5 -85 -50 -141 -120 -141s-115 56 -120 141l8 4c23 -54 70 -72 112 -72s89 19 111 72z" />
    <glyph glyph-name="ohungarumlaut" unicode="&#x151;" horiz-adv-x="479" 
d="M247 670c27 0 47 -20 47 -50c0 -20 -12 -37 -37 -56c-28 -21 -69 -43 -132 -83l-4 3l65 136s30 50 61 50zM415 670c28 0 48 -20 48 -50c0 -20 -13 -37 -37 -56c-29 -21 -69 -43 -132 -83l-5 3c33 65 48 102 65 136s30 50 61 50zM458 217c0 -141 -110 -226 -219 -226
c-108 0 -218 84 -218 226s111 225 218 225c108 0 219 -84 219 -225zM328 217c0 94 -12 164 -36 193c-15 18 -35 22 -53 22c-17 0 -37 -6 -51 -21c-26 -29 -37 -100 -37 -194c0 -95 12 -165 36 -194c15 -18 35 -23 52 -23c18 0 37 4 53 23c23 29 36 99 36 194z" />
    <glyph glyph-name="omacron" unicode="&#x14d;" horiz-adv-x="479" 
d="M358 550h-238v44h238v-44zM458 217c0 -141 -110 -226 -219 -226c-108 0 -218 84 -218 226s111 225 218 225c108 0 219 -84 219 -225zM328 217c0 94 -12 164 -36 193c-15 18 -35 22 -53 22c-17 0 -37 -6 -51 -21c-26 -29 -37 -100 -37 -194c0 -95 12 -165 36 -194
c15 -18 35 -23 52 -23c18 0 37 4 53 23c23 29 36 99 36 194z" />
    <glyph glyph-name="oslashacute" unicode="&#x1ff;" horiz-adv-x="479" 
d="M458 216c0 -141 -110 -225 -219 -225c-26 0 -53 6 -78 16l-35 -83l-16 7l34 83c-70 33 -123 103 -123 202c0 142 111 226 218 226c27 0 54 -7 80 -17l34 82l16 -7l-34 -82c69 -33 123 -103 123 -202zM301 383c-2 12 -5 21 -9 27c-15 18 -35 22 -53 22
c-17 0 -37 -6 -51 -22c-26 -28 -37 -100 -37 -194c0 -55 7 -106 18 -141zM328 216c0 53 -8 103 -19 139l-131 -307c2 -12 5 -20 9 -25c15 -18 35 -23 52 -23c18 0 37 4 53 23c23 29 36 98 36 193zM379 625c0 -25 -16 -42 -43 -58c-33 -21 -78 -42 -157 -83l-4 4
c45 67 70 110 96 144c24 32 35 43 60 43c33 0 48 -19 48 -50z" />
    <glyph glyph-name="racute" unicode="&#x155;" horiz-adv-x="369" 
d="M365 625c0 -25 -16 -42 -43 -58c-33 -21 -78 -42 -157 -83l-4 4c45 67 70 110 96 144c24 32 35 43 60 43c33 0 48 -19 48 -50zM387 371c0 -36 -24 -59 -57 -59c-32 0 -47 20 -56 46c-7 20 -11 28 -22 28c-16 0 -48 -46 -55 -124c-1 -8 -2 -37 -2 -62v-80
c0 -25 -1 -52 3 -69c5 -26 14 -34 32 -42c7 -3 17 -4 26 -5v-4h-242v4c7 1 16 2 24 5c15 7 23 11 30 38c4 17 4 56 4 84v179c0 18 0 60 -2 76c-3 19 -9 27 -18 34s-23 7 -32 8v5h170c4 0 6 -3 6 -6c0 -6 -1 -95 -1 -105h1c12 48 36 81 53 95c16 13 38 25 68 25
c17 0 42 -5 54 -18c11 -10 16 -26 16 -53z" />
    <glyph glyph-name="rcaron" unicode="&#x159;" horiz-adv-x="369" 
d="M94 662l5 4l129 -99l131 99l5 -4c-31 -47 -92 -148 -107 -169h-57c-14 22 -75 123 -106 169zM387 371c0 -36 -24 -59 -57 -59c-32 0 -47 20 -56 46c-7 20 -11 28 -22 28c-16 0 -48 -46 -55 -124c-1 -8 -2 -37 -2 -62v-80c0 -25 -1 -52 3 -69c5 -26 14 -34 32 -42
c7 -3 17 -4 26 -5v-4h-242v4c7 1 16 2 24 5c15 7 23 11 30 38c4 17 4 56 4 84v179c0 18 0 60 -2 76c-3 19 -9 27 -18 34s-23 7 -32 8v5h170c4 0 6 -3 6 -6c0 -6 -1 -95 -1 -105h1c12 48 36 81 53 95c16 13 38 25 68 25c17 0 42 -5 54 -18c11 -10 16 -26 16 -53z" />
    <glyph glyph-name="rcommaaccent" unicode="&#x157;" horiz-adv-x="369" 
d="M189 -100c0 -71 -47 -113 -122 -129l-4 11c48 12 78 29 78 53c0 10 -2 17 -7 19c-39 6 -69 23 -69 63c0 34 33 55 59 55c34 0 65 -23 65 -72zM387 371c0 -36 -24 -59 -57 -59c-32 0 -47 20 -56 46c-7 20 -11 28 -22 28c-16 0 -48 -46 -55 -124c-1 -8 -2 -37 -2 -62v-80
c0 -25 -1 -52 3 -69c5 -26 14 -34 32 -42c7 -3 17 -4 26 -5v-4h-242v4c7 1 16 2 24 5c15 7 23 11 30 38c4 17 4 56 4 84v179c0 18 0 60 -2 76c-3 19 -9 27 -18 34s-23 7 -32 8v5h170c4 0 6 -3 6 -6c0 -6 -1 -95 -1 -105h1c12 48 36 81 53 95c16 13 38 25 68 25
c17 0 42 -5 54 -18c11 -10 16 -26 16 -53z" />
    <glyph glyph-name="sacute" unicode="&#x15b;" horiz-adv-x="370" 
d="M328 625c0 -25 -16 -42 -43 -58c-33 -21 -78 -42 -157 -83l-4 4c45 67 70 110 96 144c24 32 35 43 60 43c33 0 48 -19 48 -50zM350 134c0 -91 -74 -143 -159 -143c-36 0 -88 15 -117 40h-4l-35 -30h-4l-4 159h6c15 -87 89 -159 158 -159c48 0 65 17 65 68
c0 41 -41 66 -101 92c-58 25 -127 63 -127 150c0 71 60 131 152 131c35 0 84 -15 101 -35h3l26 27h3l4 -129h-6c-7 35 -25 68 -49 91c-23 22 -53 35 -81 35c-35 0 -61 -20 -61 -62c0 -45 39 -68 96 -90c73 -29 134 -63 134 -145z" />
    <glyph glyph-name="scedilla" unicode="&#x15f;" horiz-adv-x="370" 
d="M269 -108c0 -63 -56 -83 -114 -83c-24 0 -58 9 -74 18l4 7c13 -5 33 -9 52 -9c35 0 62 20 62 65c0 40 -20 57 -38 57c-11 0 -22 -2 -29 -11l-13 4l17 60c-24 6 -46 18 -62 31h-4l-35 -30h-4l-4 159h6c15 -87 89 -159 158 -159c48 0 65 17 65 68c0 41 -41 66 -101 92
c-58 25 -127 63 -127 150c0 71 60 131 152 131c35 0 84 -15 101 -35h3l26 27h3l4 -129h-6c-7 35 -25 68 -49 91c-23 22 -53 35 -81 35c-35 0 -61 -20 -61 -62c0 -45 39 -68 96 -90c73 -29 134 -63 134 -145c0 -91 -74 -143 -159 -143c-13 0 -27 2 -41 5l-11 -44
c10 7 29 12 43 12c57 0 87 -27 87 -72z" />
    <glyph glyph-name="scircumflex" unicode="&#x15d;" horiz-adv-x="370" 
d="M321 499l-5 -4l-131 91l-129 -91l-5 4c31 46 92 147 106 169h57c15 -22 76 -122 107 -169zM350 134c0 -91 -74 -143 -159 -143c-36 0 -88 15 -117 40h-4l-35 -30h-4l-4 159h6c15 -87 89 -159 158 -159c48 0 65 17 65 68c0 41 -41 66 -101 92c-58 25 -127 63 -127 150
c0 71 60 131 152 131c35 0 84 -15 101 -35h3l26 27h3l4 -129h-6c-7 35 -25 68 -49 91c-23 22 -53 35 -81 35c-35 0 -61 -20 -61 -62c0 -45 39 -68 96 -90c73 -29 134 -63 134 -145z" />
    <glyph glyph-name="scommaaccent" unicode="&#x219;" horiz-adv-x="370" 
d="M241 -100c0 -71 -47 -113 -122 -129l-4 11c48 12 78 29 78 53c0 10 -2 17 -7 19c-39 6 -69 23 -69 63c0 34 33 55 59 55c34 0 65 -23 65 -72zM350 134c0 -91 -74 -143 -159 -143c-36 0 -88 15 -117 40h-4l-35 -30h-4l-4 159h6c15 -87 89 -159 158 -159c48 0 65 17 65 68
c0 41 -41 66 -101 92c-58 25 -127 63 -127 150c0 71 60 131 152 131c35 0 84 -15 101 -35h3l26 27h3l4 -129h-6c-7 35 -25 68 -49 91c-23 22 -53 35 -81 35c-35 0 -61 -20 -61 -62c0 -45 39 -68 96 -90c73 -29 134 -63 134 -145z" />
    <glyph glyph-name="tbar" unicode="&#x167;" horiz-adv-x="306" 
d="M9 312v18h56c1 38 1 70 2 85c-16 2 -43 1 -58 3v8c82 17 138 71 169 183h13v-176h95v-18h-95l-1 -85h96v-18h-97l-2 -218c0 -36 10 -65 52 -65c26 0 51 13 66 36l4 -4c-13 -30 -58 -70 -117 -70c-42 0 -75 10 -96 29c-25 22 -33 49 -33 88c0 13 1 118 2 204h-56z" />
    <glyph glyph-name="tcaron" unicode="&#x165;" horiz-adv-x="306" 
d="M234 491l13 193h83c-20 -45 -61 -128 -88 -193h-8zM305 65l4 -4c-13 -30 -58 -70 -117 -70c-42 0 -75 10 -96 29c-25 22 -33 49 -33 88c0 20 3 258 4 307c-16 2 -43 1 -58 3v8c82 17 138 71 169 183h13v-176h95v-18h-95l-4 -321c0 -36 10 -65 52 -65c26 0 51 13 66 36z
" />
    <glyph glyph-name="tcommaaccent" unicode="&#x163;" horiz-adv-x="306" 
d="M228 -100c0 -71 -47 -113 -122 -129l-4 11c48 12 78 29 78 53c0 10 -2 17 -7 19c-39 6 -69 23 -69 63c0 34 33 55 59 55c34 0 65 -23 65 -72zM305 65l4 -4c-13 -30 -58 -70 -117 -70c-42 0 -75 10 -96 29c-25 22 -33 49 -33 88c0 20 3 258 4 307c-16 2 -43 1 -58 3v8
c82 17 138 71 169 183h13v-176h95v-18h-95l-4 -321c0 -36 10 -65 52 -65c26 0 51 13 66 36z" />
    <glyph glyph-name="ubreve" unicode="&#x16d;" horiz-adv-x="510" 
d="M502 0c-10 0 -170 -4 -173 -4c-1 0 -3 1 -3 3c-1 4 -1 12 -1 19v70h-3c-12 -33 -23 -51 -44 -69c-23 -20 -55 -28 -84 -28c-36 0 -75 7 -99 34c-21 22 -32 61 -32 102v185c0 22 0 59 -3 74c-5 20 -10 29 -21 36c-9 6 -24 6 -33 7v4h174c4 0 7 -1 7 -8
c0 -12 -1 -68 -1 -118v-202c0 -29 5 -52 15 -66s25 -19 43 -19c33 0 70 44 77 117c2 24 3 39 3 69v117c0 20 0 44 -2 59c-3 20 -8 32 -20 39c-8 6 -26 8 -35 8v4h173c5 0 7 -3 7 -8c0 -12 -1 -66 -1 -115v-196c0 -18 1 -48 2 -64c3 -19 9 -30 20 -37c9 -7 25 -8 34 -9v-4z
M372 651c-5 -85 -50 -141 -120 -141s-115 56 -120 141l8 4c23 -54 70 -72 112 -72s89 19 111 72z" />
    <glyph glyph-name="uhungarumlaut" unicode="&#x171;" horiz-adv-x="510" 
d="M502 0c-10 0 -170 -4 -173 -4c-1 0 -3 1 -3 3c-1 4 -1 12 -1 19v70h-3c-12 -33 -23 -51 -44 -69c-23 -20 -55 -28 -84 -28c-36 0 -75 7 -99 34c-21 22 -32 61 -32 102v185c0 22 0 59 -3 74c-5 20 -10 29 -21 36c-9 6 -24 6 -33 7v4h174c4 0 7 -1 7 -8
c0 -12 -1 -68 -1 -118v-202c0 -29 5 -52 15 -66s25 -19 43 -19c33 0 70 44 77 117c2 24 3 39 3 69v117c0 20 0 44 -2 59c-3 20 -8 32 -20 39c-8 6 -26 8 -35 8v4h173c5 0 7 -3 7 -8c0 -12 -1 -66 -1 -115v-196c0 -18 1 -48 2 -64c3 -19 9 -30 20 -37c9 -7 25 -8 34 -9v-4z
M260 670c27 0 47 -20 47 -50c0 -20 -12 -37 -37 -56c-28 -21 -69 -43 -132 -83l-4 3l65 136s30 50 61 50zM428 670c28 0 48 -20 48 -50c0 -20 -13 -37 -37 -56c-29 -21 -69 -43 -132 -83l-5 3c33 65 48 102 65 136s30 50 61 50z" />
    <glyph glyph-name="umacron" unicode="&#x16b;" horiz-adv-x="510" 
d="M502 0c-10 0 -170 -4 -173 -4c-1 0 -3 1 -3 3c-1 4 -1 12 -1 19v70h-3c-12 -33 -23 -51 -44 -69c-23 -20 -55 -28 -84 -28c-36 0 -75 7 -99 34c-21 22 -32 61 -32 102v185c0 22 0 59 -3 74c-5 20 -10 29 -21 36c-9 6 -24 6 -33 7v4h174c4 0 7 -1 7 -8
c0 -12 -1 -68 -1 -118v-202c0 -29 5 -52 15 -66s25 -19 43 -19c33 0 70 44 77 117c2 24 3 39 3 69v117c0 20 0 44 -2 59c-3 20 -8 32 -20 39c-8 6 -26 8 -35 8v4h173c5 0 7 -3 7 -8c0 -12 -1 -66 -1 -115v-196c0 -18 1 -48 2 -64c3 -19 9 -30 20 -37c9 -7 25 -8 34 -9v-4z
M371 550h-238v44h238v-44z" />
    <glyph glyph-name="uogonek" unicode="&#x173;" horiz-adv-x="510" 
d="M502 0c-9 0 -79 -2 -85 -2c-105 -3 -129 -69 -129 -134c0 -48 24 -68 69 -74v-5c-111 -6 -164 27 -164 80c0 58 78 90 131 124c0 4 1 39 1 44v55h-3c-12 -33 -23 -51 -44 -69c-23 -20 -55 -28 -84 -28c-36 0 -75 7 -99 34c-21 22 -32 61 -32 102v185c0 22 0 59 -3 74
c-5 20 -10 29 -21 36c-9 6 -24 6 -33 7v4h174c4 0 7 -1 7 -8c0 -12 -1 -68 -1 -118v-202c0 -29 5 -52 15 -66s25 -19 43 -19c33 0 70 44 77 117c2 24 3 39 3 69v117c0 20 0 44 -2 59c-3 20 -8 32 -20 39c-8 6 -26 8 -35 8v4h173c5 0 7 -3 7 -8c0 -12 -1 -66 -1 -115v-196
c0 -18 1 -48 2 -64c3 -19 9 -30 20 -37c9 -7 25 -8 34 -9v-4z" />
    <glyph glyph-name="uring" unicode="&#x16f;" horiz-adv-x="510" 
d="M335 591c0 -51 -40 -85 -84 -85c-43 0 -84 31 -84 85c0 53 41 84 84 84c42 0 84 -30 84 -84zM308 590c0 41 -25 63 -58 63c-31 0 -58 -22 -58 -62c0 -39 25 -62 58 -62c32 0 58 21 58 61zM502 0c-10 0 -170 -4 -173 -4c-1 0 -3 1 -3 3c-1 4 -1 12 -1 19v70h-3
c-12 -33 -23 -51 -44 -69c-23 -20 -55 -28 -84 -28c-36 0 -75 7 -99 34c-21 22 -32 61 -32 102v185c0 22 0 59 -3 74c-5 20 -10 29 -21 36c-9 6 -24 6 -33 7v4h174c4 0 7 -1 7 -8c0 -12 -1 -68 -1 -118v-202c0 -29 5 -52 15 -66s25 -19 43 -19c33 0 70 44 77 117
c2 24 3 39 3 69v117c0 20 0 44 -2 59c-3 20 -8 32 -20 39c-8 6 -26 8 -35 8v4h173c5 0 7 -3 7 -8c0 -12 -1 -66 -1 -115v-196c0 -18 1 -48 2 -64c3 -19 9 -30 20 -37c9 -7 25 -8 34 -9v-4z" />
    <glyph glyph-name="utilde" unicode="&#x169;" horiz-adv-x="510" 
d="M502 0c-10 0 -170 -4 -173 -4c-1 0 -3 1 -3 3c-1 4 -1 12 -1 19v70h-3c-12 -33 -23 -51 -44 -69c-23 -20 -55 -28 -84 -28c-36 0 -75 7 -99 34c-21 22 -32 61 -32 102v185c0 22 0 59 -3 74c-5 20 -10 29 -21 36c-9 6 -24 6 -33 7v4h174c4 0 7 -1 7 -8
c0 -12 -1 -68 -1 -118v-202c0 -29 5 -52 15 -66s25 -19 43 -19c33 0 70 44 77 117c2 24 3 39 3 69v117c0 20 0 44 -2 59c-3 20 -8 32 -20 39c-8 6 -26 8 -35 8v4h173c5 0 7 -3 7 -8c0 -12 -1 -66 -1 -115v-196c0 -18 1 -48 2 -64c3 -19 9 -30 20 -37c9 -7 25 -8 34 -9v-4z
M399 651c-10 -56 -34 -121 -96 -121c-45 0 -90 27 -123 27c-29 0 -51 -12 -66 -44l-10 1c15 54 40 119 97 119c39 0 89 -26 119 -26c35 0 55 12 69 44h10z" />
    <glyph glyph-name="wacute" unicode="&#x1e83;" horiz-adv-x="644" 
d="M498 625c0 -25 -16 -42 -43 -58c-33 -21 -78 -42 -157 -83l-4 4c45 67 70 110 96 144c24 32 35 43 60 43c33 0 48 -19 48 -50zM664 429c-9 -1 -19 -2 -28 -9c-9 -4 -16 -11 -23 -23c-9 -14 -18 -36 -31 -76l-108 -325h-54l-99 306l-101 -306h-54l-98 302
c-14 42 -25 89 -48 108c-9 12 -16 16 -26 20c-4 2 -10 3 -14 3v4h242v-4c-14 -1 -25 -2 -33 -9c-7 -6 -11 -17 -11 -29c0 -17 3 -30 11 -60l59 -205h1c8 25 57 171 65 197c-8 23 -15 46 -20 57c-9 20 -19 32 -29 41c-9 7 -17 8 -26 8v4h241v-4c-9 -1 -26 -2 -34 -7
c-10 -6 -14 -17 -14 -33c0 -18 5 -36 15 -69l55 -194h1l63 189c12 36 15 54 15 75c0 16 -7 26 -17 32c-9 5 -20 6 -29 7v4h129v-4z" />
    <glyph glyph-name="wcircumflex" unicode="&#x175;" horiz-adv-x="644" 
d="M494 499l-5 -4l-131 91l-129 -91l-5 4c31 46 92 147 106 169h57c15 -22 76 -122 107 -169zM664 429c-9 -1 -19 -2 -28 -9c-9 -4 -16 -11 -23 -23c-9 -14 -18 -36 -31 -76l-108 -325h-54l-99 306l-101 -306h-54l-98 302c-14 42 -25 89 -48 108c-9 12 -16 16 -26 20
c-4 2 -10 3 -14 3v4h242v-4c-14 -1 -25 -2 -33 -9c-7 -6 -11 -17 -11 -29c0 -17 3 -30 11 -60l59 -205h1c8 25 57 171 65 197c-8 23 -15 46 -20 57c-9 20 -19 32 -29 41c-9 7 -17 8 -26 8v4h241v-4c-9 -1 -26 -2 -34 -7c-10 -6 -14 -17 -14 -33c0 -18 5 -36 15 -69l55 -194
h1l63 189c12 36 15 54 15 75c0 16 -7 26 -17 32c-9 5 -20 6 -29 7v4h129v-4z" />
    <glyph glyph-name="wdieresis" unicode="&#x1e85;" horiz-adv-x="644" 
d="M269 646c35 0 61 -27 61 -58c0 -33 -26 -60 -61 -60c-33 0 -58 26 -58 58s26 60 58 60zM444 646c34 0 59 -27 59 -58c0 -33 -25 -60 -59 -60s-59 26 -59 58s26 60 59 60zM664 429c-9 -1 -19 -2 -28 -9c-9 -4 -16 -11 -23 -23c-9 -14 -18 -36 -31 -76l-108 -325h-54
l-99 306l-101 -306h-54l-98 302c-14 42 -25 89 -48 108c-9 12 -16 16 -26 20c-4 2 -10 3 -14 3v4h242v-4c-14 -1 -25 -2 -33 -9c-7 -6 -11 -17 -11 -29c0 -17 3 -30 11 -60l59 -205h1c8 25 57 171 65 197c-8 23 -15 46 -20 57c-9 20 -19 32 -29 41c-9 7 -17 8 -26 8v4h241
v-4c-9 -1 -26 -2 -34 -7c-10 -6 -14 -17 -14 -33c0 -18 5 -36 15 -69l55 -194h1l63 189c12 36 15 54 15 75c0 16 -7 26 -17 32c-9 5 -20 6 -29 7v4h129v-4z" />
    <glyph glyph-name="wgrave" unicode="&#x1e81;" horiz-adv-x="644" 
d="M664 429c-9 -1 -19 -2 -28 -9c-9 -4 -16 -11 -23 -23c-9 -14 -18 -36 -31 -76l-108 -325h-54l-99 306l-101 -306h-54l-98 302c-14 42 -25 89 -48 108c-9 12 -16 16 -26 20c-4 2 -10 3 -14 3v4h242v-4c-14 -1 -25 -2 -33 -9c-7 -6 -11 -17 -11 -29c0 -17 3 -30 11 -60
l59 -205h1c8 25 57 171 65 197c-8 23 -15 46 -20 57c-9 20 -19 32 -29 41c-9 7 -17 8 -26 8v4h241v-4c-9 -1 -26 -2 -34 -7c-10 -6 -14 -17 -14 -33c0 -18 5 -36 15 -69l55 -194h1l63 189c12 36 15 54 15 75c0 16 -7 26 -17 32c-9 5 -20 6 -29 7v4h129v-4zM447 488l-4 -4
c-77 42 -124 62 -157 83c-27 16 -44 33 -44 61c0 29 19 47 47 47c25 0 38 -10 62 -43c25 -35 52 -78 96 -144z" />
    <glyph glyph-name="ycircumflex" unicode="&#x177;" horiz-adv-x="417" 
d="M448 429c-25 -3 -44 -16 -56 -36c-8 -13 -16 -33 -30 -72l-152 -400c-13 -36 -32 -71 -52 -97c-21 -26 -50 -37 -83 -37c-44 0 -79 24 -79 72c0 29 20 50 54 50c29 0 42 -13 54 -39c10 -20 13 -35 28 -35c17 0 41 33 62 89c5 11 16 40 16 40c2 4 3 16 -1 27l-118 307
c-16 43 -30 71 -38 85c-9 17 -18 28 -32 36c-9 6 -24 9 -33 10v4h254v-4c-9 -1 -21 -3 -29 -8c-10 -6 -16 -17 -16 -30c0 -18 6 -35 19 -71l62 -180h1l64 175c12 34 16 55 16 75c0 16 -8 26 -18 32c-9 5 -20 6 -29 7v4h136v-4zM388 499l-5 -4l-131 91l-129 -91l-5 4
c31 46 92 147 106 169h57c15 -22 76 -122 107 -169z" />
    <glyph glyph-name="ygrave" unicode="&#x1ef3;" horiz-adv-x="417" 
d="M448 429c-25 -3 -44 -16 -56 -36c-8 -13 -16 -33 -30 -72l-152 -400c-13 -36 -32 -71 -52 -97c-21 -26 -50 -37 -83 -37c-44 0 -79 24 -79 72c0 29 20 50 54 50c29 0 42 -13 54 -39c10 -20 13 -35 28 -35c17 0 41 33 62 89c5 11 16 40 16 40c2 4 3 16 -1 27l-118 307
c-16 43 -30 71 -38 85c-9 17 -18 28 -32 36c-9 6 -24 9 -33 10v4h254v-4c-9 -1 -21 -3 -29 -8c-10 -6 -16 -17 -16 -30c0 -18 6 -35 19 -71l62 -180h1l64 175c12 34 16 55 16 75c0 16 -8 26 -18 32c-9 5 -20 6 -29 7v4h136v-4zM342 488l-4 -4c-77 42 -124 62 -157 83
c-27 16 -44 33 -44 61c0 29 19 47 47 47c25 0 38 -10 62 -43c25 -35 52 -78 96 -144z" />
    <glyph glyph-name="zacute" unicode="&#x17a;" horiz-adv-x="396" 
d="M343 625c0 -25 -16 -42 -43 -58c-33 -21 -78 -42 -157 -83l-4 4c45 67 70 110 96 144c24 32 35 43 60 43c33 0 48 -19 48 -50zM387 166l-33 -166h-340v4l213 413v4h-89c-26 0 -51 -25 -62 -42c0 0 -41 -57 -62 -101h-7l34 155h321v-7l-208 -411v-3h78c36 0 63 22 78 46
l70 108h7z" />
    <glyph glyph-name="zdotaccent" unicode="&#x17c;" horiz-adv-x="396" 
d="M387 166l-33 -166h-340v4l213 413v4h-89c-26 0 -51 -25 -62 -42c0 0 -41 -57 -62 -101h-7l34 155h321v-7l-208 -411v-3h78c36 0 63 22 78 46l70 108h7zM269 592c0 -39 -32 -65 -67 -65s-66 27 -66 65s32 67 66 67s67 -27 67 -67z" />
    <glyph glyph-name="uni0410" unicode="&#x410;" horiz-adv-x="599" 
d="M616 0h-327v6c10 1 28 5 37 9c19 9 33 23 33 52c0 28 -8 54 -18 86l-21 68h-172l-26 -77c-11 -34 -15 -57 -15 -75c0 -28 15 -46 33 -54c13 -5 29 -8 39 -9v-6h-195v6c15 2 29 5 43 13c12 8 25 21 37 41c12 18 23 47 37 86l184 516h38l142 -430c29 -84 51 -143 70 -179
c14 -23 30 -35 47 -40c12 -4 24 -7 34 -8v-5zM315 237l-76 238h-3l-82 -238h161z" />
    <glyph glyph-name="uni0411" unicode="&#x411;" horiz-adv-x="594" 
d="M14 0v5c8 0 20 2 30 5c21 6 38 19 47 48c8 29 10 80 10 133v274c0 54 -2 106 -10 134c-9 29 -26 42 -47 48c-9 3 -22 5 -30 5v5h487l22 -206h-6c-18 51 -48 105 -85 145c-21 23 -51 44 -93 45h-8c-24 0 -42 -4 -57 -17c-32 -26 -35 -72 -35 -125v-130h68
c170 0 269 -71 269 -180c0 -121 -98 -189 -216 -189h-346zM319 16h3c34 0 59 13 78 35c24 27 33 79 33 138c0 43 -8 97 -36 125c-24 24 -55 38 -96 38h-62v-190c0 -44 3 -77 10 -97c11 -36 35 -48 70 -49z" />
    <glyph glyph-name="uni0412" unicode="&#x412;" horiz-adv-x="615" 
d="M588 185c0 -121 -98 -185 -216 -185h-358v5c8 0 20 2 30 5c21 6 38 19 47 48c8 29 10 80 10 133v274c0 54 -2 106 -10 134c-9 29 -26 42 -47 48c-9 3 -22 5 -30 5v5h329c108 0 210 -29 210 -148c0 -70 -38 -109 -99 -133c-20 -8 -49 -16 -78 -21v-3
c120 -7 212 -68 212 -167zM445 185c0 42 -8 92 -36 121c-24 24 -59 37 -100 37h-70v-181c0 -44 3 -77 10 -97c11 -36 37 -49 73 -49h11c32 0 61 15 81 37c22 25 31 73 31 132zM424 509c0 94 -41 133 -111 133h-13c-28 0 -50 -10 -57 -39c-4 -15 -4 -32 -4 -63v-181h65
c44 0 75 15 93 39c21 28 27 78 27 111z" />
    <glyph glyph-name="uni0413" unicode="&#x413;" horiz-adv-x="512" 
d="M14 0v5c13 1 29 4 40 10c18 9 31 24 37 45c9 30 11 82 11 132v273c0 54 -3 106 -11 134c-9 29 -26 41 -47 47c-10 3 -22 5 -30 6v5h474l22 -210h-7c-19 51 -46 103 -76 138c-21 30 -50 53 -89 55c-1 1 -8 1 -9 1c-18 0 -35 -3 -51 -12c-35 -23 -40 -78 -40 -123v-314
c0 -50 3 -102 11 -132c7 -21 23 -38 42 -46c13 -5 31 -8 46 -9v-5h-323z" />
    <glyph glyph-name="uni0414" unicode="&#x414;" horiz-adv-x="665" 
d="M0 -208l9 224h35c66 0 93 83 111 247c14 115 22 203 21 295c-2 50 -16 69 -35 80c-12 10 -30 14 -43 14v5h517v-5c-13 -1 -30 -4 -40 -10c-18 -9 -31 -23 -38 -45c-8 -30 -10 -82 -10 -132v-273c0 -50 2 -93 10 -123c7 -20 20 -34 38 -42c9 -6 25 -10 39 -11h19l12 -224
h-6c-28 55 -50 97 -77 140c-30 54 -55 68 -99 68h-276c-42 0 -69 -16 -92 -53c-36 -55 -56 -91 -88 -155h-7zM178 262c-15 -132 -35 -213 -79 -246h203c17 0 39 1 53 11c29 19 35 59 35 105v397c0 45 -6 83 -34 101c-14 10 -35 11 -56 11c-25 0 -43 -4 -52 -10
c-16 -10 -27 -25 -33 -49c-15 -106 -22 -200 -37 -320z" />
    <glyph glyph-name="uni0415" unicode="&#x415;" horiz-adv-x="576" 
d="M551 227l-14 -227h-523v5c8 0 20 3 30 6c21 6 38 18 47 47c8 29 11 80 11 134v273c0 54 -3 106 -11 134c-9 29 -26 41 -47 47c-10 3 -22 5 -30 6v5h500l21 -206h-6c-18 51 -47 105 -84 145c-22 24 -55 45 -95 45h-21c-24 0 -42 -4 -56 -17c-32 -26 -35 -84 -35 -125v-150
h36c57 0 71 3 91 22c26 24 49 76 53 109h6v-277h-6c-4 32 -24 81 -49 103c-18 15 -38 27 -95 27h-36v-168c0 -41 -1 -102 31 -128c17 -15 43 -21 67 -21h20c44 0 78 18 102 48c40 47 71 113 87 163h6z" />
    <glyph glyph-name="uni0416" unicode="&#x416;" horiz-adv-x="924" 
d="M814 -11c-91 0 -126 75 -161 173c-46 130 -56 165 -107 165h-15v-135c0 -50 2 -102 10 -132c7 -21 19 -36 37 -45c11 -6 22 -9 35 -10v-5h-304v5c13 1 26 4 37 10c18 9 31 24 38 45c8 30 10 82 10 132v135h-16c-51 0 -60 -36 -107 -165c-34 -98 -70 -173 -160 -173
c-61 0 -102 40 -124 85l5 5c13 -15 26 -22 46 -22c35 0 62 40 90 107c50 118 91 171 194 174v2c-37 15 -59 50 -79 122c-20 67 -32 104 -56 104c-13 0 -20 -11 -31 -24c-12 -12 -25 -23 -53 -23c-42 0 -69 33 -69 74c0 40 29 76 79 76c80 0 109 -63 145 -188
c29 -99 52 -135 115 -135h21v119c0 50 -2 102 -10 132c-7 22 -20 36 -38 45c-11 6 -24 9 -37 10v5h304v-5c-13 -1 -24 -4 -35 -10c-18 -9 -30 -23 -37 -45c-8 -30 -10 -82 -10 -132v-119h20c64 0 87 36 115 135c36 125 67 188 141 188c56 0 83 -36 83 -76
c0 -41 -27 -74 -69 -74c-28 0 -41 11 -52 23c-12 13 -18 24 -32 24c-23 0 -36 -35 -55 -101c-21 -75 -45 -112 -80 -125v-2c104 -3 144 -56 194 -174c29 -67 55 -107 90 -107c21 0 33 7 46 22l5 -5c-22 -45 -62 -85 -123 -85z" />
    <glyph glyph-name="uni0417" unicode="&#x417;" horiz-adv-x="504" 
d="M224 -14c-121 0 -210 76 -210 160c0 41 30 73 69 73c43 0 69 -29 69 -69c0 -22 -5 -37 -11 -49c-6 -14 -14 -24 -14 -41c0 -31 38 -55 90 -55c86 0 124 83 124 176c0 46 -7 98 -36 126c-25 25 -60 35 -110 35h-16v19h21c42 0 74 11 95 37c22 27 31 73 31 113
c0 93 -31 139 -97 139c-72 0 -122 -77 -153 -226h-9v228h7l23 -48h4c27 40 72 65 138 65c117 0 217 -43 217 -156c0 -103 -86 -147 -184 -158v-3c121 -4 212 -68 212 -172c0 -116 -95 -194 -260 -194z" />
    <glyph glyph-name="uni0418" unicode="&#x418;" horiz-adv-x="724" 
d="M403 0v5c13 1 24 4 35 10c18 9 31 24 37 45c9 31 11 82 11 132v273c0 21 -1 43 -2 63l-240 -444c2 -9 3 -17 5 -24c7 -21 20 -36 37 -45c11 -6 23 -9 35 -10v-5h-307v5c13 1 29 4 40 10c18 9 31 24 37 45c9 31 10 82 10 132v273c0 50 -1 102 -10 132c-6 22 -19 36 -37 45
c-11 6 -27 9 -40 10v5h307v-5c-12 -1 -24 -4 -35 -10c-17 -9 -30 -23 -37 -45c-8 -30 -10 -82 -10 -132v-273c0 -24 0 -48 1 -70l241 446l-6 29c-6 22 -19 36 -37 45c-11 6 -22 9 -35 10v5h307v-5c-13 -1 -29 -4 -39 -10c-19 -9 -32 -23 -38 -45c-9 -30 -10 -82 -10 -132
v-273c0 -50 1 -101 10 -132c6 -21 19 -36 38 -45c10 -6 26 -9 39 -10v-5h-307z" />
    <glyph glyph-name="uni0419" unicode="&#x419;" horiz-adv-x="724" 
d="M14 0v5c13 1 29 4 40 10c18 9 31 24 37 45c9 31 10 82 10 132v273c0 50 -1 102 -10 132c-6 22 -19 36 -37 45c-11 6 -27 9 -40 10v5h307v-5c-12 -1 -24 -4 -35 -10c-17 -9 -30 -23 -37 -45c-8 -30 -10 -82 -10 -132v-273c0 -24 0 -48 1 -70l241 446l-6 29
c-6 22 -19 36 -37 45c-11 6 -22 9 -35 10v5h307v-5c-13 -1 -29 -4 -39 -10c-19 -9 -32 -23 -38 -45c-9 -30 -10 -82 -10 -132v-273c0 -50 1 -101 10 -132c6 -21 19 -36 38 -45c10 -6 26 -9 39 -10v-5h-307v5c13 1 24 4 35 10c18 9 31 24 37 45c9 31 11 82 11 132v273
c0 21 -1 43 -2 63l-240 -444c2 -9 3 -17 5 -24c7 -21 20 -36 37 -45c11 -6 23 -9 35 -10v-5h-307zM442 760c0 13 -8 17 -17 31c-5 9 -10 20 -10 39c0 38 25 64 65 64c41 0 64 -29 64 -67c0 -69 -80 -116 -184 -116c-103 0 -183 47 -183 116c0 38 23 67 64 67
c40 0 65 -26 65 -64c0 -20 -6 -32 -12 -42c-7 -12 -15 -15 -15 -28c0 -22 37 -35 81 -35s82 13 82 35z" />
    <glyph glyph-name="uni041A" unicode="&#x41a;" horiz-adv-x="637" 
d="M529 -11c-91 0 -129 75 -163 173c-47 130 -58 165 -109 165h-18v-135c0 -54 2 -105 11 -134s25 -41 45 -47c11 -4 19 -5 26 -6v-5h-307v5c8 1 20 3 30 6c21 6 38 18 47 47c8 29 10 80 10 134v273c0 54 -2 106 -10 135c-9 28 -25 39 -47 46c-10 4 -22 6 -30 6v5h307v-5
c-8 -1 -16 -2 -26 -6c-20 -7 -36 -18 -45 -46c-9 -29 -11 -81 -11 -135v-119h23c63 0 87 37 116 131c39 130 72 192 149 192c51 0 78 -36 78 -76c0 -41 -26 -74 -69 -74c-28 0 -40 11 -52 23c-12 13 -18 24 -31 24c-24 0 -39 -40 -58 -99c-20 -74 -45 -113 -82 -127v-2
c103 -3 146 -56 196 -174c28 -67 57 -107 92 -107c21 0 33 7 46 22l5 -5c-22 -45 -62 -85 -123 -85z" />
    <glyph glyph-name="uni041B" unicode="&#x41b;" horiz-adv-x="630" 
d="M62 -8c-55 0 -84 34 -85 73c0 44 29 75 71 75c23 0 37 -8 48 -17c11 -10 15 -20 28 -20c27 0 45 74 62 304c11 123 9 176 -1 205c-8 18 -23 28 -40 34c-10 4 -22 6 -32 6v5h503v-5c-13 -1 -29 -4 -40 -10c-18 -9 -31 -23 -37 -45c-9 -30 -10 -82 -10 -132v-273
c0 -50 1 -101 10 -132c6 -21 19 -36 37 -45c11 -6 27 -9 40 -10v-5h-307v5c12 1 24 4 35 10c18 9 31 24 37 45c9 31 11 82 11 132v314c0 54 -7 100 -41 123c-16 10 -35 12 -52 12c-36 0 -60 -23 -70 -59c-14 -106 -21 -200 -36 -320c-20 -177 -45 -270 -131 -270z" />
    <glyph glyph-name="uni041C" unicode="&#x41c;" horiz-adv-x="791" 
d="M777 0h-314v5c7 0 18 2 29 5c22 6 38 19 47 48s12 80 12 134v368h-4l-183 -563h-38l-198 555h-3v-380c0 -65 9 -96 19 -120c8 -21 26 -36 43 -41c11 -3 20 -5 34 -6v-5h-209v5c14 1 23 3 33 6c18 5 35 20 44 41c9 24 18 55 18 120v271c0 72 -6 129 -17 159
c-9 22 -27 38 -48 45c-9 3 -17 3 -27 5v5h233l157 -450h4l150 450h218v-5c-8 -1 -19 -3 -30 -6c-21 -6 -38 -18 -46 -47c-9 -28 -13 -80 -13 -134v-273c0 -54 4 -105 13 -134c8 -29 25 -42 46 -48c11 -3 22 -5 30 -5v-5z" />
    <glyph glyph-name="uni041D" unicode="&#x41d;" horiz-adv-x="714" 
d="M14 0v5c8 1 19 2 30 6c21 5 38 18 47 47c8 29 10 80 10 134v273c0 54 -2 106 -10 135c-9 28 -26 40 -47 46c-11 3 -22 6 -30 6v5h307v-5c-7 0 -16 -2 -26 -6c-20 -7 -36 -18 -45 -46c-9 -29 -11 -81 -11 -135v-122h237v122c0 54 -3 106 -12 135c-8 28 -25 39 -45 46
c-9 4 -19 6 -26 6v5h307v-5c-7 0 -19 -3 -29 -6c-22 -6 -38 -18 -47 -46c-9 -29 -11 -81 -11 -135v-273c0 -54 2 -105 11 -134s25 -41 47 -47c10 -3 22 -5 29 -6v-5h-307v5c7 1 15 3 25 6c21 7 38 18 46 47c9 29 12 80 12 134v130h-237v-130c0 -54 2 -105 11 -134
s25 -41 45 -47c11 -4 20 -5 26 -6v-5h-307z" />
    <glyph glyph-name="uni041E" unicode="&#x41e;" horiz-adv-x="684" 
d="M653 328c0 -207 -123 -342 -312 -342c-188 0 -311 135 -311 342s123 342 311 342c189 0 312 -135 312 -342zM501 328c0 182 -34 263 -84 305c-24 19 -52 21 -76 21s-51 -2 -75 -21c-50 -42 -84 -123 -84 -305s34 -263 84 -305c24 -18 51 -21 75 -21s52 2 76 21
c50 41 84 123 84 305z" />
    <glyph glyph-name="uni041F" unicode="&#x41f;" horiz-adv-x="711" 
d="M14 0v5c13 1 29 4 40 10c18 9 31 24 37 45c9 31 10 82 10 132v273c0 50 -1 102 -10 132c-6 22 -19 36 -37 45c-11 6 -27 9 -40 10v5h683v-5c-13 -1 -29 -4 -40 -10c-18 -9 -31 -23 -38 -45c-8 -30 -10 -82 -10 -132v-273c0 -50 2 -101 10 -132c7 -21 20 -36 38 -45
c11 -6 27 -9 40 -10v-5h-307v5c12 1 23 4 35 10c17 9 30 24 37 45c8 31 10 82 10 132v314c0 54 -6 100 -40 123c-16 10 -37 12 -61 12h-38c-20 -1 -39 -3 -53 -12c-35 -23 -41 -67 -41 -123v-314c0 -50 2 -101 10 -132c7 -21 20 -36 37 -45c11 -6 23 -9 35 -10v-5h-307z" />
    <glyph glyph-name="uni0420" unicode="&#x420;" horiz-adv-x="588" 
d="M578 484c0 -61 -32 -121 -79 -147c-38 -21 -100 -37 -201 -37c-17 0 -34 2 -54 5v-71c0 -72 3 -143 15 -180c8 -24 25 -37 46 -44c9 -3 28 -5 37 -6v-4h-328v5c8 1 21 2 31 5c20 7 37 21 45 45c12 37 16 107 16 179v190c0 71 -4 141 -16 178c-8 23 -25 37 -45 44
c-10 3 -23 4 -31 5v6h324c150 0 240 -55 240 -173zM429 483c0 97 -30 157 -111 157c-15 0 -33 -3 -45 -9c-15 -8 -21 -22 -25 -39c-3 -17 -4 -33 -4 -71v-197c18 -5 35 -8 54 -8c64 0 86 16 105 46c19 29 26 88 26 121z" />
    <glyph glyph-name="uni0421" unicode="&#x421;" horiz-adv-x="615" 
d="M597 213c-26 -133 -130 -227 -250 -227c-157 0 -317 98 -317 343s166 341 324 341c86 0 168 -32 195 -72h3l24 48h7v-234h-10c-35 147 -98 241 -218 241c-41 0 -86 -17 -117 -59c-36 -47 -59 -131 -59 -265c0 -153 39 -226 97 -274c24 -19 66 -31 109 -31
c75 0 158 44 199 194z" />
    <glyph glyph-name="uni0422" unicode="&#x422;" horiz-adv-x="595" 
d="M591 445h-7c-15 35 -46 96 -82 135c-31 39 -65 61 -108 61h-28v-449c0 -54 3 -105 12 -133c9 -29 25 -43 46 -49c11 -3 22 -4 30 -4v-6h-314v6c8 0 19 1 30 4c21 6 38 20 47 49c9 28 12 79 12 133v449h-30c-42 0 -72 -18 -106 -59c-38 -40 -67 -102 -82 -137h-7l26 212
h534z" />
    <glyph glyph-name="uni0423" unicode="&#x423;" horiz-adv-x="609" 
d="M225 27c28 0 61 34 95 103l-209 410c-37 72 -59 99 -121 112v5h331v-5c-48 -4 -67 -23 -67 -52c0 -20 9 -44 21 -67l120 -238l86 212c12 30 19 56 19 82c0 40 -29 63 -73 63v5h207l1 -5c-67 -10 -94 -54 -133 -150l-123 -297c-54 -130 -102 -216 -193 -216
c-57 0 -115 33 -115 101c0 41 26 73 71 73c36 0 57 -23 63 -49c7 -26 1 -41 1 -60c0 -15 6 -27 19 -27z" />
    <glyph glyph-name="uni0424" unicode="&#x424;" horiz-adv-x="833" 
d="M262 -4v5c7 1 19 3 30 6c20 6 37 18 46 47c2 7 4 16 5 27c-187 0 -320 95 -320 274c0 177 133 272 320 273c-2 8 -3 15 -5 21c-9 29 -26 41 -46 47c-11 3 -21 5 -30 6v5h311v-5c-6 0 -25 -4 -30 -6c-21 -6 -38 -18 -47 -47c-2 -6 -4 -13 -5 -21c186 -1 319 -96 319 -273
c0 -179 -133 -274 -320 -274c1 -11 3 -20 6 -27c9 -29 26 -41 47 -47c10 -3 22 -5 30 -6v-5h-311zM349 515c0 35 -1 70 -4 98c-111 -8 -177 -109 -177 -258c0 -146 67 -252 177 -259c3 26 4 59 4 92v327zM485 188c0 -34 0 -66 3 -92c110 7 177 113 177 259
c0 149 -67 250 -176 258c-3 -28 -4 -63 -4 -98v-327z" />
    <glyph glyph-name="uni0425" unicode="&#x425;" horiz-adv-x="626" 
d="M327 148l-68 129l-73 -126c-23 -38 -36 -69 -36 -95c0 -22 11 -36 29 -43c9 -4 30 -7 41 -8v-5h-210v5c10 1 29 5 40 11c18 10 31 20 41 31c12 13 49 63 75 105l84 143l-115 221c-40 76 -73 126 -141 136v5h344v-5c-47 -3 -67 -19 -67 -55c0 -24 16 -56 32 -88l57 -109
l61 106c23 39 37 69 37 94c0 41 -36 50 -70 52v5h210v-5c-72 -10 -102 -63 -156 -148l-72 -123l124 -238c42 -75 78 -127 142 -138v-5h-343v5c49 4 68 19 68 52c0 24 -17 58 -34 91z" />
    <glyph glyph-name="uni0426" unicode="&#x426;" horiz-adv-x="711" 
d="M14 0v5c13 1 29 4 40 10c18 9 31 24 37 45c9 30 10 82 10 132v273c0 50 -1 101 -10 132c-6 22 -19 36 -37 45c-11 6 -27 9 -40 10v5h307v-5c-12 -1 -24 -4 -35 -10c-17 -9 -30 -23 -37 -45c-8 -31 -10 -82 -10 -132v-314c0 -56 6 -100 41 -123c15 -9 35 -12 57 -12h34
c24 0 45 2 61 12c34 23 40 69 40 123v314c0 50 -2 101 -10 132c-7 22 -20 36 -37 45c-12 6 -23 9 -35 10v5h307v-5c-13 -1 -29 -4 -40 -10c-18 -9 -31 -23 -38 -45c-8 -31 -10 -82 -10 -132v-273c0 -50 2 -94 10 -123c7 -21 20 -34 38 -43c11 -6 27 -8 40 -10v-16
c0 -123 -21 -215 -189 -215c-62 0 -103 5 -145 5c-56 0 -81 -18 -70 -65l-6 -2c-21 26 -31 54 -31 79c0 62 43 104 128 104c63 0 111 -7 179 -7c81 0 120 34 120 101h-669z" />
    <glyph glyph-name="uni0427" unicode="&#x427;" horiz-adv-x="684" 
d="M301 224c-74 0 -151 23 -183 95c-17 36 -22 82 -22 137c0 36 -1 94 -9 117c-4 29 -15 58 -37 69c-11 6 -27 9 -40 10v5h302v-5c-12 -1 -22 -4 -33 -10c-21 -13 -32 -40 -37 -69c-7 -23 -9 -115 -9 -158c0 -96 34 -161 115 -161c33 0 65 6 98 30v181c0 50 -2 102 -11 132
c-6 22 -20 37 -37 45c-11 6 -18 9 -30 10v5h302v-5c-13 -1 -29 -4 -40 -10c-18 -9 -31 -23 -37 -45c-9 -30 -10 -82 -10 -132v-273c0 -50 1 -101 10 -132c6 -21 19 -36 37 -45c11 -6 27 -9 40 -10v-5h-307v5c12 1 24 4 35 10c18 9 31 24 37 45c9 31 11 82 11 132v73
c-36 -25 -82 -41 -145 -41z" />
    <glyph glyph-name="uni0428" unicode="&#x428;" horiz-adv-x="1046" 
d="M14 0v5c13 1 29 4 40 10c18 9 31 24 37 45c9 30 10 82 10 132v273c0 50 -1 101 -10 132c-6 22 -19 36 -37 45c-11 6 -27 9 -40 10v5h307v-5c-12 -1 -24 -4 -35 -10c-17 -9 -30 -23 -37 -45c-8 -31 -10 -82 -10 -132v-314c0 -56 6 -100 41 -123c14 -9 34 -11 54 -12h22
c22 0 43 3 58 12c34 23 40 69 40 123v314c0 50 -2 101 -10 132c-7 22 -20 36 -37 45c-12 6 -23 9 -35 10v5h304v-5c-12 -1 -26 -4 -37 -10c-18 -9 -31 -23 -37 -45c-9 -31 -11 -82 -11 -132v-314c0 -56 6 -100 41 -123c15 -9 35 -12 56 -12h21c22 0 43 3 58 12
c34 23 40 69 40 123v314c0 50 -2 101 -11 132c-6 22 -19 36 -37 45c-11 6 -22 9 -35 10v5h308v-5c-13 -1 -30 -4 -40 -10c-18 -9 -31 -23 -38 -45c-8 -31 -10 -82 -10 -132v-279c0 -50 2 -96 10 -126c7 -21 20 -36 38 -45c10 -6 27 -9 40 -10v-5h-1018z" />
    <glyph glyph-name="uni0429" unicode="&#x429;" horiz-adv-x="1046" 
d="M14 0v5c13 1 29 4 40 10c18 9 31 24 37 45c9 30 10 82 10 132v273c0 50 -1 101 -10 132c-6 22 -19 36 -37 45c-11 6 -27 9 -40 10v5h307v-5c-12 -1 -24 -4 -35 -10c-17 -9 -30 -23 -37 -45c-8 -31 -10 -82 -10 -132v-314c0 -56 6 -100 41 -123c14 -9 34 -12 55 -12h21
c22 0 43 3 58 12c34 23 40 69 40 123v314c0 50 -2 101 -10 132c-7 22 -20 36 -37 45c-12 6 -23 9 -35 10v5h304v-5c-12 -1 -26 -4 -37 -10c-18 -9 -31 -23 -37 -45c-9 -31 -11 -82 -11 -132v-314c0 -56 6 -100 41 -123c15 -9 34 -12 55 -12h22c22 0 43 3 58 12
c34 23 40 69 40 123v314c0 50 -2 101 -11 132c-6 22 -19 36 -37 45c-11 6 -22 9 -35 10v5h308v-5c-13 -1 -30 -4 -40 -10c-18 -9 -31 -23 -38 -45c-8 -31 -10 -82 -10 -132v-279c0 -50 2 -88 10 -117c7 -21 20 -35 38 -43c10 -6 25 -9 40 -11v-15c0 -123 -22 -215 -190 -215
c-73 0 -114 5 -169 5s-80 -18 -69 -65l-6 -2c-22 26 -32 54 -32 79c0 62 48 104 135 104c72 0 125 -7 197 -7c80 0 120 34 120 101h-1004z" />
    </font>
</defs>
</svg>
