<?xml version="1.0" standalone="no"?>
<!DOCTYPE svg PUBLIC "-//W3C//DTD SVG 1.1//EN" "http://www.w3.org/Graphics/SVG/1.1/DTD/svg11.dtd" >
<svg xmlns="http://www.w3.org/2000/svg" width="100%" height="100%">
<metadata>
Created by FontXChange 20100429 at Mon Dec 29 17:49:39 2014
 By Hugh Francis
(c)2003-09 Paul Barnes and Commercial Type.
</metadata>
<defs>
<font id="AustinCyr-Fat" horiz-adv-x="315" >
  <font-face 
    font-family="Austin Cyr Fat"
    font-weight="900"
    font-stretch="normal"
    units-per-em="1000"
    panose-1="2 2 10 3 7 7 2 3 4 3"
    ascent="781"
    descent="-219"
    x-height="447"
    cap-height="657"
    bbox="-250 -357 1219 1065"
    underline-thickness="50"
    underline-position="-50"
    stemh="15"
    stemv="280"
    unicode-range="U+0020-FB06"
  />
<missing-glyph horiz-adv-x="200" 
 />
    <glyph glyph-name="f_b" unicode="fb" horiz-adv-x="869" 
d="M613 427c-14 0 -31 -11 -45 -40c-13 -28 -19 -65 -19 -118v-117c0 -48 5 -81 12 -104c12 -36 31 -44 47 -44c46 0 55 101 55 217c0 138 -9 206 -50 206zM550 615v-233h3c19 51 62 74 119 74c86 0 177 -54 177 -232c0 -155 -91 -233 -224 -233c-48 0 -123 15 -156 66h-2
l-94 -58h-4c3 29 3 63 3 88v469c-13 26 -19 59 -22 86c-2 20 -10 32 -41 32c-30 0 -42 -2 -56 -24c-12 -18 -18 -49 -18 -94v-109h107v-22h-107v-294c0 -28 1 -76 5 -89c7 -24 17 -29 26 -33c8 -3 28 -4 35 -5v-4h-299v4c7 1 17 2 25 5c9 4 19 9 26 33c4 13 5 61 5 89v294
h-57v22h56v18c0 88 40 149 97 183c48 29 97 39 156 39c67 0 98 -10 128 -24l107 21c4 1 6 -2 6 -7c0 -15 -1 -36 -1 -62z" />
    <glyph glyph-name="f_f" unicode="ff" horiz-adv-x="656" 
d="M760 590c0 -35 -22 -68 -70 -68c-35 0 -55 17 -68 42c-7 12 -11 26 -15 40c-4 16 -7 36 -9 49c-2 15 -5 21 -13 21c-12 0 -18 -5 -25 -22s-10 -49 -10 -96v-109h88v-22h-88v-294c0 -28 1 -76 5 -89c7 -24 17 -29 26 -33c8 -3 28 -4 35 -5v-4h-299v4c7 1 17 2 25 5
c9 4 19 9 26 33c4 13 5 61 5 89v294h-138v-294c0 -28 1 -76 5 -89c7 -24 17 -29 26 -33c8 -3 28 -4 35 -5v-4h-299v4c7 1 17 2 25 5c9 4 19 9 26 33c4 13 5 61 5 89v294h-57v22h56v18c0 90 45 156 72 176c32 24 67 46 142 46c60 0 102 -8 128 -21c18 -9 29 -21 36 -33l9 8
c32 24 67 46 142 46c60 0 102 -8 128 -21c38 -19 46 -49 46 -76zM270 674c-12 0 -18 -5 -25 -22s-10 -49 -10 -96v-109h137v18c0 20 2 40 6 57c-54 0 -74 35 -86 82c-4 16 -7 36 -9 49l-3 13c-2 6 -5 8 -10 8z" />
    <glyph glyph-name="f_f_b" unicode="ffb" horiz-adv-x="1185" 
d="M615 674c-12 0 -40 -7 -47 -24s-18 -47 -18 -94v-109h88v-22h-88v-294c0 -28 1 -76 5 -89c7 -24 17 -29 26 -33c8 -3 28 -4 35 -5v-4h-299v4c7 1 17 2 25 5c9 4 19 9 26 33c4 13 5 61 5 89v294h-138v-294c0 -28 1 -76 5 -89c7 -24 17 -29 26 -33c8 -3 28 -4 35 -5v-4
h-299v4c7 1 17 2 25 5c9 4 19 9 26 33c4 13 5 61 5 89v294h-57v22h56v18c0 90 45 156 72 176c32 24 67 46 142 46c55 0 134 -8 166 -61c42 42 117 61 179 61c67 0 108 -10 138 -24l107 21c4 1 6 -2 6 -7c0 -15 -1 -36 -1 -62v-233h3c19 51 62 74 119 74
c86 0 177 -54 177 -232c0 -155 -91 -233 -224 -233c-48 0 -123 15 -156 66h-2l-94 -58h-4c3 29 3 63 3 88v469c-13 26 -19 59 -22 86c-2 20 -20 32 -51 32zM929 427c-14 0 -31 -11 -45 -40c-13 -28 -19 -65 -19 -118v-117c0 -48 5 -81 12 -104c12 -36 31 -44 47 -44
c46 0 55 101 55 217c0 138 -9 206 -50 206zM270 674c-12 0 -18 -5 -25 -22s-10 -49 -10 -96v-109h137v18c0 20 2 40 6 57c-54 0 -74 35 -86 82c-4 16 -7 36 -9 49l-3 13c-2 6 -5 8 -10 8z" />
    <glyph glyph-name="f_f_h" unicode="ffh" horiz-adv-x="1215" 
d="M863 615v-266h3c8 35 23 59 43 75c26 22 68 32 99 32c45 0 93 -17 113 -45c19 -26 28 -59 28 -104v-176c0 -29 1 -76 5 -89c7 -24 18 -30 26 -34c8 -3 18 -3 25 -4v-4h-279v4c9 0 15 2 22 5c12 6 19 20 22 43c1 13 2 30 2 51v249c0 27 -2 45 -13 55c-7 7 -16 10 -26 10
c-21 0 -58 -28 -65 -111c-2 -25 -3 -50 -3 -80v-123c0 -21 0 -38 2 -51c3 -23 10 -37 22 -43c7 -3 13 -5 22 -5v-4h-279v4c7 1 17 1 25 4c8 4 17 10 25 34c4 13 6 60 6 89v425c-13 26 -19 59 -22 86c-2 20 -20 32 -51 32c-12 0 -40 -7 -47 -24s-18 -47 -18 -94v-109h88v-22
h-88v-294c0 -28 1 -76 5 -89c7 -24 17 -29 26 -33c8 -3 28 -4 35 -5v-4h-299v4c7 1 17 2 25 5c9 4 19 9 26 33c4 13 5 61 5 89v294h-138v-294c0 -28 1 -76 5 -89c7 -24 17 -29 26 -33c8 -3 28 -4 35 -5v-4h-299v4c7 1 17 2 25 5c9 4 19 9 26 33c4 13 5 61 5 89v294h-57v22
h56v18c0 90 45 156 72 176c32 24 67 46 142 46c55 0 134 -8 166 -61c42 42 117 61 179 61c67 0 108 -10 138 -24l104 21c4 1 6 -2 6 -7c0 -15 -1 -36 -1 -62zM270 674c-12 0 -18 -5 -25 -22s-10 -49 -10 -96v-109h137v18c0 20 2 40 6 57c-54 0 -74 35 -86 82
c-4 16 -7 36 -9 49l-3 13c-2 6 -5 8 -10 8z" />
    <glyph glyph-name="f_f_i" unicode="ffi" horiz-adv-x="935" 
d="M920 0h-288v4c7 1 17 1 24 4c9 4 19 10 26 34c4 13 5 60 5 89v182c0 18 0 53 -2 69c-3 19 -9 27 -18 34c-9 6 -20 9 -30 9h-87v-294c0 -28 1 -76 5 -89c7 -24 17 -29 26 -33c8 -3 28 -4 35 -5v-4h-299v4c7 1 17 2 25 5c9 4 19 9 26 33c4 13 5 61 5 89v294h-138v-294
c0 -28 1 -76 5 -89c7 -24 17 -29 26 -33c8 -3 28 -4 35 -5v-4h-299v4c7 1 17 2 25 5c9 4 19 9 26 33c4 13 5 61 5 89v294h-57v22h56v19c0 90 45 160 72 180c32 24 67 46 142 46c60 0 102 -8 128 -21c18 -9 29 -21 36 -33l9 8c32 24 103 46 178 46c72 0 219 -6 219 -109
c0 -35 -26 -67 -74 -67c-35 0 -55 17 -68 42c-14 25 -20 62 -24 89c-2 20 -20 32 -51 32c-30 0 -42 -2 -56 -24c-12 -18 -18 -49 -18 -94v-114h310c4 0 6 -2 6 -7c0 -16 -1 -37 -1 -63v-246c0 -29 1 -76 5 -89c7 -24 17 -30 26 -34c8 -3 17 -3 24 -4v-4zM270 679
c-12 0 -18 -5 -25 -22s-10 -49 -10 -96v-114h137v19c0 20 2 44 6 61c-54 0 -74 35 -86 82c-4 16 -7 36 -9 49l-3 13c-2 6 -5 8 -10 8z" />
    <glyph glyph-name="f_f_j" unicode="ffj" horiz-adv-x="916" 
d="M687 -62v375c0 18 0 53 -2 69c-3 19 -9 27 -18 34c-9 6 -20 9 -30 9h-87v-294c0 -28 1 -76 5 -89c7 -24 17 -29 26 -33c8 -3 28 -4 35 -5v-4h-299v4c7 1 17 2 25 5c9 4 19 9 26 33c4 13 5 61 5 89v294h-138v-294c0 -28 1 -76 5 -89c7 -24 17 -29 26 -33c8 -3 28 -4 35 -5
v-4h-299v4c7 1 17 2 25 5c9 4 19 9 26 33c4 13 5 61 5 89v294h-57v22h56v19c0 90 45 160 72 180c32 24 67 46 142 46c60 0 102 -8 128 -21c18 -9 29 -21 36 -33l9 8c32 24 103 46 178 46c72 0 219 -6 219 -109c0 -35 -26 -67 -74 -67c-35 0 -55 17 -68 42
c-14 25 -20 62 -24 89c-2 20 -20 32 -51 32c-30 0 -42 -2 -56 -24c-12 -18 -18 -49 -18 -94v-114h310c4 0 6 -2 6 -7c0 -16 -1 -37 -1 -63v-360c0 -102 -50 -150 -88 -180c-19 -15 -68 -50 -154 -50c-34 0 -76 10 -105 27c-29 18 -51 55 -51 95c0 45 35 88 91 88
c53 0 84 -38 84 -86c0 -14 -8 -38 -15 -55c-5 -12 -10 -27 -10 -34c0 -10 4 -20 16 -20c23 0 33 17 41 40c7 21 13 60 13 96zM270 679c-12 0 -18 -5 -25 -22s-10 -49 -10 -96v-114h137v19c0 20 2 44 6 61c-54 0 -74 35 -86 82c-4 16 -7 36 -9 49l-3 13c-2 6 -5 8 -10 8z" />
    <glyph glyph-name="f_f_k" unicode="ffk" horiz-adv-x="1200" 
d="M866 615v-398l109 113c27 28 44 55 44 74c0 12 -2 22 -16 29c-8 4 -25 8 -34 9v5h187v-5c-17 -3 -39 -11 -62 -25c-11 -7 -50 -35 -77 -66l-35 -41c93 -18 123 -69 135 -126c12 -61 32 -135 50 -158c11 -14 27 -18 52 -21v-5h-218c-24 20 -47 82 -56 155
c-6 50 -18 67 -43 82l-36 -40v-66c0 -28 1 -75 5 -88c7 -24 17 -31 26 -35c8 -3 21 -3 28 -4v-4h-292v4c7 1 16 1 24 4c9 4 19 11 26 35c4 13 5 60 5 88v425c-13 26 -19 59 -22 86c-2 20 -20 32 -51 32c-12 0 -40 -7 -47 -24s-18 -47 -18 -94v-109h88v-22h-88v-294
c0 -28 1 -76 5 -89c7 -24 17 -29 26 -33c8 -3 28 -4 35 -5v-4h-299v4c7 1 17 2 25 5c9 4 19 9 26 33c4 13 5 61 5 89v294h-138v-294c0 -28 1 -76 5 -89c7 -24 17 -29 26 -33c8 -3 28 -4 35 -5v-4h-299v4c7 1 17 2 25 5c9 4 19 9 26 33c4 13 5 61 5 89v294h-57v22h56v18
c0 90 45 156 72 176c32 24 67 46 142 46c55 0 134 -8 166 -61c42 42 117 61 179 61c67 0 108 -10 138 -24l107 21c4 1 6 -2 6 -7c0 -15 -1 -36 -1 -62zM270 674c-12 0 -18 -5 -25 -22s-10 -49 -10 -96v-109h137v18c0 20 2 40 6 57c-54 0 -74 35 -86 82c-4 16 -7 36 -9 49
l-3 13c-2 6 -5 8 -10 8z" />
    <glyph glyph-name="f_f_l" unicode="ffl" horiz-adv-x="944" 
d="M924 0h-292v4c7 1 16 1 24 4c9 4 19 10 26 34c4 13 5 60 5 89v425c-13 26 -19 59 -22 86c-2 20 -10 32 -41 32c-30 0 -42 -2 -56 -24c-12 -18 -18 -49 -18 -94v-109h107v-22h-107v-294c0 -28 1 -76 5 -89c7 -24 17 -29 26 -33c8 -3 28 -4 35 -5v-4h-299v4c7 1 17 2 25 5
c9 4 19 9 26 33c4 13 5 61 5 89v294h-138v-294c0 -28 1 -76 5 -89c7 -24 17 -29 26 -33c8 -3 28 -4 35 -5v-4h-299v4c7 1 17 2 25 5c9 4 19 9 26 33c4 13 5 61 5 89v294h-57v22h56v19c0 90 45 155 72 175c32 24 67 46 142 46c60 0 102 -8 128 -21c18 -9 29 -21 36 -33l9 8
c32 24 106 46 181 46c67 0 103 -6 128 -24l107 21c4 1 6 -2 6 -7c0 -15 -1 -36 -1 -62v-484c0 -29 1 -76 5 -89c7 -24 17 -30 26 -34c8 -3 21 -3 28 -4v-4zM270 674c-12 0 -18 -5 -25 -22s-10 -49 -10 -96v-109h137v19c0 20 2 39 6 56c-54 0 -74 35 -86 82
c-4 16 -7 36 -9 49l-3 13c-2 6 -5 8 -10 8z" />
    <glyph glyph-name="f_h" unicode="fh" horiz-adv-x="909" 
d="M310 687c67 0 108 -10 138 -24l104 21c4 1 6 -2 6 -7c0 -15 -1 -36 -1 -62v-266h3c8 35 23 59 43 75c26 22 68 32 99 32c45 0 93 -17 113 -45c19 -26 28 -59 28 -104v-176c0 -29 1 -76 5 -89c7 -24 18 -30 26 -34c8 -3 18 -3 25 -4v-4h-279v4c9 0 15 2 22 5
c12 6 19 20 22 43c1 13 2 30 2 51v249c0 27 -2 45 -13 55c-7 7 -16 10 -26 10c-21 0 -58 -28 -65 -111c-2 -25 -3 -50 -3 -80v-123c0 -21 0 -38 2 -51c3 -23 10 -37 22 -43c7 -3 13 -5 22 -5v-4h-279v4c7 1 17 1 25 4c8 4 17 10 25 34c4 13 6 60 6 89v425
c-13 26 -19 59 -22 86c-2 20 -20 32 -51 32c-20 0 -40 -8 -56 -30c-14 -19 -18 -43 -18 -88v-109h107v-22h-107v-294c0 -28 1 -76 5 -89c7 -24 17 -29 26 -33c8 -3 28 -4 35 -5v-4h-299v4c7 1 17 2 25 5c9 4 19 9 26 33c4 13 5 61 5 89v294h-57v22h56v18c0 88 40 149 97 183
c48 29 97 39 156 39z" />
    <glyph glyph-name="f_i" unicode="fi" horiz-adv-x="620" 
d="M605 0h-288v4c7 1 17 1 24 4c9 4 19 10 26 34c4 13 5 60 5 89v182c0 18 0 53 -2 69c-3 19 -8 28 -18 34c-8 7 -20 9 -30 9h-87v-294c0 -28 1 -76 5 -89c7 -24 17 -29 26 -33c8 -3 28 -4 35 -5v-4h-299v4c7 1 17 2 25 5c9 4 19 9 26 33c4 13 5 61 5 89v294h-57v22h56v18
c0 88 40 154 97 188c48 29 97 39 156 39c72 0 216 -6 216 -109c0 -35 -26 -67 -74 -67c-35 0 -55 17 -68 42c-14 25 -20 62 -24 89c-2 20 -20 32 -51 32c-30 0 -42 -2 -56 -24c-12 -18 -18 -49 -18 -94v-114h310c4 0 6 -2 6 -7c0 -16 -1 -37 -1 -63v-246c0 -29 1 -76 5 -89
c7 -24 17 -30 26 -34c8 -3 17 -3 24 -4v-4z" />
    <glyph glyph-name="f_j" unicode="fj" horiz-adv-x="600" 
d="M549 440v-423c0 -102 -50 -150 -88 -180c-19 -15 -68 -50 -154 -50c-34 0 -76 10 -105 27c-29 18 -51 55 -51 95c0 45 35 88 91 88c53 0 84 -38 84 -86c0 -14 -8 -38 -15 -55c-5 -12 -10 -27 -10 -34c0 -10 4 -20 16 -20c23 0 33 17 41 40c7 21 13 60 13 96v444
c-3 19 -8 28 -18 34c-8 7 -20 9 -30 9h-88v-294c0 -28 1 -76 5 -89c7 -24 17 -29 26 -33c8 -3 28 -4 35 -5v-4h-299v4c7 1 17 2 25 5c9 4 19 9 26 33c4 13 5 61 5 89v294h-57v22h56v18c0 88 40 154 97 188c48 29 97 39 156 39c72 0 216 -6 216 -109c0 -35 -26 -67 -74 -67
c-35 0 -55 17 -68 42c-14 25 -20 62 -24 89c-2 20 -20 32 -51 32c-30 0 -42 -2 -56 -24c-12 -18 -18 -49 -18 -94v-114h308c4 0 6 -2 6 -7z" />
    <glyph glyph-name="f_k" unicode="fk" horiz-adv-x="894" 
d="M309 674c-20 0 -40 -8 -56 -30c-14 -19 -18 -43 -18 -88v-109h107v-22h-107v-294c0 -28 1 -76 5 -89c7 -24 17 -29 26 -33c8 -3 28 -4 35 -5v-4h-299v4c7 1 17 2 25 5c9 4 19 9 26 33c4 13 5 61 5 89v294h-57v22h56v18c0 88 40 149 97 183c48 29 97 39 156 39
c67 0 108 -10 138 -24l107 21c4 1 6 -2 6 -7c0 -15 -1 -36 -1 -62v-398l109 113c27 28 44 55 44 74c0 12 -2 22 -16 29c-8 4 -25 8 -34 9v5h187v-5c-17 -3 -39 -11 -62 -25c-11 -7 -50 -35 -77 -66l-35 -41c93 -18 123 -69 135 -126c12 -61 32 -135 50 -158
c11 -14 27 -18 52 -21v-5h-218c-24 20 -47 82 -56 155c-6 50 -18 67 -43 82l-36 -40v-66c0 -28 1 -75 5 -88c7 -24 17 -31 26 -35c8 -3 21 -3 28 -4v-4h-292v4c7 1 16 1 24 4c9 4 19 11 26 35c4 13 5 60 5 88v425c-13 26 -19 59 -22 86c-2 20 -20 32 -51 32z" />
    <glyph glyph-name="f_l" unicode="fl" horiz-adv-x="629" 
d="M609 0h-292v4c7 1 16 1 24 4c9 4 19 10 26 34c4 13 5 60 5 89v425c-13 26 -19 59 -22 86c-2 20 -10 32 -41 32c-30 0 -42 -2 -56 -24c-12 -18 -18 -49 -18 -94v-109h107v-22h-107v-294c0 -28 1 -76 5 -89c7 -24 17 -29 26 -33c8 -3 28 -4 35 -5v-4h-299v4c7 1 17 2 25 5
c9 4 19 9 26 33c4 13 5 61 5 89v294h-57v22h56v18c0 88 40 149 97 183c48 29 97 39 156 39c67 0 103 -6 128 -24l107 21c4 1 6 -2 6 -7c0 -15 -1 -36 -1 -62v-484c0 -29 1 -76 5 -89c7 -24 17 -30 26 -34c8 -3 21 -3 28 -4v-4z" />
    <glyph glyph-name=".notdef" horiz-adv-x="200" 
 />
    <glyph glyph-name="Eth" unicode="&#xd0;" horiz-adv-x="729" 
d="M38 321v25h65v181c0 27 -3 51 -7 67c-10 36 -25 48 -47 53c-13 3 -23 5 -29 5v5h377c70 0 119 -14 160 -39c88 -53 142 -161 142 -287s-47 -242 -137 -291c-41 -22 -90 -40 -148 -40h-394v5c6 0 16 2 29 5c22 5 37 17 47 53c4 16 7 40 7 67v191h-65zM371 641h-26
c-20 0 -33 -8 -41 -28c-4 -12 -4 -28 -4 -50v-217h103v-25h-103v-197c0 -26 2 -52 10 -72c8 -21 28 -36 50 -36h8c21 0 63 7 85 52c24 49 39 110 39 263s-13 207 -37 256c-22 45 -56 54 -84 54z" />
    <glyph glyph-name="eth" unicode="&#xf0;" horiz-adv-x="516" 
d="M143 510v17l87 47c-28 42 -61 80 -94 110h8c45 -16 98 -42 149 -76l85 46v-17l-71 -39c100 -72 189 -183 189 -339c0 -193 -116 -268 -238 -268s-238 83 -238 232s118 233 238 233c15 0 23 -3 33 -8c-12 40 -31 78 -53 113zM311 223c0 128 -2 187 -21 211
c-7 9 -22 12 -32 12c-11 0 -25 -3 -32 -12c-19 -24 -22 -83 -22 -211s4 -187 22 -210c8 -10 21 -13 32 -13c10 0 24 3 32 13c18 23 21 82 21 210z" />
    <glyph glyph-name="Lslash" unicode="&#x141;" horiz-adv-x="624" 
d="M27 229v19l85 32v144c0 72 -2 143 -14 179c-8 24 -25 38 -46 44c-10 3 -19 5 -30 6v4h378v-4c-8 -2 -20 -3 -30 -6c-21 -6 -38 -20 -46 -44c-12 -36 -16 -107 -16 -179v-68l172 66v-19l-172 -66v-149c0 -56 4 -90 10 -112c6 -20 14 -36 26 -44c18 -12 30 -16 44 -16h14
c31 0 50 18 72 50c35 51 93 153 112 194h6l-6 -260h-566v6c10 0 24 3 34 6c21 6 37 20 44 42c13 38 14 108 14 180v27z" />
    <glyph glyph-name="lslash" unicode="&#x142;" horiz-adv-x="322" 
d="M4 293v19l61 26v229c0 18 -1 54 -3 70c-3 19 -7 28 -17 34c-8 6 -21 7 -30 8v5h223c4 0 6 -2 6 -7c0 -15 -1 -36 -1 -62v-201l64 27v-19l-64 -27v-264c0 -29 1 -76 5 -89c7 -24 17 -30 26 -34c8 -3 21 -3 28 -4v-4h-292v4c7 1 16 1 24 4c9 4 19 10 26 34c4 13 5 60 5 89
v188z" />
    <glyph glyph-name="Scaron" unicode="&#x160;" horiz-adv-x="564" 
d="M544 203c0 -147 -118 -216 -264 -216c-70 0 -159 38 -182 69h-4l-38 -55h-8l-3 244h10c31 -111 119 -242 228 -242c70 0 101 41 101 95c0 47 -13 88 -128 133c-94 36 -216 99 -216 240c0 125 123 199 248 199c62 0 112 -27 135 -58h3l44 42h8l10 -225h-8
c-11 45 -28 93 -52 133c-32 52 -75 90 -135 90c-74 0 -99 -40 -99 -78c0 -89 63 -106 137 -137c102 -42 213 -91 213 -234zM138 843l7 5l141 -59l141 59l7 -5l-110 -141h-76z" />
    <glyph glyph-name="scaron" unicode="&#x161;" horiz-adv-x="403" 
d="M388 150c0 -92 -87 -159 -183 -159c-41 0 -99 18 -128 44h-4l-43 -33h-3l-7 165h8c17 -89 99 -168 177 -168c48 0 55 19 55 59c0 42 -42 63 -97 84c-50 19 -145 62 -145 167c0 92 80 147 182 147c36 0 99 -19 117 -42h3l25 31h6l3 -136h-7c-9 38 -27 72 -53 97
c-25 24 -56 39 -91 39s-59 -14 -59 -53c0 -37 40 -60 99 -81c76 -27 145 -63 145 -161zM54 669l7 5l141 -89l141 89l7 -5l-110 -181h-76z" />
    <glyph glyph-name="Yacute" unicode="&#xdd;" horiz-adv-x="675" 
d="M675 652c-56 -11 -100 -47 -141 -145l-91 -216v-161c0 -27 2 -50 7 -67c9 -36 25 -48 47 -53c13 -3 22 -4 28 -4v-6h-362v6c6 0 16 1 29 4c21 5 39 17 48 53c4 17 6 40 6 67v141l-123 274c-27 61 -59 99 -113 107v5h377v-5c-10 -1 -23 -3 -33 -7
c-31 -14 -35 -56 -10 -118l83 -209h5l80 189c16 38 28 69 28 94c0 22 -13 36 -31 43c-10 4 -24 7 -34 8v5h200v-5zM280 691l-4 6c59 56 103 93 134 124c29 28 48 33 75 33c30 0 59 -24 59 -69c0 -37 -36 -55 -69 -62c-41 -9 -121 -21 -195 -32z" />
    <glyph glyph-name="yacute" unicode="&#xfd;" horiz-adv-x="466" 
d="M498 443c-29 -3 -53 -23 -64 -42c-8 -13 -15 -27 -29 -66l-168 -439c-15 -42 -33 -62 -52 -80c-25 -23 -53 -29 -82 -29c-55 0 -100 25 -100 88c0 32 23 63 70 63c36 0 59 -20 71 -57c8 -25 3 -46 21 -46c14 0 35 19 55 72l12 31c3 8 0 19 -3 27l-139 347
c-17 46 -33 71 -41 85c-10 19 -24 28 -36 36c-9 6 -24 9 -33 10v4h322v-4c-9 -1 -19 -3 -27 -8c-10 -6 -16 -20 -16 -33c0 -18 8 -33 19 -68l49 -159h1l55 154c12 34 16 55 16 75c0 16 -8 26 -18 32c-9 5 -20 6 -29 7v4h146v-4zM439 609c0 -25 -23 -49 -54 -62
c-38 -16 -111 -41 -187 -63l-4 5c49 67 82 115 109 148c24 29 41 43 66 43c48 0 70 -21 70 -71z" />
    <glyph glyph-name="Thorn" unicode="&#xde;" horiz-adv-x="674" 
d="M450 345c0 110 -34 157 -86 157c-15 0 -24 -3 -36 -9c-15 -8 -21 -22 -25 -39c-3 -17 -4 -33 -4 -70v-207c18 -5 29 -8 48 -8c46 0 63 9 80 40c16 31 23 103 23 136zM298 519h95c170 0 261 -47 261 -177c0 -61 -32 -118 -78 -144c-43 -24 -103 -45 -227 -45
c-17 0 -34 2 -51 5v-28c0 -28 2 -50 6 -66c10 -38 26 -48 46 -54c12 -4 20 -4 24 -4v-6h-354v6c6 0 14 0 28 4c22 4 38 16 48 54c4 16 6 38 6 66v397c0 28 -2 52 -6 68c-10 36 -26 47 -48 52c-14 3 -22 6 -28 6v4h354v-4c-6 0 -14 -2 -24 -6c-20 -8 -36 -16 -46 -52
c-4 -16 -6 -48 -6 -76z" />
    <glyph glyph-name="thorn" unicode="&#xfe;" horiz-adv-x="558" 
d="M48 -82v680c0 12 -1 32 -3 41c-5 21 -13 28 -26 34c-9 4 -15 5 -24 5v6h226c4 0 7 -2 7 -8c0 -19 -3 -74 -3 -117v-185h4c14 50 65 82 111 82c115 0 198 -80 198 -233c0 -140 -88 -232 -206 -232c-53 0 -71 9 -103 28h-3v-101c0 -28 -1 -59 4 -80c6 -27 14 -33 35 -42
c8 -3 14 -3 21 -4v-5h-298v5c7 1 13 1 21 4c21 9 29 15 35 42c5 21 4 52 4 80zM354 230c0 160 -6 191 -57 191c-49 0 -71 -67 -71 -147v-114c0 -43 8 -99 26 -120s32 -29 51 -29c45 0 51 59 51 219z" />
    <glyph glyph-name="Zcaron" unicode="&#x17d;" horiz-adv-x="614" 
d="M604 657v-5l-332 -629h48c91 0 129 28 165 70c57 65 77 109 109 159h8l-33 -252h-534v6l357 626h-56c-69 0 -133 -33 -159 -52c-35 -25 -81 -91 -113 -142h-8l26 219h522zM190 843l7 5l141 -59l141 59l7 -5l-110 -141h-76z" />
    <glyph glyph-name="zcaron" unicode="&#x17e;" horiz-adv-x="455" 
d="M439 191l-30 -191h-407v4l212 424v4h-81c-28 0 -47 -19 -60 -40l-67 -133h-8l27 188h386v-7l-209 -424v-5h63c36 0 73 33 88 57l78 123h8zM80 669l7 5l141 -89l141 89l7 -5l-110 -181h-76z" />
    <glyph glyph-name="minus" unicode="&#x2212;" horiz-adv-x="455" 
d="M420 244h-385v34h385v-34z" />
    <glyph glyph-name="multiply" unicode="&#xd7;" horiz-adv-x="394" 
d="M362 400l-140 -145l138 -144l-25 -25l-139 143l-139 -144l-25 26l139 144l-139 144l25 25l139 -144l140 145z" />
    <glyph glyph-name="space" unicode=" " horiz-adv-x="170" 
 />
    <glyph glyph-name="exclam" unicode="!" horiz-adv-x="260" 
d="M240 580c0 -48 -33 -117 -61 -213c-27 -94 -36 -127 -44 -165h-11c-8 38 -17 71 -44 165c-28 96 -60 165 -60 213c0 54 38 90 110 90s110 -36 110 -90zM209 62c0 -43 -33 -79 -79 -79s-78 36 -78 79s33 80 78 80s79 -37 79 -80z" />
    <glyph glyph-name="quotedbl" unicode="&#x22;" horiz-adv-x="375" 
d="M335 606c0 -31 -14 -81 -28 -116c-15 -37 -26 -81 -37 -110h-7c-11 29 -23 71 -36 109c-13 39 -29 86 -29 117c0 42 20 64 69 64s68 -22 68 -64zM178 606c0 -31 -15 -81 -29 -116c-15 -37 -26 -81 -37 -110h-7c-11 29 -23 71 -36 109c-13 39 -29 86 -29 117
c0 42 20 64 69 64s69 -22 69 -64z" />
    <glyph glyph-name="numbersign" unicode="#" horiz-adv-x="583" 
d="M578 428h-155l-34 -196h151v-30h-156l-35 -202h-20l35 202h-186l-35 -202h-19l35 202h-154v30h159l34 196h-155v30h161l34 197h19l-34 -197h186l34 197h19l-34 -197h150v-30zM403 428h-186l-34 -196h186z" />
    <glyph glyph-name="dollar" unicode="$" horiz-adv-x="536" 
d="M506 198c0 -143 -99 -210 -228 -216v-96h-18v96c-126 2 -220 60 -220 151c0 55 39 84 72 84c57 0 83 -38 83 -94c0 -7 -3 -30 -3 -37c0 -69 28 -86 68 -87v221c-18 11 -38 22 -59 33c-96 53 -149 97 -149 216c0 122 88 196 208 199v83h18v-83c125 -3 215 -58 215 -143
c0 -52 -37 -78 -68 -78c-54 0 -77 36 -77 88c0 7 2 28 2 35c0 63 -33 79 -72 81v-195l56 -34c115 -74 172 -95 172 -224zM361 93c0 41 -33 86 -83 118v-212c61 4 83 43 83 94zM260 468v183c-49 -3 -71 -44 -71 -80c0 -48 35 -78 71 -103z" />
    <glyph glyph-name="percent" unicode="%" horiz-adv-x="741" 
d="M555 327c81 0 166 -58 166 -171s-85 -171 -166 -171s-167 56 -167 171s86 171 167 171zM543 665l-324 -680l-16 7l324 680zM353 498c0 -113 -85 -171 -166 -171s-167 56 -167 171s86 172 167 172s166 -59 166 -172zM590 156c0 136 -3 156 -35 156c-31 0 -35 -43 -35 -156
s4 -156 35 -156c32 0 35 20 35 156zM187 655c-31 0 -35 -44 -35 -157s4 -156 35 -156c32 0 35 20 35 156s-3 157 -35 157z" />
    <glyph glyph-name="ampersand" unicode="&#x26;" horiz-adv-x="701" 
d="M711 59c-20 -37 -90 -73 -187 -73c-32 0 -60 0 -85 4c-26 4 -48 12 -66 27c-37 -19 -81 -31 -134 -31c-140 0 -224 78 -224 173c0 92 81 140 167 183c-13 16 -26 31 -37 48c-22 33 -37 68 -37 116c0 107 110 164 194 164c119 0 168 -40 168 -100c0 -59 -47 -101 -90 -133
c25 -27 49 -53 65 -77c25 -38 46 -91 65 -141c10 27 17 53 24 79c6 22 7 45 7 70c0 22 -4 36 -25 50c-12 8 -28 10 -44 12v6h204v-6c-14 -2 -30 -4 -45 -14s-29 -23 -40 -39c-8 -12 -19 -33 -36 -83c-7 -22 -17 -60 -35 -101c15 -40 29 -76 44 -100c22 -36 57 -49 85 -49
c19 0 48 12 55 22zM417 570c0 48 -33 81 -69 81c-28 0 -65 -16 -65 -66c0 -41 41 -87 84 -134c31 29 50 62 50 119zM357 34c-9 12 -18 27 -25 45c-19 51 -56 130 -91 187c-9 14 -18 26 -28 39c-14 -28 -21 -65 -21 -120c0 -100 64 -155 137 -155c9 0 19 2 28 4z" />
    <glyph glyph-name="quotesingle" unicode="'" horiz-adv-x="218" 
d="M178 606c0 -31 -15 -81 -29 -116c-15 -37 -26 -81 -37 -110h-7c-11 29 -23 71 -36 109c-13 39 -29 86 -29 117c0 42 20 64 69 64s69 -22 69 -64z" />
    <glyph glyph-name="parenleft" unicode="(" horiz-adv-x="294" 
d="M304 -106h-8c-129 58 -266 159 -266 392s137 335 266 393h8c-69 -86 -106 -217 -106 -393s37 -306 106 -392z" />
    <glyph glyph-name="parenright" unicode=")" horiz-adv-x="294" 
d="M-2 679c129 -58 266 -160 266 -393s-137 -334 -266 -392h-8c69 86 106 216 106 392s-37 307 -106 393h8z" />
    <glyph glyph-name="asterisk" unicode="*" horiz-adv-x="410" 
d="M202 492c-8 51 -40 113 -40 140c0 21 17 37 44 37c26 0 42 -16 42 -37c0 -27 -32 -89 -40 -139c31 40 52 106 71 125c15 15 38 16 57 -2c19 -19 18 -43 3 -58c-19 -19 -84 -40 -125 -70c50 7 111 39 138 39c21 0 38 -15 38 -42s-17 -43 -38 -43c-27 0 -89 32 -139 39
c41 -31 107 -52 126 -71c15 -14 16 -38 -3 -56c-19 -19 -43 -19 -57 -4c-19 19 -40 85 -70 125c7 -50 39 -111 39 -138c0 -21 -16 -38 -42 -38c-27 0 -44 17 -44 38c0 27 32 88 39 139c-30 -41 -51 -107 -70 -126c-15 -15 -38 -15 -57 4s-18 41 -4 56c20 19 86 40 127 71
c-51 -7 -113 -39 -140 -39c-20 0 -37 16 -37 43s17 42 37 42c27 0 89 -32 139 -39c-43 32 -104 49 -126 71c-14 14 -14 37 5 56c18 19 41 18 55 4c25 -25 39 -84 72 -127z" />
    <glyph glyph-name="plus" unicode="+" horiz-adv-x="455" 
d="M420 244h-175v-175h-36v175h-174v34h174v176h36v-176h175v-34z" />
    <glyph glyph-name="comma" unicode="," horiz-adv-x="217" 
d="M192 51c0 -81 -61 -161 -156 -187l-5 13c53 17 88 64 88 90c0 10 -3 18 -11 21c-45 5 -78 31 -78 80c0 40 37 76 74 76c53 0 88 -29 88 -93z" />
    <glyph glyph-name="hyphen" unicode="-" horiz-adv-x="333" 
d="M273 213h-213v90h213v-90z" />
    <glyph glyph-name="period" unicode="." horiz-adv-x="207" 
d="M182 65c0 -43 -33 -79 -79 -79s-78 36 -78 79s33 79 78 79s79 -36 79 -79z" />
    <glyph glyph-name="slash" unicode="/" horiz-adv-x="311" 
d="M361 673l-377 -775l-34 15l377 776z" />
    <glyph glyph-name="zero" unicode="0" horiz-adv-x="652" 
d="M622 326c0 -225 -140 -340 -296 -340s-296 114 -296 340s142 344 296 344s296 -119 296 -344zM394 326c0 231 -10 327 -68 327s-68 -96 -68 -327s11 -323 68 -323s68 92 68 323z" />
    <glyph glyph-name="one" unicode="1" horiz-adv-x="405" 
d="M367 0h-345v5c10 0 31 3 36 5c21 8 28 13 34 40c5 21 4 53 4 81v404c0 18 0 50 -2 66c-2 21 -8 27 -18 33c-9 6 -47 10 -56 11v5c23 1 125 5 168 9c25 2 90 6 99 6c5 0 7 -2 7 -7c0 -15 -2 -37 -2 -63v-464c0 -28 0 -60 5 -81c6 -27 13 -30 34 -39c8 -3 29 -5 36 -6v-5z
" />
    <glyph glyph-name="two" unicode="2" horiz-adv-x="625" 
d="M605 284l-79 -284h-497c8 7 60 79 68 89c91 112 244 289 244 433c0 92 -25 122 -77 122c-48 0 -122 -52 -122 -186c0 -45 13 -94 55 -94c34 0 52 22 62 45l10 -4c-15 -64 -55 -118 -132 -118c-75 0 -127 45 -127 141c0 132 119 243 299 243c170 0 244 -75 244 -177
c0 -109 -69 -159 -170 -217c-27 -15 -128 -83 -187 -117v-5h219c41 0 106 38 127 57c26 23 47 50 55 72h8z" />
    <glyph glyph-name="three" unicode="3" horiz-adv-x="560" 
d="M540 194c0 -139 -103 -208 -290 -208c-149 0 -219 80 -219 147c0 47 31 88 83 88c57 0 90 -36 90 -88c0 -24 -6 -42 -14 -61c-3 -7 -7 -31 -7 -37c0 -21 16 -27 29 -27c58 0 112 90 112 212c0 91 -29 113 -88 113c-12 0 -40 -9 -58 -20l-32 -19l-9 13l61 37
c67 41 98 118 98 204c0 75 -9 97 -63 97c-39 0 -75 -33 -75 -109c0 -47 22 -74 45 -74c26 0 30 1 45 20l8 -4c-19 -49 -56 -94 -116 -94c-65 0 -105 41 -105 105c0 102 116 181 237 181c167 0 226 -52 226 -131c0 -85 -81 -147 -230 -173v-3c96 -6 272 -39 272 -169z" />
    <glyph glyph-name="four" unicode="4" horiz-adv-x="592" 
d="M574 101h-5c-3 32 -20 72 -34 91c-12 15 -25 28 -81 28h-27v-89c0 -28 -1 -59 4 -80c6 -27 14 -33 35 -42c8 -3 28 -3 35 -4v-5h-344v5c10 0 30 2 35 4c21 8 29 15 35 42c5 21 4 52 4 80v90h-226v19l283 416h138c2 0 3 -1 3 -3c0 -15 -2 -36 -2 -62v-356h27
c56 0 69 12 81 27c14 19 31 60 34 92h5v-253zM231 235v306h-1l-208 -306h209z" />
    <glyph glyph-name="five" unicode="5" horiz-adv-x="486" 
d="M468 691l7 -1c-21 -135 -89 -227 -226 -227c-38 0 -82 5 -112 15l-36 -142l2 -1c28 38 88 70 148 70c158 0 225 -85 225 -193c0 -159 -127 -227 -283 -227c-118 0 -193 64 -193 143c0 54 35 92 89 92c59 0 84 -46 84 -93c0 -20 -6 -30 -16 -52c-8 -18 -19 -36 -19 -49
c0 -7 1 -12 3 -15c5 -9 13 -10 19 -10c61 0 99 96 99 218c0 113 -42 142 -92 142c-31 0 -57 -26 -72 -71l-18 3l85 362h6c33 -27 92 -41 155 -41c93 0 135 46 145 77z" />
    <glyph glyph-name="six" unicode="6" horiz-adv-x="593" 
d="M568 563c0 -57 -29 -93 -80 -93c-57 0 -86 41 -86 82c0 7 2 26 4 36s14 38 14 49c0 10 -4 21 -23 21c-67 0 -134 -137 -139 -260h4c26 21 58 32 93 32c126 0 197 -75 197 -222c0 -142 -118 -223 -251 -223c-160 0 -271 122 -271 280c0 286 196 406 370 406
c130 0 168 -65 168 -108zM300 408c-28 0 -52 -31 -52 -204s24 -202 52 -202s53 29 53 202s-25 204 -53 204z" />
    <glyph glyph-name="seven" unicode="7" horiz-adv-x="493" 
d="M508 650c-138 -185 -187 -410 -214 -544c-16 -79 -59 -121 -130 -121c-64 0 -97 39 -97 116c0 64 53 111 102 150c79 63 157 156 211 217v2h-211c-19 0 -52 -1 -76 -12c-28 -13 -50 -37 -66 -87h-7l71 321h7c9 -18 23 -36 64 -36h346v-6z" />
    <glyph glyph-name="eight" unicode="8" horiz-adv-x="565" 
d="M545 223c0 -143 -102 -238 -255 -238c-152 0 -250 57 -250 166c0 76 93 127 138 141c-61 42 -120 89 -120 185c0 123 103 194 231 194c165 0 219 -68 219 -132c0 -45 -46 -100 -96 -122c71 -42 133 -97 133 -194zM423 93c0 67 -56 106 -188 167c-13 7 -26 13 -40 21
c-45 -28 -61 -88 -61 -130c0 -101 77 -150 155 -150c71 0 134 30 134 92zM423 533c0 73 -44 123 -131 123c-62 0 -95 -33 -95 -72c0 -67 84 -103 177 -147l19 -10c19 25 30 62 30 106z" />
    <glyph glyph-name="nine" unicode="9" horiz-adv-x="567" 
d="M542 391c0 -274 -199 -406 -335 -406c-128 0 -180 62 -180 127c0 48 34 74 71 74c57 0 86 -40 86 -81c0 -7 -2 -27 -4 -37s-14 -37 -14 -48c0 -10 4 -22 23 -22c67 0 120 137 125 260h-4c-26 -21 -58 -32 -93 -32c-126 0 -197 76 -197 223c0 142 118 222 251 222
c160 0 271 -122 271 -280zM272 654c-28 0 -53 -29 -53 -202s25 -204 53 -204s52 31 52 204s-24 202 -52 202z" />
    <glyph glyph-name="colon" unicode=":" horiz-adv-x="207" 
d="M182 377c0 -43 -33 -79 -79 -79s-78 36 -78 79s33 79 78 79s79 -36 79 -79zM182 65c0 -43 -33 -79 -79 -79s-78 36 -78 79s33 79 78 79s79 -36 79 -79z" />
    <glyph glyph-name="semicolon" unicode=";" horiz-adv-x="218" 
d="M187 377c0 -43 -33 -79 -79 -79s-78 36 -78 79s33 79 78 79s79 -36 79 -79zM188 51c0 -81 -61 -161 -156 -187l-5 13c53 17 88 64 88 90c0 10 -3 18 -11 21c-45 5 -78 31 -78 80c0 45 33 76 74 76c56 0 88 -31 88 -93z" />
    <glyph glyph-name="less" unicode="&#x3c;" horiz-adv-x="348" 
d="M308 105l-298 143v28l298 143v-37l-253 -120l253 -120v-37z" />
    <glyph glyph-name="equal" unicode="=" horiz-adv-x="415" 
d="M380 321h-345v33h345v-33zM380 163h-345v33h345v-33z" />
    <glyph glyph-name="greater" unicode="&#x3e;" horiz-adv-x="348" 
d="M338 248l-298 -143v37l253 120l-253 120v37l298 -143v-28z" />
    <glyph glyph-name="question" unicode="?" horiz-adv-x="444" 
d="M439 463c0 -127 -121 -179 -222 -179c-40 0 -77 10 -97 27h-2v-106h-18v123l10 13c19 -23 27 -23 55 -23c52 0 74 85 74 214c0 64 -9 122 -41 122c-21 0 -13 -20 -23 -73c-9 -46 -27 -96 -84 -96c-40 0 -71 32 -71 71c0 67 76 115 179 115c133 0 240 -61 240 -208z
M191 66c0 -43 -33 -79 -79 -79s-78 36 -78 79s33 79 78 79s79 -36 79 -79z" />
    <glyph glyph-name="at" unicode="@" horiz-adv-x="779" 
d="M764 278c0 -146 -119 -292 -262 -292c-39 0 -79 23 -79 71c0 18 2 30 5 46h-3c-11 -29 -21 -52 -39 -71c-30 -32 -56 -46 -98 -46c-77 0 -103 50 -103 131c0 132 137 279 271 279c44 0 53 -19 56 -40h5c8 14 13 21 21 32h135l-66 -203c-28 -84 -32 -89 -32 -114
c0 -17 9 -26 17 -26c76 0 158 120 158 233c0 155 -114 262 -300 262c-225 0 -357 -170 -357 -392c0 -211 118 -313 315 -313c123 0 239 55 300 90l5 -11c-57 -38 -194 -91 -305 -91c-221 0 -388 123 -388 325c0 295 225 404 429 404c206 0 315 -120 315 -274zM500 341
c0 22 -5 35 -18 35c-9 0 -23 -4 -49 -52c-41 -76 -93 -201 -93 -245c0 -25 9 -35 21 -35c7 0 15 6 23 14c6 8 13 18 19 29c25 43 32 61 44 97c8 24 16 44 23 61c18 42 30 65 30 96z" />
    <glyph glyph-name="A" unicode="A" horiz-adv-x="642" 
d="M662 0h-403v6c10 1 29 6 38 10c17 7 33 24 33 50s-5 50 -17 85l-9 26h-169l-12 -34c-8 -22 -15 -49 -15 -68c0 -30 13 -51 32 -59c16 -7 30 -9 40 -10v-6h-205v6c13 2 28 6 42 15s28 23 43 44c14 20 28 47 41 82l194 515h60l150 -432c27 -77 50 -136 73 -173
c16 -25 33 -37 47 -42c12 -4 27 -8 37 -9v-6zM298 193l-75 215h-3l-79 -215h157z" />
    <glyph glyph-name="B" unicode="B" horiz-adv-x="674" 
d="M652 184c0 -134 -112 -184 -230 -184h-402v4c6 0 16 2 28 4c22 6 38 18 48 56c4 16 6 38 6 64v400c0 28 -2 51 -6 67c-10 36 -26 48 -48 54c-8 2 -22 4 -28 4v4h390c108 0 212 -29 212 -149c0 -82 -36 -122 -119 -142c-22 -5 -47 -9 -75 -12v-2c138 -8 224 -68 224 -168z
M448 184c0 44 -6 94 -34 122c-24 24 -58 38 -98 38h-16v-220c0 -26 2 -52 10 -72c8 -22 28 -36 50 -36h10c19 0 34 8 46 21c23 28 32 81 32 147zM438 510c0 100 -38 133 -82 133h-12c-20 0 -32 -10 -40 -30c-4 -12 -4 -26 -4 -48v-205h24c44 0 72 6 90 30
c20 28 24 86 24 120z" />
    <glyph glyph-name="C" unicode="C" horiz-adv-x="640" 
d="M625 208c-30 -127 -138 -223 -255 -223c-157 0 -341 75 -341 344s193 342 350 342c83 0 156 -29 182 -78h4l33 60h5v-227h-7c-31 137 -93 229 -209 229c-39 0 -76 -16 -95 -41c-34 -44 -52 -132 -52 -285s25 -217 81 -268c19 -17 53 -30 101 -30c74 0 147 61 186 185z
" />
    <glyph glyph-name="D" unicode="D" horiz-adv-x="729" 
d="M397 657c70 0 119 -14 160 -39c88 -53 142 -161 142 -287s-47 -242 -137 -291c-41 -22 -90 -40 -148 -40h-394v5c6 0 16 2 29 5c22 5 37 17 47 53c4 16 7 40 7 67v397c0 27 -3 51 -7 67c-10 36 -25 48 -47 53c-13 3 -23 5 -29 5v5h377zM371 641h-26c-20 0 -33 -8 -41 -28
c-4 -12 -4 -28 -4 -50v-439c0 -26 2 -52 10 -72c8 -21 28 -36 50 -36h8c21 0 63 7 85 52c24 49 39 110 39 263s-13 207 -37 256c-22 45 -56 54 -84 54z" />
    <glyph glyph-name="E" unicode="E" horiz-adv-x="632" 
d="M592 280l-6 -280h-566v4c6 0 16 3 28 6c22 6 38 16 48 54c4 16 6 38 6 66v399c0 26 -2 50 -6 66c-10 36 -26 46 -48 52c-12 3 -22 4 -28 4v6h550l16 -240h-6c-20 44 -54 108 -94 160c-28 36 -70 64 -110 64h-8c-26 0 -42 -6 -54 -22c-12 -18 -18 -44 -18 -76v-194h34
c58 0 62 2 82 22c26 24 58 90 62 122h6v-303h-6c-4 32 -32 94 -58 116c-18 14 -28 27 -86 27h-34v-201c0 -36 3 -66 18 -86s36 -30 64 -30h16c26 0 60 18 86 56c40 56 84 142 106 208h6z" />
    <glyph glyph-name="F" unicode="F" horiz-adv-x="592" 
d="M582 397h-6c-18 44 -52 122 -92 174c-28 36 -68 70 -108 70h-8c-26 0 -42 -4 -54 -22c-12 -16 -16 -44 -16 -74v-186h4c58 0 68 2 88 22c24 24 54 90 56 122h6v-305h-6c-2 32 -27 96 -52 117c-17 15 -34 26 -92 26h-4v-211c0 -26 5 -50 10 -66c11 -35 26 -49 48 -54
c12 -3 24 -4 30 -4v-6h-364v6c6 0 14 1 28 4c22 5 38 18 48 54c4 16 6 40 6 66v397c0 28 -4 50 -8 66c-10 36 -26 48 -48 54c-12 2 -22 4 -28 4v6h542z" />
    <glyph glyph-name="G" unicode="G" horiz-adv-x="684" 
d="M674 301c-6 -1 -24 -4 -32 -7c-12 -5 -29 -18 -38 -44c-5 -14 -8 -37 -8 -59v-149c-21 -9 -55 -21 -109 -36c-36 -10 -103 -21 -147 -21c-171 0 -311 131 -311 344c0 210 146 341 327 341c92 0 170 -52 187 -78h4l28 47h6v-241h-4c-13 69 -34 118 -67 166s-73 84 -134 84
c-33 0 -64 -12 -88 -47c-31 -45 -51 -129 -51 -272c0 -129 11 -208 29 -257c22 -57 53 -71 87 -71c40 0 48 14 61 31c15 20 18 60 18 79v60c0 52 -5 74 -15 91c-13 21 -24 27 -45 34c-9 3 -18 4 -27 5v6h329v-6z" />
    <glyph glyph-name="H" unicode="H" horiz-adv-x="778" 
d="M20 0v6c6 0 14 0 28 4c22 4 38 16 48 54c4 16 6 38 6 66v397c0 28 -2 52 -6 68c-10 36 -26 47 -48 52c-14 3 -22 6 -28 6v4h354v-4c-6 0 -14 -2 -24 -6c-20 -8 -36 -16 -46 -52c-4 -16 -6 -40 -6 -68v-185h182v185c0 28 -2 52 -6 68c-10 36 -25 44 -45 52
c-8 4 -19 6 -25 6v4h354v-4c-6 0 -16 -3 -28 -6c-22 -6 -38 -16 -48 -52c-4 -16 -6 -40 -6 -68v-397c0 -28 2 -50 6 -66c10 -38 26 -48 48 -54c12 -3 22 -4 28 -4v-6h-354v6c4 0 12 1 22 4c22 7 38 16 48 54c4 16 6 38 6 66v188h-182v-188c0 -28 2 -50 6 -66
c10 -38 26 -48 46 -54c12 -4 20 -4 24 -4v-6h-354z" />
    <glyph glyph-name="I" unicode="I" horiz-adv-x="402" 
d="M382 0h-362v6c6 0 16 1 28 4c22 6 37 17 48 54c5 16 6 38 6 66v399c0 26 -1 50 -6 66c-11 35 -26 46 -48 52c-12 3 -17 5 -28 6v4h362v-4l-28 -6c-22 -6 -38 -16 -48 -52c-4 -16 -6 -40 -6 -66v-399c0 -28 2 -50 6 -66c10 -38 26 -48 48 -54c12 -3 22 -4 28 -4v-6z" />
    <glyph glyph-name="J" unicode="J" horiz-adv-x="510" 
d="M506 652c-6 0 -15 -1 -28 -5c-23 -7 -38 -17 -48 -53c-4 -16 -6 -40 -6 -67v-286c0 -105 -31 -169 -73 -205s-103 -50 -176 -50c-50 0 -104 13 -131 37c-31 28 -54 67 -54 113c0 79 43 105 97 105c60 0 93 -35 93 -87c0 -19 -6 -45 -13 -65c-9 -25 -20 -43 -20 -51
c0 -23 10 -33 28 -33c22 0 36 10 42 34c5 20 10 71 10 105v383c0 27 -2 51 -6 67c-10 36 -27 48 -49 53c-13 3 -22 5 -28 5v5h362v-5z" />
    <glyph glyph-name="K" unicode="K" horiz-adv-x="710" 
d="M678 657v-4c-22 -4 -56 -16 -78 -30c-28 -18 -47 -34 -88 -84l-122 -146v-4c83 -9 138 -34 173 -67c38 -35 57 -109 65 -160c14 -88 30 -122 52 -138c14 -10 36 -18 50 -20v-4h-260c-16 18 -36 66 -42 132c-6 64 1 122 -26 168c-9 16 -23 22 -47 22c-13 0 -33 -8 -43 -18
l-14 -14v-160c0 -28 2 -50 6 -66c10 -38 26 -48 46 -54c12 -4 20 -4 24 -4v-6h-354v6c6 0 16 1 28 4c22 6 38 16 48 54c4 16 6 38 6 66v397c0 28 -2 52 -6 68c-10 36 -24 43 -48 52c-12 4 -22 6 -28 6v4h354v-4c-8 -1 -14 -2 -24 -6c-20 -8 -36 -16 -46 -52
c-4 -16 -6 -40 -6 -68v-213l160 195c40 49 52 73 52 94c0 24 -10 36 -26 42c-10 4 -22 6 -36 8v4h230z" />
    <glyph glyph-name="L" unicode="L" horiz-adv-x="624" 
d="M592 260l-6 -260h-566v6c10 0 24 3 34 6c21 6 37 20 44 42c13 38 14 108 14 180v190c0 72 -2 143 -14 179c-8 24 -25 38 -46 44c-10 3 -19 5 -30 6v4h378v-4c-8 -2 -20 -3 -30 -6c-21 -6 -38 -20 -46 -44c-12 -36 -16 -107 -16 -179v-236c0 -56 4 -90 10 -112
c6 -20 14 -36 26 -44c18 -12 30 -16 44 -16h14c31 0 50 18 72 50c35 51 93 153 112 194h6z" />
    <glyph glyph-name="M" unicode="M" horiz-adv-x="816" 
d="M796 0h-362v4c6 0 14 1 28 4c22 5 38 18 48 56c4 16 6 38 6 66v415h-4l-148 -547h-54l-174 527h-4v-353c0 -64 11 -96 20 -120c9 -22 26 -36 42 -42l34 -6v-4h-208v4l34 6c16 6 33 20 42 42c9 24 18 56 18 120v271c0 72 -4 128 -16 158c-8 22 -27 39 -48 45
c-10 3 -15 3 -28 5v6h292l110 -356h4l96 356h272v-6c-6 0 -16 -1 -30 -4c-20 -5 -38 -16 -46 -52c-4 -16 -8 -40 -8 -66v-399c0 -28 4 -50 8 -66c8 -38 26 -52 46 -56c14 -3 24 -4 30 -4v-4z" />
    <glyph glyph-name="N" unicode="N" horiz-adv-x="690" 
d="M690 651c-14 0 -24 -3 -34 -6c-18 -5 -33 -20 -42 -42c-9 -24 -18 -55 -18 -121v-484h-58l-378 517h-4v-343c0 -64 9 -96 18 -120c9 -22 26 -37 44 -42c10 -3 20 -4 34 -6v-4h-210v4c14 2 24 3 34 6c18 5 35 20 44 42c9 24 18 56 18 120v280c0 64 -10 117 -22 141
c-12 22 -30 38 -62 50c-10 4 -26 8 -34 8v6h290l264 -377h2v202c0 66 -8 97 -16 121c-10 22 -28 37 -46 42c-10 3 -18 6 -32 6v6h208v-6z" />
    <glyph glyph-name="O" unicode="O" horiz-adv-x="706" 
d="M676 329c0 -217 -127 -343 -324 -343c-196 0 -323 126 -323 343c0 216 127 341 323 341c197 0 324 -125 324 -341zM466 329c0 193 -27 279 -63 312c-14 12 -34 14 -51 14c-16 0 -36 -2 -50 -14c-36 -33 -63 -119 -63 -312c0 -194 27 -282 63 -314c14 -12 34 -14 50 -14
c17 0 37 2 51 14c36 32 63 120 63 314z" />
    <glyph glyph-name="P" unicode="P" horiz-adv-x="674" 
d="M664 475c0 -61 -32 -122 -78 -148c-43 -24 -103 -45 -227 -45c-17 0 -30 2 -50 5v-53c0 -72 3 -143 15 -180c8 -24 25 -37 46 -44c9 -3 28 -5 37 -6v-4h-387v5c9 1 22 2 31 5c21 7 38 22 46 45c12 37 15 107 15 179v190c0 71 -3 141 -15 178c-8 23 -25 37 -46 44
c-9 3 -22 4 -31 5v6h383c170 0 261 -52 261 -182zM460 478c0 110 -34 162 -86 162c-15 0 -24 -3 -36 -9c-15 -8 -21 -22 -25 -39c-3 -17 -4 -33 -4 -70v-216c18 -5 29 -8 48 -8c46 0 63 9 80 40c16 31 23 107 23 140z" />
    <glyph glyph-name="Q" unicode="Q" horiz-adv-x="703" 
d="M703 -125c0 -44 -10 -91 -33 -130c-27 -45 -82 -77 -151 -77c-84 0 -136 50 -179 102c-45 54 -102 149 -143 149c-21 0 -38 -17 -38 -33s17 -27 23 -34c12 -12 19 -23 19 -40c0 -32 -20 -74 -64 -74c-46 0 -73 35 -73 76c0 83 120 123 145 133c20 9 75 26 116 36
c-181 11 -296 136 -296 343c0 217 126 344 323 344s324 -127 324 -344c0 -201 -109 -324 -282 -341c-70 -16 -167 -42 -189 -53v-5c30 9 90 19 101 19c79 0 120 -15 173 -46c66 -39 104 -72 139 -74c37 -2 62 22 75 53zM352 655c-16 0 -36 -1 -50 -14
c-36 -32 -63 -122 -63 -315s27 -282 63 -314c14 -13 34 -14 50 -14c17 0 36 1 50 14c37 32 63 121 63 314s-26 283 -63 315c-14 13 -33 14 -50 14z" />
    <glyph glyph-name="R" unicode="R" horiz-adv-x="713" 
d="M723 0h-256c-16 26 -34 78 -38 135c-5 68 -10 116 -33 150c-20 29 -41 28 -79 28h-18v-183c0 -27 5 -50 9 -66c9 -37 26 -49 47 -54c13 -3 25 -5 31 -5v-5h-366v5c7 0 16 2 29 5c21 5 39 17 48 54c4 16 5 39 5 66v397c0 27 -3 50 -7 66c-10 36 -26 48 -48 53
c-13 3 -21 5 -27 5v6h374c131 0 246 -36 246 -166c0 -73 -42 -129 -102 -152c-26 -10 -49 -20 -82 -19v-2c27 -4 82 -14 106 -31c31 -22 63 -56 72 -114c12 -82 27 -133 49 -155c9 -9 31 -13 40 -14v-4zM352 641h-9c-17 0 -29 -7 -37 -21c-6 -12 -7 -33 -7 -49v-239h31
c33 0 57 10 69 33c16 30 21 91 21 133c0 91 -19 143 -68 143z" />
    <glyph glyph-name="S" unicode="S" horiz-adv-x="564" 
d="M544 203c0 -147 -118 -216 -264 -216c-70 0 -159 38 -182 69h-4l-38 -55h-8l-3 244h10c31 -111 119 -242 228 -242c70 0 101 41 101 95c0 47 -13 88 -128 133c-94 36 -216 99 -216 240c0 125 123 199 248 199c62 0 112 -27 135 -58h3l44 42h8l10 -225h-8
c-11 45 -28 93 -52 133c-32 52 -75 90 -135 90c-74 0 -99 -40 -99 -78c0 -89 63 -106 137 -137c102 -42 213 -91 213 -234z" />
    <glyph glyph-name="T" unicode="T" horiz-adv-x="605" 
d="M595 405h-7c-24 44 -52 105 -74 145c-30 56 -65 90 -104 90h-8l-1 -510c0 -27 3 -50 7 -66c10 -37 26 -50 47 -55c13 -3 22 -4 28 -4v-5h-360v5c6 0 14 1 27 4c22 5 39 18 49 55c4 16 6 39 6 66v510h-12c-38 0 -62 -24 -99 -84c-27 -45 -53 -107 -76 -151h-8l17 252h551z
" />
    <glyph glyph-name="U" unicode="U" horiz-adv-x="685" 
d="M680 652c-14 -1 -24 -3 -34 -6c-15 -4 -35 -18 -44 -41c-10 -24 -18 -54 -18 -119v-265c0 -56 -8 -106 -29 -145c-22 -41 -82 -89 -196 -89c-104 0 -190 24 -236 105c-19 32 -31 119 -31 155v280c0 28 -2 51 -6 67c-10 36 -27 47 -48 53c-11 3 -22 5 -28 5v5h362v-6
c-6 0 -15 -1 -28 -4c-22 -5 -38 -17 -48 -53c-4 -16 -6 -39 -6 -67v-333c0 -36 5 -65 16 -89c23 -54 65 -77 127 -77c51 0 91 31 111 81c11 31 17 72 17 108v269c0 65 -7 95 -17 119c-8 21 -27 36 -44 41c-10 3 -20 5 -34 6v5h214v-5z" />
    <glyph glyph-name="V" unicode="V" horiz-adv-x="634" 
d="M654 652c-16 -2 -30 -7 -43 -15c-12 -7 -25 -18 -35 -37c-10 -18 -23 -46 -38 -89l-178 -514h-82l-152 457c-29 86 -42 118 -63 152c-13 22 -30 34 -50 40c-12 4 -28 5 -38 6v5h412v-5c-10 -1 -29 -6 -37 -10c-17 -7 -32 -28 -32 -54s4 -44 16 -81l85 -257h3l93 262
c10 29 15 55 15 74c0 25 -15 49 -31 56c-14 6 -30 9 -41 10v5h196v-5z" />
    <glyph glyph-name="W" unicode="W" horiz-adv-x="993" 
d="M248 -3l-149 515c-20 69 -37 94 -84 125c-11 7 -35 14 -45 15v5h387v-5c-24 -4 -49 -19 -49 -64c0 -26 8 -50 16 -81l65 -247h3l96 288c-12 33 -24 59 -43 77c-14 14 -33 22 -54 27v5h386v-5c-35 -4 -69 -19 -69 -64c0 -26 8 -50 16 -81l65 -247h3l83 252
c10 29 15 55 15 74c0 46 -36 65 -72 66v5h200v-5c-34 -7 -57 -18 -78 -52c-11 -18 -23 -46 -38 -89l-172 -514h-82l-147 508l-171 -508h-82z" />
    <glyph glyph-name="X" unicode="X" horiz-adv-x="654" 
d="M304 135l-56 114l-65 -99c-25 -35 -37 -66 -37 -92c0 -22 10 -39 28 -46c9 -4 25 -7 35 -8v-4h-203v4c10 1 23 4 34 11c21 13 30 22 40 33c16 17 52 66 79 104l80 117l-127 263c-34 70 -52 99 -127 120v5h402v-5c-43 -2 -61 -24 -61 -56c0 -21 8 -47 21 -74l56 -116
l61 101c22 37 37 66 37 92c0 38 -30 52 -63 54v4h203v-4c-69 -12 -99 -75 -153 -148l-75 -119l124 -255c34 -70 73 -109 127 -126v-5h-402v5c50 3 68 21 68 48c0 23 -12 52 -26 82z" />
    <glyph glyph-name="Y" unicode="Y" horiz-adv-x="675" 
d="M675 652c-56 -11 -100 -47 -141 -145l-91 -216v-161c0 -27 2 -50 7 -67c9 -36 25 -48 47 -53c13 -3 22 -4 28 -4v-6h-362v6c6 0 16 1 29 4c21 5 39 17 48 53c4 17 6 40 6 67v141l-123 274c-27 61 -59 99 -113 107v5h377v-5c-10 -1 -23 -3 -33 -7
c-31 -14 -35 -56 -10 -118l83 -209h5l80 189c16 38 28 69 28 94c0 22 -13 36 -31 43c-10 4 -24 7 -34 8v5h200v-5z" />
    <glyph glyph-name="Z" unicode="Z" horiz-adv-x="614" 
d="M604 657v-5l-332 -629h48c91 0 129 28 165 70c57 65 77 109 109 159h8l-33 -252h-534v6l357 626h-56c-69 0 -133 -33 -159 -52c-35 -25 -81 -91 -113 -142h-8l26 219h522z" />
    <glyph glyph-name="bracketleft" unicode="[" horiz-adv-x="347" 
d="M357 -68c0 -47 -34 -81 -43 -86h-8c5 12 7 20 7 29c0 39 -30 53 -63 53c-74 0 -143 -24 -200 -51v798c57 -27 126 -51 200 -51c33 0 63 14 63 53c0 9 -2 16 -7 28h8c9 -5 43 -38 43 -85c0 -75 -41 -120 -116 -120c-72 0 -122 68 -167 153v-755c45 85 95 154 167 154
c75 0 116 -45 116 -120z" />
    <glyph glyph-name="backslash" unicode="\" horiz-adv-x="285" 
d="M348 -86l-34 -17l-377 777l34 15z" />
    <glyph glyph-name="bracketright" unicode="]" horiz-adv-x="347" 
d="M297 -123c-57 27 -126 51 -200 51c-33 0 -63 -14 -63 -53c0 -9 2 -17 7 -29h-8c-9 5 -43 39 -43 86c0 75 41 120 116 120c72 0 122 -69 167 -154v755c-45 -85 -95 -153 -167 -153c-75 0 -116 45 -116 120c0 47 34 80 43 85h8c-5 -12 -7 -19 -7 -28c0 -39 30 -53 63 -53
c74 0 143 24 200 51v-798z" />
    <glyph glyph-name="asciicircum" unicode="^" horiz-adv-x="338" 
d="M23 406l137 251h18l137 -251h-37l-109 204l-109 -204h-37z" />
    <glyph glyph-name="underscore" unicode="_" horiz-adv-x="295" 
d="M300 -165h-305v36h305v-36z" />
    <glyph glyph-name="grave" unicode="`" horiz-adv-x="300" 
d="M270 489l-4 -5c-71 23 -149 47 -187 63c-31 13 -56 39 -56 71c0 44 31 62 67 62c25 0 47 -10 71 -43z" />
    <glyph glyph-name="a" unicode="a" horiz-adv-x="499" 
d="M502 25c-11 -13 -58 -34 -128 -34c-44 0 -71 13 -87 34c-8 11 -13 28 -14 43h-2c-11 -63 -67 -77 -128 -77c-59 0 -118 34 -118 121c0 38 13 55 27 72c22 26 81 38 104 44c96 24 110 52 110 93c0 27 1 54 1 69c0 45 -11 54 -46 54c-30 0 -39 -13 -39 -22
c0 -13 10 -39 10 -64c0 -50 -21 -73 -69 -73c-44 0 -71 21 -71 64c0 17 7 35 16 47c26 35 94 60 165 60c135 0 204 -42 204 -145c0 -33 1 -141 1 -203c0 -45 2 -63 10 -73c6 -8 13 -12 27 -12c10 0 18 2 27 7v-5zM265 273c-8 -13 -14 -17 -25 -26c-14 -11 -21 -20 -29 -42
c-7 -19 -8 -62 -8 -96c0 -58 13 -77 32 -77c13 0 29 29 29 75z" />
    <glyph glyph-name="b" unicode="b" horiz-adv-x="545" 
d="M525 224c0 -155 -91 -233 -224 -233c-48 0 -123 15 -156 66h-2l-94 -58h-4c3 29 3 63 3 88v511c0 12 -1 32 -3 41c-5 21 -13 28 -26 34c-9 4 -15 5 -24 5v6h226c4 0 7 -2 7 -8c0 -19 -3 -74 -3 -117v-177h3c19 51 63 74 120 74c86 0 177 -54 177 -232zM289 427
c-14 0 -31 -11 -45 -40c-13 -28 -19 -65 -19 -118v-117c0 -48 5 -81 12 -104c12 -36 31 -44 47 -44c46 0 55 101 55 217c0 138 -9 206 -50 206z" />
    <glyph glyph-name="c" unicode="c" horiz-adv-x="452" 
d="M442 143c-21 -78 -73 -152 -178 -152c-83 0 -142 25 -177 62c-40 43 -67 102 -67 174c0 150 118 229 254 229c61 0 110 -18 130 -38c21 -20 30 -38 30 -68c0 -40 -35 -61 -66 -61c-47 0 -65 32 -70 85s-12 71 -23 71c-16 0 -32 -8 -42 -25c-19 -33 -27 -108 -27 -186
c0 -89 9 -144 28 -184c11 -23 33 -34 55 -34c78 0 119 69 142 132z" />
    <glyph glyph-name="d" unicode="d" horiz-adv-x="571" 
d="M556 -1c-17 0 -226 -3 -231 -3c-2 0 -4 2 -4 5c0 6 1 19 1 27v50h-1c-19 -56 -54 -87 -116 -87c-98 0 -185 76 -185 231c0 143 83 234 191 234c60 0 91 -31 106 -69h2v212c0 12 -1 31 -3 40c-5 21 -13 29 -26 35c-9 4 -15 5 -24 5v5h228c3 0 5 -1 5 -5
c0 -38 -3 -163 -3 -214v-352c0 -18 -1 -46 1 -62c2 -18 11 -31 23 -39c10 -7 27 -8 36 -9v-4zM319 151v152c0 32 -6 59 -16 82s-29 42 -43 42c-44 0 -54 -89 -54 -207s0 -200 45 -200c34 0 68 55 68 131z" />
    <glyph glyph-name="e" unicode="e" horiz-adv-x="465" 
d="M454 238h-246c0 -143 24 -178 46 -202c9 -9 36 -20 53 -20c69 0 119 80 133 132l10 -3c-18 -79 -77 -154 -196 -154c-46 0 -96 13 -138 39c-55 35 -96 96 -96 193c0 170 129 233 237 233c135 0 200 -94 198 -199c0 -6 0 -13 -1 -19zM302 284c0 65 -3 123 -19 148
c-6 9 -13 12 -23 12s-22 -3 -30 -13c-16 -21 -21 -71 -22 -179h68c19 0 26 6 26 32z" />
    <glyph glyph-name="f" unicode="f" horiz-adv-x="341" 
d="M445 592c0 -35 -22 -68 -70 -68c-35 0 -55 17 -68 42c-7 12 -11 26 -15 40c-4 16 -7 36 -9 49c-2 15 -5 21 -13 21c-12 0 -18 -5 -25 -22s-10 -49 -10 -96v-111h88v-22h-88v-294c0 -28 1 -76 5 -89c7 -24 17 -29 26 -33c8 -3 28 -4 35 -5v-4h-299v4c7 1 17 2 25 5
c9 4 19 9 26 33c4 13 5 61 5 89v294h-57v22h56v21c0 90 45 155 72 175c32 24 67 46 142 46c60 0 102 -8 128 -21c38 -19 46 -49 46 -76z" />
    <glyph glyph-name="g" unicode="g" horiz-adv-x="513" 
d="M530 406c0 -38 -19 -61 -59 -61c-35 0 -50 28 -56 45c-9 26 -12 31 -19 31s-15 -9 -15 -31c0 -3 7 -16 15 -32c11 -21 14 -37 14 -57c0 -109 -102 -152 -195 -152c-28 0 -54 5 -78 14c-15 -7 -21 -16 -21 -29c0 -14 16 -29 38 -29c28 0 128 10 156 10
c116 0 164 -53 164 -142c0 -120 -135 -186 -278 -186c-115 0 -189 22 -189 89c0 54 66 72 115 78v2c-54 7 -97 40 -97 98c0 66 64 103 100 113c-1 0 0 3 0 3c-51 21 -106 61 -106 132c0 111 103 154 196 154c51 0 114 -18 148 -50h5c10 33 40 58 87 58c59 0 75 -27 75 -58z
M215 447c-40 0 -41 -33 -41 -145s1 -144 41 -144s42 31 42 144s-2 145 -42 145zM373 -113c0 35 -16 77 -78 77c-31 0 -110 -8 -139 -11c-46 -5 -81 -28 -81 -76c0 -46 41 -80 120 -80c128 0 178 53 178 90z" />
    <glyph glyph-name="h" unicode="h" horiz-adv-x="593" 
d="M583 0h-279v4c9 0 15 2 22 5c12 6 19 20 22 43c1 13 2 30 2 51v249c0 27 -2 45 -13 55c-7 7 -16 10 -26 10c-21 0 -58 -28 -65 -111c-2 -25 -3 -50 -3 -80v-123c0 -21 0 -38 2 -51c3 -23 10 -37 22 -43c7 -3 13 -5 22 -5v-4h-279v4c7 1 17 1 25 4c8 4 17 10 25 34
c4 13 6 60 6 89v437c0 18 0 54 -3 70c-3 19 -8 28 -17 34s-21 7 -30 8v4h222c5 0 6 -1 6 -6c0 -6 -3 -55 -3 -114v-215h3c8 35 23 59 43 75c26 22 68 32 99 32c45 0 93 -17 113 -45c19 -26 28 -59 28 -104v-176c0 -29 1 -76 5 -89c7 -24 18 -30 26 -34c8 -3 18 -3 25 -4v-4z
" />
    <glyph glyph-name="i" unicode="i" 
d="M300 0h-288v4c7 1 17 1 24 4c9 4 19 10 26 34c4 13 5 60 5 89v199c0 18 0 53 -2 69c-3 19 -9 27 -18 34c-9 6 -20 8 -30 8v6h223c4 0 6 -2 6 -7c0 -16 -1 -37 -1 -63v-246c0 -29 1 -76 5 -89c7 -24 17 -30 26 -34c8 -3 17 -3 24 -4v-4zM245 584c0 -47 -37 -87 -88 -87
s-87 40 -87 87c0 48 37 89 87 89c49 0 88 -41 88 -89z" />
    <glyph glyph-name="j" unicode="j" horiz-adv-x="289" 
d="M237 584c0 -47 -36 -87 -88 -87c-51 0 -86 40 -86 87c0 48 37 89 86 89c50 0 88 -41 88 -89zM239 440c0 -16 -1 -37 -1 -63v-360c0 -102 -50 -150 -88 -180c-19 -15 -68 -50 -154 -50c-34 0 -76 10 -105 27c-29 18 -51 55 -51 95c0 45 35 88 91 88c53 0 84 -38 84 -86
c0 -14 -8 -38 -15 -55c-5 -12 -10 -27 -10 -34c0 -10 4 -20 16 -20c23 0 33 17 41 40c7 21 13 60 13 96v392c0 18 -1 53 -3 69c-3 19 -7 27 -17 34c-9 6 -21 8 -30 8v6h223c4 0 6 -2 6 -7z" />
    <glyph glyph-name="k" unicode="k" horiz-adv-x="577" 
d="M242 684c2 -1 3 -3 3 -7c0 0 -2 -43 -2 -113v-347l109 113c27 28 44 55 44 74c0 12 -2 22 -16 29c-8 4 -25 8 -34 9v5h187v-5c-17 -3 -39 -11 -62 -25c-11 -7 -50 -35 -77 -66l-35 -41c93 -18 123 -69 135 -126c12 -61 32 -135 50 -158c11 -14 27 -18 52 -21v-5h-218
c-24 20 -47 82 -56 155c-6 50 -18 67 -43 82l-36 -40v-66c0 -28 1 -75 5 -88c7 -24 17 -31 26 -35c8 -3 21 -3 28 -4v-4h-292v4c7 1 16 1 24 4c9 4 19 11 26 35c4 13 5 60 5 88v437c0 18 -1 53 -3 69c-3 19 -8 28 -17 34s-21 7 -30 8v5h227z" />
    <glyph glyph-name="l" unicode="l" horiz-adv-x="322" 
d="M302 0h-292v4c7 1 16 1 24 4c9 4 19 10 26 34c4 13 5 60 5 89v436c0 18 -1 54 -3 70c-3 19 -7 28 -17 34c-8 6 -21 7 -30 8v5h223c4 0 6 -2 6 -7c0 -15 -1 -36 -1 -62v-484c0 -29 1 -76 5 -89c7 -24 17 -30 26 -34c8 -3 21 -3 28 -4v-4z" />
    <glyph glyph-name="m" unicode="m" horiz-adv-x="880" 
d="M870 0h-279v4c9 0 15 2 22 5c12 6 19 20 22 43c1 13 2 30 2 51v249c0 27 -2 45 -13 55c-7 7 -16 10 -27 10c-20 0 -57 -28 -64 -111c-2 -21 -3 -42 -3 -66v-124c0 -21 1 -51 3 -64c3 -23 10 -37 21 -43c7 -3 13 -5 23 -5v-4h-271v4c10 0 15 2 22 5c13 6 19 20 22 43
c2 13 2 30 2 51v249c0 27 -2 45 -12 55c-7 7 -17 10 -27 10c-21 0 -59 -28 -65 -111c-2 -25 -3 -50 -3 -80v-123c0 -21 2 -38 3 -51c3 -23 9 -37 21 -43c7 -3 13 -5 22 -5v-4h-279v4c7 1 16 1 24 4c9 4 19 10 26 34c4 13 5 60 5 89v204c0 18 0 48 -2 64c-3 19 -8 28 -18 34
c-8 7 -19 8 -29 8v6h222c4 0 7 -2 7 -7c0 -16 -4 -65 -4 -91h3c8 35 23 59 43 75c27 22 77 32 108 32c45 0 80 -11 101 -32c18 -18 28 -43 31 -75h1c8 35 24 59 44 75c26 22 65 32 96 32c45 0 97 -11 116 -40c18 -27 28 -59 28 -104v-181c0 -29 1 -76 5 -89
c7 -24 18 -30 26 -34c8 -3 18 -3 25 -4v-4z" />
    <glyph glyph-name="n" unicode="n" horiz-adv-x="595" 
d="M585 0h-279v4c9 0 15 2 22 5c12 6 19 20 22 43c1 13 3 30 3 51v249c0 27 -4 45 -14 55c-7 7 -15 10 -26 10c-20 0 -58 -28 -65 -111c-2 -25 -3 -50 -3 -80v-123c0 -21 0 -38 2 -51c3 -23 9 -37 22 -43c7 -3 13 -5 23 -5v-4h-280v4c6 1 17 1 24 4c9 4 18 10 26 34
c4 13 5 60 5 89v199c0 18 0 53 -2 69c-3 19 -8 28 -17 34c-9 7 -21 8 -30 8v6h222c5 0 6 -2 6 -7c0 -16 -2 -65 -2 -91h2c8 35 23 59 42 75c27 22 75 32 106 32c44 0 84 -10 107 -47c17 -28 28 -63 28 -108v-170c0 -29 2 -76 6 -89c7 -24 17 -30 26 -34c8 -3 17 -3 24 -4v-4
z" />
    <glyph glyph-name="o" unicode="o" horiz-adv-x="516" 
d="M496 223c0 -149 -116 -232 -238 -232s-238 83 -238 232s118 233 238 233s238 -84 238 -233zM311 223c0 128 -2 187 -21 211c-7 9 -22 12 -32 12c-11 0 -25 -3 -32 -12c-19 -24 -22 -83 -22 -211s4 -187 22 -210c8 -10 21 -13 32 -13c10 0 24 3 32 13c18 23 21 82 21 210z
" />
    <glyph glyph-name="p" unicode="p" horiz-adv-x="583" 
d="M563 223c0 -140 -88 -232 -206 -232c-53 0 -71 9 -103 28h-3v-101c0 -28 -1 -59 4 -80c6 -27 14 -33 35 -42c8 -3 14 -3 21 -4v-5h-298v5c7 1 13 1 21 4c21 9 29 15 35 42c5 21 4 52 4 80v407c0 18 0 53 -2 69c-2 18 -7 24 -18 34c-12 10 -35 14 -44 15v4h233
c4 0 8 -2 8 -9v-64h4c14 50 65 82 111 82c115 0 198 -80 198 -233zM379 230c0 160 -6 191 -57 191c-49 0 -71 -67 -71 -147v-114c0 -43 8 -99 26 -120s32 -29 51 -29c45 0 51 59 51 219z" />
    <glyph glyph-name="q" unicode="q" horiz-adv-x="556" 
d="M556 -213h-301v5c7 1 18 1 26 4c21 9 29 15 35 42c5 21 4 52 4 80v127h-4c-24 -36 -59 -55 -106 -55c-103 0 -190 69 -190 232c0 159 103 234 215 234c84 0 137 -52 152 -90h3l102 90h13c-4 -28 -9 -96 -9 -121v-417c0 -28 -1 -59 4 -80c6 -27 14 -33 35 -42
c8 -3 14 -3 21 -4v-5zM320 200v104c0 26 0 68 -16 107c-6 16 -14 28 -39 28c-45 0 -58 -101 -58 -217c0 -138 9 -206 51 -206c21 0 33 12 46 42c8 20 16 50 16 142z" />
    <glyph glyph-name="r" unicode="r" horiz-adv-x="439" 
d="M454 366c0 -54 -39 -79 -72 -79c-44 0 -62 22 -73 58c-8 28 -9 40 -20 40c-12 0 -34 -41 -42 -120c-1 -8 -2 -41 -2 -66v-95c0 -21 1 -38 2 -51c3 -24 17 -38 29 -44c7 -3 20 -5 30 -5v-4h-294v4c7 1 17 1 25 4c8 4 19 10 26 35c4 13 5 60 5 88v199c0 18 -1 54 -3 70
c-3 19 -8 28 -17 34s-21 7 -30 8v5h223c4 0 5 -2 5 -7c0 -15 -1 -81 -1 -107h1c10 48 35 84 52 98c16 13 36 25 71 25c56 0 85 -25 85 -90z" />
    <glyph glyph-name="s" unicode="s" horiz-adv-x="403" 
d="M388 150c0 -92 -87 -159 -183 -159c-41 0 -99 18 -128 44h-4l-43 -33h-3l-7 165h8c17 -89 99 -168 177 -168c48 0 55 19 55 59c0 42 -42 63 -97 84c-50 19 -145 62 -145 167c0 92 80 147 182 147c36 0 99 -19 117 -42h3l25 31h6l3 -136h-7c-9 38 -27 72 -53 97
c-25 24 -56 39 -91 39s-59 -14 -59 -53c0 -37 40 -60 99 -81c76 -27 145 -63 145 -161z" />
    <glyph glyph-name="t" unicode="t" horiz-adv-x="344" 
d="M340 75l4 -4c-12 -29 -57 -80 -138 -80c-48 0 -91 15 -111 34c-34 31 -42 69 -42 110c0 20 3 241 4 290c-17 2 -42 1 -57 3v12c111 24 188 101 214 183h22v-176h89v-22h-89l-4 -309c0 -36 4 -75 50 -75c26 0 46 14 58 34z" />
    <glyph glyph-name="u" unicode="u" horiz-adv-x="571" 
d="M566 -1l-220 -5h-2c-3 1 -4 3 -4 7v97h-3c-8 -35 -22 -60 -42 -77c-27 -22 -59 -30 -90 -30c-45 0 -82 9 -104 28c-33 30 -40 73 -40 118l-1 179c0 28 -1 76 -5 89c-8 24 -15 29 -24 33c-7 3 -18 4 -26 5v4h225c5 0 8 -1 8 -8c0 0 -1 -59 -1 -118v-219
c0 -27 4 -50 14 -60c7 -7 16 -11 26 -11c21 0 51 34 58 117c2 24 3 43 3 74v121c0 22 0 39 -2 52c-3 23 -9 37 -21 43c-7 3 -22 5 -31 5v4h225c6 0 7 -4 7 -8c0 0 -1 -52 -1 -110v-214c0 -18 1 -52 3 -68c3 -20 8 -29 17 -35s21 -7 31 -8v-5z" />
    <glyph glyph-name="v" unicode="v" horiz-adv-x="448" 
d="M468 443c-9 -1 -18 -3 -28 -9c-8 -5 -14 -11 -22 -23c-9 -14 -18 -34 -31 -77l-106 -336h-91l-117 314c-12 32 -28 70 -34 84c-9 21 -19 30 -31 38c-9 6 -20 8 -28 9v4h318v-4c-9 -1 -25 -3 -33 -8c-10 -6 -15 -19 -15 -35c0 -18 3 -37 12 -67l53 -174h1l55 170
c12 39 15 56 15 77c0 16 -6 23 -16 29c-9 5 -21 7 -29 8v4h127v-4z" />
    <glyph glyph-name="w" unicode="w" horiz-adv-x="725" 
d="M745 443c-9 -1 -18 -3 -28 -9c-8 -5 -16 -11 -24 -23c-10 -14 -16 -34 -29 -77l-102 -337h-99l-102 331l-100 -331h-99l-97 315c-12 39 -23 70 -32 86c-11 20 -13 28 -25 36c-9 6 -19 8 -28 9v4h300v-4c-8 -1 -16 -3 -23 -8c-8 -7 -15 -19 -15 -35c0 -18 4 -34 12 -67
l41 -175h1l58 194c-7 20 -12 36 -18 47c-11 21 -15 28 -25 36c-8 7 -11 7 -19 8v4h299v-4c-9 -1 -24 -3 -33 -8c-9 -6 -15 -19 -15 -35c0 -18 4 -34 12 -67l41 -175h1l51 171c12 39 16 56 16 77c0 16 -7 23 -17 29c-9 5 -21 7 -29 8v4h127v-4z" />
    <glyph glyph-name="x" unicode="x" horiz-adv-x="482" 
d="M511 0h-297v5c13 1 18 2 24 6c8 5 12 10 12 26c0 10 -4 21 -14 37l-43 84l-33 -59c-14 -25 -27 -33 -27 -54c0 -16 4 -25 14 -31c9 -5 11 -9 29 -9v-5h-147v5c9 1 27 6 36 12c32 20 42 27 82 93l38 62l-97 188c-18 36 -40 60 -55 70c-9 6 -22 11 -31 12v5h297v-5
c-13 -1 -17 -2 -23 -6c-8 -5 -13 -10 -13 -26c0 -10 6 -26 15 -42l36 -67l23 41c14 25 27 38 27 59c0 16 -1 25 -10 32c-8 6 -13 9 -31 9v5h145v-5c-9 -1 -27 -7 -36 -13c-32 -20 -42 -32 -82 -98l-29 -48l104 -201c18 -34 40 -55 55 -65c9 -6 22 -11 31 -12v-5z" />
    <glyph glyph-name="y" unicode="y" horiz-adv-x="466" 
d="M498 443c-29 -3 -53 -23 -64 -42c-8 -13 -15 -27 -29 -66l-168 -439c-15 -42 -33 -62 -52 -80c-25 -23 -53 -29 -82 -29c-55 0 -100 25 -100 88c0 32 23 63 70 63c36 0 59 -20 71 -57c8 -25 3 -46 21 -46c14 0 35 19 55 72l12 31c3 8 0 19 -3 27l-139 347
c-17 46 -33 71 -41 85c-10 19 -24 28 -36 36c-9 6 -24 9 -33 10v4h322v-4c-9 -1 -19 -3 -27 -8c-10 -6 -16 -20 -16 -33c0 -18 8 -33 19 -68l49 -159h1l55 154c12 34 16 55 16 75c0 16 -8 26 -18 32c-9 5 -20 6 -29 7v4h146v-4z" />
    <glyph glyph-name="z" unicode="z" horiz-adv-x="455" 
d="M439 191l-30 -191h-407v4l212 424v4h-81c-28 0 -47 -19 -60 -40l-67 -133h-8l27 188h386v-7l-209 -424v-5h63c36 0 73 33 88 57l78 123h8z" />
    <glyph glyph-name="braceleft" unicode="{" horiz-adv-x="366" 
d="M376 -145c-166 0 -288 25 -288 158c0 38 27 129 27 155c0 45 -5 59 -24 77c-13 12 -43 13 -66 13v15c23 0 53 1 66 13c19 18 24 32 24 77c0 26 -27 117 -27 155c0 133 122 158 288 158v-11c-61 0 -96 -29 -96 -119c0 -33 20 -108 20 -133c0 -86 -45 -146 -208 -146v-3
c163 0 208 -60 208 -146c0 -25 -20 -100 -20 -133c0 -90 35 -119 96 -119v-11z" />
    <glyph glyph-name="bar" unicode="|" horiz-adv-x="143" 
d="M88 -99h-33v786h33v-786z" />
    <glyph glyph-name="braceright" unicode="}" horiz-adv-x="366" 
d="M341 258c-23 0 -53 -1 -66 -13c-19 -18 -24 -32 -24 -77c0 -26 27 -117 27 -155c0 -133 -122 -158 -288 -158v11c61 0 96 29 96 119c0 33 -20 108 -20 133c0 86 45 146 208 146v3c-163 0 -208 60 -208 146c0 25 20 100 20 133c0 90 -35 119 -96 119v11
c166 0 288 -25 288 -158c0 -38 -27 -129 -27 -155c0 -45 5 -59 24 -77c13 -12 43 -13 66 -13v-15z" />
    <glyph glyph-name="asciitilde" unicode="~" horiz-adv-x="352" 
d="M338 345c-13 -65 -38 -147 -117 -147c-37 0 -107 25 -120 25c-39 0 -60 -12 -70 -50l-17 -1c13 65 38 147 117 147c25 0 107 -25 118 -25c39 0 63 16 72 50z" />
    <glyph glyph-name="Adieresis" unicode="&#xc4;" horiz-adv-x="642" 
d="M662 0h-403v6c10 1 29 6 38 10c17 7 33 24 33 50s-5 50 -17 85l-9 26h-169l-12 -34c-8 -22 -15 -49 -15 -68c0 -30 13 -51 32 -59c16 -7 30 -9 40 -10v-6h-205v6c13 2 28 6 42 15s28 23 43 44c14 20 28 47 41 82l194 515h60l150 -432c27 -77 50 -136 73 -173
c16 -25 33 -37 47 -42c12 -4 27 -8 37 -9v-6zM298 193l-75 215h-3l-79 -215h157zM204 854c43 0 77 -36 77 -78c0 -41 -33 -76 -77 -76c-45 0 -76 35 -76 76c0 42 33 78 76 78zM440 854c43 0 77 -36 77 -78c0 -41 -33 -76 -77 -76c-45 0 -76 35 -76 76c0 42 33 78 76 78z" />
    <glyph glyph-name="Aring" unicode="&#xc5;" horiz-adv-x="642" 
d="M662 0h-403v6c10 1 29 6 38 10c17 7 33 24 33 50s-5 50 -17 85l-9 26h-169l-12 -34c-8 -22 -15 -49 -15 -68c0 -30 13 -51 32 -59c16 -7 30 -9 40 -10v-6h-205v6c13 2 28 6 42 15s28 23 43 44c14 20 28 47 41 82l194 515h60l150 -432c27 -77 50 -136 73 -173
c16 -25 33 -37 47 -42c12 -4 27 -8 37 -9v-6zM298 193l-75 215h-3l-79 -215h157zM417 794c1 -51 -46 -93 -96 -93c-53 0 -96 39 -96 93s42 93 95 93c54 0 96 -38 97 -93zM382 793c0 38 -25 64 -63 64c-37 0 -62 -26 -62 -63c0 -36 25 -62 61 -62c38 0 64 22 64 61z" />
    <glyph glyph-name="Ccedilla" unicode="&#xc7;" horiz-adv-x="640" 
d="M451 -118c0 -63 -63 -83 -121 -83c-24 0 -62 9 -78 18l4 7c13 -5 34 -9 53 -9c35 0 55 20 55 65c0 40 -18 56 -36 56c-8 0 -17 -1 -24 -10l-13 4l17 60c-140 18 -279 105 -279 339c0 269 193 342 350 342c83 0 156 -29 182 -78h4l33 60h5v-227h-7
c-31 137 -93 229 -209 229c-39 0 -76 -16 -95 -41c-34 -44 -52 -132 -52 -285s25 -217 81 -268c19 -17 53 -30 101 -30c74 0 147 61 186 185l17 -8c-30 -127 -138 -223 -255 -223c-16 0 -31 1 -47 3l-13 -47c8 7 37 15 51 15c60 0 90 -23 90 -74z" />
    <glyph glyph-name="Eacute" unicode="&#xc9;" horiz-adv-x="632" 
d="M592 280l-6 -280h-566v4c6 0 16 3 28 6c22 6 38 16 48 54c4 16 6 38 6 66v399c0 26 -2 50 -6 66c-10 36 -26 46 -48 52c-12 3 -22 4 -28 4v6h550l16 -240h-6c-20 44 -54 108 -94 160c-28 36 -70 64 -110 64h-8c-26 0 -42 -6 -54 -22c-12 -18 -18 -44 -18 -76v-194h34
c58 0 62 2 82 22c26 24 58 90 62 122h6v-303h-6c-4 32 -32 94 -58 116c-18 14 -28 27 -86 27h-34v-201c0 -36 3 -66 18 -86s36 -30 64 -30h16c26 0 60 18 86 56c40 56 84 142 106 208h6zM210 691l-4 6c59 56 103 93 134 124c29 28 48 33 75 33c30 0 59 -24 59 -69
c0 -37 -36 -55 -69 -62c-41 -9 -121 -21 -195 -32z" />
    <glyph glyph-name="Ntilde" unicode="&#xd1;" horiz-adv-x="690" 
d="M690 651c-14 0 -24 -3 -34 -6c-18 -5 -33 -20 -42 -42c-9 -24 -18 -55 -18 -121v-484h-58l-378 517h-4v-343c0 -64 9 -96 18 -120c9 -22 26 -37 44 -42c10 -3 20 -4 34 -6v-4h-210v4c14 2 24 3 34 6c18 5 35 20 44 42c9 24 18 56 18 120v280c0 64 -10 117 -22 141
c-12 22 -30 38 -62 50c-10 4 -26 8 -34 8v6h290l264 -377h2v202c0 66 -8 97 -16 121c-10 22 -28 37 -46 42c-10 3 -18 6 -32 6v6h208v-6zM575 848c-13 -65 -36 -138 -115 -138c-37 0 -137 30 -150 30c-29 0 -50 -3 -60 -41l-15 3c13 65 36 133 115 133c25 0 137 -30 148 -30
c35 0 53 11 62 45z" />
    <glyph glyph-name="Odieresis" unicode="&#xd6;" horiz-adv-x="706" 
d="M676 329c0 -217 -127 -343 -324 -343c-196 0 -323 126 -323 343c0 216 127 341 323 341c197 0 324 -125 324 -341zM466 329c0 193 -27 279 -63 312c-14 12 -34 14 -51 14c-16 0 -36 -2 -50 -14c-36 -33 -63 -119 -63 -312c0 -194 27 -282 63 -314c14 -12 34 -14 50 -14
c17 0 37 2 51 14c36 32 63 120 63 314zM234 854c43 0 77 -36 77 -78c0 -41 -33 -76 -77 -76c-45 0 -76 35 -76 76c0 42 33 78 76 78zM470 854c43 0 77 -36 77 -78c0 -41 -33 -76 -77 -76c-45 0 -76 35 -76 76c0 42 33 78 76 78z" />
    <glyph glyph-name="Udieresis" unicode="&#xdc;" horiz-adv-x="685" 
d="M680 652c-14 -1 -24 -3 -34 -6c-15 -4 -35 -18 -44 -41c-10 -24 -18 -54 -18 -119v-265c0 -56 -8 -106 -29 -145c-22 -41 -82 -89 -196 -89c-104 0 -190 24 -236 105c-19 32 -31 119 -31 155v280c0 28 -2 51 -6 67c-10 36 -27 47 -48 53c-11 3 -22 5 -28 5v5h362v-6
c-6 0 -15 -1 -28 -4c-22 -5 -38 -17 -48 -53c-4 -16 -6 -39 -6 -67v-333c0 -36 5 -65 16 -89c23 -54 65 -77 127 -77c51 0 91 31 111 81c11 31 17 72 17 108v269c0 65 -7 95 -17 119c-8 21 -27 36 -44 41c-10 3 -20 5 -34 6v5h214v-5zM274 854c43 0 77 -36 77 -78
c0 -41 -33 -76 -77 -76c-45 0 -76 35 -76 76c0 42 33 78 76 78zM510 854c43 0 77 -36 77 -78c0 -41 -33 -76 -77 -76c-45 0 -76 35 -76 76c0 42 33 78 76 78z" />
    <glyph glyph-name="aacute" unicode="&#xe1;" horiz-adv-x="499" 
d="M502 25c-11 -13 -58 -34 -128 -34c-44 0 -71 13 -87 34c-8 11 -13 28 -14 43h-2c-11 -63 -67 -77 -128 -77c-59 0 -118 34 -118 121c0 38 13 55 27 72c22 26 81 38 104 44c96 24 110 52 110 93c0 27 1 54 1 69c0 45 -11 54 -46 54c-30 0 -39 -13 -39 -22
c0 -13 10 -39 10 -64c0 -50 -21 -73 -69 -73c-44 0 -71 21 -71 64c0 17 7 35 16 47c26 35 94 60 165 60c135 0 204 -42 204 -145c0 -33 1 -141 1 -203c0 -45 2 -63 10 -73c6 -8 13 -12 27 -12c10 0 18 2 27 7v-5zM265 273c-8 -13 -14 -17 -25 -26c-14 -11 -21 -20 -29 -42
c-7 -19 -8 -62 -8 -96c0 -58 13 -77 32 -77c13 0 29 29 29 75zM389 609c0 -25 -23 -49 -54 -62c-38 -16 -111 -41 -187 -63l-4 5c49 67 82 115 109 148c24 29 41 43 66 43c48 0 70 -21 70 -71z" />
    <glyph glyph-name="agrave" unicode="&#xe0;" horiz-adv-x="499" 
d="M502 25c-11 -13 -58 -34 -128 -34c-44 0 -71 13 -87 34c-8 11 -13 28 -14 43h-2c-11 -63 -67 -77 -128 -77c-59 0 -118 34 -118 121c0 38 13 55 27 72c22 26 81 38 104 44c96 24 110 52 110 93c0 27 1 54 1 69c0 45 -11 54 -46 54c-30 0 -39 -13 -39 -22
c0 -13 10 -39 10 -64c0 -50 -21 -73 -69 -73c-44 0 -71 21 -71 64c0 17 7 35 16 47c26 35 94 60 165 60c135 0 204 -42 204 -145c0 -33 1 -141 1 -203c0 -45 2 -63 10 -73c6 -8 13 -12 27 -12c10 0 18 2 27 7v-5zM265 273c-8 -13 -14 -17 -25 -26c-14 -11 -21 -20 -29 -42
c-7 -19 -8 -62 -8 -96c0 -58 13 -77 32 -77c13 0 29 29 29 75zM359 489l-4 -5c-71 23 -149 47 -187 63c-31 13 -56 39 -56 71c0 44 31 62 67 62c25 0 47 -10 71 -43z" />
    <glyph glyph-name="acircumflex" unicode="&#xe2;" horiz-adv-x="499" 
d="M502 25c-11 -13 -58 -34 -128 -34c-44 0 -71 13 -87 34c-8 11 -13 28 -14 43h-2c-11 -63 -67 -77 -128 -77c-59 0 -118 34 -118 121c0 38 13 55 27 72c22 26 81 38 104 44c96 24 110 52 110 93c0 27 1 54 1 69c0 45 -11 54 -46 54c-30 0 -39 -13 -39 -22
c0 -13 10 -39 10 -64c0 -50 -21 -73 -69 -73c-44 0 -71 21 -71 64c0 17 7 35 16 47c26 35 94 60 165 60c135 0 204 -42 204 -145c0 -33 1 -141 1 -203c0 -45 2 -63 10 -73c6 -8 13 -12 27 -12c10 0 18 2 27 7v-5zM265 273c-8 -13 -14 -17 -25 -26c-14 -11 -21 -20 -29 -42
c-7 -19 -8 -62 -8 -96c0 -58 13 -77 32 -77c13 0 29 29 29 75zM388 487l-7 -5l-141 89l-141 -89l-7 5l110 181h76z" />
    <glyph glyph-name="adieresis" unicode="&#xe4;" horiz-adv-x="499" 
d="M502 25c-11 -13 -58 -34 -128 -34c-44 0 -71 13 -87 34c-8 11 -13 28 -14 43h-2c-11 -63 -67 -77 -128 -77c-59 0 -118 34 -118 121c0 38 13 55 27 72c22 26 81 38 104 44c96 24 110 52 110 93c0 27 1 54 1 69c0 45 -11 54 -46 54c-30 0 -39 -13 -39 -22
c0 -13 10 -39 10 -64c0 -50 -21 -73 -69 -73c-44 0 -71 21 -71 64c0 17 7 35 16 47c26 35 94 60 165 60c135 0 204 -42 204 -145c0 -33 1 -141 1 -203c0 -45 2 -63 10 -73c6 -8 13 -12 27 -12c10 0 18 2 27 7v-5zM265 273c-8 -13 -14 -17 -25 -26c-14 -11 -21 -20 -29 -42
c-7 -19 -8 -62 -8 -96c0 -58 13 -77 32 -77c13 0 29 29 29 75zM150 650c43 0 77 -36 77 -78c0 -41 -33 -76 -77 -76c-45 0 -76 35 -76 76c0 42 33 78 76 78zM346 650c43 0 77 -36 77 -78c0 -41 -33 -76 -77 -76c-45 0 -76 35 -76 76c0 42 33 78 76 78z" />
    <glyph glyph-name="atilde" unicode="&#xe3;" horiz-adv-x="499" 
d="M502 25c-11 -13 -58 -34 -128 -34c-44 0 -71 13 -87 34c-8 11 -13 28 -14 43h-2c-11 -63 -67 -77 -128 -77c-59 0 -118 34 -118 121c0 38 13 55 27 72c22 26 81 38 104 44c96 24 110 52 110 93c0 27 1 54 1 69c0 45 -11 54 -46 54c-30 0 -39 -13 -39 -22
c0 -13 10 -39 10 -64c0 -50 -21 -73 -69 -73c-44 0 -71 21 -71 64c0 17 7 35 16 47c26 35 94 60 165 60c135 0 204 -42 204 -145c0 -33 1 -141 1 -203c0 -45 2 -63 10 -73c6 -8 13 -12 27 -12c10 0 18 2 27 7v-5zM265 273c-8 -13 -14 -17 -25 -26c-14 -11 -21 -20 -29 -42
c-7 -19 -8 -62 -8 -96c0 -58 13 -77 32 -77c13 0 29 29 29 75zM412 671c-13 -65 -38 -147 -117 -147c-37 0 -107 25 -120 25c-39 0 -60 -12 -70 -50l-17 -1c13 65 38 147 117 147c25 0 107 -25 118 -25c39 0 63 16 72 50z" />
    <glyph glyph-name="aring" unicode="&#xe5;" horiz-adv-x="499" 
d="M502 25c-11 -13 -58 -34 -128 -34c-44 0 -71 13 -87 34c-8 11 -13 28 -14 43h-2c-11 -63 -67 -77 -128 -77c-59 0 -118 34 -118 121c0 38 13 55 27 72c22 26 81 38 104 44c96 24 110 52 110 93c0 27 1 54 1 69c0 45 -11 54 -46 54c-30 0 -39 -13 -39 -22
c0 -13 10 -39 10 -64c0 -50 -21 -73 -69 -73c-44 0 -71 21 -71 64c0 17 7 35 16 47c26 35 94 60 165 60c135 0 204 -42 204 -145c0 -33 1 -141 1 -203c0 -45 2 -63 10 -73c6 -8 13 -12 27 -12c10 0 18 2 27 7v-5zM265 273c-8 -13 -14 -17 -25 -26c-14 -11 -21 -20 -29 -42
c-7 -19 -8 -62 -8 -96c0 -58 13 -77 32 -77c13 0 29 29 29 75zM335 584c1 -51 -46 -93 -96 -93c-53 0 -96 39 -96 93s42 93 95 93c54 0 96 -38 97 -93zM300 583c0 38 -25 64 -63 64c-37 0 -62 -26 -62 -63c0 -36 25 -62 61 -62c38 0 64 22 64 61z" />
    <glyph glyph-name="ccedilla" unicode="&#xe7;" horiz-adv-x="452" 
d="M351 -108c0 -63 -63 -83 -121 -83c-24 0 -62 9 -78 18l4 7c13 -5 34 -9 53 -9c35 0 55 20 55 65c0 40 -18 56 -36 56c-8 0 -17 -1 -24 -10l-13 4l15 56c-53 8 -93 29 -119 57c-40 43 -67 102 -67 174c0 150 118 229 254 229c61 0 110 -18 130 -38c21 -20 30 -38 30 -68
c0 -40 -35 -61 -66 -61c-47 0 -65 32 -70 85s-12 71 -23 71c-16 0 -32 -8 -42 -25c-19 -33 -27 -108 -27 -186c0 -89 9 -144 28 -184c11 -23 33 -34 55 -34c78 0 119 69 142 132l11 -5c-21 -78 -73 -152 -178 -152c-16 0 -30 1 -44 3l-10 -43c8 7 37 15 51 15
c60 0 90 -23 90 -74z" />
    <glyph glyph-name="eacute" unicode="&#xe9;" horiz-adv-x="465" 
d="M454 238h-246c0 -143 24 -178 46 -202c9 -9 36 -20 53 -20c69 0 119 80 133 132l10 -3c-18 -79 -77 -154 -196 -154c-46 0 -96 13 -138 39c-55 35 -96 96 -96 193c0 170 129 233 237 233c135 0 200 -94 198 -199c0 -6 0 -13 -1 -19zM302 284c0 65 -3 123 -19 148
c-6 9 -13 12 -23 12s-22 -3 -30 -13c-16 -21 -21 -71 -22 -179h68c19 0 26 6 26 32zM385 609c0 -25 -23 -49 -54 -62c-38 -16 -111 -41 -187 -63l-4 5c49 67 82 115 109 148c24 29 41 43 66 43c48 0 70 -21 70 -71z" />
    <glyph glyph-name="egrave" unicode="&#xe8;" horiz-adv-x="465" 
d="M454 238h-246c0 -143 24 -178 46 -202c9 -9 36 -20 53 -20c69 0 119 80 133 132l10 -3c-18 -79 -77 -154 -196 -154c-46 0 -96 13 -138 39c-55 35 -96 96 -96 193c0 170 129 233 237 233c135 0 200 -94 198 -199c0 -6 0 -13 -1 -19zM302 284c0 65 -3 123 -19 148
c-6 9 -13 12 -23 12s-22 -3 -30 -13c-16 -21 -21 -71 -22 -179h68c19 0 26 6 26 32zM370 489l-4 -5c-71 23 -149 47 -187 63c-31 13 -56 39 -56 71c0 44 31 62 67 62c25 0 47 -10 71 -43z" />
    <glyph glyph-name="ecircumflex" unicode="&#xea;" horiz-adv-x="465" 
d="M454 238h-246c0 -143 24 -178 46 -202c9 -9 36 -20 53 -20c69 0 119 80 133 132l10 -3c-18 -79 -77 -154 -196 -154c-46 0 -96 13 -138 39c-55 35 -96 96 -96 193c0 170 129 233 237 233c135 0 200 -94 198 -199c0 -6 0 -13 -1 -19zM302 284c0 65 -3 123 -19 148
c-6 9 -13 12 -23 12s-22 -3 -30 -13c-16 -21 -21 -71 -22 -179h68c19 0 26 6 26 32zM397 487l-7 -5l-141 89l-141 -89l-7 5l110 181h76z" />
    <glyph glyph-name="edieresis" unicode="&#xeb;" horiz-adv-x="465" 
d="M454 238h-246c0 -143 24 -178 46 -202c9 -9 36 -20 53 -20c69 0 119 80 133 132l10 -3c-18 -79 -77 -154 -196 -154c-46 0 -96 13 -138 39c-55 35 -96 96 -96 193c0 170 129 233 237 233c135 0 200 -94 198 -199c0 -6 0 -13 -1 -19zM302 284c0 65 -3 123 -19 148
c-6 9 -13 12 -23 12s-22 -3 -30 -13c-16 -21 -21 -71 -22 -179h68c19 0 26 6 26 32zM151 650c43 0 77 -36 77 -78c0 -41 -33 -76 -77 -76c-45 0 -76 35 -76 76c0 42 33 78 76 78zM347 650c43 0 77 -36 77 -78c0 -41 -33 -76 -77 -76c-45 0 -76 35 -76 76c0 42 33 78 76 78z
" />
    <glyph glyph-name="iacute" unicode="&#xed;" 
d="M300 0h-288v4c7 1 17 1 24 4c9 4 19 10 26 34c4 13 5 60 5 89v199c0 18 0 53 -2 69c-3 19 -9 27 -18 34c-9 6 -20 8 -30 8v6h223c4 0 6 -2 6 -7c0 -16 -1 -37 -1 -63v-246c0 -29 1 -76 5 -89c7 -24 17 -30 26 -34c8 -3 17 -3 24 -4v-4zM285 609c0 -25 -23 -49 -54 -62
c-38 -16 -111 -41 -187 -63l-4 5c49 67 82 115 109 148c24 29 41 43 66 43c48 0 70 -21 70 -71z" />
    <glyph glyph-name="igrave" unicode="&#xec;" 
d="M300 0h-288v4c7 1 17 1 24 4c9 4 19 10 26 34c4 13 5 60 5 89v199c0 18 0 53 -2 69c-3 19 -9 27 -18 34c-9 6 -20 8 -30 8v6h223c4 0 6 -2 6 -7c0 -16 -1 -37 -1 -63v-246c0 -29 1 -76 5 -89c7 -24 17 -30 26 -34c8 -3 17 -3 24 -4v-4zM270 489l-4 -5
c-71 23 -149 47 -187 63c-31 13 -56 39 -56 71c0 44 31 62 67 62c25 0 47 -10 71 -43z" />
    <glyph glyph-name="icircumflex" unicode="&#xee;" 
d="M300 0h-288v4c7 1 17 1 24 4c9 4 19 10 26 34c4 13 5 60 5 89v199c0 18 0 53 -2 69c-3 19 -9 27 -18 34c-9 6 -20 8 -30 8v6h223c4 0 6 -2 6 -7c0 -16 -1 -37 -1 -63v-246c0 -29 1 -76 5 -89c7 -24 17 -30 26 -34c8 -3 17 -3 24 -4v-4zM299 487l-7 -5l-141 89l-141 -89
l-7 5l110 181h76z" />
    <glyph glyph-name="idieresis" unicode="&#xef;" 
d="M300 0h-288v4c7 1 17 1 24 4c9 4 19 10 26 34c4 13 5 60 5 89v199c0 18 0 53 -2 69c-3 19 -9 27 -18 34c-9 6 -20 8 -30 8v6h223c4 0 6 -2 6 -7c0 -16 -1 -37 -1 -63v-246c0 -29 1 -76 5 -89c7 -24 17 -30 26 -34c8 -3 17 -3 24 -4v-4zM59 655c43 0 77 -36 77 -78
c0 -41 -33 -76 -77 -76c-45 0 -76 35 -76 76c0 42 33 78 76 78zM245 655c43 0 77 -36 77 -78c0 -41 -33 -76 -77 -76c-45 0 -76 35 -76 76c0 42 33 78 76 78z" />
    <glyph glyph-name="ntilde" unicode="&#xf1;" horiz-adv-x="595" 
d="M585 0h-279v4c9 0 15 2 22 5c12 6 19 20 22 43c1 13 3 30 3 51v249c0 27 -4 45 -14 55c-7 7 -15 10 -26 10c-20 0 -58 -28 -65 -111c-2 -25 -3 -50 -3 -80v-123c0 -21 0 -38 2 -51c3 -23 9 -37 22 -43c7 -3 13 -5 23 -5v-4h-280v4c6 1 17 1 24 4c9 4 18 10 26 34
c4 13 5 60 5 89v199c0 18 0 53 -2 69c-3 19 -8 28 -17 34c-9 7 -21 8 -30 8v6h222c5 0 6 -2 6 -7c0 -16 -2 -65 -2 -91h2c8 35 23 59 42 75c27 22 75 32 106 32c44 0 84 -10 107 -47c17 -28 28 -63 28 -108v-170c0 -29 2 -76 6 -89c7 -24 17 -30 26 -34c8 -3 17 -3 24 -4v-4
zM464 671c-13 -65 -38 -147 -117 -147c-37 0 -107 25 -120 25c-39 0 -60 -12 -70 -50l-17 -1c13 65 38 147 117 147c25 0 107 -25 118 -25c39 0 63 16 72 50z" />
    <glyph glyph-name="oacute" unicode="&#xf3;" horiz-adv-x="516" 
d="M496 223c0 -149 -116 -232 -238 -232s-238 83 -238 232s118 233 238 233s238 -84 238 -233zM311 223c0 128 -2 187 -21 211c-7 9 -22 12 -32 12c-11 0 -25 -3 -32 -12c-19 -24 -22 -83 -22 -211s4 -187 22 -210c8 -10 21 -13 32 -13c10 0 24 3 32 13c18 23 21 82 21 210z
M395 609c0 -25 -23 -49 -54 -62c-38 -16 -111 -41 -187 -63l-4 5c49 67 82 115 109 148c24 29 41 43 66 43c48 0 70 -21 70 -71z" />
    <glyph glyph-name="ograve" unicode="&#xf2;" horiz-adv-x="516" 
d="M496 223c0 -149 -116 -232 -238 -232s-238 83 -238 232s118 233 238 233s238 -84 238 -233zM311 223c0 128 -2 187 -21 211c-7 9 -22 12 -32 12c-11 0 -25 -3 -32 -12c-19 -24 -22 -83 -22 -211s4 -187 22 -210c8 -10 21 -13 32 -13c10 0 24 3 32 13c18 23 21 82 21 210z
M370 489l-4 -5c-71 23 -149 47 -187 63c-31 13 -56 39 -56 71c0 44 31 62 67 62c25 0 47 -10 71 -43z" />
    <glyph glyph-name="ocircumflex" unicode="&#xf4;" horiz-adv-x="516" 
d="M496 223c0 -149 -116 -232 -238 -232s-238 83 -238 232s118 233 238 233s238 -84 238 -233zM311 223c0 128 -2 187 -21 211c-7 9 -22 12 -32 12c-11 0 -25 -3 -32 -12c-19 -24 -22 -83 -22 -211s4 -187 22 -210c8 -10 21 -13 32 -13c10 0 24 3 32 13c18 23 21 82 21 210z
M400 487l-7 -5l-141 89l-141 -89l-7 5l110 181h76z" />
    <glyph glyph-name="odieresis" unicode="&#xf6;" horiz-adv-x="516" 
d="M496 223c0 -149 -116 -232 -238 -232s-238 83 -238 232s118 233 238 233s238 -84 238 -233zM311 223c0 128 -2 187 -21 211c-7 9 -22 12 -32 12c-11 0 -25 -3 -32 -12c-19 -24 -22 -83 -22 -211s4 -187 22 -210c8 -10 21 -13 32 -13c10 0 24 3 32 13c18 23 21 82 21 210z
M167 650c43 0 77 -36 77 -78c0 -41 -33 -76 -77 -76c-45 0 -76 35 -76 76c0 42 33 78 76 78zM363 650c43 0 77 -36 77 -78c0 -41 -33 -76 -77 -76c-45 0 -76 35 -76 76c0 42 33 78 76 78z" />
    <glyph glyph-name="otilde" unicode="&#xf5;" horiz-adv-x="516" 
d="M496 223c0 -149 -116 -232 -238 -232s-238 83 -238 232s118 233 238 233s238 -84 238 -233zM311 223c0 128 -2 187 -21 211c-7 9 -22 12 -32 12c-11 0 -25 -3 -32 -12c-19 -24 -22 -83 -22 -211s4 -187 22 -210c8 -10 21 -13 32 -13c10 0 24 3 32 13c18 23 21 82 21 210z
M434 671c-13 -65 -38 -147 -117 -147c-37 0 -107 25 -120 25c-39 0 -60 -12 -70 -50l-17 -1c13 65 38 147 117 147c25 0 107 -25 118 -25c39 0 63 16 72 50z" />
    <glyph glyph-name="uacute" unicode="&#xfa;" horiz-adv-x="571" 
d="M566 -1l-220 -5h-2c-3 1 -4 3 -4 7v97h-3c-8 -35 -22 -60 -42 -77c-27 -22 -59 -30 -90 -30c-45 0 -82 9 -104 28c-33 30 -40 73 -40 118l-1 179c0 28 -1 76 -5 89c-8 24 -15 29 -24 33c-7 3 -18 4 -26 5v4h225c5 0 8 -1 8 -8c0 0 -1 -59 -1 -118v-219
c0 -27 4 -50 14 -60c7 -7 16 -11 26 -11c21 0 51 34 58 117c2 24 3 43 3 74v121c0 22 0 39 -2 52c-3 23 -9 37 -21 43c-7 3 -22 5 -31 5v4h225c6 0 7 -4 7 -8c0 0 -1 -52 -1 -110v-214c0 -18 1 -52 3 -68c3 -20 8 -29 17 -35s21 -7 31 -8v-5zM425 609c0 -25 -23 -49 -54 -62
c-38 -16 -111 -41 -187 -63l-4 5c49 67 82 115 109 148c24 29 41 43 66 43c48 0 70 -21 70 -71z" />
    <glyph glyph-name="ugrave" unicode="&#xf9;" horiz-adv-x="571" 
d="M566 -1l-220 -5h-2c-3 1 -4 3 -4 7v97h-3c-8 -35 -22 -60 -42 -77c-27 -22 -59 -30 -90 -30c-45 0 -82 9 -104 28c-33 30 -40 73 -40 118l-1 179c0 28 -1 76 -5 89c-8 24 -15 29 -24 33c-7 3 -18 4 -26 5v4h225c5 0 8 -1 8 -8c0 0 -1 -59 -1 -118v-219
c0 -27 4 -50 14 -60c7 -7 16 -11 26 -11c21 0 51 34 58 117c2 24 3 43 3 74v121c0 22 0 39 -2 52c-3 23 -9 37 -21 43c-7 3 -22 5 -31 5v4h225c6 0 7 -4 7 -8c0 0 -1 -52 -1 -110v-214c0 -18 1 -52 3 -68c3 -20 8 -29 17 -35s21 -7 31 -8v-5zM380 489l-4 -5
c-71 23 -149 47 -187 63c-31 13 -56 39 -56 71c0 44 31 62 67 62c25 0 47 -10 71 -43z" />
    <glyph glyph-name="ucircumflex" unicode="&#xfb;" horiz-adv-x="571" 
d="M566 -1l-220 -5h-2c-3 1 -4 3 -4 7v97h-3c-8 -35 -22 -60 -42 -77c-27 -22 -59 -30 -90 -30c-45 0 -82 9 -104 28c-33 30 -40 73 -40 118l-1 179c0 28 -1 76 -5 89c-8 24 -15 29 -24 33c-7 3 -18 4 -26 5v4h225c5 0 8 -1 8 -8c0 0 -1 -59 -1 -118v-219
c0 -27 4 -50 14 -60c7 -7 16 -11 26 -11c21 0 51 34 58 117c2 24 3 43 3 74v121c0 22 0 39 -2 52c-3 23 -9 37 -21 43c-7 3 -22 5 -31 5v4h225c6 0 7 -4 7 -8c0 0 -1 -52 -1 -110v-214c0 -18 1 -52 3 -68c3 -20 8 -29 17 -35s21 -7 31 -8v-5zM430 487l-7 -5l-141 89
l-141 -89l-7 5l110 181h76z" />
    <glyph glyph-name="udieresis" unicode="&#xfc;" horiz-adv-x="571" 
d="M566 -1l-220 -5h-2c-3 1 -4 3 -4 7v97h-3c-8 -35 -22 -60 -42 -77c-27 -22 -59 -30 -90 -30c-45 0 -82 9 -104 28c-33 30 -40 73 -40 118l-1 179c0 28 -1 76 -5 89c-8 24 -15 29 -24 33c-7 3 -18 4 -26 5v4h225c5 0 8 -1 8 -8c0 0 -1 -59 -1 -118v-219
c0 -27 4 -50 14 -60c7 -7 16 -11 26 -11c21 0 51 34 58 117c2 24 3 43 3 74v121c0 22 0 39 -2 52c-3 23 -9 37 -21 43c-7 3 -22 5 -31 5v4h225c6 0 7 -4 7 -8c0 0 -1 -52 -1 -110v-214c0 -18 1 -52 3 -68c3 -20 8 -29 17 -35s21 -7 31 -8v-5zM177 650c43 0 77 -36 77 -78
c0 -41 -33 -76 -77 -76c-45 0 -76 35 -76 76c0 42 33 78 76 78zM373 650c43 0 77 -36 77 -78c0 -41 -33 -76 -77 -76c-45 0 -76 35 -76 76c0 42 33 78 76 78z" />
    <glyph glyph-name="dagger" unicode="&#x2020;" horiz-adv-x="569" 
d="M549 437c0 -36 -39 -76 -76 -76s-48 11 -64 30c-21 24 -26 37 -40 37c-8 0 -12 -6 -14 -24l-57 -659h-27l-57 659c-2 18 -6 24 -14 24c-14 0 -19 -13 -40 -37c-19 -22 -31 -30 -65 -30c-37 0 -75 40 -75 76c0 27 20 41 38 41c25 0 35 -18 35 -40c0 -9 -9 -23 -18 -29
c-10 -7 -16 -11 -16 -17c0 -8 5 -10 11 -10c10 0 33 34 39 42c7 10 14 18 20 24c13 12 24 18 34 18c20 0 30 -13 47 -30c11 -11 24 -29 42 -29c16 0 24 13 24 25c0 9 -14 13 -38 27c-13 7 -29 23 -29 51c0 35 15 49 27 55c22 12 37 10 37 17s-7 9 -14 16c-4 4 -10 13 -10 25
c0 21 17 33 35 33s36 -12 36 -33c0 -12 -6 -21 -10 -25c-7 -7 -14 -9 -14 -16s15 -5 37 -17c12 -6 27 -20 27 -55c0 -28 -16 -44 -29 -51c-24 -14 -39 -18 -39 -27c0 -12 9 -25 25 -25c18 0 30 18 41 29c17 17 28 30 48 30c15 0 32 -13 53 -42c4 -5 14 -19 24 -30
c6 -7 12 -12 16 -12c6 0 11 2 11 10c0 6 -6 10 -16 17c-9 6 -18 20 -18 29c0 22 10 40 35 40c18 0 38 -14 38 -41z" />
    <glyph glyph-name="degree" unicode="&#xb0;" horiz-adv-x="332" 
d="M290 544c0 -77 -62 -128 -125 -128s-125 51 -125 128s62 128 125 128s125 -51 125 -128zM233 544c0 76 -21 115 -68 115s-68 -39 -68 -115s21 -115 68 -115s68 39 68 115z" />
    <glyph glyph-name="cent" unicode="&#xa2;" horiz-adv-x="452" 
d="M442 143c-20 -72 -66 -141 -155 -151v-86h-20v85c-64 0 -134 13 -180 62c-40 43 -67 102 -67 174c0 147 114 225 247 228v78h20v-78c55 -2 98 -19 117 -38c21 -20 30 -38 30 -68c0 -31 -26 -56 -57 -56c-38 0 -62 27 -67 80c-3 36 -13 56 -23 65v-419
c79 0 120 63 144 129zM267 20v423c-13 -2 -25 -9 -34 -24c-19 -33 -27 -107 -27 -185c0 -89 9 -144 28 -184c8 -16 19 -25 33 -30z" />
    <glyph glyph-name="sterling" unicode="&#xa3;" horiz-adv-x="630" 
d="M429 668c105 0 159 -54 159 -125c0 -81 -59 -111 -124 -111c-52 0 -92 36 -97 81l7 4c16 -24 34 -34 57 -34c34 0 66 23 66 77c0 59 -20 92 -63 92c-42 0 -83 -29 -83 -103c0 -77 25 -161 25 -228v-6h124v-21h-125c-4 -38 -16 -72 -31 -102c18 -2 35 -3 48 -3
c113 0 186 16 206 79l12 -4c-11 -133 -68 -290 -224 -290c-57 0 -118 35 -154 64c-39 -34 -86 -56 -141 -56c-77 0 -111 48 -111 101c0 68 56 135 164 135c10 0 26 -2 46 -5c-13 23 -27 49 -37 81h-99v21h93c-6 25 -10 52 -10 84c0 188 181 269 292 269zM69 159
c-39 0 -68 -27 -68 -76c0 -48 31 -83 92 -83c41 0 89 20 118 56l-7 8c-39 47 -86 95 -135 95z" />
    <glyph glyph-name="section" unicode="&#xa7;" horiz-adv-x="480" 
d="M257 670c107 0 176 -34 180 -92c2 -32 -14 -64 -53 -64c-37 0 -55 26 -63 49c-6 17 -7 56 -12 69c-6 15 -19 23 -52 23c-36 0 -62 -38 -62 -72c0 -66 65 -85 132 -115c88 -40 140 -76 140 -173c0 -69 -46 -130 -116 -157c43 -30 76 -70 76 -137c0 -78 -73 -185 -197 -185
c-107 0 -176 34 -180 92c-2 32 14 64 53 64c37 0 55 -26 63 -49c6 -17 7 -56 12 -69c6 -15 19 -23 52 -23c36 0 62 38 62 72c0 66 -59 88 -142 129c-87 43 -120 93 -120 169c0 71 42 127 113 150c-46 31 -83 73 -83 144c0 78 73 175 197 175zM333 198c0 56 -26 69 -108 109
l-50 25c-7 -9 -11 -23 -11 -44c0 -56 34 -64 98 -99l59 -32c7 9 12 22 12 41z" />
    <glyph glyph-name="bullet" unicode="&#x2022;" horiz-adv-x="461" 
d="M376 325c0 -80 -66 -144 -145 -144s-146 64 -146 144c0 79 67 146 146 146c80 0 145 -67 145 -146z" />
    <glyph glyph-name="paragraph" unicode="&#xb6;" horiz-adv-x="515" 
d="M512 641h-82v-792h-22v792h-96v-792h-21v377h-20c-191 0 -251 112 -251 218c0 130 94 213 226 213h266v-16z" />
    <glyph glyph-name="germandbls" unicode="&#xdf;" horiz-adv-x="581" 
d="M571 142c0 -82 -67 -150 -162 -150c-34 0 -67 8 -97 32h-4l-16 -21h-4l-8 128h8c28 -90 63 -131 121 -131c47 0 51 21 51 48c0 31 -48 59 -94 95c-41 32 -90 52 -90 136c0 128 143 140 143 295c0 59 -21 102 -88 102c-84 0 -96 -40 -96 -146v-399c0 -28 1 -73 4 -91
c5 -25 12 -30 24 -36v-4h-261v4c7 1 17 2 25 5c9 4 19 9 26 33c4 13 4 61 4 89v294h-56v22h56v19c0 157 120 223 263 223c114 0 188 -35 188 -114c0 -78 -136 -105 -136 -178c0 -26 25 -38 97 -87c70 -48 102 -70 102 -168z" />
    <glyph glyph-name="registered" unicode="&#xae;" horiz-adv-x="543" 
d="M523 420c0 -137 -114 -250 -251 -250c-138 0 -252 113 -252 250s114 250 252 250c137 0 251 -113 251 -250zM500 420c0 124 -104 230 -228 230c-125 0 -229 -106 -229 -230c0 -125 104 -231 229 -231c124 0 228 106 228 231zM433 289h-123c-9 14 -14 33 -17 58
c-3 27 -1 45 -11 64c-7 14 -17 18 -28 18h-11v-76c0 -16 0 -28 2 -35s4 -12 12 -15c5 -2 18 -4 23 -4v-10h-166v10c5 0 16 2 21 4c8 3 11 8 13 15s2 19 2 35v155c0 16 0 28 -2 35s-5 12 -13 15c-5 2 -16 4 -21 4v10h168c75 0 110 -25 110 -69c0 -36 -31 -63 -97 -66v-1
c59 -5 85 -20 96 -77c7 -38 13 -49 24 -55c3 -2 12 -5 18 -5v-10zM291 503c0 39 -3 55 -32 55h-16v-115h15c29 0 33 21 33 60z" />
    <glyph glyph-name="copyright" unicode="&#xa9;" horiz-adv-x="879" 
d="M854 260c0 -228 -186 -415 -413 -415c-228 0 -416 187 -416 415c0 227 188 413 416 413c227 0 413 -186 413 -413zM831 260c0 219 -181 393 -390 393s-393 -174 -393 -393c0 -222 184 -396 393 -396s390 174 390 396zM628 193c-17 -75 -80 -161 -184 -161
c-82 0 -144 24 -179 61c-40 42 -66 101 -66 172c0 147 117 224 252 224c70 0 116 -25 142 -56h2l22 36h6v-177h-12c-21 86 -43 178 -145 178c-20 0 -44 -11 -58 -34c-19 -32 -25 -88 -25 -165c0 -87 15 -129 34 -168c11 -23 32 -32 54 -32c77 0 121 57 145 127z" />
    <glyph glyph-name="trademark" unicode="&#x2122;" horiz-adv-x="768" 
d="M738 381h-188v12c8 1 15 1 22 3c13 4 16 9 18 16c2 8 4 25 4 60v154h-2l-70 -246h-49l-70 246h-2v-155c0 -35 3 -51 5 -59c2 -7 4 -13 17 -16c6 -1 14 -3 22 -3v-12h-105v12c8 0 16 2 22 3c13 3 16 9 18 16c2 8 5 25 5 60v102c0 35 -3 51 -5 59c-2 7 -5 13 -18 16
c-6 1 -14 3 -22 3v12h155l46 -160h2l45 160h150v-12c-8 0 -16 -2 -22 -3c-13 -3 -15 -9 -17 -16c-2 -8 -5 -24 -5 -59v-103c0 -35 3 -51 5 -59c2 -7 4 -13 17 -16c6 -1 14 -3 22 -3v-12zM319 544h-12c-6 13 -20 44 -41 73c-15 21 -38 36 -48 36h-4v-181c0 -35 3 -51 5 -59
c2 -7 5 -13 18 -16c6 -1 14 -3 22 -3v-12h-188v12c8 0 16 2 22 3c13 3 15 9 17 16c2 8 5 24 5 59v181h-4c-10 0 -33 -15 -48 -36c-21 -29 -35 -60 -41 -73h-12l16 121h277z" />
    <glyph glyph-name="acute" unicode="&#xb4;" horiz-adv-x="299" 
d="M275 609c0 -25 -23 -49 -54 -62c-38 -16 -111 -41 -187 -63l-4 5c49 67 82 115 109 148c24 29 41 43 66 43c48 0 70 -21 70 -71z" />
    <glyph glyph-name="dieresis" unicode="&#xa8;" horiz-adv-x="471" 
d="M137 650c43 0 77 -36 77 -78c0 -41 -33 -76 -77 -76c-45 0 -76 35 -76 76c0 42 33 78 76 78zM333 650c43 0 77 -36 77 -78c0 -41 -33 -76 -77 -76c-45 0 -76 35 -76 76c0 42 33 78 76 78z" />
    <glyph glyph-name="AE" unicode="&#xc6;" horiz-adv-x="933" 
d="M893 280l-6 -280h-566v4c6 0 16 2 28 6c22 4 38 16 48 54c4 16 6 38 6 66v67h-241l-17 -29c-15 -25 -27 -74 -27 -93c0 -30 13 -51 32 -59c16 -7 30 -9 40 -10v-6h-215v6c73 9 115 106 148 163l262 453c-9 14 -21 20 -36 23c-12 4 -22 4 -28 4v8h550l16 -240h-6
c-20 44 -54 108 -94 160c-28 36 -70 64 -110 64h-8c-26 0 -42 -6 -54 -22c-12 -18 -18 -44 -18 -76v-193h34c58 0 62 2 82 22c26 24 58 89 62 121h6v-303h-6c-4 32 -32 94 -58 116c-18 14 -28 28 -86 28h-34v-202c0 -36 3 -66 18 -86s36 -30 64 -30h16c26 0 60 18 86 56
c40 56 84 142 106 208h6zM403 213v314c0 25 -1 52 -9 76l-223 -390h232z" />
    <glyph glyph-name="Oslash" unicode="&#xd8;" horiz-adv-x="706" 
d="M676 329c0 -217 -127 -343 -324 -343c-67 0 -125 13 -173 41l-51 -87l-15 9l51 88c-85 56 -135 156 -135 292c0 216 127 341 323 341c60 0 113 -10 158 -32l46 79l16 -9l-45 -79c94 -54 149 -158 149 -300zM451 534c-11 57 -28 89 -48 107c-14 12 -34 14 -51 14
c-16 0 -36 -2 -50 -14c-36 -33 -63 -119 -63 -312c0 -59 3 -108 7 -149zM466 329c0 73 -4 131 -11 177l-205 -356c11 -75 30 -115 52 -135c14 -12 34 -14 50 -14c17 0 37 2 51 14c36 32 63 120 63 314z" />
    <glyph glyph-name="yen" unicode="&#xa5;" horiz-adv-x="639" 
d="M669 652c-10 -1 -30 -6 -42 -11c-35 -16 -73 -69 -112 -141l-102 -194h160v-26h-160v-69h160v-26h-160v-55c0 -27 2 -50 7 -67c11 -37 37 -55 75 -57v-6h-362v6c35 3 65 8 77 57c4 17 6 40 6 67v55h-150v26h150v69h-150v26h150l-133 239c-32 57 -61 87 -96 100
c-9 3 -18 6 -27 7v5h387v-5c-10 -1 -29 -5 -39 -9c-53 -20 -22 -79 -4 -116l93 -190h5l91 170c27 49 56 117 5 137c-10 4 -33 7 -43 8v5h214v-5z" />
    <glyph glyph-name="ordfeminine" unicode="&#xaa;" horiz-adv-x="465" 
d="M462 273c-10 -12 -53 -31 -118 -31c-40 0 -65 12 -80 31c-7 10 -12 26 -13 40h-1c-11 -58 -62 -71 -118 -71c-55 0 -109 31 -109 111c0 35 12 51 25 66c20 24 74 35 96 41c88 22 101 48 101 86c0 25 1 47 1 61c0 42 -10 50 -42 50c-28 0 -36 -12 -36 -20
c0 -12 9 -34 9 -57c0 -46 -20 -68 -64 -68c-40 0 -65 20 -65 59c0 16 6 33 15 44c24 32 86 55 152 55c124 0 187 -39 187 -134c0 -30 1 -127 1 -185c0 -41 2 -58 10 -67c5 -7 12 -11 24 -11c10 0 17 2 25 7v-7zM244 499c-7 -12 -13 -15 -23 -24c-13 -10 -20 -18 -27 -38
c-6 -18 -7 -55 -7 -87c0 -53 11 -70 28 -70c12 0 28 27 28 70z" />
    <glyph glyph-name="ordmasculine" unicode="&#xba;" horiz-adv-x="475" 
d="M457 455c0 -137 -107 -213 -219 -213c-113 0 -220 76 -220 213c0 138 109 215 220 215c110 0 219 -77 219 -215zM286 455c0 118 -1 170 -19 192c-6 8 -20 11 -29 11c-11 0 -23 -3 -30 -11c-17 -22 -20 -74 -20 -192s4 -169 20 -190c8 -9 19 -12 30 -12c9 0 22 3 29 12
c17 21 19 72 19 190z" />
    <glyph glyph-name="ae" unicode="&#xe6;" horiz-adv-x="712" 
d="M701 238h-246c0 -143 24 -178 46 -202c9 -9 36 -20 53 -20c69 0 119 80 133 132l10 -3c-18 -79 -77 -154 -196 -154c-48 0 -100 14 -143 42c-22 15 -42 34 -57 58c-20 -68 -75 -100 -134 -100s-142 35 -142 122c0 38 13 54 27 71c22 26 81 38 104 44c96 24 110 52 110 93
c0 27 1 54 1 69c0 45 -11 54 -46 54c-17 0 -39 -5 -39 -22c0 -13 10 -39 10 -64c0 -45 -17 -73 -69 -73c-44 0 -71 21 -71 64c0 17 7 35 16 47c33 43 111 60 165 60c63 0 117 -28 136 -60c33 40 97 60 135 60c114 0 196 -77 198 -192c0 -9 0 -17 -1 -26zM549 284
c0 65 -3 123 -19 148c-6 9 -13 12 -23 12s-22 -3 -30 -13c-16 -21 -21 -71 -22 -179h68c19 0 26 6 26 32zM265 273c-8 -13 -14 -17 -25 -26c-14 -11 -21 -20 -29 -42c-7 -19 -8 -61 -8 -95c0 -58 13 -85 32 -85c13 0 29 25 29 71z" />
    <glyph glyph-name="oslash" unicode="&#xf8;" horiz-adv-x="516" 
d="M496 223c0 -149 -116 -232 -238 -232c-24 0 -48 4 -71 10l-34 -93l-16 6l33 92c-85 30 -150 105 -150 217c0 149 118 232 238 232c24 0 49 -3 72 -10l34 93l16 -6l-34 -92c84 -30 150 -105 150 -217zM306 379c-3 27 -8 44 -16 54c-7 9 -22 12 -32 12
c-11 0 -25 -3 -32 -12c-19 -24 -22 -82 -22 -210c0 -49 0 -88 2 -119zM311 223c0 47 -1 85 -2 115l-99 -274c3 -25 8 -41 16 -51s21 -13 32 -13c10 0 24 3 32 13c18 23 21 82 21 210z" />
    <glyph glyph-name="questiondown" unicode="&#xbf;" horiz-adv-x="434" 
d="M400 593c0 -43 -33 -79 -78 -79s-79 36 -79 79s33 79 79 79s78 -36 78 -79zM414 101c0 -67 -76 -115 -179 -115c-44 0 -116 18 -146 39c-51 36 -84 86 -84 169c0 127 111 181 212 181c40 0 77 -10 97 -27h2v106h18v-123l-10 -13c-19 23 -27 24 -55 24
c-52 0 -74 -88 -74 -217c0 -64 10 -122 42 -122c21 0 12 20 22 73c9 46 27 96 84 96c40 0 71 -32 71 -71z" />
    <glyph glyph-name="exclamdown" unicode="&#xa1;" horiz-adv-x="260" 
d="M130 672c46 0 78 -36 78 -79s-33 -80 -78 -80s-79 37 -79 80s33 79 79 79zM240 76c0 -54 -38 -90 -110 -90s-110 36 -110 90c0 48 33 116 61 212c27 94 36 127 44 165h11c8 -38 17 -71 44 -165c28 -96 60 -164 60 -212z" />
    <glyph glyph-name="florin" unicode="&#x192;" horiz-adv-x="473" 
d="M568 565c0 -63 -39 -85 -81 -85c-54 0 -81 37 -84 68c-2 19 15 67 12 88c-2 15 -9 19 -22 19c-8 0 -19 -8 -31 -30c-24 -43 -45 -117 -66 -200h80l-6 -21h-79c-34 -135 -63 -282 -96 -376c-42 -121 -161 -210 -295 -210c-86 0 -150 47 -150 105c0 63 47 73 70 73
c54 0 71 -39 72 -70c0 -16 -12 -54 -10 -68c2 -15 6 -21 23 -21c34 0 59 21 80 76c59 156 72 328 114 491h-72l5 21h72c29 177 196 245 299 245c97 0 165 -45 165 -105z" />
    <glyph glyph-name="guillemotleft" unicode="&#xab;" horiz-adv-x="455" 
d="M415 91l-11 -10l-193 161v5l193 161l11 -10c-31 -49 -70 -101 -97 -152c26 -53 65 -105 97 -155zM249 84l-11 -10l-213 167v8l213 166l10 -10c-33 -56 -76 -100 -104 -159c29 -59 72 -106 105 -162z" />
    <glyph glyph-name="guillemotright" unicode="&#xbb;" horiz-adv-x="455" 
d="M430 241l-213 -167l-11 10c33 56 76 103 105 162c-28 59 -71 103 -104 159l10 10l213 -166v-8zM244 242l-193 -161l-11 10c32 50 71 102 97 155c-27 51 -66 103 -97 152l11 10l193 -161v-5z" />
    <glyph glyph-name="ellipsis" unicode="&#x2026;" horiz-adv-x="747" 
d="M722 65c0 -43 -33 -79 -79 -79s-78 36 -78 79s33 79 78 79s79 -36 79 -79zM452 65c0 -43 -33 -79 -79 -79s-78 36 -78 79s33 79 78 79s79 -36 79 -79zM182 65c0 -43 -33 -79 -79 -79s-78 36 -78 79s33 79 78 79s79 -36 79 -79z" />
    <glyph glyph-name="uni00A0" unicode="&#xa0;" horiz-adv-x="200" 
 />
    <glyph glyph-name="Agrave" unicode="&#xc0;" horiz-adv-x="642" 
d="M662 0h-403v6c10 1 29 6 38 10c17 7 33 24 33 50s-5 50 -17 85l-9 26h-169l-12 -34c-8 -22 -15 -49 -15 -68c0 -30 13 -51 32 -59c16 -7 30 -9 40 -10v-6h-205v6c13 2 28 6 42 15s28 23 43 44c14 20 28 47 41 82l194 515h60l150 -432c27 -77 50 -136 73 -173
c16 -25 33 -37 47 -42c12 -4 27 -8 37 -9v-6zM298 193l-75 215h-3l-79 -215h157zM446 697l-4 -6c-74 11 -154 23 -195 32c-33 7 -69 25 -69 62c0 45 29 69 59 69c27 0 46 -5 75 -33c31 -31 75 -68 134 -124z" />
    <glyph glyph-name="Atilde" unicode="&#xc3;" horiz-adv-x="642" 
d="M662 0h-403v6c10 1 29 6 38 10c17 7 33 24 33 50s-5 50 -17 85l-9 26h-169l-12 -34c-8 -22 -15 -49 -15 -68c0 -30 13 -51 32 -59c16 -7 30 -9 40 -10v-6h-205v6c13 2 28 6 42 15s28 23 43 44c14 20 28 47 41 82l194 515h60l150 -432c27 -77 50 -136 73 -173
c16 -25 33 -37 47 -42c12 -4 27 -8 37 -9v-6zM298 193l-75 215h-3l-79 -215h157zM502 848c-13 -65 -36 -138 -115 -138c-37 0 -137 30 -150 30c-29 0 -50 -3 -60 -41l-15 3c13 65 36 133 115 133c25 0 137 -30 148 -30c35 0 53 11 62 45z" />
    <glyph glyph-name="Otilde" unicode="&#xd5;" horiz-adv-x="706" 
d="M676 329c0 -217 -127 -343 -324 -343c-196 0 -323 126 -323 343c0 216 127 341 323 341c197 0 324 -125 324 -341zM466 329c0 193 -27 279 -63 312c-14 12 -34 14 -51 14c-16 0 -36 -2 -50 -14c-36 -33 -63 -119 -63 -312c0 -194 27 -282 63 -314c14 -12 34 -14 50 -14
c17 0 37 2 51 14c36 32 63 120 63 314zM532 848c-13 -65 -36 -138 -115 -138c-37 0 -137 30 -150 30c-29 0 -50 -3 -60 -41l-15 3c13 65 36 133 115 133c25 0 137 -30 148 -30c35 0 53 11 62 45z" />
    <glyph glyph-name="OE" unicode="&#x152;" horiz-adv-x="983" 
d="M943 280l-6 -280h-585c-196 0 -323 112 -323 329c0 216 127 328 323 328h569l16 -240h-6c-20 44 -54 108 -94 160c-28 36 -70 64 -110 64h-8c-12 0 -23 -1 -31 -4c-10 -4 -17 -9 -23 -18c-12 -18 -18 -44 -18 -76v-194h34c58 0 62 2 82 22c26 24 58 90 62 122h6v-303h-6
c-4 32 -32 94 -58 116c-18 14 -28 28 -86 28h-34v-202c0 -36 3 -66 18 -86c7 -9 15 -16 24 -21c11 -6 25 -9 40 -9h16c26 0 60 18 86 56c40 56 84 142 106 208h6zM352 642c-16 0 -36 -2 -50 -14c-36 -33 -63 -106 -63 -299c0 -194 27 -269 63 -301c14 -12 34 -14 50 -14
c64 0 91 78 91 315c0 190 -7 313 -91 313z" />
    <glyph glyph-name="oe" unicode="&#x153;" horiz-adv-x="761" 
d="M742 238h-246v-15c0 -128 24 -163 46 -187c9 -9 36 -20 53 -20c69 0 119 80 133 132l10 -3c-18 -79 -77 -152 -196 -152c-49 0 -117 37 -140 73c-35 -36 -92 -75 -144 -75c-122 0 -238 83 -238 232s118 233 238 233c51 0 129 -39 143 -75c18 34 94 75 144 75
c130 0 195 -86 198 -187c0 -10 0 -21 -1 -31zM590 284c0 65 -3 123 -19 148c-6 9 -13 12 -23 12s-22 -2 -30 -12c-16 -21 -21 -72 -22 -180h68c19 0 26 6 26 32zM311 223c0 128 -2 186 -21 210c-7 9 -22 12 -32 12c-11 0 -25 -3 -32 -12c-19 -24 -22 -82 -22 -210
s4 -187 22 -210c8 -10 21 -13 32 -13c10 0 24 3 32 13c18 23 21 82 21 210z" />
    <glyph glyph-name="endash" unicode="&#x2013;" horiz-adv-x="500" 
d="M470 227h-440v41h440v-41z" />
    <glyph glyph-name="emdash" unicode="&#x2014;" horiz-adv-x="760" 
d="M730 227h-700v41h700v-41z" />
    <glyph glyph-name="quotedblleft" unicode="&#x201c;" horiz-adv-x="348" 
d="M327 676l6 -13c-44 -19 -80 -50 -80 -76c0 -10 2 -18 10 -21c45 -5 77 -36 77 -84c0 -35 -32 -70 -69 -70c-53 0 -81 35 -81 86c0 76 49 150 137 178zM147 676l6 -13c-44 -19 -80 -50 -80 -76c0 -10 2 -18 10 -21c45 -5 77 -36 77 -84c0 -35 -32 -70 -69 -70
c-53 0 -81 35 -81 86c0 76 49 150 137 178z" />
    <glyph glyph-name="quotedblright" unicode="&#x201d;" horiz-adv-x="348" 
d="M338 587c0 -76 -49 -150 -137 -178l-6 13c44 19 80 50 80 76c0 10 -2 18 -10 21c-45 5 -77 36 -77 84c0 35 32 70 69 70c53 0 81 -35 81 -86zM158 587c0 -76 -49 -150 -137 -178l-6 13c44 19 80 50 80 76c0 10 -2 18 -10 21c-45 5 -77 36 -77 84c0 35 32 70 69 70
c53 0 81 -35 81 -86z" />
    <glyph glyph-name="quoteleft" unicode="&#x2018;" horiz-adv-x="168" 
d="M147 676l6 -13c-44 -19 -80 -50 -80 -76c0 -10 2 -18 10 -21c45 -5 77 -36 77 -84c0 -35 -32 -70 -69 -70c-53 0 -81 35 -81 86c0 76 49 150 137 178z" />
    <glyph glyph-name="quoteright" unicode="&#x2019;" horiz-adv-x="170" 
d="M165 587c0 -76 -49 -150 -137 -178l-6 13c44 19 80 50 80 76c0 10 -2 18 -10 21c-45 5 -77 36 -77 84c0 35 32 70 69 70c53 0 81 -35 81 -86z" />
    <glyph glyph-name="divide" unicode="&#xf7;" horiz-adv-x="545" 
d="M356 419c0 -55 -47 -80 -84 -80s-83 30 -83 80s46 83 83 83s84 -28 84 -83zM515 244h-485v34h485v-34zM356 111c0 -55 -47 -80 -84 -80s-83 30 -83 80s46 83 83 83s84 -28 84 -83z" />
    <glyph glyph-name="ydieresis" unicode="&#xff;" horiz-adv-x="466" 
d="M498 443c-29 -3 -53 -23 -64 -42c-8 -13 -15 -27 -29 -66l-168 -439c-15 -42 -33 -62 -52 -80c-25 -23 -53 -29 -82 -29c-55 0 -100 25 -100 88c0 32 23 63 70 63c36 0 59 -20 71 -57c8 -25 3 -46 21 -46c14 0 35 19 55 72l12 31c3 8 0 19 -3 27l-139 347
c-17 46 -33 71 -41 85c-10 19 -24 28 -36 36c-9 6 -24 9 -33 10v4h322v-4c-9 -1 -19 -3 -27 -8c-10 -6 -16 -20 -16 -33c0 -18 8 -33 19 -68l49 -159h1l55 154c12 34 16 55 16 75c0 16 -8 26 -18 32c-9 5 -20 6 -29 7v4h146v-4zM177 650c43 0 77 -36 77 -78
c0 -41 -33 -76 -77 -76c-45 0 -76 35 -76 76c0 42 33 78 76 78zM373 650c43 0 77 -36 77 -78c0 -41 -33 -76 -77 -76c-45 0 -76 35 -76 76c0 42 33 78 76 78z" />
    <glyph glyph-name="Ydieresis" unicode="&#x178;" horiz-adv-x="675" 
d="M675 652c-56 -11 -100 -47 -141 -145l-91 -216v-161c0 -27 2 -50 7 -67c9 -36 25 -48 47 -53c13 -3 22 -4 28 -4v-6h-362v6c6 0 16 1 29 4c21 5 39 17 48 53c4 17 6 40 6 67v141l-123 274c-27 61 -59 99 -113 107v5h377v-5c-10 -1 -23 -3 -33 -7
c-31 -14 -35 -56 -10 -118l83 -209h5l80 189c16 38 28 69 28 94c0 22 -13 36 -31 43c-10 4 -24 7 -34 8v5h200v-5zM278 854c43 0 77 -36 77 -78c0 -41 -33 -76 -77 -76c-45 0 -76 35 -76 76c0 42 33 78 76 78zM514 854c43 0 77 -36 77 -78c0 -41 -33 -76 -77 -76
c-45 0 -76 35 -76 76c0 42 33 78 76 78z" />
    <glyph glyph-name="fraction" unicode="&#x2044;" horiz-adv-x="519" 
d="M509 719l-464 -743l-35 22l463 742z" />
    <glyph glyph-name="Euro" unicode="&#x20ac;" horiz-adv-x="636" 
d="M399 670c129 0 210 -60 210 -145c0 -52 -36 -78 -73 -78c-54 0 -79 36 -79 84c0 11 2 37 2 49c0 53 -10 66 -47 66c-80 0 -104 -86 -110 -246h169v-25h-170v-95h110v-25h-109c5 -149 26 -224 131 -224c69 0 134 66 160 182l17 -5c-23 -119 -101 -223 -233 -223
c-138 0 -254 66 -282 270h-70v25h67c-1 16 -2 32 -2 49c0 16 1 31 2 46h-67v25h70c28 190 170 270 304 270z" />
    <glyph glyph-name="guilsinglleft" unicode="&#x2039;" horiz-adv-x="289" 
d="M249 84l-11 -10l-213 167v8l213 166l10 -10c-33 -56 -76 -100 -104 -159c29 -59 72 -106 105 -162z" />
    <glyph glyph-name="guilsinglright" unicode="&#x203a;" horiz-adv-x="289" 
d="M264 241l-213 -167l-11 10c33 56 76 103 105 162c-28 59 -71 103 -104 159l10 10l213 -166v-8z" />
    <glyph glyph-name="daggerdbl" unicode="&#x2021;" horiz-adv-x="569" 
d="M549 -36c0 -27 -20 -41 -38 -41c-25 0 -35 18 -35 40c0 9 9 23 18 29c10 7 16 11 16 17c0 8 -5 10 -11 10c-4 0 -10 -6 -17 -13c-9 -10 -18 -24 -22 -29c-21 -29 -39 -42 -54 -42c-20 0 -30 13 -47 30c-11 11 -24 29 -42 29c-16 0 -24 -13 -24 -25c0 -9 14 -13 38 -27
c13 -7 29 -23 29 -51c0 -35 -15 -49 -27 -55c-22 -12 -37 -10 -37 -17s7 -9 14 -16c4 -4 10 -13 10 -25c0 -21 -17 -33 -35 -33s-36 12 -36 33c0 12 6 21 10 25c7 7 14 9 14 16s-15 5 -37 17c-12 6 -27 20 -27 55c0 28 16 44 29 51c24 14 39 18 39 27c0 12 -9 25 -25 25
c-18 0 -30 -18 -41 -29c-17 -17 -28 -30 -48 -30c-15 0 -32 13 -53 42c-4 5 -14 19 -24 30c-6 7 -12 12 -16 12c-6 0 -11 -2 -11 -10c0 -6 6 -10 16 -17c9 -6 18 -20 18 -29c0 -22 -10 -40 -35 -40c-18 0 -38 14 -38 41c0 36 39 76 76 76s48 -11 64 -30
c21 -24 26 -37 40 -37c8 0 14 6 14 24v407c0 18 -6 24 -14 24c-14 0 -19 -13 -40 -37c-16 -19 -28 -30 -65 -30s-75 40 -75 76c0 27 20 41 38 41c25 0 35 -18 35 -40c0 -9 -9 -23 -18 -29c-10 -7 -16 -11 -16 -17c0 -8 5 -10 11 -10c4 0 10 6 17 13c9 10 18 24 22 29
c21 29 39 42 54 42c20 0 30 -13 47 -30c11 -11 24 -29 42 -29c16 0 24 13 24 25c0 9 -14 13 -38 27c-13 7 -29 23 -29 51c0 35 15 49 27 55c22 12 37 10 37 17s-7 9 -14 16c-4 4 -10 13 -10 25c0 21 17 33 35 33s36 -12 36 -33c0 -12 -6 -21 -10 -25c-7 -7 -14 -9 -14 -16
s15 -5 37 -17c12 -6 27 -20 27 -55c0 -28 -16 -44 -29 -51c-24 -14 -39 -18 -39 -27c0 -12 9 -25 25 -25c18 0 30 18 41 29c17 17 28 30 48 30c15 0 32 -13 53 -42c4 -5 14 -19 24 -30c6 -7 12 -12 16 -12c6 0 11 2 11 10c0 6 -6 10 -16 17c-9 6 -18 20 -18 29
c0 22 10 40 35 40c18 0 38 -14 38 -41c0 -36 -39 -76 -76 -76s-48 11 -64 30c-21 24 -26 37 -40 37c-8 0 -14 -6 -14 -24v-407c0 -18 6 -24 14 -24c14 0 19 13 40 37c16 19 28 30 65 30s75 -40 75 -76z" />
    <glyph glyph-name="periodcentered" unicode="&#xb7;" 
d="M245 278c0 -47 -37 -87 -88 -87s-87 40 -87 87c0 48 37 89 87 89c49 0 88 -41 88 -89z" />
    <glyph glyph-name="quotesinglbase" unicode="&#x201a;" horiz-adv-x="170" 
d="M165 66c0 -76 -49 -150 -137 -178l-6 13c44 19 80 50 80 76c0 10 -2 18 -10 21c-45 5 -77 36 -77 84c0 35 32 70 69 70c53 0 81 -35 81 -86z" />
    <glyph glyph-name="quotedblbase" unicode="&#x201e;" horiz-adv-x="348" 
d="M338 65c0 -76 -49 -150 -137 -178l-6 13c44 19 80 50 80 76c0 10 -2 18 -10 21c-45 5 -77 36 -77 84c0 35 32 70 69 70c53 0 81 -35 81 -86zM158 65c0 -76 -49 -150 -137 -178l-6 13c44 19 80 50 80 76c0 10 -2 18 -10 21c-45 5 -77 36 -77 84c0 35 32 70 69 70
c53 0 81 -35 81 -86z" />
    <glyph glyph-name="perthousand" unicode="&#x2030;" horiz-adv-x="1091" 
d="M915 327c81 0 166 -58 166 -171s-85 -171 -166 -171s-167 56 -167 171s86 171 167 171zM545 327c81 0 166 -58 166 -171s-85 -171 -166 -171s-167 56 -167 171s86 171 167 171zM533 665l-324 -680l-16 7l324 680zM343 498c0 -113 -85 -171 -166 -171s-167 56 -167 171
s86 172 167 172s166 -59 166 -172zM950 156c0 136 -3 156 -35 156c-31 0 -35 -43 -35 -156s4 -156 35 -156c32 0 35 20 35 156zM580 156c0 136 -3 156 -35 156c-31 0 -35 -43 -35 -156s4 -156 35 -156c32 0 35 20 35 156zM177 655c-31 0 -35 -44 -35 -157s4 -156 35 -156
c32 0 35 20 35 156s-3 157 -35 157z" />
    <glyph glyph-name="Acircumflex" unicode="&#xc2;" horiz-adv-x="642" 
d="M662 0h-403v6c10 1 29 6 38 10c17 7 33 24 33 50s-5 50 -17 85l-9 26h-169l-12 -34c-8 -22 -15 -49 -15 -68c0 -30 13 -51 32 -59c16 -7 30 -9 40 -10v-6h-205v6c13 2 28 6 42 15s28 23 43 44c14 20 28 47 41 82l194 515h60l150 -432c27 -77 50 -136 73 -173
c16 -25 33 -37 47 -42c12 -4 27 -8 37 -9v-6zM298 193l-75 215h-3l-79 -215h157zM470 707l-7 -5l-141 59l-141 -59l-7 5l110 141h76z" />
    <glyph glyph-name="Ecircumflex" unicode="&#xca;" horiz-adv-x="632" 
d="M592 280l-6 -280h-566v4c6 0 16 3 28 6c22 6 38 16 48 54c4 16 6 38 6 66v399c0 26 -2 50 -6 66c-10 36 -26 46 -48 52c-12 3 -22 4 -28 4v6h550l16 -240h-6c-20 44 -54 108 -94 160c-28 36 -70 64 -110 64h-8c-26 0 -42 -6 -54 -22c-12 -18 -18 -44 -18 -76v-194h34
c58 0 62 2 82 22c26 24 58 90 62 122h6v-303h-6c-4 32 -32 94 -58 116c-18 14 -28 27 -86 27h-34v-201c0 -36 3 -66 18 -86s36 -30 64 -30h16c26 0 60 18 86 56c40 56 84 142 106 208h6zM474 707l-7 -5l-141 59l-141 -59l-7 5l110 141h76z" />
    <glyph glyph-name="Aacute" unicode="&#xc1;" horiz-adv-x="642" 
d="M662 0h-403v6c10 1 29 6 38 10c17 7 33 24 33 50s-5 50 -17 85l-9 26h-169l-12 -34c-8 -22 -15 -49 -15 -68c0 -30 13 -51 32 -59c16 -7 30 -9 40 -10v-6h-205v6c13 2 28 6 42 15s28 23 43 44c14 20 28 47 41 82l194 515h60l150 -432c27 -77 50 -136 73 -173
c16 -25 33 -37 47 -42c12 -4 27 -8 37 -9v-6zM298 193l-75 215h-3l-79 -215h157zM206 691l-4 6c59 56 103 93 134 124c29 28 48 33 75 33c30 0 59 -24 59 -69c0 -37 -36 -55 -69 -62c-41 -9 -121 -21 -195 -32z" />
    <glyph glyph-name="Edieresis" unicode="&#xcb;" horiz-adv-x="632" 
d="M592 280l-6 -280h-566v4c6 0 16 3 28 6c22 6 38 16 48 54c4 16 6 38 6 66v399c0 26 -2 50 -6 66c-10 36 -26 46 -48 52c-12 3 -22 4 -28 4v6h550l16 -240h-6c-20 44 -54 108 -94 160c-28 36 -70 64 -110 64h-8c-26 0 -42 -6 -54 -22c-12 -18 -18 -44 -18 -76v-194h34
c58 0 62 2 82 22c26 24 58 90 62 122h6v-303h-6c-4 32 -32 94 -58 116c-18 14 -28 27 -86 27h-34v-201c0 -36 3 -66 18 -86s36 -30 64 -30h16c26 0 60 18 86 56c40 56 84 142 106 208h6zM208 854c43 0 77 -36 77 -78c0 -41 -33 -76 -77 -76c-45 0 -76 35 -76 76
c0 42 33 78 76 78zM444 854c43 0 77 -36 77 -78c0 -41 -33 -76 -77 -76c-45 0 -76 35 -76 76c0 42 33 78 76 78z" />
    <glyph glyph-name="Egrave" unicode="&#xc8;" horiz-adv-x="632" 
d="M592 280l-6 -280h-566v4c6 0 16 3 28 6c22 6 38 16 48 54c4 16 6 38 6 66v399c0 26 -2 50 -6 66c-10 36 -26 46 -48 52c-12 3 -22 4 -28 4v6h550l16 -240h-6c-20 44 -54 108 -94 160c-28 36 -70 64 -110 64h-8c-26 0 -42 -6 -54 -22c-12 -18 -18 -44 -18 -76v-194h34
c58 0 62 2 82 22c26 24 58 90 62 122h6v-303h-6c-4 32 -32 94 -58 116c-18 14 -28 27 -86 27h-34v-201c0 -36 3 -66 18 -86s36 -30 64 -30h16c26 0 60 18 86 56c40 56 84 142 106 208h6zM450 697l-4 -6c-74 11 -154 23 -195 32c-33 7 -69 25 -69 62c0 45 29 69 59 69
c27 0 46 -5 75 -33c31 -31 75 -68 134 -124z" />
    <glyph glyph-name="Iacute" unicode="&#xcd;" horiz-adv-x="402" 
d="M382 0h-362v6c6 0 16 1 28 4c22 6 37 17 48 54c5 16 6 38 6 66v399c0 26 -1 50 -6 66c-11 35 -26 46 -48 52c-12 3 -17 5 -28 6v4h362v-4l-28 -6c-22 -6 -38 -16 -48 -52c-4 -16 -6 -40 -6 -66v-399c0 -28 2 -50 6 -66c10 -38 26 -48 48 -54c12 -3 22 -4 28 -4v-6z
M85 691l-4 6c59 56 103 93 134 124c29 28 48 33 75 33c30 0 59 -24 59 -69c0 -37 -36 -55 -69 -62c-41 -9 -121 -21 -195 -32z" />
    <glyph glyph-name="Icircumflex" unicode="&#xce;" horiz-adv-x="402" 
d="M382 0h-362v6c6 0 16 1 28 4c22 6 37 17 48 54c5 16 6 38 6 66v399c0 26 -1 50 -6 66c-11 35 -26 46 -48 52c-12 3 -17 5 -28 6v4h362v-4l-28 -6c-22 -6 -38 -16 -48 -52c-4 -16 -6 -40 -6 -66v-399c0 -28 2 -50 6 -66c10 -38 26 -48 48 -54c12 -3 22 -4 28 -4v-6z
M349 707l-7 -5l-141 59l-141 -59l-7 5l110 141h76z" />
    <glyph glyph-name="Idieresis" unicode="&#xcf;" horiz-adv-x="402" 
d="M382 0h-362v6c6 0 16 1 28 4c22 6 37 17 48 54c5 16 6 38 6 66v399c0 26 -1 50 -6 66c-11 35 -26 46 -48 52c-12 3 -17 5 -28 6v4h362v-4l-28 -6c-22 -6 -38 -16 -48 -52c-4 -16 -6 -40 -6 -66v-399c0 -28 2 -50 6 -66c10 -38 26 -48 48 -54c12 -3 22 -4 28 -4v-6z
M314 854c43 0 77 -36 77 -78c0 -41 -33 -76 -77 -76c-45 0 -76 35 -76 76c0 42 33 78 76 78zM88 854c43 0 77 -36 77 -78c0 -41 -33 -76 -77 -76c-45 0 -76 35 -76 76c0 42 33 78 76 78z" />
    <glyph glyph-name="Igrave" unicode="&#xcc;" horiz-adv-x="402" 
d="M382 0h-362v6c6 0 16 1 28 4c22 6 37 17 48 54c5 16 6 38 6 66v399c0 26 -1 50 -6 66c-11 35 -26 46 -48 52c-12 3 -17 5 -28 6v4h362v-4l-28 -6c-22 -6 -38 -16 -48 -52c-4 -16 -6 -40 -6 -66v-399c0 -28 2 -50 6 -66c10 -38 26 -48 48 -54c12 -3 22 -4 28 -4v-6z
M325 697l-4 -6c-74 11 -154 23 -195 32c-33 7 -69 25 -69 62c0 45 29 69 59 69c27 0 46 -5 75 -33c31 -31 75 -68 134 -124z" />
    <glyph glyph-name="Oacute" unicode="&#xd3;" horiz-adv-x="706" 
d="M676 329c0 -217 -127 -343 -324 -343c-196 0 -323 126 -323 343c0 216 127 341 323 341c197 0 324 -125 324 -341zM466 329c0 193 -27 279 -63 312c-14 12 -34 14 -51 14c-16 0 -36 -2 -50 -14c-36 -33 -63 -119 -63 -312c0 -194 27 -282 63 -314c14 -12 34 -14 50 -14
c17 0 37 2 51 14c36 32 63 120 63 314zM236 691l-4 6c59 56 103 93 134 124c29 28 48 33 75 33c30 0 59 -24 59 -69c0 -37 -36 -55 -69 -62c-41 -9 -121 -21 -195 -32z" />
    <glyph glyph-name="Ocircumflex" unicode="&#xd4;" horiz-adv-x="706" 
d="M676 329c0 -217 -127 -343 -324 -343c-196 0 -323 126 -323 343c0 216 127 341 323 341c197 0 324 -125 324 -341zM466 329c0 193 -27 279 -63 312c-14 12 -34 14 -51 14c-16 0 -36 -2 -50 -14c-36 -33 -63 -119 -63 -312c0 -194 27 -282 63 -314c14 -12 34 -14 50 -14
c17 0 37 2 51 14c36 32 63 120 63 314zM500 707l-7 -5l-141 59l-141 -59l-7 5l110 141h76z" />
    <glyph glyph-name="Ograve" unicode="&#xd2;" horiz-adv-x="706" 
d="M676 329c0 -217 -127 -343 -324 -343c-196 0 -323 126 -323 343c0 216 127 341 323 341c197 0 324 -125 324 -341zM466 329c0 193 -27 279 -63 312c-14 12 -34 14 -51 14c-16 0 -36 -2 -50 -14c-36 -33 -63 -119 -63 -312c0 -194 27 -282 63 -314c14 -12 34 -14 50 -14
c17 0 37 2 51 14c36 32 63 120 63 314zM476 697l-4 -6c-74 11 -154 23 -195 32c-33 7 -69 25 -69 62c0 45 29 69 59 69c27 0 46 -5 75 -33c31 -31 75 -68 134 -124z" />
    <glyph glyph-name="Uacute" unicode="&#xda;" horiz-adv-x="685" 
d="M680 652c-14 -1 -24 -3 -34 -6c-15 -4 -35 -18 -44 -41c-10 -24 -18 -54 -18 -119v-265c0 -56 -8 -106 -29 -145c-22 -41 -82 -89 -196 -89c-104 0 -190 24 -236 105c-19 32 -31 119 -31 155v280c0 28 -2 51 -6 67c-10 36 -27 47 -48 53c-11 3 -22 5 -28 5v5h362v-6
c-6 0 -15 -1 -28 -4c-22 -5 -38 -17 -48 -53c-4 -16 -6 -39 -6 -67v-333c0 -36 5 -65 16 -89c23 -54 65 -77 127 -77c51 0 91 31 111 81c11 31 17 72 17 108v269c0 65 -7 95 -17 119c-8 21 -27 36 -44 41c-10 3 -20 5 -34 6v5h214v-5zM276 691l-4 6c59 56 103 93 134 124
c29 28 48 33 75 33c30 0 59 -24 59 -69c0 -37 -36 -55 -69 -62c-41 -9 -121 -21 -195 -32z" />
    <glyph glyph-name="Ucircumflex" unicode="&#xdb;" horiz-adv-x="685" 
d="M680 652c-14 -1 -24 -3 -34 -6c-15 -4 -35 -18 -44 -41c-10 -24 -18 -54 -18 -119v-265c0 -56 -8 -106 -29 -145c-22 -41 -82 -89 -196 -89c-104 0 -190 24 -236 105c-19 32 -31 119 -31 155v280c0 28 -2 51 -6 67c-10 36 -27 47 -48 53c-11 3 -22 5 -28 5v5h362v-6
c-6 0 -15 -1 -28 -4c-22 -5 -38 -17 -48 -53c-4 -16 -6 -39 -6 -67v-333c0 -36 5 -65 16 -89c23 -54 65 -77 127 -77c51 0 91 31 111 81c11 31 17 72 17 108v269c0 65 -7 95 -17 119c-8 21 -27 36 -44 41c-10 3 -20 5 -34 6v5h214v-5zM540 707l-7 -5l-141 59l-141 -59l-7 5
l110 141h76z" />
    <glyph glyph-name="Ugrave" unicode="&#xd9;" horiz-adv-x="685" 
d="M680 652c-14 -1 -24 -3 -34 -6c-15 -4 -35 -18 -44 -41c-10 -24 -18 -54 -18 -119v-265c0 -56 -8 -106 -29 -145c-22 -41 -82 -89 -196 -89c-104 0 -190 24 -236 105c-19 32 -31 119 -31 155v280c0 28 -2 51 -6 67c-10 36 -27 47 -48 53c-11 3 -22 5 -28 5v5h362v-6
c-6 0 -15 -1 -28 -4c-22 -5 -38 -17 -48 -53c-4 -16 -6 -39 -6 -67v-333c0 -36 5 -65 16 -89c23 -54 65 -77 127 -77c51 0 91 31 111 81c11 31 17 72 17 108v269c0 65 -7 95 -17 119c-8 21 -27 36 -44 41c-10 3 -20 5 -34 6v5h214v-5zM516 697l-4 -6c-74 11 -154 23 -195 32
c-33 7 -69 25 -69 62c0 45 29 69 59 69c27 0 46 -5 75 -33c31 -31 75 -68 134 -124z" />
    <glyph glyph-name="dotlessi" unicode="&#x131;" 
d="M300 0h-288v4c7 1 17 1 24 4c9 4 19 10 26 34c4 13 5 60 5 89v199c0 18 0 53 -2 69c-3 19 -9 27 -18 34c-9 6 -20 8 -30 8v6h223c4 0 6 -2 6 -7c0 -16 -1 -37 -1 -63v-246c0 -29 1 -76 5 -89c7 -24 17 -30 26 -34c8 -3 17 -3 24 -4v-4z" />
    <glyph glyph-name="circumflex" unicode="&#x2c6;" horiz-adv-x="404" 
d="M350 487l-7 -5l-141 89l-141 -89l-7 5l110 181h76z" />
    <glyph glyph-name="tilde" unicode="&#x2dc;" horiz-adv-x="404" 
d="M364 671c-13 -65 -38 -147 -117 -147c-37 0 -107 25 -120 25c-39 0 -60 -12 -70 -50l-17 -1c13 65 38 147 117 147c25 0 107 -25 118 -25c39 0 63 16 72 50z" />
    <glyph glyph-name="macron" unicode="&#xaf;" horiz-adv-x="320" 
d="M285 536h-250v62h250v-62z" />
    <glyph glyph-name="breve" unicode="&#x2d8;" horiz-adv-x="348" 
d="M314 668c-7 -96 -52 -151 -130 -151s-123 55 -130 151l8 6c25 -44 81 -71 122 -71s97 27 121 71z" />
    <glyph glyph-name="dotaccent" unicode="&#x2d9;" horiz-adv-x="294" 
d="M234 584c0 -47 -36 -87 -88 -87c-51 0 -86 40 -86 87c0 48 37 89 86 89c50 0 88 -41 88 -89z" />
    <glyph glyph-name="ring" unicode="&#x2da;" horiz-adv-x="302" 
d="M247 584c1 -51 -46 -93 -96 -93c-53 0 -96 39 -96 93s42 93 95 93c54 0 96 -38 97 -93zM212 583c0 38 -25 64 -63 64c-37 0 -62 -26 -62 -63c0 -36 25 -62 61 -62c38 0 64 22 64 61z" />
    <glyph glyph-name="cedilla" unicode="&#xb8;" horiz-adv-x="259" 
d="M219 -108c0 -63 -63 -83 -121 -83c-24 0 -62 9 -78 18l4 7c13 -5 34 -9 53 -9c35 0 55 20 55 65c0 40 -18 56 -36 56c-8 0 -17 -1 -24 -10l-13 4l16 60h15l-12 -49c8 7 37 15 51 15c60 0 90 -23 90 -74z" />
    <glyph glyph-name="hungarumlaut" unicode="&#x2dd;" horiz-adv-x="499" 
d="M186 671c34 0 63 -22 63 -65c0 -23 -18 -46 -44 -62c-34 -21 -88 -41 -157 -68l-5 4l70 139c15 28 33 52 73 52zM378 671c34 0 63 -22 63 -65c0 -23 -18 -46 -44 -62c-34 -21 -88 -41 -157 -68l-5 4l70 139c15 28 33 52 73 52z" />
    <glyph glyph-name="ogonek" unicode="&#x2db;" horiz-adv-x="214" 
d="M195 -217c-129 -6 -193 21 -193 80c0 68 85 83 166 137h13c-39 -39 -49 -79 -49 -135c0 -52 22 -73 63 -76v-6z" />
    <glyph glyph-name="caron" unicode="&#x2c7;" horiz-adv-x="404" 
d="M54 669l7 5l141 -89l141 89l7 -5l-110 -181h-76z" />
    <glyph glyph-name="space_uni0326" horiz-adv-x="203" 
d="M182 -110c0 -81 -62 -125 -147 -145l-5 13c53 14 88 31 88 57c0 10 -4 18 -13 20c-49 9 -78 26 -78 75c0 43 43 66 72 66c45 0 83 -32 83 -86z" />
    <glyph glyph-name="caron.alt" horiz-adv-x="404" 
d="M135 486l15 198h110c-33 -55 -80 -133 -113 -198h-12z" />
    <glyph glyph-name="space_uni0326.alt" horiz-adv-x="202" 
d="M26 579c0 81 62 125 147 145l5 -13c-53 -14 -88 -31 -88 -57c0 -10 4 -18 13 -20c49 -9 78 -26 78 -75c0 -43 -43 -66 -72 -66c-45 0 -83 32 -83 86z" />
    <glyph glyph-name="grave.uc" horiz-adv-x="328" 
d="M298 697l-4 -6c-74 11 -154 23 -195 32c-33 7 -69 25 -69 62c0 45 29 69 59 69c27 0 46 -5 75 -33c31 -31 75 -68 134 -124z" />
    <glyph glyph-name="dieresis.uc" horiz-adv-x="471" 
d="M117 854c43 0 77 -36 77 -78c0 -41 -33 -76 -77 -76c-45 0 -76 35 -76 76c0 42 33 78 76 78zM353 854c43 0 77 -36 77 -78c0 -41 -33 -76 -77 -76c-45 0 -76 35 -76 76c0 42 33 78 76 78z" />
    <glyph glyph-name="macron.uc" horiz-adv-x="360" 
d="M325 707h-290v62h290v-62z" />
    <glyph glyph-name="acute.uc" horiz-adv-x="328" 
d="M34 691l-4 6c59 56 103 93 134 124c29 28 48 33 75 33c30 0 59 -24 59 -69c0 -37 -36 -55 -69 -62c-41 -9 -121 -21 -195 -32z" />
    <glyph glyph-name="circumflex.uc" horiz-adv-x="404" 
d="M350 707l-7 -5l-141 59l-141 -59l-7 5l110 141h76z" />
    <glyph glyph-name="caron.uc" horiz-adv-x="404" 
d="M54 843l7 5l141 -59l141 59l7 -5l-110 -141h-76z" />
    <glyph glyph-name="breve.uc" horiz-adv-x="348" 
d="M328 846c-7 -96 -57 -148 -144 -148s-137 52 -144 148l9 6c27 -44 79 -68 135 -68s108 24 135 68z" />
    <glyph glyph-name="dotaccent.uc" horiz-adv-x="294" 
d="M234 785c0 -47 -36 -87 -88 -87c-51 0 -86 40 -86 87c0 48 37 89 86 89c50 0 88 -41 88 -89z" />
    <glyph glyph-name="ring.uc" horiz-adv-x="302" 
d="M247 794c1 -51 -46 -93 -96 -93c-53 0 -96 39 -96 93s42 93 95 93c54 0 96 -38 97 -93zM212 793c0 38 -25 64 -63 64c-37 0 -62 -26 -62 -63c0 -36 25 -62 61 -62c38 0 64 22 64 61z" />
    <glyph glyph-name="tilde.uc" horiz-adv-x="404" 
d="M382 848c-13 -65 -36 -138 -115 -138c-37 0 -137 30 -150 30c-29 0 -50 -3 -60 -41l-15 3c13 65 36 133 115 133c25 0 137 -30 148 -30c35 0 53 11 62 45z" />
    <glyph glyph-name="hungarumlaut.uc" horiz-adv-x="428" 
d="M228 830c0 -25 -33 -52 -63 -67c-26 -13 -78 -36 -134 -62h-11c47 67 62 97 87 132c24 33 45 46 70 46c32 0 51 -15 51 -49zM408 830c0 -25 -33 -52 -63 -67c-26 -13 -78 -36 -134 -62h-11c47 67 62 97 87 132c24 33 45 46 70 46c32 0 51 -15 51 -49z" />
    <glyph glyph-name="Dcroat" unicode="&#x110;" horiz-adv-x="729" 
d="M38 321v25h65v181c0 27 -3 51 -7 67c-10 36 -25 48 -47 53c-13 3 -23 5 -29 5v5h377c70 0 119 -14 160 -39c88 -53 142 -161 142 -287s-47 -242 -137 -291c-41 -22 -90 -40 -148 -40h-394v5c6 0 16 2 29 5c22 5 37 17 47 53c4 16 7 40 7 67v191h-65zM371 641h-26
c-20 0 -33 -8 -41 -28c-4 -12 -4 -28 -4 -50v-217h103v-25h-103v-197c0 -26 2 -52 10 -72c8 -21 28 -36 50 -36h8c21 0 63 7 85 52c24 49 39 110 39 263s-13 207 -37 256c-22 45 -56 54 -84 54z" />
    <glyph glyph-name="Eng" unicode="&#x14a;" horiz-adv-x="690" 
d="M690 651c-14 0 -24 -3 -34 -6c-18 -5 -33 -20 -42 -42c-9 -24 -18 -55 -18 -121v-521c0 -120 -82 -165 -153 -165c-50 0 -87 13 -114 37c-31 28 -50 60 -50 106c0 79 42 112 96 112c60 0 93 -35 93 -87c0 -19 -6 -45 -13 -65c-9 -25 -24 -46 -24 -54c0 -23 14 -28 32 -28
c22 0 54 15 72 33c25 25 41 60 41 111v39l-416 515h-4v-343c0 -64 9 -96 18 -120c9 -22 26 -37 44 -42c10 -3 20 -4 34 -6v-4h-210v4c14 2 24 3 34 6c18 5 35 20 44 42c9 24 18 56 18 120v280c0 64 -10 117 -22 141c-12 22 -30 38 -62 50c-10 4 -26 8 -34 8v6h290l264 -357
h2v182c0 66 -8 97 -16 121c-10 22 -28 37 -46 42c-10 3 -18 6 -32 6v6h208v-6z" />
    <glyph glyph-name="IJ" unicode="&#x132;" horiz-adv-x="862" 
d="M858 652c-6 0 -15 -1 -28 -5c-23 -7 -38 -17 -48 -53c-4 -16 -6 -40 -6 -67v-286c0 -105 -31 -169 -73 -205s-103 -50 -176 -50c-50 0 -100 13 -127 37c-31 28 -48 67 -48 113c0 79 36 105 90 105c60 0 90 -35 90 -87c0 -19 -6 -45 -13 -65c-9 -25 -26 -50 -26 -58
c0 -17 16 -26 34 -26c22 0 36 10 42 34c5 20 10 71 10 105v383c0 27 -2 51 -6 67c-10 36 -27 48 -49 53c-13 3 -22 5 -28 5v5h362v-5zM382 0h-362v6c6 0 16 1 28 4c22 6 37 17 48 54c5 16 6 38 6 66v399c0 26 -1 50 -6 66c-11 35 -26 46 -48 52c-12 3 -17 5 -28 6v4h362v-4
l-28 -6c-22 -6 -38 -16 -48 -52c-4 -16 -6 -40 -6 -66v-399c0 -28 2 -50 6 -66c10 -38 26 -48 48 -54c12 -3 22 -4 28 -4v-6z" />
    <glyph glyph-name="uni0237" unicode="&#x237;" horiz-adv-x="289" 
d="M239 440c0 -16 -1 -37 -1 -63v-360c0 -102 -50 -150 -88 -180c-19 -15 -68 -50 -154 -50c-34 0 -76 10 -105 27c-29 18 -51 55 -51 95c0 45 35 88 91 88c53 0 84 -38 84 -86c0 -14 -8 -38 -15 -55c-5 -12 -10 -27 -10 -34c0 -10 4 -20 16 -20c23 0 33 17 41 40
c7 21 13 60 13 96v392c0 18 -1 53 -3 69c-3 19 -7 27 -17 34c-9 6 -21 8 -30 8v6h223c4 0 6 -2 6 -7z" />
    <glyph glyph-name="dcroat" unicode="&#x111;" horiz-adv-x="571" 
d="M218 550v21h101v28c0 12 -1 31 -3 40c-5 21 -13 29 -26 35c-9 4 -15 5 -24 5v5h228c3 0 5 -1 5 -5c0 -20 -1 -64 -2 -108h59v-21h-59c-1 -33 -1 -65 -1 -85v-352c0 -18 -1 -46 1 -62c2 -18 11 -31 23 -39c10 -7 27 -8 36 -9v-4c-17 0 -226 -3 -231 -3c-2 0 -4 2 -4 5
c0 6 1 19 1 27v50h-1c-19 -56 -54 -87 -116 -87c-98 0 -185 76 -185 231c0 143 83 234 191 234c60 0 91 -31 106 -69h2v163h-101zM319 151v152c0 32 -6 59 -16 82s-29 42 -43 42c-44 0 -54 -89 -54 -207s0 -200 45 -200c34 0 68 55 68 131z" />
    <glyph glyph-name="eng" unicode="&#x14b;" horiz-adv-x="579" 
d="M529 301v-284c0 -102 -47 -150 -85 -180c-19 -15 -75 -50 -152 -50c-31 0 -69 8 -95 22c-26 15 -46 46 -46 79c0 37 32 73 82 73c48 0 76 -31 76 -71c0 -12 -7 -32 -14 -46c-4 -10 -9 -22 -9 -28c0 -8 4 -14 15 -14c21 0 32 17 40 40c7 21 13 60 13 96l-1 414
c0 27 -4 45 -14 55c-7 7 -15 10 -26 10c-20 0 -58 -28 -65 -111c-2 -25 -3 -50 -3 -80v-123c0 -21 0 -38 2 -51c3 -23 9 -37 22 -43c7 -3 13 -5 23 -5v-4h-280v4c6 1 17 1 24 4c9 4 18 10 26 34c4 13 5 60 5 89v199c0 18 0 53 -2 69c-3 19 -8 28 -17 34c-9 7 -21 8 -30 8v6
h222c5 0 6 -2 6 -7c0 -16 -2 -65 -2 -91h2c8 35 23 59 42 75c27 22 75 32 106 32c44 0 84 -10 107 -47c17 -28 28 -63 28 -108z" />
    <glyph glyph-name="ij" unicode="&#x133;" horiz-adv-x="587" 
d="M300 0h-288v4c7 1 17 1 24 4c9 4 19 10 26 34c4 13 5 60 5 89v199c0 18 0 53 -2 69c-3 19 -9 27 -18 34c-9 6 -20 8 -30 8v6h223c4 0 6 -2 6 -7c0 -16 -1 -37 -1 -63v-246c0 -29 1 -76 5 -89c7 -24 17 -30 26 -34c8 -3 17 -3 24 -4v-4zM245 584c0 -47 -37 -87 -88 -87
s-87 40 -87 87c0 48 37 89 87 89c49 0 88 -41 88 -89zM535 584c0 -47 -36 -87 -88 -87c-51 0 -86 40 -86 87c0 48 37 89 86 89c50 0 88 -41 88 -89zM537 440c0 -16 -1 -37 -1 -63v-360c0 -102 -50 -150 -88 -180c-19 -15 -68 -50 -154 -50c-34 0 -76 10 -105 27
c-29 18 -51 55 -51 95c0 45 35 88 91 88c53 0 84 -38 84 -86c0 -14 -8 -38 -15 -55c-5 -12 -10 -27 -10 -34c0 -10 4 -20 16 -20c23 0 33 17 41 40c7 21 13 60 13 96v392c0 18 -1 53 -3 69c-3 19 -7 27 -17 34c-9 6 -21 8 -30 8v6h223c4 0 6 -2 6 -7z" />
    <glyph glyph-name="Abreve" unicode="&#x102;" horiz-adv-x="642" 
d="M662 0h-403v6c10 1 29 6 38 10c17 7 33 24 33 50s-5 50 -17 85l-9 26h-169l-12 -34c-8 -22 -15 -49 -15 -68c0 -30 13 -51 32 -59c16 -7 30 -9 40 -10v-6h-205v6c13 2 28 6 42 15s28 23 43 44c14 20 28 47 41 82l194 515h60l150 -432c27 -77 50 -136 73 -173
c16 -25 33 -37 47 -42c12 -4 27 -8 37 -9v-6zM298 193l-75 215h-3l-79 -215h157zM466 846c-7 -96 -57 -148 -144 -148s-137 52 -144 148l9 6c27 -44 79 -68 135 -68s108 24 135 68z" />
    <glyph glyph-name="Amacron" unicode="&#x100;" horiz-adv-x="642" 
d="M662 0h-403v6c10 1 29 6 38 10c17 7 33 24 33 50s-5 50 -17 85l-9 26h-169l-12 -34c-8 -22 -15 -49 -15 -68c0 -30 13 -51 32 -59c16 -7 30 -9 40 -10v-6h-205v6c13 2 28 6 42 15s28 23 43 44c14 20 28 47 41 82l194 515h60l150 -432c27 -77 50 -136 73 -173
c16 -25 33 -37 47 -42c12 -4 27 -8 37 -9v-6zM298 193l-75 215h-3l-79 -215h157zM467 707h-290v62h290v-62z" />
    <glyph glyph-name="Aogonek" unicode="&#x104;" horiz-adv-x="642" 
d="M347 -217c-129 -6 -193 21 -193 80c0 53 54 72 115 104c39 21 63 42 63 80c0 46 -7 69 -19 104l-9 26h-169l-12 -34c-8 -22 -15 -49 -15 -68c0 -30 13 -51 32 -59c16 -7 30 -9 40 -10v-6h-205v6c13 2 28 6 42 15s28 23 43 44c14 20 28 47 41 82l194 515h60l150 -432
c27 -77 50 -136 73 -173c16 -25 33 -37 47 -42c12 -4 27 -8 37 -9v-6h-168c-150 0 -170 0 -188 -31c-15 -26 -22 -62 -22 -104c0 -52 22 -73 63 -76v-6zM298 193l-75 215h-3l-79 -215h157z" />
    <glyph glyph-name="Aringacute" unicode="&#x1fa;" horiz-adv-x="642" 
d="M662 0h-403v6c10 1 29 6 38 10c17 7 33 24 33 50s-5 50 -17 85l-9 26h-169l-12 -34c-8 -22 -15 -49 -15 -68c0 -30 13 -51 32 -59c16 -7 30 -9 40 -10v-6h-205v6c13 2 28 6 42 15s28 23 43 44c14 20 28 47 41 82l194 515h60l150 -432c27 -77 50 -136 73 -173
c16 -25 33 -37 47 -42c12 -4 27 -8 37 -9v-6zM298 193l-75 215h-3l-79 -215h157zM417 794c1 -51 -46 -93 -96 -93c-53 0 -96 39 -96 93s42 93 95 93c54 0 96 -38 97 -93zM382 793c0 38 -25 64 -63 64c-37 0 -62 -26 -62 -63c0 -36 25 -62 61 -62c38 0 64 22 64 61zM204 902
l-4 6c59 56 103 93 134 124c29 28 48 33 75 33c30 0 59 -24 59 -69c0 -37 -36 -55 -69 -62c-41 -9 -121 -21 -195 -32z" />
    <glyph glyph-name="AEacute" unicode="&#x1fc;" horiz-adv-x="933" 
d="M893 280l-6 -280h-566v4c6 0 16 2 28 6c22 4 38 16 48 54c4 16 6 38 6 66v67h-241l-17 -29c-15 -25 -27 -74 -27 -93c0 -30 13 -51 32 -59c16 -7 30 -9 40 -10v-6h-215v6c73 9 115 106 148 163l262 453c-9 14 -21 20 -36 23c-12 4 -22 4 -28 4v8h550l16 -240h-6
c-20 44 -54 108 -94 160c-28 36 -70 64 -110 64h-8c-26 0 -42 -6 -54 -22c-12 -18 -18 -44 -18 -76v-193h34c58 0 62 2 82 22c26 24 58 89 62 121h6v-303h-6c-4 32 -32 94 -58 116c-18 14 -28 28 -86 28h-34v-202c0 -36 3 -66 18 -86s36 -30 64 -30h16c26 0 60 18 86 56
c40 56 84 142 106 208h6zM403 213v314c0 25 -1 52 -9 76l-223 -390h232zM504 691l-4 6c59 56 103 93 134 124c29 28 48 33 75 33c30 0 59 -24 59 -69c0 -37 -36 -55 -69 -62c-41 -9 -121 -21 -195 -32z" />
    <glyph glyph-name="Cacute" unicode="&#x106;" horiz-adv-x="640" 
d="M625 208c-30 -127 -138 -223 -255 -223c-157 0 -341 75 -341 344s193 342 350 342c83 0 156 -29 182 -78h4l33 60h5v-227h-7c-31 137 -93 229 -209 229c-39 0 -76 -16 -95 -41c-34 -44 -52 -132 -52 -285s25 -217 81 -268c19 -17 53 -30 101 -30c74 0 147 61 186 185z
M244 691l-4 6c59 56 103 93 134 124c29 28 48 33 75 33c30 0 59 -24 59 -69c0 -37 -36 -55 -69 -62c-41 -9 -121 -21 -195 -32z" />
    <glyph glyph-name="Ccaron" unicode="&#x10c;" horiz-adv-x="640" 
d="M625 208c-30 -127 -138 -223 -255 -223c-157 0 -341 75 -341 344s193 342 350 342c83 0 156 -29 182 -78h4l33 60h5v-227h-7c-31 137 -93 229 -209 229c-39 0 -76 -16 -95 -41c-34 -44 -52 -132 -52 -285s25 -217 81 -268c19 -17 53 -30 101 -30c74 0 147 61 186 185z
M212 843l7 5l141 -59l141 59l7 -5l-110 -141h-76z" />
    <glyph glyph-name="Ccircumflex" unicode="&#x108;" horiz-adv-x="640" 
d="M625 208c-30 -127 -138 -223 -255 -223c-157 0 -341 75 -341 344s193 342 350 342c83 0 156 -29 182 -78h4l33 60h5v-227h-7c-31 137 -93 229 -209 229c-39 0 -76 -16 -95 -41c-34 -44 -52 -132 -52 -285s25 -217 81 -268c19 -17 53 -30 101 -30c74 0 147 61 186 185z
M508 707l-7 -5l-141 59l-141 -59l-7 5l110 141h76z" />
    <glyph glyph-name="Cdotaccent" unicode="&#x10a;" horiz-adv-x="640" 
d="M625 208c-30 -127 -138 -223 -255 -223c-157 0 -341 75 -341 344s193 342 350 342c83 0 156 -29 182 -78h4l33 60h5v-227h-7c-31 137 -93 229 -209 229c-39 0 -76 -16 -95 -41c-34 -44 -52 -132 -52 -285s25 -217 81 -268c19 -17 53 -30 101 -30c74 0 147 61 186 185z
M447 785c0 -47 -36 -87 -88 -87c-51 0 -86 40 -86 87c0 48 37 89 86 89c50 0 88 -41 88 -89z" />
    <glyph glyph-name="Dcaron" unicode="&#x10e;" horiz-adv-x="729" 
d="M397 657c70 0 119 -14 160 -39c88 -53 142 -161 142 -287s-47 -242 -137 -291c-41 -22 -90 -40 -148 -40h-394v5c6 0 16 2 29 5c22 5 37 17 47 53c4 16 7 40 7 67v397c0 27 -3 51 -7 67c-10 36 -25 48 -47 53c-13 3 -23 5 -29 5v5h377zM371 641h-26c-20 0 -33 -8 -41 -28
c-4 -12 -4 -28 -4 -50v-439c0 -26 2 -52 10 -72c8 -21 28 -36 50 -36h8c21 0 63 7 85 52c24 49 39 110 39 263s-13 207 -37 256c-22 45 -56 54 -84 54zM206 843l7 5l141 -59l141 59l7 -5l-110 -141h-76z" />
    <glyph glyph-name="Ebreve" unicode="&#x114;" horiz-adv-x="632" 
d="M592 280l-6 -280h-566v4c6 0 16 3 28 6c22 6 38 16 48 54c4 16 6 38 6 66v399c0 26 -2 50 -6 66c-10 36 -26 46 -48 52c-12 3 -22 4 -28 4v6h550l16 -240h-6c-20 44 -54 108 -94 160c-28 36 -70 64 -110 64h-8c-26 0 -42 -6 -54 -22c-12 -18 -18 -44 -18 -76v-194h34
c58 0 62 2 82 22c26 24 58 90 62 122h6v-303h-6c-4 32 -32 94 -58 116c-18 14 -28 27 -86 27h-34v-201c0 -36 3 -66 18 -86s36 -30 64 -30h16c26 0 60 18 86 56c40 56 84 142 106 208h6zM470 846c-7 -96 -57 -148 -144 -148s-137 52 -144 148l9 6c27 -44 79 -68 135 -68
s108 24 135 68z" />
    <glyph glyph-name="Ecaron" unicode="&#x11a;" horiz-adv-x="632" 
d="M592 280l-6 -280h-566v4c6 0 16 3 28 6c22 6 38 16 48 54c4 16 6 38 6 66v399c0 26 -2 50 -6 66c-10 36 -26 46 -48 52c-12 3 -22 4 -28 4v6h550l16 -240h-6c-20 44 -54 108 -94 160c-28 36 -70 64 -110 64h-8c-26 0 -42 -6 -54 -22c-12 -18 -18 -44 -18 -76v-194h34
c58 0 62 2 82 22c26 24 58 90 62 122h6v-303h-6c-4 32 -32 94 -58 116c-18 14 -28 27 -86 27h-34v-201c0 -36 3 -66 18 -86s36 -30 64 -30h16c26 0 60 18 86 56c40 56 84 142 106 208h6zM178 843l7 5l141 -59l141 59l7 -5l-110 -141h-76z" />
    <glyph glyph-name="Edotaccent" unicode="&#x116;" horiz-adv-x="632" 
d="M592 280l-6 -280h-566v4c6 0 16 3 28 6c22 6 38 16 48 54c4 16 6 38 6 66v399c0 26 -2 50 -6 66c-10 36 -26 46 -48 52c-12 3 -22 4 -28 4v6h550l16 -240h-6c-20 44 -54 108 -94 160c-28 36 -70 64 -110 64h-8c-26 0 -42 -6 -54 -22c-12 -18 -18 -44 -18 -76v-194h34
c58 0 62 2 82 22c26 24 58 90 62 122h6v-303h-6c-4 32 -32 94 -58 116c-18 14 -28 27 -86 27h-34v-201c0 -36 3 -66 18 -86s36 -30 64 -30h16c26 0 60 18 86 56c40 56 84 142 106 208h6zM413 785c0 -47 -36 -87 -88 -87c-51 0 -86 40 -86 87c0 48 37 89 86 89
c50 0 88 -41 88 -89z" />
    <glyph glyph-name="Emacron" unicode="&#x112;" horiz-adv-x="632" 
d="M592 280l-6 -280h-566v4c6 0 16 3 28 6c22 6 38 16 48 54c4 16 6 38 6 66v399c0 26 -2 50 -6 66c-10 36 -26 46 -48 52c-12 3 -22 4 -28 4v6h550l16 -240h-6c-20 44 -54 108 -94 160c-28 36 -70 64 -110 64h-8c-26 0 -42 -6 -54 -22c-12 -18 -18 -44 -18 -76v-194h34
c58 0 62 2 82 22c26 24 58 90 62 122h6v-303h-6c-4 32 -32 94 -58 116c-18 14 -28 27 -86 27h-34v-201c0 -36 3 -66 18 -86s36 -30 64 -30h16c26 0 60 18 86 56c40 56 84 142 106 208h6zM471 707h-290v62h290v-62z" />
    <glyph glyph-name="Eogonek" unicode="&#x118;" horiz-adv-x="632" 
d="M592 280l-6 -280h-112c-39 -39 -49 -79 -49 -135c0 -52 22 -73 63 -76v-6c-129 -6 -193 21 -193 80c0 68 85 83 166 137h-441v4c6 0 16 3 28 6c22 6 38 16 48 54c4 16 6 38 6 66v399c0 26 -2 50 -6 66c-10 36 -26 46 -48 52c-12 3 -22 4 -28 4v6h550l16 -240h-6
c-20 44 -54 108 -94 160c-28 36 -70 64 -110 64h-8c-26 0 -42 -6 -54 -22c-12 -18 -18 -44 -18 -76v-194h34c58 0 62 2 82 22c26 24 58 90 62 122h6v-303h-6c-4 32 -32 94 -58 116c-18 14 -28 27 -86 27h-34v-201c0 -36 3 -66 18 -86s36 -30 64 -30h16c26 0 60 18 86 56
c40 56 84 142 106 208h6z" />
    <glyph glyph-name="Gbreve" unicode="&#x11e;" horiz-adv-x="684" 
d="M674 301c-6 -1 -24 -4 -32 -7c-12 -5 -29 -18 -38 -44c-5 -14 -8 -37 -8 -59v-149c-21 -9 -55 -21 -109 -36c-36 -10 -103 -21 -147 -21c-171 0 -311 131 -311 344c0 210 146 341 327 341c92 0 170 -52 187 -78h4l28 47h6v-241h-4c-13 69 -34 118 -67 166s-73 84 -134 84
c-33 0 -64 -12 -88 -47c-31 -45 -51 -129 -51 -272c0 -129 11 -208 29 -257c22 -57 53 -71 87 -71c40 0 48 14 61 31c15 20 18 60 18 79v60c0 52 -5 74 -15 91c-13 21 -24 27 -45 34c-9 3 -18 4 -27 5v6h329v-6zM501 846c-7 -96 -57 -148 -144 -148s-137 52 -144 148l9 6
c27 -44 79 -68 135 -68s108 24 135 68z" />
    <glyph glyph-name="Gcircumflex" unicode="&#x11c;" horiz-adv-x="684" 
d="M674 301c-6 -1 -24 -4 -32 -7c-12 -5 -29 -18 -38 -44c-5 -14 -8 -37 -8 -59v-149c-21 -9 -55 -21 -109 -36c-36 -10 -103 -21 -147 -21c-171 0 -311 131 -311 344c0 210 146 341 327 341c92 0 170 -52 187 -78h4l28 47h6v-241h-4c-13 69 -34 118 -67 166s-73 84 -134 84
c-33 0 -64 -12 -88 -47c-31 -45 -51 -129 -51 -272c0 -129 11 -208 29 -257c22 -57 53 -71 87 -71c40 0 48 14 61 31c15 20 18 60 18 79v60c0 52 -5 74 -15 91c-13 21 -24 27 -45 34c-9 3 -18 4 -27 5v6h329v-6zM505 707l-7 -5l-141 59l-141 -59l-7 5l110 141h76z" />
    <glyph glyph-name="Gcommaaccent" unicode="&#x122;" horiz-adv-x="684" 
d="M674 301c-6 -1 -24 -4 -32 -7c-12 -5 -29 -18 -38 -44c-5 -14 -8 -37 -8 -59v-149c-21 -9 -55 -21 -109 -36c-36 -10 -103 -21 -147 -21c-171 0 -311 131 -311 344c0 210 146 341 327 341c92 0 170 -52 187 -78h4l28 47h6v-241h-4c-13 69 -34 118 -67 166s-73 84 -134 84
c-33 0 -64 -12 -88 -47c-31 -45 -51 -129 -51 -272c0 -129 11 -208 29 -257c22 -57 53 -71 87 -71c40 0 48 14 61 31c15 20 18 60 18 79v60c0 52 -5 74 -15 91c-13 21 -24 27 -45 34c-9 3 -18 4 -27 5v6h329v-6zM426 -126c0 -81 -62 -125 -147 -145l-5 13c53 14 88 31 88 57
c0 10 -4 18 -13 20c-49 9 -78 26 -78 75c0 43 43 66 72 66c45 0 83 -32 83 -86z" />
    <glyph glyph-name="Gdotaccent" unicode="&#x120;" horiz-adv-x="684" 
d="M674 301c-6 -1 -24 -4 -32 -7c-12 -5 -29 -18 -38 -44c-5 -14 -8 -37 -8 -59v-149c-21 -9 -55 -21 -109 -36c-36 -10 -103 -21 -147 -21c-171 0 -311 131 -311 344c0 210 146 341 327 341c92 0 170 -52 187 -78h4l28 47h6v-241h-4c-13 69 -34 118 -67 166s-73 84 -134 84
c-33 0 -64 -12 -88 -47c-31 -45 -51 -129 -51 -272c0 -129 11 -208 29 -257c22 -57 53 -71 87 -71c40 0 48 14 61 31c15 20 18 60 18 79v60c0 52 -5 74 -15 91c-13 21 -24 27 -45 34c-9 3 -18 4 -27 5v6h329v-6zM444 785c0 -47 -36 -87 -88 -87c-51 0 -86 40 -86 87
c0 48 37 89 86 89c50 0 88 -41 88 -89z" />
    <glyph glyph-name="Hbar" unicode="&#x126;" horiz-adv-x="778" 
d="M20 460v24h82v43c0 28 -2 52 -6 68c-10 36 -26 47 -48 52c-14 3 -22 6 -28 6v4h354v-4c-6 0 -14 -2 -24 -6c-20 -8 -36 -16 -46 -52c-4 -16 -6 -40 -6 -68v-43h182v43c0 28 -2 52 -6 68c-10 36 -25 44 -45 52c-8 4 -19 6 -25 6v4h354v-4c-6 0 -16 -3 -28 -6
c-22 -6 -38 -16 -48 -52c-4 -16 -6 -40 -6 -68v-43h82v-24h-82v-330c0 -28 2 -50 6 -66c10 -38 26 -48 48 -54c12 -3 22 -4 28 -4v-6h-354v6c4 0 12 1 22 4c22 7 38 16 48 54c4 16 6 38 6 66v188h-182v-188c0 -28 2 -50 6 -66c10 -38 26 -48 46 -54c12 -4 20 -4 24 -4v-6
h-354v6c6 0 14 0 28 4c22 4 38 16 48 54c4 16 6 38 6 66v330h-82zM298 342h182v118h-182v-118z" />
    <glyph glyph-name="Hcircumflex" unicode="&#x124;" horiz-adv-x="778" 
d="M20 0v6c6 0 14 0 28 4c22 4 38 16 48 54c4 16 6 38 6 66v397c0 28 -2 52 -6 68c-10 36 -26 47 -48 52c-14 3 -22 6 -28 6v4h354v-4c-6 0 -14 -2 -24 -6c-20 -8 -36 -16 -46 -52c-4 -16 -6 -40 -6 -68v-185h182v185c0 28 -2 52 -6 68c-10 36 -25 44 -45 52
c-8 4 -19 6 -25 6v4h354v-4c-6 0 -16 -3 -28 -6c-22 -6 -38 -16 -48 -52c-4 -16 -6 -40 -6 -68v-397c0 -28 2 -50 6 -66c10 -38 26 -48 48 -54c12 -3 22 -4 28 -4v-6h-354v6c4 0 12 1 22 4c22 7 38 16 48 54c4 16 6 38 6 66v188h-182v-188c0 -28 2 -50 6 -66
c10 -38 26 -48 46 -54c12 -4 20 -4 24 -4v-6h-354zM537 707l-7 -5l-141 59l-141 -59l-7 5l110 141h76z" />
    <glyph glyph-name="Idotaccent" unicode="&#x130;" horiz-adv-x="402" 
d="M382 0h-362v6c6 0 16 1 28 4c22 6 37 17 48 54c5 16 6 38 6 66v399c0 26 -1 50 -6 66c-11 35 -26 46 -48 52c-12 3 -17 5 -28 6v4h362v-4l-28 -6c-22 -6 -38 -16 -48 -52c-4 -16 -6 -40 -6 -66v-399c0 -28 2 -50 6 -66c10 -38 26 -48 48 -54c12 -3 22 -4 28 -4v-6z
M288 785c0 -47 -36 -87 -88 -87c-51 0 -86 40 -86 87c0 48 37 89 86 89c50 0 88 -41 88 -89z" />
    <glyph glyph-name="Ibreve" unicode="&#x12c;" horiz-adv-x="402" 
d="M382 0h-362v6c6 0 16 1 28 4c22 6 37 17 48 54c5 16 6 38 6 66v399c0 26 -1 50 -6 66c-11 35 -26 46 -48 52c-12 3 -17 5 -28 6v4h362v-4l-28 -6c-22 -6 -38 -16 -48 -52c-4 -16 -6 -40 -6 -66v-399c0 -28 2 -50 6 -66c10 -38 26 -48 48 -54c12 -3 22 -4 28 -4v-6z
M345 846c-7 -96 -57 -148 -144 -148s-137 52 -144 148l9 6c27 -44 79 -68 135 -68s108 24 135 68z" />
    <glyph glyph-name="Imacron" unicode="&#x12a;" horiz-adv-x="402" 
d="M382 0h-362v6c6 0 16 1 28 4c22 6 37 17 48 54c5 16 6 38 6 66v399c0 26 -1 50 -6 66c-11 35 -26 46 -48 52c-12 3 -17 5 -28 6v4h362v-4l-28 -6c-22 -6 -38 -16 -48 -52c-4 -16 -6 -40 -6 -66v-399c0 -28 2 -50 6 -66c10 -38 26 -48 48 -54c12 -3 22 -4 28 -4v-6z
M346 707h-290v62h290v-62z" />
    <glyph glyph-name="Iogonek" unicode="&#x12e;" horiz-adv-x="402" 
d="M316 -217c-129 -6 -193 21 -193 80c0 68 80 83 154 137h-257v6c6 0 16 1 28 4c22 6 37 17 48 54c5 16 6 38 6 66v399c0 26 -1 50 -6 66c-11 35 -26 46 -48 52c-12 3 -17 5 -28 6v4h362v-4l-28 -6c-22 -6 -38 -16 -48 -52c-4 -16 -6 -40 -6 -66v-399c0 -28 2 -50 6 -66
c10 -38 26 -48 48 -54c12 -3 22 -4 28 -4v-6h-92c-22 -35 -37 -67 -37 -135c0 -52 22 -73 63 -76v-6z" />
    <glyph glyph-name="Itilde" unicode="&#x128;" horiz-adv-x="402" 
d="M382 0h-362v6c6 0 16 1 28 4c22 6 37 17 48 54c5 16 6 38 6 66v399c0 26 -1 50 -6 66c-11 35 -26 46 -48 52c-12 3 -17 5 -28 6v4h362v-4l-28 -6c-22 -6 -38 -16 -48 -52c-4 -16 -6 -40 -6 -66v-399c0 -28 2 -50 6 -66c10 -38 26 -48 48 -54c12 -3 22 -4 28 -4v-6z
M381 848c-13 -65 -36 -138 -115 -138c-37 0 -137 30 -150 30c-29 0 -50 -3 -60 -41l-15 3c13 65 36 133 115 133c25 0 137 -30 148 -30c35 0 53 11 62 45z" />
    <glyph glyph-name="Jcircumflex" unicode="&#x134;" horiz-adv-x="510" 
d="M506 652c-6 0 -15 -1 -28 -5c-23 -7 -38 -17 -48 -53c-4 -16 -6 -40 -6 -67v-286c0 -105 -31 -169 -73 -205s-103 -50 -176 -50c-50 0 -104 13 -131 37c-31 28 -54 67 -54 113c0 79 43 105 97 105c60 0 93 -35 93 -87c0 -19 -6 -45 -13 -65c-9 -25 -20 -43 -20 -51
c0 -23 10 -33 28 -33c22 0 36 10 42 34c5 20 10 71 10 105v383c0 27 -2 51 -6 67c-10 36 -27 48 -49 53c-13 3 -22 5 -28 5v5h362v-5zM474 707l-7 -5l-141 59l-141 -59l-7 5l110 141h76z" />
    <glyph glyph-name="Kcommaaccent" unicode="&#x136;" horiz-adv-x="710" 
d="M678 657v-4c-22 -4 -56 -16 -78 -30c-28 -18 -47 -34 -88 -84l-122 -146v-4c83 -9 138 -34 173 -67c38 -35 57 -109 65 -160c14 -88 30 -122 52 -138c14 -10 36 -18 50 -20v-4h-260c-16 18 -36 66 -42 132c-6 64 1 122 -26 168c-9 16 -23 22 -47 22c-13 0 -33 -8 -43 -18
l-14 -14v-160c0 -28 2 -50 6 -66c10 -38 26 -48 46 -54c12 -4 20 -4 24 -4v-6h-354v6c6 0 16 1 28 4c22 6 38 16 48 54c4 16 6 38 6 66v397c0 28 -2 52 -6 68c-10 36 -24 43 -48 52c-12 4 -22 6 -28 6v4h354v-4c-8 -1 -14 -2 -24 -6c-20 -8 -36 -16 -46 -52
c-4 -16 -6 -40 -6 -68v-213l160 195c40 49 52 73 52 94c0 24 -10 36 -26 42c-10 4 -22 6 -36 8v4h230zM459 -126c0 -81 -62 -125 -147 -145l-5 13c53 14 88 31 88 57c0 10 -4 18 -13 20c-49 9 -78 26 -78 75c0 43 43 66 72 66c45 0 83 -32 83 -86z" />
    <glyph glyph-name="Lacute" unicode="&#x139;" horiz-adv-x="624" 
d="M592 260l-6 -260h-566v6c10 0 24 3 34 6c21 6 37 20 44 42c13 38 14 108 14 180v190c0 72 -2 143 -14 179c-8 24 -25 38 -46 44c-10 3 -19 5 -30 6v4h378v-4c-8 -2 -20 -3 -30 -6c-21 -6 -38 -20 -46 -44c-12 -36 -16 -107 -16 -179v-236c0 -56 4 -90 10 -112
c6 -20 14 -36 26 -44c18 -12 30 -16 44 -16h14c31 0 50 18 72 50c35 51 93 153 112 194h6zM101 691l-4 6c59 56 103 93 134 124c29 28 48 33 75 33c30 0 59 -24 59 -69c0 -37 -36 -55 -69 -62c-41 -9 -121 -21 -195 -32z" />
    <glyph glyph-name="Lcaron" unicode="&#x13d;" horiz-adv-x="624" 
d="M592 260l-6 -260h-566v6c10 0 24 3 34 6c21 6 37 20 44 42c13 38 14 108 14 180v190c0 72 -2 143 -14 179c-8 24 -25 38 -46 44c-10 3 -19 5 -30 6v4h378v-4c-8 -2 -20 -3 -30 -6c-21 -6 -38 -20 -46 -44c-12 -36 -16 -107 -16 -179v-236c0 -56 4 -90 10 -112
c6 -20 14 -36 26 -44c18 -12 30 -16 44 -16h14c31 0 50 18 72 50c35 51 93 153 112 194h6zM433 447l15 210h110c-33 -55 -80 -145 -113 -210h-12z" />
    <glyph glyph-name="Lcommaaccent" unicode="&#x13b;" horiz-adv-x="624" 
d="M592 260l-6 -260h-566v6c10 0 24 3 34 6c21 6 37 20 44 42c13 38 14 108 14 180v190c0 72 -2 143 -14 179c-8 24 -25 38 -46 44c-10 3 -19 5 -30 6v4h378v-4c-8 -2 -20 -3 -30 -6c-21 -6 -38 -20 -46 -44c-12 -36 -16 -107 -16 -179v-236c0 -56 4 -90 10 -112
c6 -20 14 -36 26 -44c18 -12 30 -16 44 -16h14c31 0 50 18 72 50c35 51 93 153 112 194h6zM414 -126c0 -81 -62 -125 -147 -145l-5 13c53 14 88 31 88 57c0 10 -4 18 -13 20c-49 9 -78 26 -78 75c0 43 43 66 72 66c45 0 83 -32 83 -86z" />
    <glyph glyph-name="Ldot" unicode="&#x13f;" horiz-adv-x="624" 
d="M592 238l-6 -238h-566v6c10 0 24 3 34 6c21 6 37 20 44 42c13 38 14 108 14 180v190c0 72 -2 143 -14 179c-8 24 -25 38 -46 44c-10 3 -19 5 -30 6v4h378v-4c-8 -2 -20 -3 -30 -6c-21 -6 -38 -20 -46 -44c-12 -36 -16 -107 -16 -179v-236c0 -56 4 -90 10 -112
c6 -20 14 -36 26 -44c18 -12 30 -16 44 -16h14c31 0 50 16 72 45c35 47 93 140 112 177h6zM619 358c0 -47 -37 -87 -88 -87s-87 40 -87 87c0 48 37 89 87 89c49 0 88 -41 88 -89z" />
    <glyph glyph-name="Nacute" unicode="&#x143;" horiz-adv-x="690" 
d="M690 651c-14 0 -24 -3 -34 -6c-18 -5 -33 -20 -42 -42c-9 -24 -18 -55 -18 -121v-484h-58l-378 517h-4v-343c0 -64 9 -96 18 -120c9 -22 26 -37 44 -42c10 -3 20 -4 34 -6v-4h-210v4c14 2 24 3 34 6c18 5 35 20 44 42c9 24 18 56 18 120v280c0 64 -10 117 -22 141
c-12 22 -30 38 -62 50c-10 4 -26 8 -34 8v6h290l264 -377h2v202c0 66 -8 97 -16 121c-10 22 -28 37 -46 42c-10 3 -18 6 -32 6v6h208v-6zM279 691l-4 6c59 56 103 93 134 124c29 28 48 33 75 33c30 0 59 -24 59 -69c0 -37 -36 -55 -69 -62c-41 -9 -121 -21 -195 -32z" />
    <glyph glyph-name="Ncaron" unicode="&#x147;" horiz-adv-x="690" 
d="M690 651c-14 0 -24 -3 -34 -6c-18 -5 -33 -20 -42 -42c-9 -24 -18 -55 -18 -121v-484h-58l-378 517h-4v-343c0 -64 9 -96 18 -120c9 -22 26 -37 44 -42c10 -3 20 -4 34 -6v-4h-210v4c14 2 24 3 34 6c18 5 35 20 44 42c9 24 18 56 18 120v280c0 64 -10 117 -22 141
c-12 22 -30 38 -62 50c-10 4 -26 8 -34 8v6h290l264 -377h2v202c0 66 -8 97 -16 121c-10 22 -28 37 -46 42c-10 3 -18 6 -32 6v6h208v-6zM247 843l7 5l141 -59l141 59l7 -5l-110 -141h-76z" />
    <glyph glyph-name="Ncommaaccent" unicode="&#x145;" horiz-adv-x="690" 
d="M690 651c-14 0 -24 -3 -34 -6c-18 -5 -33 -20 -42 -42c-9 -24 -18 -55 -18 -121v-484h-58l-378 517h-4v-343c0 -64 9 -96 18 -120c9 -22 26 -37 44 -42c10 -3 20 -4 34 -6v-4h-210v4c14 2 24 3 34 6c18 5 35 20 44 42c9 24 18 56 18 120v280c0 64 -10 117 -22 141
c-12 22 -30 38 -62 50c-10 4 -26 8 -34 8v6h290l264 -377h2v202c0 66 -8 97 -16 121c-10 22 -28 37 -46 42c-10 3 -18 6 -32 6v6h208v-6zM437 -126c0 -81 -62 -125 -147 -145l-5 13c53 14 88 31 88 57c0 10 -4 18 -13 20c-49 9 -78 26 -78 75c0 43 43 66 72 66
c45 0 83 -32 83 -86z" />
    <glyph glyph-name="Obreve" unicode="&#x14e;" horiz-adv-x="706" 
d="M676 329c0 -217 -127 -343 -324 -343c-196 0 -323 126 -323 343c0 216 127 341 323 341c197 0 324 -125 324 -341zM466 329c0 193 -27 279 -63 312c-14 12 -34 14 -51 14c-16 0 -36 -2 -50 -14c-36 -33 -63 -119 -63 -312c0 -194 27 -282 63 -314c14 -12 34 -14 50 -14
c17 0 37 2 51 14c36 32 63 120 63 314zM496 846c-7 -96 -57 -148 -144 -148s-137 52 -144 148l9 6c27 -44 79 -68 135 -68s108 24 135 68z" />
    <glyph glyph-name="Ohungarumlaut" unicode="&#x150;" horiz-adv-x="706" 
d="M676 329c0 -217 -127 -343 -324 -343c-196 0 -323 126 -323 343c0 216 127 341 323 341c197 0 324 -125 324 -341zM466 329c0 193 -27 279 -63 312c-14 12 -34 14 -51 14c-16 0 -36 -2 -50 -14c-36 -33 -63 -119 -63 -312c0 -194 27 -282 63 -314c14 -12 34 -14 50 -14
c17 0 37 2 51 14c36 32 63 120 63 314zM412 830c0 -25 -33 -52 -63 -67c-26 -13 -78 -36 -134 -62h-11c47 67 62 97 87 132c24 33 45 46 70 46c32 0 51 -15 51 -49zM592 830c0 -25 -33 -52 -63 -67c-26 -13 -78 -36 -134 -62h-11c47 67 62 97 87 132c24 33 45 46 70 46
c32 0 51 -15 51 -49z" />
    <glyph glyph-name="Omacron" unicode="&#x14c;" horiz-adv-x="706" 
d="M676 329c0 -217 -127 -343 -324 -343c-196 0 -323 126 -323 343c0 216 127 341 323 341c197 0 324 -125 324 -341zM466 329c0 193 -27 279 -63 312c-14 12 -34 14 -51 14c-16 0 -36 -2 -50 -14c-36 -33 -63 -119 -63 -312c0 -194 27 -282 63 -314c14 -12 34 -14 50 -14
c17 0 37 2 51 14c36 32 63 120 63 314zM497 707h-290v62h290v-62z" />
    <glyph glyph-name="Oslashacute" unicode="&#x1fe;" horiz-adv-x="706" 
d="M676 329c0 -217 -127 -343 -324 -343c-67 0 -125 13 -173 41l-51 -87l-15 9l51 88c-85 56 -135 156 -135 292c0 216 127 341 323 341c60 0 113 -10 158 -32l46 79l16 -9l-45 -79c94 -54 149 -158 149 -300zM451 534c-11 57 -28 89 -48 107c-14 12 -34 14 -51 14
c-16 0 -36 -2 -50 -14c-36 -33 -63 -119 -63 -312c0 -59 3 -108 7 -149zM466 329c0 73 -4 131 -11 177l-205 -356c11 -75 30 -115 52 -135c14 -12 34 -14 50 -14c17 0 37 2 51 14c36 32 63 120 63 314zM236 691l-4 6c59 56 103 93 134 124c29 28 48 33 75 33
c30 0 59 -24 59 -69c0 -37 -36 -55 -69 -62c-41 -9 -121 -21 -195 -32z" />
    <glyph glyph-name="Racute" unicode="&#x154;" horiz-adv-x="713" 
d="M723 0h-256c-16 26 -34 78 -38 135c-5 68 -10 116 -33 150c-20 29 -41 28 -79 28h-18v-183c0 -27 5 -50 9 -66c9 -37 26 -49 47 -54c13 -3 25 -5 31 -5v-5h-366v5c7 0 16 2 29 5c21 5 39 17 48 54c4 16 5 39 5 66v397c0 27 -3 50 -7 66c-10 36 -26 48 -48 53
c-13 3 -21 5 -27 5v6h374c131 0 246 -36 246 -166c0 -73 -42 -129 -102 -152c-26 -10 -49 -20 -82 -19v-2c27 -4 82 -14 106 -31c31 -22 63 -56 72 -114c12 -82 27 -133 49 -155c9 -9 31 -13 40 -14v-4zM352 641h-9c-17 0 -29 -7 -37 -21c-6 -12 -7 -33 -7 -49v-239h31
c33 0 57 10 69 33c16 30 21 91 21 133c0 91 -19 143 -68 143zM236 691l-4 6c59 56 103 93 134 124c29 28 48 33 75 33c30 0 59 -24 59 -69c0 -37 -36 -55 -69 -62c-41 -9 -121 -21 -195 -32z" />
    <glyph glyph-name="Rcaron" unicode="&#x158;" horiz-adv-x="713" 
d="M723 0h-256c-16 26 -34 78 -38 135c-5 68 -10 116 -33 150c-20 29 -41 28 -79 28h-18v-183c0 -27 5 -50 9 -66c9 -37 26 -49 47 -54c13 -3 25 -5 31 -5v-5h-366v5c7 0 16 2 29 5c21 5 39 17 48 54c4 16 5 39 5 66v397c0 27 -3 50 -7 66c-10 36 -26 48 -48 53
c-13 3 -21 5 -27 5v6h374c131 0 246 -36 246 -166c0 -73 -42 -129 -102 -152c-26 -10 -49 -20 -82 -19v-2c27 -4 82 -14 106 -31c31 -22 63 -56 72 -114c12 -82 27 -133 49 -155c9 -9 31 -13 40 -14v-4zM352 641h-9c-17 0 -29 -7 -37 -21c-6 -12 -7 -33 -7 -49v-239h31
c33 0 57 10 69 33c16 30 21 91 21 133c0 91 -19 143 -68 143zM204 843l7 5l141 -59l141 59l7 -5l-110 -141h-76z" />
    <glyph glyph-name="Rcommaaccent" unicode="&#x156;" horiz-adv-x="713" 
d="M723 0h-256c-16 26 -34 78 -38 135c-5 68 -10 116 -33 150c-20 29 -41 28 -79 28h-18v-183c0 -27 5 -50 9 -66c9 -37 26 -49 47 -54c13 -3 25 -5 31 -5v-5h-366v5c7 0 16 2 29 5c21 5 39 17 48 54c4 16 5 39 5 66v397c0 27 -3 50 -7 66c-10 36 -26 48 -48 53
c-13 3 -21 5 -27 5v6h374c131 0 246 -36 246 -166c0 -73 -42 -129 -102 -152c-26 -10 -49 -20 -82 -19v-2c27 -4 82 -14 106 -31c31 -22 63 -56 72 -114c12 -82 27 -133 49 -155c9 -9 31 -13 40 -14v-4zM352 641h-9c-17 0 -29 -7 -37 -21c-6 -12 -7 -33 -7 -49v-239h31
c33 0 57 10 69 33c16 30 21 91 21 133c0 91 -19 143 -68 143zM453 -126c0 -81 -62 -125 -147 -145l-5 13c53 14 88 31 88 57c0 10 -4 18 -13 20c-49 9 -78 26 -78 75c0 43 43 66 72 66c45 0 83 -32 83 -86z" />
    <glyph glyph-name="Sacute" unicode="&#x15a;" horiz-adv-x="564" 
d="M544 203c0 -147 -118 -216 -264 -216c-70 0 -159 38 -182 69h-4l-38 -55h-8l-3 244h10c31 -111 119 -242 228 -242c70 0 101 41 101 95c0 47 -13 88 -128 133c-94 36 -216 99 -216 240c0 125 123 199 248 199c62 0 112 -27 135 -58h3l44 42h8l10 -225h-8
c-11 45 -28 93 -52 133c-32 52 -75 90 -135 90c-74 0 -99 -40 -99 -78c0 -89 63 -106 137 -137c102 -42 213 -91 213 -234zM170 691l-4 6c59 56 103 93 134 124c29 28 48 33 75 33c30 0 59 -24 59 -69c0 -37 -36 -55 -69 -62c-41 -9 -121 -21 -195 -32z" />
    <glyph glyph-name="Scedilla" unicode="&#x15e;" horiz-adv-x="564" 
d="M371 -108c0 -63 -63 -83 -121 -83c-24 0 -62 9 -78 18l4 7c13 -5 34 -9 53 -9c35 0 55 20 55 65c0 40 -18 56 -36 56c-8 0 -17 -1 -24 -10l-13 4l14 54c-56 11 -110 39 -127 62h-4l-38 -55h-8l-3 244h10c31 -111 119 -242 228 -242c70 0 101 41 101 95
c0 47 -13 88 -128 133c-94 36 -216 99 -216 240c0 125 123 199 248 199c62 0 112 -27 135 -58h3l44 42h8l10 -225h-8c-11 45 -28 93 -52 133c-32 52 -75 90 -135 90c-74 0 -99 -40 -99 -78c0 -89 63 -106 137 -137c102 -42 213 -91 213 -234c0 -147 -118 -216 -264 -216
c-13 0 -25 1 -40 4l-10 -40c8 7 37 15 51 15c60 0 90 -23 90 -74z" />
    <glyph glyph-name="Scircumflex" unicode="&#x15c;" horiz-adv-x="564" 
d="M544 203c0 -147 -118 -216 -264 -216c-70 0 -159 38 -182 69h-4l-38 -55h-8l-3 244h10c31 -111 119 -242 228 -242c70 0 101 41 101 95c0 47 -13 88 -128 133c-94 36 -216 99 -216 240c0 125 123 199 248 199c62 0 112 -27 135 -58h3l44 42h8l10 -225h-8
c-11 45 -28 93 -52 133c-32 52 -75 90 -135 90c-74 0 -99 -40 -99 -78c0 -89 63 -106 137 -137c102 -42 213 -91 213 -234zM434 707l-7 -5l-141 59l-141 -59l-7 5l110 141h76z" />
    <glyph glyph-name="Scommaaccent" unicode="&#x218;" horiz-adv-x="564" 
d="M544 203c0 -147 -118 -216 -264 -216c-70 0 -159 38 -182 69h-4l-38 -55h-8l-3 244h10c31 -111 119 -242 228 -242c70 0 101 41 101 95c0 47 -13 88 -128 133c-94 36 -216 99 -216 240c0 125 123 199 248 199c62 0 112 -27 135 -58h3l44 42h8l10 -225h-8
c-11 45 -28 93 -52 133c-32 52 -75 90 -135 90c-74 0 -99 -40 -99 -78c0 -89 63 -106 137 -137c102 -42 213 -91 213 -234zM353 -126c0 -81 -62 -125 -147 -145l-5 13c53 14 88 31 88 57c0 10 -4 18 -13 20c-49 9 -78 26 -78 75c0 43 43 66 72 66c45 0 83 -32 83 -86z" />
    <glyph glyph-name="Tcaron" unicode="&#x164;" horiz-adv-x="605" 
d="M595 405h-7c-24 44 -52 105 -74 145c-30 56 -65 90 -104 90h-8l-1 -510c0 -27 3 -50 7 -66c10 -37 26 -50 47 -55c13 -3 22 -4 28 -4v-5h-360v5c6 0 14 1 27 4c22 5 39 18 49 55c4 16 6 39 6 66v510h-12c-38 0 -62 -24 -99 -84c-27 -45 -53 -107 -76 -151h-8l17 252h551z
M154 843l7 5l141 -59l141 59l7 -5l-110 -141h-76z" />
    <glyph glyph-name="Tcommaaccent" unicode="&#x162;" horiz-adv-x="605" 
d="M595 405h-7c-24 44 -52 105 -74 145c-30 56 -65 90 -104 90h-8l-1 -510c0 -27 3 -50 7 -66c10 -37 26 -50 47 -55c13 -3 22 -4 28 -4v-5h-360v5c6 0 14 1 27 4c22 5 39 18 49 55c4 16 6 39 6 66v510h-12c-38 0 -62 -24 -99 -84c-27 -45 -53 -107 -76 -151h-8l17 252h551z
M380 -126c0 -81 -62 -125 -147 -145l-5 13c53 14 88 31 88 57c0 10 -4 18 -13 20c-49 9 -78 26 -78 75c0 43 43 66 72 66c45 0 83 -32 83 -86z" />
    <glyph glyph-name="Tbar" unicode="&#x166;" horiz-adv-x="605" 
d="M595 405h-7c-24 44 -52 105 -74 145c-30 56 -65 90 -104 90h-9v-226h92v-24h-92v-260c0 -27 3 -50 7 -66c10 -37 26 -50 47 -55c13 -3 22 -4 28 -4v-5h-360v5c6 0 14 1 27 4c22 5 39 18 49 55c4 16 6 39 6 66v260h-90v24h90v226h-12c-38 0 -62 -24 -99 -84
c-27 -45 -53 -107 -76 -151h-8l17 252h551z" />
    <glyph glyph-name="Ubreve" unicode="&#x16c;" horiz-adv-x="685" 
d="M680 652c-14 -1 -24 -3 -34 -6c-15 -4 -35 -18 -44 -41c-10 -24 -18 -54 -18 -119v-265c0 -56 -8 -106 -29 -145c-22 -41 -82 -89 -196 -89c-104 0 -190 24 -236 105c-19 32 -31 119 -31 155v280c0 28 -2 51 -6 67c-10 36 -27 47 -48 53c-11 3 -22 5 -28 5v5h362v-6
c-6 0 -15 -1 -28 -4c-22 -5 -38 -17 -48 -53c-4 -16 -6 -39 -6 -67v-333c0 -36 5 -65 16 -89c23 -54 65 -77 127 -77c51 0 91 31 111 81c11 31 17 72 17 108v269c0 65 -7 95 -17 119c-8 21 -27 36 -44 41c-10 3 -20 5 -34 6v5h214v-5zM536 846c-7 -96 -57 -148 -144 -148
s-137 52 -144 148l9 6c27 -44 79 -68 135 -68s108 24 135 68z" />
    <glyph glyph-name="Uhungarumlaut" unicode="&#x170;" horiz-adv-x="685" 
d="M680 652c-14 -1 -24 -3 -34 -6c-15 -4 -35 -18 -44 -41c-10 -24 -18 -54 -18 -119v-265c0 -56 -8 -106 -29 -145c-22 -41 -82 -89 -196 -89c-104 0 -190 24 -236 105c-19 32 -31 119 -31 155v280c0 28 -2 51 -6 67c-10 36 -27 47 -48 53c-11 3 -22 5 -28 5v5h362v-6
c-6 0 -15 -1 -28 -4c-22 -5 -38 -17 -48 -53c-4 -16 -6 -39 -6 -67v-333c0 -36 5 -65 16 -89c23 -54 65 -77 127 -77c51 0 91 31 111 81c11 31 17 72 17 108v269c0 65 -7 95 -17 119c-8 21 -27 36 -44 41c-10 3 -20 5 -34 6v5h214v-5zM452 830c0 -25 -33 -52 -63 -67
c-26 -13 -78 -36 -134 -62h-11c47 67 62 97 87 132c24 33 45 46 70 46c32 0 51 -15 51 -49zM632 830c0 -25 -33 -52 -63 -67c-26 -13 -78 -36 -134 -62h-11c47 67 62 97 87 132c24 33 45 46 70 46c32 0 51 -15 51 -49z" />
    <glyph glyph-name="Umacron" unicode="&#x16a;" horiz-adv-x="685" 
d="M680 652c-14 -1 -24 -3 -34 -6c-15 -4 -35 -18 -44 -41c-10 -24 -18 -54 -18 -119v-265c0 -56 -8 -106 -29 -145c-22 -41 -82 -89 -196 -89c-104 0 -190 24 -236 105c-19 32 -31 119 -31 155v280c0 28 -2 51 -6 67c-10 36 -27 47 -48 53c-11 3 -22 5 -28 5v5h362v-6
c-6 0 -15 -1 -28 -4c-22 -5 -38 -17 -48 -53c-4 -16 -6 -39 -6 -67v-333c0 -36 5 -65 16 -89c23 -54 65 -77 127 -77c51 0 91 31 111 81c11 31 17 72 17 108v269c0 65 -7 95 -17 119c-8 21 -27 36 -44 41c-10 3 -20 5 -34 6v5h214v-5zM537 707h-290v62h290v-62z" />
    <glyph glyph-name="Uogonek" unicode="&#x172;" horiz-adv-x="685" 
d="M474 -217c-129 -6 -193 21 -193 80c0 66 75 87 153 133c-21 -5 -48 -9 -75 -9c-104 0 -190 24 -236 105c-19 32 -31 119 -31 155v280c0 28 -2 51 -6 67c-10 36 -27 47 -48 53c-11 3 -22 5 -28 5v5h362v-6c-6 0 -15 -1 -28 -4c-22 -5 -38 -17 -48 -53
c-4 -16 -6 -39 -6 -67v-333c0 -36 5 -65 16 -89c23 -54 65 -77 127 -77c51 0 91 31 111 81c11 31 17 72 17 108v269c0 65 -7 95 -17 119c-8 21 -27 36 -44 41c-10 3 -20 5 -34 6v5h214v-5c-14 -1 -24 -3 -34 -6c-15 -4 -35 -18 -44 -41c-10 -24 -18 -54 -18 -119v-265
c0 -56 -8 -106 -29 -145c-10 -19 -28 -39 -55 -55c-63 -36 -89 -69 -89 -156c0 -52 22 -73 63 -76v-6z" />
    <glyph glyph-name="Uring" unicode="&#x16e;" horiz-adv-x="685" 
d="M680 652c-14 -1 -24 -3 -34 -6c-15 -4 -35 -18 -44 -41c-10 -24 -18 -54 -18 -119v-265c0 -56 -8 -106 -29 -145c-22 -41 -82 -89 -196 -89c-104 0 -190 24 -236 105c-19 32 -31 119 -31 155v280c0 28 -2 51 -6 67c-10 36 -27 47 -48 53c-11 3 -22 5 -28 5v5h362v-6
c-6 0 -15 -1 -28 -4c-22 -5 -38 -17 -48 -53c-4 -16 -6 -39 -6 -67v-333c0 -36 5 -65 16 -89c23 -54 65 -77 127 -77c51 0 91 31 111 81c11 31 17 72 17 108v269c0 65 -7 95 -17 119c-8 21 -27 36 -44 41c-10 3 -20 5 -34 6v5h214v-5zM503 764c1 -51 -46 -93 -96 -93
c-53 0 -96 39 -96 93s42 93 95 93c54 0 96 -38 97 -93zM468 763c0 38 -25 64 -63 64c-37 0 -62 -26 -62 -63c0 -36 25 -62 61 -62c38 0 64 22 64 61z" />
    <glyph glyph-name="Utilde" unicode="&#x168;" horiz-adv-x="685" 
d="M680 652c-14 -1 -24 -3 -34 -6c-15 -4 -35 -18 -44 -41c-10 -24 -18 -54 -18 -119v-265c0 -56 -8 -106 -29 -145c-22 -41 -82 -89 -196 -89c-104 0 -190 24 -236 105c-19 32 -31 119 -31 155v280c0 28 -2 51 -6 67c-10 36 -27 47 -48 53c-11 3 -22 5 -28 5v5h362v-6
c-6 0 -15 -1 -28 -4c-22 -5 -38 -17 -48 -53c-4 -16 -6 -39 -6 -67v-333c0 -36 5 -65 16 -89c23 -54 65 -77 127 -77c51 0 91 31 111 81c11 31 17 72 17 108v269c0 65 -7 95 -17 119c-8 21 -27 36 -44 41c-10 3 -20 5 -34 6v5h214v-5zM572 848c-13 -65 -36 -138 -115 -138
c-37 0 -137 30 -150 30c-29 0 -50 -3 -60 -41l-15 3c13 65 36 133 115 133c25 0 137 -30 148 -30c35 0 53 11 62 45z" />
    <glyph glyph-name="Wacute" unicode="&#x1e82;" horiz-adv-x="993" 
d="M248 -3l-149 515c-20 69 -37 94 -84 125c-11 7 -35 14 -45 15v5h387v-5c-24 -4 -49 -19 -49 -64c0 -26 8 -50 16 -81l65 -247h3l96 288c-12 33 -24 59 -43 77c-14 14 -33 22 -54 27v5h386v-5c-35 -4 -69 -19 -69 -64c0 -26 8 -50 16 -81l65 -247h3l83 252
c10 29 15 55 15 74c0 46 -36 65 -72 66v5h200v-5c-34 -7 -57 -18 -78 -52c-11 -18 -23 -46 -38 -89l-172 -514h-82l-147 508l-171 -508h-82zM451 691l-4 6c59 56 103 93 134 124c29 28 48 33 75 33c30 0 59 -24 59 -69c0 -37 -36 -55 -69 -62c-41 -9 -121 -21 -195 -32z" />
    <glyph glyph-name="Wcircumflex" unicode="&#x174;" horiz-adv-x="993" 
d="M248 -3l-149 515c-20 69 -37 94 -84 125c-11 7 -35 14 -45 15v5h387v-5c-24 -4 -49 -19 -49 -64c0 -26 8 -50 16 -81l65 -247h3l96 288c-12 33 -24 59 -43 77c-14 14 -33 22 -54 27v5h386v-5c-35 -4 -69 -19 -69 -64c0 -26 8 -50 16 -81l65 -247h3l83 252
c10 29 15 55 15 74c0 46 -36 65 -72 66v5h200v-5c-34 -7 -57 -18 -78 -52c-11 -18 -23 -46 -38 -89l-172 -514h-82l-147 508l-171 -508h-82zM715 707l-7 -5l-141 59l-141 -59l-7 5l110 141h76z" />
    <glyph glyph-name="Wdieresis" unicode="&#x1e84;" horiz-adv-x="993" 
d="M248 -3l-149 515c-20 69 -37 94 -84 125c-11 7 -35 14 -45 15v5h387v-5c-24 -4 -49 -19 -49 -64c0 -26 8 -50 16 -81l65 -247h3l96 288c-12 33 -24 59 -43 77c-14 14 -33 22 -54 27v5h386v-5c-35 -4 -69 -19 -69 -64c0 -26 8 -50 16 -81l65 -247h3l83 252
c10 29 15 55 15 74c0 46 -36 65 -72 66v5h200v-5c-34 -7 -57 -18 -78 -52c-11 -18 -23 -46 -38 -89l-172 -514h-82l-147 508l-171 -508h-82zM449 854c43 0 77 -36 77 -78c0 -41 -33 -76 -77 -76c-45 0 -76 35 -76 76c0 42 33 78 76 78zM685 854c43 0 77 -36 77 -78
c0 -41 -33 -76 -77 -76c-45 0 -76 35 -76 76c0 42 33 78 76 78z" />
    <glyph glyph-name="Wgrave" unicode="&#x1e80;" horiz-adv-x="993" 
d="M248 -3l-149 515c-20 69 -37 94 -84 125c-11 7 -35 14 -45 15v5h387v-5c-24 -4 -49 -19 -49 -64c0 -26 8 -50 16 -81l65 -247h3l96 288c-12 33 -24 59 -43 77c-14 14 -33 22 -54 27v5h386v-5c-35 -4 -69 -19 -69 -64c0 -26 8 -50 16 -81l65 -247h3l83 252
c10 29 15 55 15 74c0 46 -36 65 -72 66v5h200v-5c-34 -7 -57 -18 -78 -52c-11 -18 -23 -46 -38 -89l-172 -514h-82l-147 508l-171 -508h-82zM691 697l-4 -6c-74 11 -154 23 -195 32c-33 7 -69 25 -69 62c0 45 29 69 59 69c27 0 46 -5 75 -33c31 -31 75 -68 134 -124z" />
    <glyph glyph-name="Ycircumflex" unicode="&#x176;" horiz-adv-x="675" 
d="M675 652c-56 -11 -100 -47 -141 -145l-91 -216v-161c0 -27 2 -50 7 -67c9 -36 25 -48 47 -53c13 -3 22 -4 28 -4v-6h-362v6c6 0 16 1 29 4c21 5 39 17 48 53c4 17 6 40 6 67v141l-123 274c-27 61 -59 99 -113 107v5h377v-5c-10 -1 -23 -3 -33 -7
c-31 -14 -35 -56 -10 -118l83 -209h5l80 189c16 38 28 69 28 94c0 22 -13 36 -31 43c-10 4 -24 7 -34 8v5h200v-5zM544 707l-7 -5l-141 59l-141 -59l-7 5l110 141h76z" />
    <glyph glyph-name="Ygrave" unicode="&#x1ef2;" horiz-adv-x="675" 
d="M675 652c-56 -11 -100 -47 -141 -145l-91 -216v-161c0 -27 2 -50 7 -67c9 -36 25 -48 47 -53c13 -3 22 -4 28 -4v-6h-362v6c6 0 16 1 29 4c21 5 39 17 48 53c4 17 6 40 6 67v141l-123 274c-27 61 -59 99 -113 107v5h377v-5c-10 -1 -23 -3 -33 -7
c-31 -14 -35 -56 -10 -118l83 -209h5l80 189c16 38 28 69 28 94c0 22 -13 36 -31 43c-10 4 -24 7 -34 8v5h200v-5zM520 697l-4 -6c-74 11 -154 23 -195 32c-33 7 -69 25 -69 62c0 45 29 69 59 69c27 0 46 -5 75 -33c31 -31 75 -68 134 -124z" />
    <glyph glyph-name="Zacute" unicode="&#x179;" horiz-adv-x="614" 
d="M604 657v-5l-332 -629h48c91 0 129 28 165 70c57 65 77 109 109 159h8l-33 -252h-534v6l357 626h-56c-69 0 -133 -33 -159 -52c-35 -25 -81 -91 -113 -142h-8l26 219h522zM222 691l-4 6c59 56 103 93 134 124c29 28 48 33 75 33c30 0 59 -24 59 -69
c0 -37 -36 -55 -69 -62c-41 -9 -121 -21 -195 -32z" />
    <glyph glyph-name="Zdotaccent" unicode="&#x17b;" horiz-adv-x="614" 
d="M604 657v-5l-332 -629h48c91 0 129 28 165 70c57 65 77 109 109 159h8l-33 -252h-534v6l357 626h-56c-69 0 -133 -33 -159 -52c-35 -25 -81 -91 -113 -142h-8l26 219h522zM425 785c0 -47 -36 -87 -88 -87c-51 0 -86 40 -86 87c0 48 37 89 86 89c50 0 88 -41 88 -89z" />
    <glyph glyph-name="abreve" unicode="&#x103;" horiz-adv-x="499" 
d="M502 25c-11 -13 -58 -34 -128 -34c-44 0 -71 13 -87 34c-8 11 -13 28 -14 43h-2c-11 -63 -67 -77 -128 -77c-59 0 -118 34 -118 121c0 38 13 55 27 72c22 26 81 38 104 44c96 24 110 52 110 93c0 27 1 54 1 69c0 45 -11 54 -46 54c-30 0 -39 -13 -39 -22
c0 -13 10 -39 10 -64c0 -50 -21 -73 -69 -73c-44 0 -71 21 -71 64c0 17 7 35 16 47c26 35 94 60 165 60c135 0 204 -42 204 -145c0 -33 1 -141 1 -203c0 -45 2 -63 10 -73c6 -8 13 -12 27 -12c10 0 18 2 27 7v-5zM265 273c-8 -13 -14 -17 -25 -26c-14 -11 -21 -20 -29 -42
c-7 -19 -8 -62 -8 -96c0 -58 13 -77 32 -77c13 0 29 29 29 75zM380 668c-7 -96 -52 -151 -130 -151s-123 55 -130 151l8 6c25 -44 81 -71 122 -71s97 27 121 71z" />
    <glyph glyph-name="amacron" unicode="&#x101;" horiz-adv-x="499" 
d="M502 25c-11 -13 -58 -34 -128 -34c-44 0 -71 13 -87 34c-8 11 -13 28 -14 43h-2c-11 -63 -67 -77 -128 -77c-59 0 -118 34 -118 121c0 38 13 55 27 72c22 26 81 38 104 44c96 24 110 52 110 93c0 27 1 54 1 69c0 45 -11 54 -46 54c-30 0 -39 -13 -39 -22
c0 -13 10 -39 10 -64c0 -50 -21 -73 -69 -73c-44 0 -71 21 -71 64c0 17 7 35 16 47c26 35 94 60 165 60c135 0 204 -42 204 -145c0 -33 1 -141 1 -203c0 -45 2 -63 10 -73c6 -8 13 -12 27 -12c10 0 18 2 27 7v-5zM265 273c-8 -13 -14 -17 -25 -26c-14 -11 -21 -20 -29 -42
c-7 -19 -8 -62 -8 -96c0 -58 13 -77 32 -77c13 0 29 29 29 75zM375 536h-250v62h250v-62z" />
    <glyph glyph-name="aogonek" unicode="&#x105;" horiz-adv-x="499" 
d="M463 -217c-129 -6 -193 21 -193 80c0 66 84 82 163 133c-16 -3 -39 -5 -59 -5c-44 0 -71 13 -87 34c-8 11 -13 28 -14 43h-2c-11 -63 -67 -77 -128 -77c-59 0 -118 34 -118 121c0 38 13 55 27 72c22 26 81 38 104 44c96 24 110 52 110 93c0 27 1 54 1 69
c0 45 -11 54 -46 54c-30 0 -39 -13 -39 -22c0 -13 10 -39 10 -64c0 -50 -21 -73 -69 -73c-44 0 -71 21 -71 64c0 17 7 35 16 47c26 35 94 60 165 60c135 0 204 -42 204 -145c0 -33 1 -141 1 -203c0 -45 2 -63 10 -73c6 -8 13 -12 27 -12c10 0 18 2 27 7v-5
c-5 -6 -16 -11 -40 -23c-42 -21 -62 -80 -62 -137c0 -52 22 -73 63 -76v-6zM265 273c-8 -13 -14 -17 -25 -26c-14 -11 -21 -20 -29 -42c-7 -19 -8 -62 -8 -96c0 -58 13 -77 32 -77c13 0 29 29 29 75z" />
    <glyph glyph-name="aringacute" unicode="&#x1fb;" horiz-adv-x="499" 
d="M502 25c-11 -13 -58 -34 -128 -34c-44 0 -71 13 -87 34c-8 11 -13 28 -14 43h-2c-11 -63 -67 -77 -128 -77c-59 0 -118 34 -118 121c0 38 13 55 27 72c22 26 81 38 104 44c96 24 110 52 110 93c0 27 1 54 1 69c0 45 -11 54 -46 54c-30 0 -39 -13 -39 -22
c0 -13 10 -39 10 -64c0 -50 -21 -73 -69 -73c-44 0 -71 21 -71 64c0 17 7 35 16 47c26 35 94 60 165 60c135 0 204 -42 204 -145c0 -33 1 -141 1 -203c0 -45 2 -63 10 -73c6 -8 13 -12 27 -12c10 0 18 2 27 7v-5zM265 273c-8 -13 -14 -17 -25 -26c-14 -11 -21 -20 -29 -42
c-7 -19 -8 -62 -8 -96c0 -58 13 -77 32 -77c13 0 29 29 29 75zM343 584c1 -51 -46 -93 -96 -93c-53 0 -96 39 -96 93s42 93 95 93c54 0 96 -38 97 -93zM308 583c0 38 -25 64 -63 64c-37 0 -62 -26 -62 -63c0 -36 25 -62 61 -62c38 0 64 22 64 61zM132 700l-4 6
c59 56 103 93 134 124c29 28 48 33 75 33c30 0 59 -24 59 -69c0 -37 -36 -55 -69 -62c-41 -9 -121 -21 -195 -32z" />
    <glyph glyph-name="aeacute" unicode="&#x1fd;" horiz-adv-x="712" 
d="M701 238h-246c0 -143 24 -178 46 -202c9 -9 36 -20 53 -20c69 0 119 80 133 132l10 -3c-18 -79 -77 -154 -196 -154c-48 0 -100 14 -143 42c-22 15 -42 34 -57 58c-20 -68 -75 -100 -134 -100s-142 35 -142 122c0 38 13 54 27 71c22 26 81 38 104 44c96 24 110 52 110 93
c0 27 1 54 1 69c0 45 -11 54 -46 54c-17 0 -39 -5 -39 -22c0 -13 10 -39 10 -64c0 -45 -17 -73 -69 -73c-44 0 -71 21 -71 64c0 17 7 35 16 47c33 43 111 60 165 60c63 0 117 -28 136 -60c33 40 97 60 135 60c114 0 196 -77 198 -192c0 -9 0 -17 -1 -26zM549 284
c0 65 -3 123 -19 148c-6 9 -13 12 -23 12s-22 -3 -30 -13c-16 -21 -21 -71 -22 -179h68c19 0 26 6 26 32zM265 273c-8 -13 -14 -17 -25 -26c-14 -11 -21 -20 -29 -42c-7 -19 -8 -61 -8 -95c0 -58 13 -85 32 -85c13 0 29 25 29 71zM534 609c0 -25 -23 -49 -54 -62
c-38 -16 -111 -41 -187 -63l-4 5c49 67 82 115 109 148c24 29 41 43 66 43c48 0 70 -21 70 -71z" />
    <glyph glyph-name="cacute" unicode="&#x107;" horiz-adv-x="452" 
d="M442 143c-21 -78 -73 -152 -178 -152c-83 0 -142 25 -177 62c-40 43 -67 102 -67 174c0 150 118 229 254 229c61 0 110 -18 130 -38c21 -20 30 -38 30 -68c0 -40 -35 -61 -66 -61c-47 0 -65 32 -70 85s-12 71 -23 71c-16 0 -32 -8 -42 -25c-19 -33 -27 -108 -27 -186
c0 -89 9 -144 28 -184c11 -23 33 -34 55 -34c78 0 119 69 142 132zM414 609c0 -25 -23 -49 -54 -62c-38 -16 -111 -41 -187 -63l-4 5c49 67 82 115 109 148c24 29 41 43 66 43c48 0 70 -21 70 -71z" />
    <glyph glyph-name="ccaron" unicode="&#x10d;" horiz-adv-x="452" 
d="M442 143c-21 -78 -73 -152 -178 -152c-83 0 -142 25 -177 62c-40 43 -67 102 -67 174c0 150 118 229 254 229c61 0 110 -18 130 -38c21 -20 30 -38 30 -68c0 -40 -35 -61 -66 -61c-47 0 -65 32 -70 85s-12 71 -23 71c-16 0 -32 -8 -42 -25c-19 -33 -27 -108 -27 -186
c0 -89 9 -144 28 -184c11 -23 33 -34 55 -34c78 0 119 69 142 132zM112 669l7 5l141 -89l141 89l7 -5l-110 -181h-76z" />
    <glyph glyph-name="ccircumflex" unicode="&#x109;" horiz-adv-x="452" 
d="M442 143c-21 -78 -73 -152 -178 -152c-83 0 -142 25 -177 62c-40 43 -67 102 -67 174c0 150 118 229 254 229c61 0 110 -18 130 -38c21 -20 30 -38 30 -68c0 -40 -35 -61 -66 -61c-47 0 -65 32 -70 85s-12 71 -23 71c-16 0 -32 -8 -42 -25c-19 -33 -27 -108 -27 -186
c0 -89 9 -144 28 -184c11 -23 33 -34 55 -34c78 0 119 69 142 132zM408 487l-7 -5l-141 89l-141 -89l-7 5l110 181h76z" />
    <glyph glyph-name="cdotaccent" unicode="&#x10b;" horiz-adv-x="452" 
d="M442 143c-21 -78 -73 -152 -178 -152c-83 0 -142 25 -177 62c-40 43 -67 102 -67 174c0 150 118 229 254 229c61 0 110 -18 130 -38c21 -20 30 -38 30 -68c0 -40 -35 -61 -66 -61c-47 0 -65 32 -70 85s-12 71 -23 71c-16 0 -32 -8 -42 -25c-19 -33 -27 -108 -27 -186
c0 -89 9 -144 28 -184c11 -23 33 -34 55 -34c78 0 119 69 142 132zM347 584c0 -47 -36 -87 -88 -87c-51 0 -86 40 -86 87c0 48 37 89 86 89c50 0 88 -41 88 -89z" />
    <glyph glyph-name="dcaron" unicode="&#x10f;" horiz-adv-x="571" 
d="M556 -1c-17 0 -226 -3 -231 -3c-2 0 -4 2 -4 5c0 6 1 19 1 27v50h-1c-19 -56 -54 -87 -116 -87c-98 0 -185 76 -185 231c0 143 83 234 191 234c60 0 91 -31 106 -69h2v212c0 12 -1 31 -3 40c-5 21 -13 29 -26 35c-9 4 -15 5 -24 5v5h228c3 0 5 -1 5 -5
c0 -38 -3 -163 -3 -214v-352c0 -18 -1 -46 1 -62c2 -18 11 -31 23 -39c10 -7 27 -8 36 -9v-4zM319 151v152c0 32 -6 59 -16 82s-29 42 -43 42c-44 0 -54 -89 -54 -207s0 -200 45 -200c34 0 68 55 68 131zM531 486l15 198h110c-33 -55 -80 -133 -113 -198h-12z" />
    <glyph glyph-name="ebreve" unicode="&#x115;" horiz-adv-x="465" 
d="M454 238h-246c0 -143 24 -178 46 -202c9 -9 36 -20 53 -20c69 0 119 80 133 132l10 -3c-18 -79 -77 -154 -196 -154c-46 0 -96 13 -138 39c-55 35 -96 96 -96 193c0 170 129 233 237 233c135 0 200 -94 198 -199c0 -6 0 -13 -1 -19zM302 284c0 65 -3 123 -19 148
c-6 9 -13 12 -23 12s-22 -3 -30 -13c-16 -21 -21 -71 -22 -179h68c19 0 26 6 26 32zM382 668c-7 -96 -52 -151 -130 -151s-123 55 -130 151l8 6c25 -44 81 -71 122 -71s97 27 121 71z" />
    <glyph glyph-name="ecaron" unicode="&#x11b;" horiz-adv-x="465" 
d="M454 238h-246c0 -143 24 -178 46 -202c9 -9 36 -20 53 -20c69 0 119 80 133 132l10 -3c-18 -79 -77 -154 -196 -154c-46 0 -96 13 -138 39c-55 35 -96 96 -96 193c0 170 129 233 237 233c135 0 200 -94 198 -199c0 -6 0 -13 -1 -19zM302 284c0 65 -3 123 -19 148
c-6 9 -13 12 -23 12s-22 -3 -30 -13c-16 -21 -21 -71 -22 -179h68c19 0 26 6 26 32zM105 669l7 5l141 -89l141 89l7 -5l-110 -181h-76z" />
    <glyph glyph-name="edotaccent" unicode="&#x117;" horiz-adv-x="465" 
d="M454 238h-246c0 -143 24 -178 46 -202c9 -9 36 -20 53 -20c69 0 119 80 133 132l10 -3c-18 -79 -77 -154 -196 -154c-46 0 -96 13 -138 39c-55 35 -96 96 -96 193c0 170 129 233 237 233c135 0 200 -94 198 -199c0 -6 0 -13 -1 -19zM302 284c0 65 -3 123 -19 148
c-6 9 -13 12 -23 12s-22 -3 -30 -13c-16 -21 -21 -71 -22 -179h68c19 0 26 6 26 32zM338 584c0 -47 -36 -87 -88 -87c-51 0 -86 40 -86 87c0 48 37 89 86 89c50 0 88 -41 88 -89z" />
    <glyph glyph-name="emacron" unicode="&#x113;" horiz-adv-x="465" 
d="M454 238h-246c0 -143 24 -178 46 -202c9 -9 36 -20 53 -20c69 0 119 80 133 132l10 -3c-18 -79 -77 -154 -196 -154c-46 0 -96 13 -138 39c-55 35 -96 96 -96 193c0 170 129 233 237 233c135 0 200 -94 198 -199c0 -6 0 -13 -1 -19zM302 284c0 65 -3 123 -19 148
c-6 9 -13 12 -23 12s-22 -3 -30 -13c-16 -21 -21 -71 -22 -179h68c19 0 26 6 26 32zM383 536h-250v62h250v-62z" />
    <glyph glyph-name="eogonek" unicode="&#x119;" horiz-adv-x="465" 
d="M330 -217c-129 -6 -193 21 -193 80c0 66 82 87 165 132c-14 -2 -34 -4 -48 -4c-46 0 -96 13 -138 39c-55 35 -96 96 -96 193c0 170 129 233 237 233c135 0 200 -94 198 -199c0 -6 0 -13 -1 -19h-246c0 -143 24 -178 46 -202c9 -9 36 -20 53 -20c69 0 119 80 133 132
l10 -3c-12 -52 -41 -101 -94 -130c-66 -36 -89 -67 -89 -150c0 -52 22 -73 63 -76v-6zM302 284c0 65 -3 123 -19 148c-6 9 -13 12 -23 12s-22 -3 -30 -13c-16 -21 -21 -71 -22 -179h68c19 0 26 6 26 32z" />
    <glyph glyph-name="gbreve" unicode="&#x11f;" horiz-adv-x="513" 
d="M530 406c0 -38 -19 -61 -59 -61c-35 0 -50 28 -56 45c-9 26 -12 31 -19 31s-15 -9 -15 -31c0 -3 7 -16 15 -32c11 -21 14 -37 14 -57c0 -109 -102 -152 -195 -152c-28 0 -54 5 -78 14c-15 -7 -21 -16 -21 -29c0 -14 16 -29 38 -29c28 0 128 10 156 10
c116 0 164 -53 164 -142c0 -120 -135 -186 -278 -186c-115 0 -189 22 -189 89c0 54 66 72 115 78v2c-54 7 -97 40 -97 98c0 66 64 103 100 113c-1 0 0 3 0 3c-51 21 -106 61 -106 132c0 111 103 154 196 154c51 0 114 -18 148 -50h5c10 33 40 58 87 58c59 0 75 -27 75 -58z
M215 447c-40 0 -41 -33 -41 -145s1 -144 41 -144s42 31 42 144s-2 145 -42 145zM373 -113c0 35 -16 77 -78 77c-31 0 -110 -8 -139 -11c-46 -5 -81 -28 -81 -76c0 -46 41 -80 120 -80c128 0 178 53 178 90zM356 668c-7 -96 -52 -151 -130 -151s-123 55 -130 151l8 6
c25 -44 81 -71 122 -71s97 27 121 71z" />
    <glyph glyph-name="gcircumflex" unicode="&#x11d;" horiz-adv-x="513" 
d="M530 406c0 -38 -19 -61 -59 -61c-35 0 -50 28 -56 45c-9 26 -12 31 -19 31s-15 -9 -15 -31c0 -3 7 -16 15 -32c11 -21 14 -37 14 -57c0 -109 -102 -152 -195 -152c-28 0 -54 5 -78 14c-15 -7 -21 -16 -21 -29c0 -14 16 -29 38 -29c28 0 128 10 156 10
c116 0 164 -53 164 -142c0 -120 -135 -186 -278 -186c-115 0 -189 22 -189 89c0 54 66 72 115 78v2c-54 7 -97 40 -97 98c0 66 64 103 100 113c-1 0 0 3 0 3c-51 21 -106 61 -106 132c0 111 103 154 196 154c51 0 114 -18 148 -50h5c10 33 40 58 87 58c59 0 75 -27 75 -58z
M215 447c-40 0 -41 -33 -41 -145s1 -144 41 -144s42 31 42 144s-2 145 -42 145zM373 -113c0 35 -16 77 -78 77c-31 0 -110 -8 -139 -11c-46 -5 -81 -28 -81 -76c0 -46 41 -80 120 -80c128 0 178 53 178 90zM374 487l-7 -5l-141 89l-141 -89l-7 5l110 181h76z" />
    <glyph glyph-name="gcommaaccent" unicode="&#x123;" horiz-adv-x="513" 
d="M530 406c0 -38 -19 -61 -59 -61c-35 0 -50 28 -56 45c-9 26 -12 31 -19 31s-15 -9 -15 -31c0 -3 7 -16 15 -32c11 -21 14 -37 14 -57c0 -109 -102 -152 -195 -152c-28 0 -54 5 -78 14c-15 -7 -21 -16 -21 -29c0 -14 16 -29 38 -29c28 0 128 10 156 10
c116 0 164 -53 164 -142c0 -120 -135 -186 -278 -186c-115 0 -189 22 -189 89c0 54 66 72 115 78v2c-54 7 -97 40 -97 98c0 66 64 103 100 113c-1 0 0 3 0 3c-51 21 -106 61 -106 132c0 111 103 154 196 154c51 0 114 -18 148 -50h5c10 33 40 58 87 58c59 0 75 -27 75 -58z
M215 447c-40 0 -41 -33 -41 -145s1 -144 41 -144s42 31 42 144s-2 145 -42 145zM373 -113c0 35 -16 77 -78 77c-31 0 -110 -8 -139 -11c-46 -5 -81 -28 -81 -76c0 -46 41 -80 120 -80c128 0 178 53 178 90zM149 579c0 81 62 125 147 145l5 -13c-53 -14 -88 -31 -88 -57
c0 -10 4 -18 13 -20c49 -9 78 -26 78 -75c0 -43 -43 -66 -72 -66c-45 0 -83 32 -83 86z" />
    <glyph glyph-name="gdotaccent" unicode="&#x121;" horiz-adv-x="513" 
d="M530 406c0 -38 -19 -61 -59 -61c-35 0 -50 28 -56 45c-9 26 -12 31 -19 31s-15 -9 -15 -31c0 -3 7 -16 15 -32c11 -21 14 -37 14 -57c0 -109 -102 -152 -195 -152c-28 0 -54 5 -78 14c-15 -7 -21 -16 -21 -29c0 -14 16 -29 38 -29c28 0 128 10 156 10
c116 0 164 -53 164 -142c0 -120 -135 -186 -278 -186c-115 0 -189 22 -189 89c0 54 66 72 115 78v2c-54 7 -97 40 -97 98c0 66 64 103 100 113c-1 0 0 3 0 3c-51 21 -106 61 -106 132c0 111 103 154 196 154c51 0 114 -18 148 -50h5c10 33 40 58 87 58c59 0 75 -27 75 -58z
M215 447c-40 0 -41 -33 -41 -145s1 -144 41 -144s42 31 42 144s-2 145 -42 145zM373 -113c0 35 -16 77 -78 77c-31 0 -110 -8 -139 -11c-46 -5 -81 -28 -81 -76c0 -46 41 -80 120 -80c128 0 178 53 178 90zM313 584c0 -47 -36 -87 -88 -87c-51 0 -86 40 -86 87
c0 48 37 89 86 89c50 0 88 -41 88 -89z" />
    <glyph glyph-name="hbar" unicode="&#x127;" horiz-adv-x="593" 
d="M9 550v21h57c0 18 0 51 -3 67c-3 19 -8 28 -17 34s-21 7 -30 8v4h222c5 0 6 -1 6 -6c0 -6 -3 -51 -3 -107h106v-21h-106v-201h3c8 35 23 59 43 75c26 22 68 32 99 32c45 0 93 -17 113 -45c19 -26 28 -59 28 -104v-176c0 -29 1 -76 5 -89c7 -24 18 -30 26 -34
c8 -3 18 -3 25 -4v-4h-279v4c9 0 15 2 22 5c12 6 19 20 22 43c1 13 2 30 2 51v249c0 27 -2 45 -13 55c-7 7 -16 10 -26 10c-21 0 -58 -28 -65 -111c-2 -25 -3 -50 -3 -80v-123c0 -21 0 -38 2 -51c3 -23 10 -37 22 -43c7 -3 13 -5 22 -5v-4h-279v4c7 1 17 1 25 4
c8 4 17 10 25 34c4 13 6 60 6 89v419h-57z" />
    <glyph glyph-name="hcircumflex" unicode="&#x125;" horiz-adv-x="593" 
d="M583 0h-279v4c9 0 15 2 22 5c12 6 19 20 22 43c1 13 2 30 2 51v249c0 27 -2 45 -13 55c-7 7 -16 10 -26 10c-21 0 -58 -28 -65 -111c-2 -25 -3 -50 -3 -80v-123c0 -21 0 -38 2 -51c3 -23 10 -37 22 -43c7 -3 13 -5 22 -5v-4h-279v4c7 1 17 1 25 4c8 4 17 10 25 34
c4 13 6 60 6 89v437c0 18 0 54 -3 70c-3 19 -8 28 -17 34s-21 7 -30 8v4h222c5 0 6 -1 6 -6c0 -6 -3 -55 -3 -114v-215h3c8 35 23 59 43 75c26 22 68 32 99 32c45 0 93 -17 113 -45c19 -26 28 -59 28 -104v-176c0 -29 1 -76 5 -89c7 -24 18 -30 26 -34c8 -3 18 -3 25 -4v-4z
M444 722l-7 -5l-141 59l-141 -59l-7 5l110 141h76z" />
    <glyph glyph-name="ibreve" unicode="&#x12d;" 
d="M300 0h-288v4c7 1 17 1 24 4c9 4 19 10 26 34c4 13 5 60 5 89v199c0 18 0 53 -2 69c-3 19 -9 27 -18 34c-9 6 -20 8 -30 8v6h223c4 0 6 -2 6 -7c0 -16 -1 -37 -1 -63v-246c0 -29 1 -76 5 -89c7 -24 17 -30 26 -34c8 -3 17 -3 24 -4v-4zM286 668
c-7 -96 -52 -151 -130 -151s-123 55 -130 151l8 6c25 -44 81 -71 122 -71s97 27 121 71z" />
    <glyph glyph-name="imacron" unicode="&#x12b;" 
d="M300 0h-288v4c7 1 17 1 24 4c9 4 19 10 26 34c4 13 5 60 5 89v199c0 18 0 53 -2 69c-3 19 -9 27 -18 34c-9 6 -20 8 -30 8v6h223c4 0 6 -2 6 -7c0 -16 -1 -37 -1 -63v-246c0 -29 1 -76 5 -89c7 -24 17 -30 26 -34c8 -3 17 -3 24 -4v-4zM261 536h-240v62h240v-62z" />
    <glyph glyph-name="iogonek" unicode="&#x12f;" 
d="M300 0h-55c-22 -35 -37 -67 -37 -135c0 -52 22 -73 63 -76v-6c-129 -6 -193 21 -193 80c0 68 72 86 154 137h-220v4c7 1 17 1 24 4c9 4 19 10 26 34c4 13 5 60 5 89v199c0 18 0 53 -2 69c-3 19 -9 27 -18 34c-9 6 -20 8 -30 8v6h223c4 0 6 -2 6 -7c0 -16 -1 -37 -1 -63
v-246c0 -29 1 -76 5 -89c7 -24 17 -30 26 -34c8 -3 17 -3 24 -4v-4zM245 584c0 -47 -37 -87 -88 -87s-87 40 -87 87c0 48 37 89 87 89c49 0 88 -41 88 -89z" />
    <glyph glyph-name="itilde" unicode="&#x129;" 
d="M300 0h-288v4c7 1 17 1 24 4c9 4 19 10 26 34c4 13 5 60 5 89v199c0 18 0 53 -2 69c-3 19 -9 27 -18 34c-9 6 -20 8 -30 8v6h223c4 0 6 -2 6 -7c0 -16 -1 -37 -1 -63v-246c0 -29 1 -76 5 -89c7 -24 17 -30 26 -34c8 -3 17 -3 24 -4v-4zM318 671
c-13 -65 -38 -147 -117 -147c-37 0 -107 25 -120 25c-39 0 -60 -12 -70 -50l-17 -1c13 65 38 147 117 147c25 0 107 -25 118 -25c39 0 63 16 72 50z" />
    <glyph glyph-name="idotaccent" 
d="M300 0h-288v4c7 1 17 1 24 4c9 4 19 10 26 34c4 13 5 60 5 89v199c0 18 0 53 -2 69c-3 19 -9 27 -18 34c-9 6 -20 8 -30 8v6h223c4 0 6 -2 6 -7c0 -16 -1 -37 -1 -63v-246c0 -29 1 -76 5 -89c7 -24 17 -30 26 -34c8 -3 17 -3 24 -4v-4zM245 584c0 -47 -37 -87 -88 -87
s-87 40 -87 87c0 48 37 89 87 89c49 0 88 -41 88 -89z" />
    <glyph glyph-name="jcircumflex" unicode="&#x135;" horiz-adv-x="289" 
d="M239 440c0 -16 -1 -37 -1 -63v-360c0 -102 -50 -150 -88 -180c-19 -15 -68 -50 -154 -50c-34 0 -76 10 -105 27c-29 18 -51 55 -51 95c0 45 35 88 91 88c53 0 84 -38 84 -86c0 -14 -8 -38 -15 -55c-5 -12 -10 -27 -10 -34c0 -10 4 -20 16 -20c23 0 33 17 41 40
c7 21 13 60 13 96v392c0 18 -1 53 -3 69c-3 19 -7 27 -17 34c-9 6 -21 8 -30 8v6h223c4 0 6 -2 6 -7zM288 487l-7 -5l-141 89l-141 -89l-7 5l110 181h76z" />
    <glyph glyph-name="kcommaaccent" unicode="&#x137;" horiz-adv-x="577" 
d="M242 684c2 -1 3 -3 3 -7c0 0 -2 -43 -2 -113v-347l109 113c27 28 44 55 44 74c0 12 -2 22 -16 29c-8 4 -25 8 -34 9v5h187v-5c-17 -3 -39 -11 -62 -25c-11 -7 -50 -35 -77 -66l-35 -41c93 -18 123 -69 135 -126c12 -61 32 -135 50 -158c11 -14 27 -18 52 -21v-5h-218
c-24 20 -47 82 -56 155c-6 50 -18 67 -43 82l-36 -40v-66c0 -28 1 -75 5 -88c7 -24 17 -31 26 -35c8 -3 21 -3 28 -4v-4h-292v4c7 1 16 1 24 4c9 4 19 11 26 35c4 13 5 60 5 88v437c0 18 -1 53 -3 69c-3 19 -8 28 -17 34s-21 7 -30 8v5h227zM381 -110
c0 -81 -62 -125 -147 -145l-5 13c53 14 88 31 88 57c0 10 -4 18 -13 20c-49 9 -78 26 -78 75c0 43 43 66 72 66c45 0 83 -32 83 -86z" />
    <glyph glyph-name="lacute" unicode="&#x13a;" horiz-adv-x="322" 
d="M302 0h-292v4c7 1 16 1 24 4c9 4 19 10 26 34c4 13 5 60 5 89v436c0 18 -1 54 -3 70c-3 19 -7 28 -17 34c-8 6 -21 7 -30 8v5h223c4 0 6 -2 6 -7c0 -15 -1 -36 -1 -62v-484c0 -29 1 -76 5 -89c7 -24 17 -30 26 -34c8 -3 21 -3 28 -4v-4zM35 706l-4 6
c59 56 103 93 134 124c29 28 48 33 75 33c30 0 59 -24 59 -69c0 -37 -36 -55 -69 -62c-41 -9 -121 -21 -195 -32z" />
    <glyph glyph-name="lcaron" unicode="&#x13e;" horiz-adv-x="322" 
d="M302 0h-292v4c7 1 16 1 24 4c9 4 19 10 26 34c4 13 5 60 5 89v436c0 18 -1 54 -3 70c-3 19 -7 28 -17 34c-8 6 -21 7 -30 8v5h223c4 0 6 -2 6 -7c0 -15 -1 -36 -1 -62v-484c0 -29 1 -76 5 -89c7 -24 17 -30 26 -34c8 -3 21 -3 28 -4v-4zM278 486l15 198h110
c-33 -55 -80 -133 -113 -198h-12z" />
    <glyph glyph-name="lcommaaccent" unicode="&#x13c;" horiz-adv-x="322" 
d="M302 0h-292v4c7 1 16 1 24 4c9 4 19 10 26 34c4 13 5 60 5 89v436c0 18 -1 54 -3 70c-3 19 -7 28 -17 34c-8 6 -21 7 -30 8v5h223c4 0 6 -2 6 -7c0 -15 -1 -36 -1 -62v-484c0 -29 1 -76 5 -89c7 -24 17 -30 26 -34c8 -3 21 -3 28 -4v-4zM229 -110
c0 -81 -62 -125 -147 -145l-5 13c53 14 88 31 88 57c0 10 -4 18 -13 20c-49 9 -78 26 -78 75c0 43 43 66 72 66c45 0 83 -32 83 -86z" />
    <glyph glyph-name="ldot" unicode="&#x140;" horiz-adv-x="370" 
d="M302 0h-292v4c7 1 16 1 24 4c9 4 19 10 26 34c4 13 5 60 5 89v436c0 18 -1 54 -3 70c-3 19 -7 28 -17 34c-8 6 -21 7 -30 8v5h223c4 0 6 -2 6 -7c0 -15 -1 -36 -1 -62v-484c0 -29 1 -76 5 -89c7 -24 17 -30 26 -34c8 -3 21 -3 28 -4v-4zM413 325c0 -39 -30 -72 -73 -72
s-73 33 -73 72c0 40 31 75 73 75c41 0 73 -35 73 -75z" />
    <glyph glyph-name="nacute" unicode="&#x144;" horiz-adv-x="595" 
d="M585 0h-279v4c9 0 15 2 22 5c12 6 19 20 22 43c1 13 3 30 3 51v249c0 27 -4 45 -14 55c-7 7 -15 10 -26 10c-20 0 -58 -28 -65 -111c-2 -25 -3 -50 -3 -80v-123c0 -21 0 -38 2 -51c3 -23 9 -37 22 -43c7 -3 13 -5 23 -5v-4h-280v4c6 1 17 1 24 4c9 4 18 10 26 34
c4 13 5 60 5 89v199c0 18 0 53 -2 69c-3 19 -8 28 -17 34c-9 7 -21 8 -30 8v6h222c5 0 6 -2 6 -7c0 -16 -2 -65 -2 -91h2c8 35 23 59 42 75c27 22 75 32 106 32c44 0 84 -10 107 -47c17 -28 28 -63 28 -108v-170c0 -29 2 -76 6 -89c7 -24 17 -30 26 -34c8 -3 17 -3 24 -4v-4
zM456 609c0 -25 -23 -49 -54 -62c-38 -16 -111 -41 -187 -63l-4 5c49 67 82 115 109 148c24 29 41 43 66 43c48 0 70 -21 70 -71z" />
    <glyph glyph-name="napostrophe" unicode="&#x149;" horiz-adv-x="615" 
d="M605 0h-279v4c9 0 15 2 22 5c12 6 19 20 22 43c1 13 3 30 3 51v249c0 27 -4 45 -14 55c-7 7 -15 10 -26 10c-20 0 -58 -28 -65 -111c-2 -25 -3 -50 -3 -80v-123c0 -21 0 -38 2 -51c3 -23 9 -37 22 -43c7 -3 13 -5 23 -5v-4h-280v4c6 1 17 1 24 4c9 4 18 10 26 34
c4 13 5 60 5 89v199c0 18 0 53 -2 69c-3 19 -8 28 -17 34c-9 7 -21 8 -30 8v6h222c5 0 6 -2 6 -7c0 -16 -2 -65 -2 -91h2c8 35 23 59 42 75c27 22 75 32 106 32c44 0 84 -10 107 -47c17 -28 28 -63 28 -108v-170c0 -29 2 -76 6 -89c7 -24 17 -30 26 -34c8 -3 17 -3 24 -4v-4
zM73 587c0 -76 -49 -150 -137 -178l-6 13c44 19 80 50 80 76c0 10 -2 18 -10 21c-45 5 -77 36 -77 84c0 35 32 70 69 70c53 0 81 -35 81 -86z" />
    <glyph glyph-name="ncaron" unicode="&#x148;" horiz-adv-x="595" 
d="M585 0h-279v4c9 0 15 2 22 5c12 6 19 20 22 43c1 13 3 30 3 51v249c0 27 -4 45 -14 55c-7 7 -15 10 -26 10c-20 0 -58 -28 -65 -111c-2 -25 -3 -50 -3 -80v-123c0 -21 0 -38 2 -51c3 -23 9 -37 22 -43c7 -3 13 -5 23 -5v-4h-280v4c6 1 17 1 24 4c9 4 18 10 26 34
c4 13 5 60 5 89v199c0 18 0 53 -2 69c-3 19 -8 28 -17 34c-9 7 -21 8 -30 8v6h222c5 0 6 -2 6 -7c0 -16 -2 -65 -2 -91h2c8 35 23 59 42 75c27 22 75 32 106 32c44 0 84 -10 107 -47c17 -28 28 -63 28 -108v-170c0 -29 2 -76 6 -89c7 -24 17 -30 26 -34c8 -3 17 -3 24 -4v-4
zM154 669l7 5l141 -89l141 89l7 -5l-110 -181h-76z" />
    <glyph glyph-name="ncommaaccent" unicode="&#x146;" horiz-adv-x="595" 
d="M585 0h-279v4c9 0 15 2 22 5c12 6 19 20 22 43c1 13 3 30 3 51v249c0 27 -4 45 -14 55c-7 7 -15 10 -26 10c-20 0 -58 -28 -65 -111c-2 -25 -3 -50 -3 -80v-123c0 -21 0 -38 2 -51c3 -23 9 -37 22 -43c7 -3 13 -5 23 -5v-4h-280v4c6 1 17 1 24 4c9 4 18 10 26 34
c4 13 5 60 5 89v199c0 18 0 53 -2 69c-3 19 -8 28 -17 34c-9 7 -21 8 -30 8v6h222c5 0 6 -2 6 -7c0 -16 -2 -65 -2 -91h2c8 35 23 59 42 75c27 22 75 32 106 32c44 0 84 -10 107 -47c17 -28 28 -63 28 -108v-170c0 -29 2 -76 6 -89c7 -24 17 -30 26 -34c8 -3 17 -3 24 -4v-4
zM380 -110c0 -81 -62 -125 -147 -145l-5 13c53 14 88 31 88 57c0 10 -4 18 -13 20c-49 9 -78 26 -78 75c0 43 43 66 72 66c45 0 83 -32 83 -86z" />
    <glyph glyph-name="obreve" unicode="&#x14f;" horiz-adv-x="516" 
d="M496 223c0 -149 -116 -232 -238 -232s-238 83 -238 232s118 233 238 233s238 -84 238 -233zM311 223c0 128 -2 187 -21 211c-7 9 -22 12 -32 12c-11 0 -25 -3 -32 -12c-19 -24 -22 -83 -22 -211s4 -187 22 -210c8 -10 21 -13 32 -13c10 0 24 3 32 13c18 23 21 82 21 210z
M388 668c-7 -96 -52 -151 -130 -151s-123 55 -130 151l8 6c25 -44 81 -71 122 -71s97 27 121 71z" />
    <glyph glyph-name="ohungarumlaut" unicode="&#x151;" horiz-adv-x="516" 
d="M496 223c0 -149 -116 -232 -238 -232s-238 83 -238 232s118 233 238 233s238 -84 238 -233zM311 223c0 128 -2 187 -21 211c-7 9 -22 12 -32 12c-11 0 -25 -3 -32 -12c-19 -24 -22 -83 -22 -211s4 -187 22 -210c8 -10 21 -13 32 -13c10 0 24 3 32 13c18 23 21 82 21 210z
M256 671c34 0 63 -22 63 -65c0 -23 -18 -46 -44 -62c-34 -21 -88 -41 -157 -68l-5 4l70 139c15 28 33 52 73 52zM448 671c34 0 63 -22 63 -65c0 -23 -18 -46 -44 -62c-34 -21 -88 -41 -157 -68l-5 4l70 139c15 28 33 52 73 52z" />
    <glyph glyph-name="omacron" unicode="&#x14d;" horiz-adv-x="516" 
d="M496 223c0 -149 -116 -232 -238 -232s-238 83 -238 232s118 233 238 233s238 -84 238 -233zM311 223c0 128 -2 187 -21 211c-7 9 -22 12 -32 12c-11 0 -25 -3 -32 -12c-19 -24 -22 -83 -22 -211s4 -187 22 -210c8 -10 21 -13 32 -13c10 0 24 3 32 13c18 23 21 82 21 210z
M383 536h-250v62h250v-62z" />
    <glyph glyph-name="oslashacute" unicode="&#x1ff;" horiz-adv-x="516" 
d="M496 223c0 -149 -116 -232 -238 -232c-24 0 -48 4 -71 10l-34 -93l-16 6l33 92c-85 30 -150 105 -150 217c0 149 118 232 238 232c24 0 49 -3 72 -10l34 93l16 -6l-34 -92c84 -30 150 -105 150 -217zM306 379c-3 27 -8 44 -16 54c-7 9 -22 12 -32 12
c-11 0 -25 -3 -32 -12c-19 -24 -22 -82 -22 -210c0 -49 0 -88 2 -119zM311 223c0 47 -1 85 -2 115l-99 -274c3 -25 8 -41 16 -51s21 -13 32 -13c10 0 24 3 32 13c18 23 21 82 21 210zM412 609c0 -25 -23 -49 -54 -62c-38 -16 -111 -41 -187 -63l-4 5c49 67 82 115 109 148
c24 29 41 43 66 43c48 0 70 -21 70 -71z" />
    <glyph glyph-name="racute" unicode="&#x155;" horiz-adv-x="439" 
d="M454 366c0 -54 -39 -79 -72 -79c-44 0 -62 22 -73 58c-8 28 -9 40 -20 40c-12 0 -34 -41 -42 -120c-1 -8 -2 -41 -2 -66v-95c0 -21 1 -38 2 -51c3 -24 17 -38 29 -44c7 -3 20 -5 30 -5v-4h-294v4c7 1 17 1 25 4c8 4 19 10 26 35c4 13 5 60 5 88v199c0 18 -1 54 -3 70
c-3 19 -8 28 -17 34s-21 7 -30 8v5h223c4 0 5 -2 5 -7c0 -15 -1 -81 -1 -107h1c10 48 35 84 52 98c16 13 36 25 71 25c56 0 85 -25 85 -90zM412 609c0 -25 -23 -49 -54 -62c-38 -16 -111 -41 -187 -63l-4 5c49 67 82 115 109 148c24 29 41 43 66 43c48 0 70 -21 70 -71z" />
    <glyph glyph-name="rcaron" unicode="&#x159;" horiz-adv-x="439" 
d="M454 366c0 -54 -39 -79 -72 -79c-44 0 -62 22 -73 58c-8 28 -9 40 -20 40c-12 0 -34 -41 -42 -120c-1 -8 -2 -41 -2 -66v-95c0 -21 1 -38 2 -51c3 -24 17 -38 29 -44c7 -3 20 -5 30 -5v-4h-294v4c7 1 17 1 25 4c8 4 19 10 26 35c4 13 5 60 5 88v199c0 18 -1 54 -3 70
c-3 19 -8 28 -17 34s-21 7 -30 8v5h223c4 0 5 -2 5 -7c0 -15 -1 -81 -1 -107h1c10 48 35 84 52 98c16 13 36 25 71 25c56 0 85 -25 85 -90zM120 669l7 5l141 -89l141 89l7 -5l-110 -181h-76z" />
    <glyph glyph-name="rcommaaccent" unicode="&#x157;" horiz-adv-x="439" 
d="M454 366c0 -54 -39 -79 -72 -79c-44 0 -62 22 -73 58c-8 28 -9 40 -20 40c-12 0 -34 -41 -42 -120c-1 -8 -2 -41 -2 -66v-95c0 -21 1 -38 2 -51c3 -24 17 -38 29 -44c7 -3 20 -5 30 -5v-4h-294v4c7 1 17 1 25 4c8 4 19 10 26 35c4 13 5 60 5 88v199c0 18 -1 54 -3 70
c-3 19 -8 28 -17 34s-21 7 -30 8v5h223c4 0 5 -2 5 -7c0 -15 -1 -81 -1 -107h1c10 48 35 84 52 98c16 13 36 25 71 25c56 0 85 -25 85 -90zM227 -110c0 -81 -62 -125 -147 -145l-5 13c53 14 88 31 88 57c0 10 -4 18 -13 20c-49 9 -78 26 -78 75c0 43 43 66 72 66
c45 0 83 -32 83 -86z" />
    <glyph glyph-name="sacute" unicode="&#x15b;" horiz-adv-x="403" 
d="M388 150c0 -92 -87 -159 -183 -159c-41 0 -99 18 -128 44h-4l-43 -33h-3l-7 165h8c17 -89 99 -168 177 -168c48 0 55 19 55 59c0 42 -42 63 -97 84c-50 19 -145 62 -145 167c0 92 80 147 182 147c36 0 99 -19 117 -42h3l25 31h6l3 -136h-7c-9 38 -27 72 -53 97
c-25 24 -56 39 -91 39s-59 -14 -59 -53c0 -37 40 -60 99 -81c76 -27 145 -63 145 -161zM359 609c0 -25 -23 -49 -54 -62c-38 -16 -111 -41 -187 -63l-4 5c49 67 82 115 109 148c24 29 41 43 66 43c48 0 70 -21 70 -71z" />
    <glyph glyph-name="scedilla" unicode="&#x15f;" horiz-adv-x="403" 
d="M289 -108c0 -63 -63 -83 -121 -83c-24 0 -62 9 -78 18l4 7c13 -5 34 -9 53 -9c35 0 55 20 55 65c0 40 -18 56 -36 56c-8 0 -17 -1 -24 -10l-13 4l16 61c-27 8 -52 19 -68 34h-4l-43 -33h-3l-7 165h8c17 -89 99 -168 177 -168c48 0 55 19 55 59c0 42 -42 63 -97 84
c-50 19 -145 62 -145 167c0 92 80 147 182 147c36 0 99 -19 117 -42h3l25 31h6l3 -136h-7c-9 38 -27 72 -53 97c-25 24 -56 39 -91 39s-59 -14 -59 -53c0 -37 40 -60 99 -81c76 -27 145 -63 145 -161c0 -92 -87 -159 -183 -159c-14 0 -30 2 -46 6l-11 -46c8 7 37 15 51 15
c60 0 90 -23 90 -74z" />
    <glyph glyph-name="scircumflex" unicode="&#x15d;" horiz-adv-x="403" 
d="M388 150c0 -92 -87 -159 -183 -159c-41 0 -99 18 -128 44h-4l-43 -33h-3l-7 165h8c17 -89 99 -168 177 -168c48 0 55 19 55 59c0 42 -42 63 -97 84c-50 19 -145 62 -145 167c0 92 80 147 182 147c36 0 99 -19 117 -42h3l25 31h6l3 -136h-7c-9 38 -27 72 -53 97
c-25 24 -56 39 -91 39s-59 -14 -59 -53c0 -37 40 -60 99 -81c76 -27 145 -63 145 -161zM353 487l-7 -5l-141 89l-141 -89l-7 5l110 181h76z" />
    <glyph glyph-name="scommaaccent" unicode="&#x219;" horiz-adv-x="403" 
d="M388 150c0 -92 -87 -159 -183 -159c-41 0 -99 18 -128 44h-4l-43 -33h-3l-7 165h8c17 -89 99 -168 177 -168c48 0 55 19 55 59c0 42 -42 63 -97 84c-50 19 -145 62 -145 167c0 92 80 147 182 147c36 0 99 -19 117 -42h3l25 31h6l3 -136h-7c-9 38 -27 72 -53 97
c-25 24 -56 39 -91 39s-59 -14 -59 -53c0 -37 40 -60 99 -81c76 -27 145 -63 145 -161zM275 -110c0 -81 -62 -125 -147 -145l-5 13c53 14 88 31 88 57c0 10 -4 18 -13 20c-49 9 -78 26 -78 75c0 43 43 66 72 66c45 0 83 -32 83 -86z" />
    <glyph glyph-name="tbar" unicode="&#x167;" horiz-adv-x="344" 
d="M0 319v21h55c1 37 1 69 2 85c-17 2 -42 1 -57 3v12c111 24 188 101 214 183h22v-176h89v-22h-89l-1 -85h90v-21h-91l-2 -203c0 -36 4 -75 50 -75c26 0 46 14 58 34l4 -4c-12 -29 -57 -80 -138 -80c-48 0 -91 15 -111 34c-34 31 -42 69 -42 110c0 12 1 105 2 184h-55z" />
    <glyph glyph-name="tcaron" unicode="&#x165;" horiz-adv-x="344" 
d="M340 75l4 -4c-12 -29 -57 -80 -138 -80c-48 0 -91 15 -111 34c-34 31 -42 69 -42 110c0 20 3 241 4 290c-17 2 -42 1 -57 3v12c111 24 188 101 214 183h22v-176h89v-22h-89l-4 -309c0 -36 4 -75 50 -75c26 0 46 14 58 34zM284 486l15 198h110c-33 -55 -80 -133 -113 -198
h-12z" />
    <glyph glyph-name="tcommaaccent" unicode="&#x163;" horiz-adv-x="344" 
d="M340 75l4 -4c-12 -29 -57 -80 -138 -80c-48 0 -91 15 -111 34c-34 31 -42 69 -42 110c0 20 3 241 4 290c-17 2 -42 1 -57 3v12c111 24 188 101 214 183h22v-176h89v-22h-89l-4 -309c0 -36 4 -75 50 -75c26 0 46 14 58 34zM257 -110c0 -81 -62 -125 -147 -145l-5 13
c53 14 88 31 88 57c0 10 -4 18 -13 20c-49 9 -78 26 -78 75c0 43 43 66 72 66c45 0 83 -32 83 -86z" />
    <glyph glyph-name="ubreve" unicode="&#x16d;" horiz-adv-x="571" 
d="M566 -1l-220 -5h-2c-3 1 -4 3 -4 7v97h-3c-8 -35 -22 -60 -42 -77c-27 -22 -59 -30 -90 -30c-45 0 -82 9 -104 28c-33 30 -40 73 -40 118l-1 179c0 28 -1 76 -5 89c-8 24 -15 29 -24 33c-7 3 -18 4 -26 5v4h225c5 0 8 -1 8 -8c0 0 -1 -59 -1 -118v-219
c0 -27 4 -50 14 -60c7 -7 16 -11 26 -11c21 0 51 34 58 117c2 24 3 43 3 74v121c0 22 0 39 -2 52c-3 23 -9 37 -21 43c-7 3 -22 5 -31 5v4h225c6 0 7 -4 7 -8c0 0 -1 -52 -1 -110v-214c0 -18 1 -52 3 -68c3 -20 8 -29 17 -35s21 -7 31 -8v-5zM415 668
c-7 -96 -52 -151 -130 -151s-123 55 -130 151l8 6c25 -44 81 -71 122 -71s97 27 121 71z" />
    <glyph glyph-name="uhungarumlaut" unicode="&#x171;" horiz-adv-x="571" 
d="M566 -1l-220 -5h-2c-3 1 -4 3 -4 7v97h-3c-8 -35 -22 -60 -42 -77c-27 -22 -59 -30 -90 -30c-45 0 -82 9 -104 28c-33 30 -40 73 -40 118l-1 179c0 28 -1 76 -5 89c-8 24 -15 29 -24 33c-7 3 -18 4 -26 5v4h225c5 0 8 -1 8 -8c0 0 -1 -59 -1 -118v-219
c0 -27 4 -50 14 -60c7 -7 16 -11 26 -11c21 0 51 34 58 117c2 24 3 43 3 74v121c0 22 0 39 -2 52c-3 23 -9 37 -21 43c-7 3 -22 5 -31 5v4h225c6 0 7 -4 7 -8c0 0 -1 -52 -1 -110v-214c0 -18 1 -52 3 -68c3 -20 8 -29 17 -35s21 -7 31 -8v-5zM475 671c34 0 63 -22 63 -65
c0 -23 -18 -46 -44 -62c-34 -21 -88 -41 -157 -68l-5 4l70 139c15 28 33 52 73 52zM283 671c34 0 63 -22 63 -65c0 -23 -18 -46 -44 -62c-34 -21 -88 -41 -157 -68l-5 4l70 139c15 28 33 52 73 52z" />
    <glyph glyph-name="umacron" unicode="&#x16b;" horiz-adv-x="571" 
d="M566 -1l-220 -5h-2c-3 1 -4 3 -4 7v97h-3c-8 -35 -22 -60 -42 -77c-27 -22 -59 -30 -90 -30c-45 0 -82 9 -104 28c-33 30 -40 73 -40 118l-1 179c0 28 -1 76 -5 89c-8 24 -15 29 -24 33c-7 3 -18 4 -26 5v4h225c5 0 8 -1 8 -8c0 0 -1 -59 -1 -118v-219
c0 -27 4 -50 14 -60c7 -7 16 -11 26 -11c21 0 51 34 58 117c2 24 3 43 3 74v121c0 22 0 39 -2 52c-3 23 -9 37 -21 43c-7 3 -22 5 -31 5v4h225c6 0 7 -4 7 -8c0 0 -1 -52 -1 -110v-214c0 -18 1 -52 3 -68c3 -20 8 -29 17 -35s21 -7 31 -8v-5zM410 536h-250v62h250v-62z" />
    <glyph glyph-name="uogonek" unicode="&#x173;" horiz-adv-x="571" 
d="M566 -1l-96 -2c-111 -3 -149 -40 -149 -132c0 -52 22 -73 63 -76v-6c-129 -6 -193 21 -193 80c0 69 102 91 149 116v119h-3c-8 -35 -22 -60 -42 -77c-27 -22 -59 -30 -90 -30c-45 0 -82 9 -104 28c-33 30 -40 73 -40 118l-1 179c0 28 -1 76 -5 89c-8 24 -15 29 -24 33
c-7 3 -18 4 -26 5v4h225c5 0 8 -1 8 -8c0 0 -1 -59 -1 -118v-219c0 -27 4 -50 14 -60c7 -7 16 -11 26 -11c21 0 51 34 58 117c2 24 3 43 3 74v121c0 22 0 39 -2 52c-3 23 -9 37 -21 43c-7 3 -22 5 -31 5v4h225c6 0 7 -4 7 -8c0 0 -1 -52 -1 -110v-214c0 -18 1 -52 3 -68
c3 -20 8 -29 17 -35s21 -7 31 -8v-5z" />
    <glyph glyph-name="uring" unicode="&#x16f;" horiz-adv-x="571" 
d="M566 -1l-220 -5h-2c-3 1 -4 3 -4 7v97h-3c-8 -35 -22 -60 -42 -77c-27 -22 -59 -30 -90 -30c-45 0 -82 9 -104 28c-33 30 -40 73 -40 118l-1 179c0 28 -1 76 -5 89c-8 24 -15 29 -24 33c-7 3 -18 4 -26 5v4h225c5 0 8 -1 8 -8c0 0 -1 -59 -1 -118v-219
c0 -27 4 -50 14 -60c7 -7 16 -11 26 -11c21 0 51 34 58 117c2 24 3 43 3 74v121c0 22 0 39 -2 52c-3 23 -9 37 -21 43c-7 3 -22 5 -31 5v4h225c6 0 7 -4 7 -8c0 0 -1 -52 -1 -110v-214c0 -18 1 -52 3 -68c3 -20 8 -29 17 -35s21 -7 31 -8v-5zM380 584c1 -51 -46 -93 -96 -93
c-53 0 -96 39 -96 93s42 93 95 93c54 0 96 -38 97 -93zM345 583c0 38 -25 64 -63 64c-37 0 -62 -26 -62 -63c0 -36 25 -62 61 -62c38 0 64 22 64 61z" />
    <glyph glyph-name="utilde" unicode="&#x169;" horiz-adv-x="571" 
d="M566 -1l-220 -5h-2c-3 1 -4 3 -4 7v97h-3c-8 -35 -22 -60 -42 -77c-27 -22 -59 -30 -90 -30c-45 0 -82 9 -104 28c-33 30 -40 73 -40 118l-1 179c0 28 -1 76 -5 89c-8 24 -15 29 -24 33c-7 3 -18 4 -26 5v4h225c5 0 8 -1 8 -8c0 0 -1 -59 -1 -118v-219
c0 -27 4 -50 14 -60c7 -7 16 -11 26 -11c21 0 51 34 58 117c2 24 3 43 3 74v121c0 22 0 39 -2 52c-3 23 -9 37 -21 43c-7 3 -22 5 -31 5v4h225c6 0 7 -4 7 -8c0 0 -1 -52 -1 -110v-214c0 -18 1 -52 3 -68c3 -20 8 -29 17 -35s21 -7 31 -8v-5zM447 671
c-13 -65 -38 -147 -117 -147c-37 0 -107 25 -120 25c-39 0 -60 -12 -70 -50l-17 -1c13 65 38 147 117 147c25 0 107 -25 118 -25c39 0 63 16 72 50z" />
    <glyph glyph-name="wacute" unicode="&#x1e83;" horiz-adv-x="725" 
d="M745 443c-9 -1 -18 -3 -28 -9c-8 -5 -16 -11 -24 -23c-10 -14 -16 -34 -29 -77l-102 -337h-99l-102 331l-100 -331h-99l-97 315c-12 39 -23 70 -32 86c-11 20 -13 28 -25 36c-9 6 -19 8 -28 9v4h300v-4c-8 -1 -16 -3 -23 -8c-8 -7 -15 -19 -15 -35c0 -18 4 -34 12 -67
l41 -175h1l58 194c-7 20 -12 36 -18 47c-11 21 -15 28 -25 36c-8 7 -11 7 -19 8v4h299v-4c-9 -1 -24 -3 -33 -8c-9 -6 -15 -19 -15 -35c0 -18 4 -34 12 -67l41 -175h1l51 171c12 39 16 56 16 77c0 16 -7 23 -17 29c-9 5 -21 7 -29 8v4h127v-4zM584 609
c0 -25 -23 -49 -54 -62c-38 -16 -111 -41 -187 -63l-4 5c49 67 82 115 109 148c24 29 41 43 66 43c48 0 70 -21 70 -71z" />
    <glyph glyph-name="wcircumflex" unicode="&#x175;" horiz-adv-x="725" 
d="M745 443c-9 -1 -18 -3 -28 -9c-8 -5 -16 -11 -24 -23c-10 -14 -16 -34 -29 -77l-102 -337h-99l-102 331l-100 -331h-99l-97 315c-12 39 -23 70 -32 86c-11 20 -13 28 -25 36c-9 6 -19 8 -28 9v4h300v-4c-8 -1 -16 -3 -23 -8c-8 -7 -15 -19 -15 -35c0 -18 4 -34 12 -67
l41 -175h1l58 194c-7 20 -12 36 -18 47c-11 21 -15 28 -25 36c-8 7 -11 7 -19 8v4h299v-4c-9 -1 -24 -3 -33 -8c-9 -6 -15 -19 -15 -35c0 -18 4 -34 12 -67l41 -175h1l51 171c12 39 16 56 16 77c0 16 -7 23 -17 29c-9 5 -21 7 -29 8v4h127v-4zM578 487l-7 -5l-141 89
l-141 -89l-7 5l110 181h76z" />
    <glyph glyph-name="wdieresis" unicode="&#x1e85;" horiz-adv-x="725" 
d="M745 443c-9 -1 -18 -3 -28 -9c-8 -5 -16 -11 -24 -23c-10 -14 -16 -34 -29 -77l-102 -337h-99l-102 331l-100 -331h-99l-97 315c-12 39 -23 70 -32 86c-11 20 -13 28 -25 36c-9 6 -19 8 -28 9v4h300v-4c-8 -1 -16 -3 -23 -8c-8 -7 -15 -19 -15 -35c0 -18 4 -34 12 -67
l41 -175h1l58 194c-7 20 -12 36 -18 47c-11 21 -15 28 -25 36c-8 7 -11 7 -19 8v4h299v-4c-9 -1 -24 -3 -33 -8c-9 -6 -15 -19 -15 -35c0 -18 4 -34 12 -67l41 -175h1l51 171c12 39 16 56 16 77c0 16 -7 23 -17 29c-9 5 -21 7 -29 8v4h127v-4zM325 650c43 0 77 -36 77 -78
c0 -41 -33 -76 -77 -76c-45 0 -76 35 -76 76c0 42 33 78 76 78zM521 650c43 0 77 -36 77 -78c0 -41 -33 -76 -77 -76c-45 0 -76 35 -76 76c0 42 33 78 76 78z" />
    <glyph glyph-name="wgrave" unicode="&#x1e81;" horiz-adv-x="725" 
d="M745 443c-9 -1 -18 -3 -28 -9c-8 -5 -16 -11 -24 -23c-10 -14 -16 -34 -29 -77l-102 -337h-99l-102 331l-100 -331h-99l-97 315c-12 39 -23 70 -32 86c-11 20 -13 28 -25 36c-9 6 -19 8 -28 9v4h300v-4c-8 -1 -16 -3 -23 -8c-8 -7 -15 -19 -15 -35c0 -18 4 -34 12 -67
l41 -175h1l58 194c-7 20 -12 36 -18 47c-11 21 -15 28 -25 36c-8 7 -11 7 -19 8v4h299v-4c-9 -1 -24 -3 -33 -8c-9 -6 -15 -19 -15 -35c0 -18 4 -34 12 -67l41 -175h1l51 171c12 39 16 56 16 77c0 16 -7 23 -17 29c-9 5 -21 7 -29 8v4h127v-4zM554 489l-4 -5
c-71 23 -149 47 -187 63c-31 13 -56 39 -56 71c0 44 31 62 67 62c25 0 47 -10 71 -43z" />
    <glyph glyph-name="ycircumflex" unicode="&#x177;" horiz-adv-x="466" 
d="M498 443c-29 -3 -53 -23 -64 -42c-8 -13 -15 -27 -29 -66l-168 -439c-15 -42 -33 -62 -52 -80c-25 -23 -53 -29 -82 -29c-55 0 -100 25 -100 88c0 32 23 63 70 63c36 0 59 -20 71 -57c8 -25 3 -46 21 -46c14 0 35 19 55 72l12 31c3 8 0 19 -3 27l-139 347
c-17 46 -33 71 -41 85c-10 19 -24 28 -36 36c-9 6 -24 9 -33 10v4h322v-4c-9 -1 -19 -3 -27 -8c-10 -6 -16 -20 -16 -33c0 -18 8 -33 19 -68l49 -159h1l55 154c12 34 16 55 16 75c0 16 -8 26 -18 32c-9 5 -20 6 -29 7v4h146v-4zM436 487l-7 -5l-141 89l-141 -89l-7 5
l110 181h76z" />
    <glyph glyph-name="ygrave" unicode="&#x1ef3;" horiz-adv-x="466" 
d="M498 443c-29 -3 -53 -23 -64 -42c-8 -13 -15 -27 -29 -66l-168 -439c-15 -42 -33 -62 -52 -80c-25 -23 -53 -29 -82 -29c-55 0 -100 25 -100 88c0 32 23 63 70 63c36 0 59 -20 71 -57c8 -25 3 -46 21 -46c14 0 35 19 55 72l12 31c3 8 0 19 -3 27l-139 347
c-17 46 -33 71 -41 85c-10 19 -24 28 -36 36c-9 6 -24 9 -33 10v4h322v-4c-9 -1 -19 -3 -27 -8c-10 -6 -16 -20 -16 -33c0 -18 8 -33 19 -68l49 -159h1l55 154c12 34 16 55 16 75c0 16 -8 26 -18 32c-9 5 -20 6 -29 7v4h146v-4zM412 489l-4 -5c-71 23 -149 47 -187 63
c-31 13 -56 39 -56 71c0 44 31 62 67 62c25 0 47 -10 71 -43z" />
    <glyph glyph-name="zacute" unicode="&#x17a;" horiz-adv-x="455" 
d="M439 191l-30 -191h-407v4l212 424v4h-81c-28 0 -47 -19 -60 -40l-67 -133h-8l27 188h386v-7l-209 -424v-5h63c36 0 73 33 88 57l78 123h8zM375 609c0 -25 -23 -49 -54 -62c-38 -16 -111 -41 -187 -63l-4 5c49 67 82 115 109 148c24 29 41 43 66 43c48 0 70 -21 70 -71z
" />
    <glyph glyph-name="zdotaccent" unicode="&#x17c;" horiz-adv-x="455" 
d="M439 191l-30 -191h-407v4l212 424v4h-81c-28 0 -47 -19 -60 -40l-67 -133h-8l27 188h386v-7l-209 -424v-5h63c36 0 73 33 88 57l78 123h8zM308 584c0 -47 -36 -87 -88 -87c-51 0 -86 40 -86 87c0 48 37 89 86 89c50 0 88 -41 88 -89z" />
    <glyph glyph-name="uni0410" unicode="&#x410;" horiz-adv-x="642" 
d="M662 0h-403v6c10 1 29 6 38 10c17 7 33 24 33 50s-5 50 -17 85l-9 26h-169l-12 -34c-8 -22 -15 -49 -15 -68c0 -30 13 -51 32 -59c16 -7 30 -9 40 -10v-6h-205v6c13 2 28 6 42 15s28 23 43 44c14 20 28 47 41 82l194 515h60l150 -432c27 -77 50 -136 73 -173
c16 -25 33 -37 47 -42c12 -4 27 -8 37 -9v-6zM298 193l-75 215h-3l-79 -215h157z" />
    <glyph glyph-name="uni0411" unicode="&#x411;" horiz-adv-x="652" 
d="M433 187c0 44 -6 97 -34 125c-24 24 -48 38 -88 38h-11v-226c0 -26 2 -52 10 -72c8 -22 25 -36 47 -36c24 0 32 8 44 21c23 28 32 84 32 150zM569 657l16 -240h-6c-20 44 -54 108 -94 160c-28 36 -65 64 -113 64c-26 0 -42 -6 -54 -22c-12 -18 -18 -44 -18 -76v-174h45
c187 0 292 -57 292 -182c0 -134 -112 -187 -230 -187h-387v4c6 0 16 2 28 4c22 6 38 18 48 56c4 16 6 38 6 64v400c0 28 -2 51 -6 67c-10 36 -26 48 -48 54c-8 2 -22 4 -28 4v4h549z" />
    <glyph glyph-name="uni0412" unicode="&#x412;" horiz-adv-x="674" 
d="M652 184c0 -134 -112 -184 -230 -184h-402v4c6 0 16 2 28 4c22 6 38 18 48 56c4 16 6 38 6 64v400c0 28 -2 51 -6 67c-10 36 -26 48 -48 54c-8 2 -22 4 -28 4v4h390c108 0 212 -29 212 -149c0 -82 -36 -122 -119 -142c-22 -5 -47 -9 -75 -12v-2c138 -8 224 -68 224 -168z
M448 184c0 44 -6 94 -34 122c-24 24 -58 38 -98 38h-16v-220c0 -26 2 -52 10 -72c8 -22 28 -36 50 -36h10c19 0 34 8 46 21c23 28 32 81 32 147zM438 510c0 100 -38 133 -82 133h-12c-20 0 -32 -10 -40 -30c-4 -12 -4 -26 -4 -48v-205h24c44 0 72 6 90 30
c20 28 24 86 24 120z" />
    <glyph glyph-name="uni0413" unicode="&#x413;" horiz-adv-x="558" 
d="M374 4v-4h-354v4c19 3 40 7 53 17c28 22 29 71 29 109v399c0 26 -2 50 -6 66c-10 36 -26 46 -48 52c-12 3 -22 4 -28 4v6h516l17 -251h-7c-24 44 -52 105 -74 145c-30 56 -63 89 -104 89c-11 0 -25 -1 -40 -9c-20 -11 -32 -30 -32 -71v-430c0 -38 3 -87 31 -109
c13 -10 28 -14 47 -17z" />
    <glyph glyph-name="uni0414" unicode="&#x414;" horiz-adv-x="675" 
d="M437 0h-219c-47 0 -80 -17 -106 -55c-40 -56 -68 -97 -106 -164h-6l6 236h37c40 0 67 29 83 112c14 73 27 188 37 361c6 92 -4 118 -18 135c-18 21 -43 28 -63 28v4h556v-4c-19 -3 -40 -7 -53 -17c-28 -22 -29 -71 -29 -109v-397c0 -38 1 -74 29 -96
c13 -10 35 -17 59 -17h5l6 -236h-6c-38 67 -66 108 -106 164c-26 38 -59 55 -106 55zM330 26c17 10 30 34 30 71v463c0 37 -13 61 -30 71s-48 9 -62 9c-21 0 -45 -6 -55 -16c-13 -13 -19 -34 -20 -59c-12 -210 -22 -341 -39 -439c-11 -57 -28 -90 -50 -109h185
c14 0 30 2 41 9z" />
    <glyph glyph-name="uni0415" unicode="&#x415;" horiz-adv-x="632" 
d="M592 280l-6 -280h-566v4c6 0 16 3 28 6c22 6 38 16 48 54c4 16 6 38 6 66v399c0 26 -2 50 -6 66c-10 36 -26 46 -48 52c-12 3 -22 4 -28 4v6h550l16 -240h-6c-20 44 -54 108 -94 160c-28 36 -70 64 -110 64h-8c-26 0 -42 -6 -54 -22c-12 -18 -18 -44 -18 -76v-194h34
c58 0 62 2 82 22c26 24 58 90 62 122h6v-303h-6c-4 32 -32 94 -58 116c-18 14 -28 27 -86 27h-34v-201c0 -36 3 -66 18 -86s36 -30 64 -30h16c26 0 60 18 86 56c40 56 84 142 106 208h6z" />
    <glyph glyph-name="uni0416" unicode="&#x416;" horiz-adv-x="994" 
d="M744 465c-12 -86 -37 -111 -65 -125v-3c131 0 171 -66 207 -171c19 -55 36 -82 63 -82c23 0 35 10 46 35l9 -5c-19 -71 -68 -129 -153 -129c-104 0 -143 72 -159 166c-6 36 -12 80 -15 102c-9 54 -25 74 -64 74h-18v-197c0 -38 1 -87 29 -109c13 -10 28 -14 47 -17v-4
h-348v4c19 3 34 7 47 17c28 22 29 71 29 109v197h-18c-39 0 -55 -20 -64 -74c-3 -22 -9 -66 -15 -102c-16 -94 -55 -166 -159 -166c-85 0 -134 58 -153 129l9 5c11 -25 23 -35 46 -35c27 0 44 27 63 82c36 105 76 171 207 171v3c-33 17 -53 39 -64 117c-9 71 -18 90 -38 90
c-29 0 -32 -56 -97 -56c-55 0 -87 41 -87 90c0 51 37 89 98 89c91 0 129 -68 142 -190c11 -100 39 -134 100 -134h30v181c0 38 -1 87 -29 109c-13 10 -28 14 -47 17v4h348v-4c-19 -3 -34 -7 -47 -17c-28 -22 -29 -71 -29 -109v-181h30c61 0 89 34 100 134
c13 122 56 190 132 190c75 0 108 -38 108 -89c0 -49 -32 -90 -87 -90c-65 0 -68 56 -97 56c-20 0 -28 -15 -37 -82z" />
    <glyph glyph-name="uni0417" unicode="&#x417;" horiz-adv-x="543" 
d="M230 649c-74 0 -124 -75 -156 -223h-7v227h5l33 -60h4c26 49 72 77 146 77c123 0 238 -42 238 -162c0 -121 -90 -143 -194 -154v-3c138 -8 224 -67 224 -167c0 -134 -124 -198 -290 -198c-149 0 -213 82 -213 147c0 45 30 85 80 85c55 0 87 -35 87 -85
c0 -48 -26 -64 -26 -90s23 -37 60 -37c71 0 98 73 98 178c0 44 -6 94 -34 122c-24 24 -58 38 -98 38h-16v16h24c44 0 72 6 90 30c20 28 24 86 24 120c0 100 -28 139 -79 139z" />
    <glyph glyph-name="uni0418" unicode="&#x418;" horiz-adv-x="788" 
d="M461 636c-13 10 -28 14 -47 17v4h354v-4c-19 -3 -40 -7 -53 -17c-28 -22 -29 -71 -29 -109v-397c0 -38 1 -87 29 -109c13 -10 34 -14 53 -17v-4h-354v4c19 3 34 7 47 17c28 22 29 71 29 109v384l-190 -433c3 -24 10 -47 27 -60c13 -10 28 -14 47 -17v-4h-354v4
c19 3 40 7 53 17c28 22 29 71 29 109v397c0 38 -1 87 -29 109c-13 10 -34 14 -53 17v4h354v-4c-19 -3 -34 -7 -47 -17c-28 -22 -29 -71 -29 -109v-387l190 434c-3 25 -10 48 -27 62z" />
    <glyph glyph-name="uni0419" unicode="&#x419;" horiz-adv-x="788" 
d="M461 636c-13 10 -28 14 -47 17v4h354v-4c-19 -3 -40 -7 -53 -17c-28 -22 -29 -71 -29 -109v-397c0 -38 1 -87 29 -109c13 -10 34 -14 53 -17v-4h-354v4c19 3 34 7 47 17c28 22 29 71 29 109v384l-190 -433c3 -24 10 -47 27 -60c13 -10 28 -14 47 -17v-4h-354v4
c19 3 40 7 53 17c28 22 29 71 29 109v397c0 38 -1 87 -29 109c-13 10 -34 14 -53 17v4h354v-4c-19 -3 -34 -7 -47 -17c-28 -22 -29 -71 -29 -109v-387l190 434c-3 25 -10 48 -27 62zM389 706c-92 0 -208 40 -208 129c0 42 27 78 73 78c50 0 80 -32 80 -78
c0 -50 -30 -58 -30 -79c0 -24 47 -34 85 -34s85 10 85 34c0 21 -30 29 -30 79c0 46 30 78 80 78c46 0 73 -36 73 -78c0 -89 -116 -129 -208 -129z" />
    <glyph glyph-name="uni041A" unicode="&#x41a;" horiz-adv-x="692" 
d="M448 470c-11 -83 -33 -114 -66 -130v-3c131 0 171 -66 207 -171c19 -55 36 -82 63 -82c23 0 35 10 46 35l9 -5c-19 -71 -68 -129 -153 -129c-104 0 -143 72 -159 166c-6 36 -12 80 -15 102c-9 54 -25 74 -64 74h-18v-197c0 -28 2 -50 6 -66c10 -38 26 -48 46 -54
c12 -4 20 -4 24 -4v-6h-354v6c6 0 16 1 28 4c22 6 38 16 48 54c4 16 6 38 6 66v397c0 28 -2 52 -6 68c-10 36 -24 43 -48 52c-12 4 -22 6 -28 6v4h354v-4c-8 -1 -14 -2 -24 -6c-20 -8 -36 -16 -46 -52c-4 -16 -6 -40 -6 -68v-181h30c61 0 85 35 99 124
c20 135 62 200 144 200c65 0 98 -38 98 -89c0 -49 -32 -90 -87 -90c-65 0 -68 56 -97 56c-20 0 -30 -26 -37 -77z" />
    <glyph glyph-name="uni041B" unicode="&#x41b;" horiz-adv-x="680" 
d="M300 640c-48 0 -65 -31 -67 -75c-12 -210 -21 -341 -39 -439c-17 -99 -54 -135 -109 -135c-71 0 -103 42 -104 85c-1 54 32 89 86 89c56 0 62 -31 85 -31c24 0 34 42 53 356c6 92 -4 118 -18 135c-18 21 -43 28 -63 28v4h536v-4c-19 -3 -40 -7 -53 -17
c-28 -22 -29 -71 -29 -109v-397c0 -38 1 -87 29 -109c13 -10 34 -14 53 -17v-4h-354v4c19 3 34 7 47 17c28 22 29 71 29 109v430c0 37 -13 61 -30 71s-38 9 -52 9z" />
    <glyph glyph-name="uni041C" unicode="&#x41c;" horiz-adv-x="811" 
d="M791 0h-362v4c6 0 14 1 28 4c22 5 38 18 48 56c4 16 6 38 6 66v415h-4l-148 -547h-54l-174 527h-4v-353c0 -64 11 -96 20 -120c9 -22 26 -36 42 -42l34 -6v-4h-208v4l34 6c16 6 33 20 42 42c9 24 18 56 18 120v271c0 72 -4 128 -16 158c-8 22 -27 39 -48 45
c-10 3 -15 3 -28 5v6h292l110 -356h4l96 356h272v-6c-6 0 -16 -1 -30 -4c-20 -5 -38 -16 -46 -52c-4 -16 -8 -40 -8 -66v-399c0 -28 4 -50 8 -66c8 -38 26 -52 46 -56c14 -3 24 -4 30 -4v-4z" />
    <glyph glyph-name="uni041D" unicode="&#x41d;" horiz-adv-x="778" 
d="M20 0v6c6 0 14 0 28 4c22 4 38 16 48 54c4 16 6 38 6 66v397c0 28 -2 52 -6 68c-10 36 -26 47 -48 52c-14 3 -22 6 -28 6v4h354v-4c-6 0 -14 -2 -24 -6c-20 -8 -36 -16 -46 -52c-4 -16 -6 -40 -6 -68v-185h182v185c0 28 -2 52 -6 68c-10 36 -25 44 -45 52
c-8 4 -19 6 -25 6v4h354v-4c-6 0 -16 -3 -28 -6c-22 -6 -38 -16 -48 -52c-4 -16 -6 -40 -6 -68v-397c0 -28 2 -50 6 -66c10 -38 26 -48 48 -54c12 -3 22 -4 28 -4v-6h-354v6c4 0 12 1 22 4c22 7 38 16 48 54c4 16 6 38 6 66v188h-182v-188c0 -28 2 -50 6 -66
c10 -38 26 -48 46 -54c12 -4 20 -4 24 -4v-6h-354z" />
    <glyph glyph-name="uni041E" unicode="&#x41e;" horiz-adv-x="707" 
d="M677 329c0 -217 -127 -343 -324 -343c-196 0 -323 126 -323 343c0 216 127 341 323 341c197 0 324 -125 324 -341zM467 329c0 193 -27 279 -63 312c-14 12 -34 14 -51 14c-16 0 -36 -2 -50 -14c-36 -33 -63 -119 -63 -312c0 -194 27 -282 63 -314c14 -12 34 -14 50 -14
c17 0 37 2 51 14c36 32 63 120 63 314z" />
    <glyph glyph-name="uni041F" unicode="&#x41f;" horiz-adv-x="784" 
d="M20 653v4h744v-4c-19 -3 -40 -7 -53 -17c-28 -22 -29 -71 -29 -109v-397c0 -38 1 -87 29 -109c13 -10 34 -14 53 -17v-4h-354v4c19 3 34 7 47 17c28 22 29 71 29 109v430c0 37 -13 61 -30 71s-38 9 -65 9c-24 0 -46 -1 -61 -9c-20 -11 -32 -30 -32 -71v-430
c0 -38 1 -87 29 -109c13 -10 28 -14 47 -17v-4h-354v4c19 3 40 7 53 17c28 22 29 71 29 109v397c0 38 -1 87 -29 109c-13 10 -34 14 -53 17z" />
    <glyph glyph-name="uni0420" unicode="&#x420;" horiz-adv-x="674" 
d="M664 475c0 -61 -32 -122 -78 -148c-43 -24 -103 -45 -227 -45c-17 0 -30 2 -50 5v-53c0 -72 3 -143 15 -180c8 -24 25 -37 46 -44c9 -3 28 -5 37 -6v-4h-387v5c9 1 22 2 31 5c21 7 38 22 46 45c12 37 15 107 15 179v190c0 71 -3 141 -15 178c-8 23 -25 37 -46 44
c-9 3 -22 4 -31 5v6h383c170 0 261 -52 261 -182zM460 478c0 110 -34 162 -86 162c-15 0 -24 -3 -36 -9c-15 -8 -21 -22 -25 -39c-3 -17 -4 -33 -4 -70v-216c18 -5 29 -8 48 -8c46 0 63 9 80 40c16 31 23 107 23 140z" />
    <glyph glyph-name="uni0421" unicode="&#x421;" horiz-adv-x="640" 
d="M625 208c-30 -127 -138 -223 -255 -223c-157 0 -341 75 -341 344s193 342 350 342c83 0 156 -29 182 -78h4l33 60h5v-227h-7c-31 137 -93 229 -209 229c-39 0 -76 -16 -95 -41c-34 -44 -52 -132 -52 -285s25 -217 81 -268c19 -17 53 -30 101 -30c74 0 147 61 186 185z
" />
    <glyph glyph-name="uni0422" unicode="&#x422;" horiz-adv-x="595" 
d="M590 405h-7c-24 44 -52 105 -74 145c-30 56 -65 90 -104 90h-8l-1 -510c0 -27 3 -50 7 -66c10 -37 26 -50 47 -55c13 -3 22 -4 28 -4v-5h-360v5c6 0 14 1 27 4c22 5 39 18 49 55c4 16 6 39 6 66v510h-12c-38 0 -62 -24 -99 -84c-27 -45 -53 -107 -76 -151h-8l17 252h551z
" />
    <glyph glyph-name="uni0423" unicode="&#x423;" horiz-adv-x="617" 
d="M220 19c32 0 70 36 101 94l-204 419c-34 70 -52 99 -127 120v5h402v-5c-43 -2 -61 -24 -61 -56c0 -21 8 -47 21 -74l84 -171l65 156c12 30 21 55 21 78c0 48 -36 66 -73 68l-1 4h203l1 -4c-67 -12 -94 -71 -127 -148l-127 -293c-56 -130 -109 -226 -207 -226
c-64 0 -143 37 -143 125c0 58 35 92 88 92c56 0 84 -42 84 -86c0 -46 -22 -56 -22 -80c0 -9 7 -18 22 -18z" />
    <glyph glyph-name="uni0424" unicode="&#x424;" horiz-adv-x="937" 
d="M649 -10h-362v6c6 0 16 1 28 4c22 6 37 17 48 54c2 6 3 13 4 22c-207 1 -347 97 -347 283c0 185 139 280 344 281c0 2 -1 3 -1 5c-11 35 -26 46 -48 52c-12 3 -17 5 -28 6v4h362v-4l-28 -6c-22 -6 -38 -16 -48 -52l-2 -5c206 -1 346 -96 346 -281
c0 -187 -140 -283 -348 -283c1 -9 2 -16 4 -22c10 -38 26 -48 48 -54c12 -3 22 -4 28 -4v-6zM567 120c0 -12 0 -23 1 -32v2c75 0 143 111 143 269c0 169 -67 266 -142 268c-2 -14 -2 -31 -2 -48v-459zM226 359c0 -158 67 -269 142 -269c1 9 1 19 1 30v459c0 17 0 34 -2 48
c-74 -2 -141 -100 -141 -268z" />
    <glyph glyph-name="uni0425" unicode="&#x425;" horiz-adv-x="654" 
d="M304 135l-56 114l-65 -99c-25 -35 -37 -66 -37 -92c0 -22 10 -39 28 -46c9 -4 25 -7 35 -8v-4h-203v4c10 1 23 4 34 11c21 13 30 22 40 33c16 17 52 66 79 104l80 117l-127 263c-34 70 -52 99 -127 120v5h402v-5c-43 -2 -61 -24 -61 -56c0 -21 8 -47 21 -74l56 -116
l61 101c22 37 37 66 37 92c0 38 -30 52 -63 54v4h203v-4c-69 -12 -99 -75 -153 -148l-75 -119l124 -255c34 -70 73 -109 127 -126v-5h-402v5c50 3 68 21 68 48c0 23 -12 52 -26 82z" />
    <glyph glyph-name="uni0426" unicode="&#x426;" horiz-adv-x="784" 
d="M20 0v4c19 3 40 7 53 17c28 22 29 71 29 109v397c0 38 -1 87 -29 109c-13 10 -34 14 -53 17v4h354v-4c-19 -3 -34 -7 -47 -17c-28 -22 -29 -71 -29 -109v-430c0 -41 12 -60 32 -71c15 -8 37 -9 61 -9c27 0 48 -1 65 9s30 34 30 71v430c0 38 -1 87 -29 109
c-13 10 -28 14 -47 17v4h354v-4c-19 -3 -40 -7 -53 -17c-28 -22 -29 -71 -29 -109v-397c0 -38 1 -74 29 -96c13 -10 34 -14 53 -17v-17c0 -109 -20 -219 -209 -219h-178c-59 0 -77 -23 -66 -55l-7 -4c-30 29 -43 60 -43 89c0 83 63 126 168 126c85 0 134 -7 209 -7
c71 0 112 1 112 70h-730z" />
    <glyph glyph-name="uni0427" unicode="&#x427;" horiz-adv-x="749" 
d="M451 269v258c0 38 -2 89 -29 109c-13 10 -23 14 -42 17v4h349v-4c-19 -3 -40 -7 -53 -17c-28 -22 -29 -71 -29 -109v-397c0 -38 1 -87 29 -109c13 -10 34 -14 53 -17v-4h-354v4c19 3 34 7 47 17c28 22 29 71 29 109v121c-33 -17 -80 -34 -150 -34c-75 0 -143 17 -182 83
c-25 42 -31 105 -31 173v54c0 38 0 91 -25 109c-13 10 -34 14 -53 17v4h342v-4c-19 -3 -31 -6 -43 -17c-23 -22 -25 -71 -25 -109v-138c0 -82 21 -135 95 -135c23 0 48 4 72 15z" />
    <glyph glyph-name="uni0428" unicode="&#x428;" horiz-adv-x="1138" 
d="M667 527v-430c0 -41 12 -60 32 -71c14 -8 34 -9 54 -9c22 0 44 1 57 9c17 10 30 34 30 71v430c0 38 -1 87 -29 109c-13 10 -28 14 -47 17v4h354v-4c-19 -3 -40 -7 -53 -17c-28 -22 -29 -71 -29 -109v-397c0 -38 1 -87 29 -109c13 -10 34 -14 53 -17v-4h-1098v4
c19 3 40 7 53 17c28 22 29 71 29 109v397c0 38 -1 87 -29 109c-13 10 -34 14 -53 17v4h354v-4c-19 -3 -34 -7 -47 -17c-28 -22 -29 -71 -29 -109v-430c0 -41 12 -60 32 -71c14 -7 34 -9 54 -9c22 0 43 1 57 9c17 10 30 34 30 71v430c0 38 -1 87 -29 109
c-13 10 -28 14 -47 17v4h354v-4c-19 -3 -40 -7 -53 -17c-28 -22 -29 -71 -29 -109z" />
    <glyph glyph-name="uni0429" unicode="&#x429;" horiz-adv-x="1138" 
d="M667 527v-430c0 -41 12 -60 32 -71c14 -8 34 -9 54 -9c22 0 44 1 57 9c17 10 30 34 30 71v430c0 38 -1 87 -29 109c-13 10 -28 14 -47 17v4h354v-4c-19 -3 -40 -7 -53 -17c-28 -22 -29 -71 -29 -109v-397c0 -38 1 -77 29 -99c13 -10 31 -14 53 -17v-14
c0 -109 -20 -219 -209 -219h-178c-59 0 -77 -23 -66 -55l-7 -4c-30 29 -43 60 -43 89c0 83 72 126 183 126c85 0 119 -7 194 -7c71 0 112 1 112 70h-1084v4c19 3 40 7 53 17c28 22 29 71 29 109v397c0 38 -1 87 -29 109c-13 10 -34 14 -53 17v4h354v-4
c-19 -3 -34 -7 -47 -17c-28 -22 -29 -71 -29 -109v-430c0 -41 12 -60 32 -71c14 -7 34 -9 54 -9c22 0 43 1 57 9c17 10 30 34 30 71v430c0 38 -1 87 -29 109c-13 10 -28 14 -47 17v4h354v-4c-19 -3 -40 -7 -53 -17c-28 -22 -29 -71 -29 -109z" />
    <glyph glyph-name="uni042A" unicode="&#x42a;" horiz-adv-x="737" 
d="M380 528v-136h51c154 0 301 -38 301 -198c0 -149 -112 -194 -230 -194h-402v4c6 0 16 2 28 4c22 6 38 18 48 56c4 16 6 38 6 64v512h-9c-38 0 -62 -24 -99 -84c-27 -45 -53 -107 -76 -151h-8l17 252h447v-4c-19 -3 -34 -7 -47 -17c-27 -22 -27 -70 -27 -108zM528 196
c0 63 -7 111 -34 140c-27 28 -58 38 -98 38h-16v-250c0 -26 2 -52 10 -72c8 -22 28 -36 55 -36c24 0 39 8 51 21c23 28 32 85 32 159z" />
    <glyph glyph-name="uni042B" unicode="&#x42b;" horiz-adv-x="996" 
d="M448 196c0 63 -7 111 -34 140c-27 28 -58 38 -98 38h-16v-250c0 -26 2 -52 10 -72c8 -22 28 -36 55 -36c24 0 39 8 51 21c23 28 32 85 32 159zM300 528v-136h51c154 0 301 -38 301 -198c0 -149 -112 -194 -230 -194h-402v4c6 0 16 2 28 4c22 6 38 18 48 56
c4 16 6 38 6 64v399c0 38 -1 87 -29 109c-13 10 -34 14 -53 17v4h354v-4c-19 -3 -34 -7 -47 -17c-27 -22 -27 -70 -27 -108zM978 0h-362v6c6 0 16 1 28 4c22 6 37 17 48 54c5 16 6 38 6 66v399c0 26 -1 50 -6 66c-11 35 -26 46 -48 52c-12 3 -17 5 -28 6v4h362v-4l-28 -6
c-22 -6 -38 -16 -48 -52c-4 -16 -6 -40 -6 -66v-399c0 -28 2 -50 6 -66c10 -38 26 -48 48 -54c12 -3 22 -4 28 -4v-6z" />
    <glyph glyph-name="uni042C" unicode="&#x42c;" horiz-adv-x="657" 
d="M448 196c0 63 -7 111 -34 140c-27 28 -58 38 -98 38h-16v-250c0 -26 2 -52 10 -72c8 -22 28 -36 55 -36c24 0 39 8 51 21c23 28 32 85 32 159zM300 528v-136h51c154 0 301 -38 301 -198c0 -149 -112 -194 -230 -194h-402v4c6 0 16 2 28 4c22 6 38 18 48 56
c4 16 6 38 6 64v399c0 38 -1 87 -29 109c-13 10 -34 14 -53 17v4h354v-4c-19 -3 -34 -7 -47 -17c-27 -22 -27 -70 -27 -108z" />
    <glyph glyph-name="uni042D" unicode="&#x42d;" horiz-adv-x="640" 
d="M245 -15c-157 0 -225 83 -225 148c0 45 30 85 80 85c55 0 87 -35 87 -85c0 -48 -26 -64 -26 -90s23 -37 60 -37c113 0 167 119 176 286c-2 7 -9 12 -20 12c-36 0 -61 -50 -132 -54c-98 -6 -140 70 -135 157l7 2c15 -46 60 -53 109 -25c76 43 151 26 173 -59v18
c0 202 -35 311 -154 311c-109 0 -162 -88 -187 -228h-7v227h5l33 -60h4c36 47 93 77 175 77c201 0 342 -131 342 -324c0 -240 -159 -361 -365 -361z" />
    <glyph glyph-name="uni042E" unicode="&#x42e;" horiz-adv-x="1048" 
d="M1018 329c0 -217 -127 -343 -324 -343c-193 0 -319 122 -323 332h-73v-188c0 -38 1 -87 29 -109c13 -10 28 -14 47 -17v-4h-354v4c19 3 40 7 53 17c28 22 29 71 29 109v397c0 38 -1 87 -29 109c-13 10 -34 14 -53 17v4h354v-4c-19 -3 -34 -7 -47 -17
c-28 -22 -29 -71 -29 -109v-185h73c5 208 131 328 323 328c197 0 324 -125 324 -341zM808 329c0 193 -27 279 -63 312c-14 12 -34 14 -51 14c-16 0 -36 -2 -50 -14c-36 -33 -63 -119 -63 -312c0 -194 27 -282 63 -314c14 -12 34 -14 50 -14c17 0 37 2 51 14
c36 32 63 120 63 314z" />
    <glyph glyph-name="uni042F" unicode="&#x42f;" horiz-adv-x="725" 
d="M320 171c-18 -114 -58 -186 -162 -186c-85 0 -134 58 -153 129l9 5c11 -25 23 -35 46 -35c27 0 45 28 64 94c21 74 61 117 152 126v3c-49 5 -93 17 -126 39c-40 27 -65 69 -65 132c0 120 91 179 246 179h374v-6c-6 0 -14 -2 -27 -5c-22 -5 -38 -17 -48 -53
c-4 -16 -7 -39 -7 -66v-397c0 -27 1 -50 5 -66c9 -37 27 -49 48 -54c13 -3 22 -5 29 -5v-5h-366v5c6 0 18 2 31 5c21 5 38 17 47 54c4 16 9 39 9 66v166h-34c-39 0 -55 -20 -72 -125zM426 315v256c0 16 -1 37 -7 49c-8 14 -20 21 -46 21c-49 0 -68 -60 -68 -160
c0 -42 5 -103 21 -133c12 -23 36 -33 69 -33h31z" />
    <glyph glyph-name="uni0401" unicode="&#x401;" horiz-adv-x="632" 
d="M592 280l-6 -280h-566v4c6 0 16 3 28 6c22 6 38 16 48 54c4 16 6 38 6 66v399c0 26 -2 50 -6 66c-10 36 -26 46 -48 52c-12 3 -22 4 -28 4v6h550l16 -240h-6c-20 44 -54 108 -94 160c-28 36 -70 64 -110 64h-8c-26 0 -42 -6 -54 -22c-12 -18 -18 -44 -18 -76v-194h34
c58 0 62 2 82 22c26 24 58 90 62 122h6v-303h-6c-4 32 -32 94 -58 116c-18 14 -28 27 -86 27h-34v-201c0 -36 3 -66 18 -86s36 -30 64 -30h16c26 0 60 18 86 56c40 56 84 142 106 208h6zM208 854c43 0 77 -36 77 -78c0 -41 -33 -76 -77 -76c-45 0 -76 35 -76 76
c0 42 33 78 76 78zM444 854c43 0 77 -36 77 -78c0 -41 -33 -76 -77 -76c-45 0 -76 35 -76 76c0 42 33 78 76 78z" />
    <glyph glyph-name="uni0451" unicode="&#x451;" horiz-adv-x="465" 
d="M454 238h-246c0 -143 24 -178 46 -202c9 -9 36 -20 53 -20c69 0 119 80 133 132l10 -3c-18 -79 -77 -154 -196 -154c-46 0 -96 13 -138 39c-55 35 -96 96 -96 193c0 170 129 233 237 233c135 0 200 -94 198 -199c0 -6 0 -13 -1 -19zM302 284c0 65 -3 123 -19 148
c-6 9 -13 12 -23 12s-22 -3 -30 -13c-16 -21 -21 -71 -22 -179h68c19 0 26 6 26 32zM151 650c43 0 77 -36 77 -78c0 -41 -33 -76 -77 -76c-45 0 -76 35 -76 76c0 42 33 78 76 78zM347 650c43 0 77 -36 77 -78c0 -41 -33 -76 -77 -76c-45 0 -76 35 -76 76c0 42 33 78 76 78z
" />
    <glyph glyph-name="uni0430" unicode="&#x430;" horiz-adv-x="499" 
d="M502 25c-11 -13 -58 -34 -128 -34c-44 0 -71 13 -87 34c-8 11 -13 28 -14 43h-2c-11 -63 -67 -77 -128 -77c-59 0 -118 34 -118 121c0 38 13 55 27 72c22 26 81 38 104 44c96 24 110 52 110 93c0 27 1 54 1 69c0 45 -11 54 -46 54c-30 0 -39 -13 -39 -22
c0 -13 10 -39 10 -64c0 -50 -21 -73 -69 -73c-44 0 -71 21 -71 64c0 17 7 35 16 47c26 35 94 60 165 60c135 0 204 -42 204 -145c0 -33 1 -141 1 -203c0 -45 2 -63 10 -73c6 -8 13 -12 27 -12c10 0 18 2 27 7v-5zM265 273c-8 -13 -14 -17 -25 -26c-14 -11 -21 -20 -29 -42
c-7 -19 -8 -62 -8 -96c0 -58 13 -77 32 -77c13 0 29 29 29 75z" />
    </font>
</defs>
</svg>
